<?xml version="1.0" encoding="utf-8" standalone="no"?>
<!DOCTYPE svg PUBLIC "-//W3C//DTD SVG 1.1//EN"
  "http://www.w3.org/Graphics/SVG/1.1/DTD/svg11.dtd">
<svg xmlns:xlink="http://www.w3.org/1999/xlink" width="646.717188pt" height="482.517187pt" viewBox="0 0 646.717188 482.517187" xmlns="http://www.w3.org/2000/svg" version="1.1">
 <metadata>
  <rdf:RDF xmlns:dc="http://purl.org/dc/elements/1.1/" xmlns:cc="http://creativecommons.org/ns#" xmlns:rdf="http://www.w3.org/1999/02/22-rdf-syntax-ns#">
   <cc:Work>
    <dc:type rdf:resource="http://purl.org/dc/dcmitype/StillImage"/>
    <dc:date>2024-12-14T12:42:36.857602</dc:date>
    <dc:format>image/svg+xml</dc:format>
    <dc:creator>
     <cc:Agent>
      <dc:title>Matplotlib v3.9.2, https://matplotlib.org/</dc:title>
     </cc:Agent>
    </dc:creator>
   </cc:Work>
  </rdf:RDF>
 </metadata>
 <defs>
  <style type="text/css">*{stroke-linejoin: round; stroke-linecap: butt}</style>
 </defs>
 <g id="figure_1">
  <g id="patch_1">
   <path d="M 0 482.517187 
L 646.717188 482.517187 
L 646.717188 0 
L 0 0 
L 0 482.517187 
z
" style="fill: none"/>
  </g>
  <g id="axes_1">
   <g id="patch_2">
    <path d="M 25.717188 208.8 
L 639.517188 208.8 
L 639.517188 7.2 
L 25.717188 7.2 
L 25.717188 208.8 
z
" style="fill: none"/>
   </g>
   <g id="PathCollection_1">
    <defs>
     <path id="m8e8ff0e2c6" d="M 0 4.1833 
C 1.109424 4.1833 2.173559 3.742521 2.95804 2.95804 
C 3.742521 2.173559 4.1833 1.109424 4.1833 0 
C 4.1833 -1.109424 3.742521 -2.173559 2.95804 -2.95804 
C 2.173559 -3.742521 1.109424 -4.1833 0 -4.1833 
C -1.109424 -4.1833 -2.173559 -3.742521 -2.95804 -2.95804 
C -3.742521 -2.173559 -4.1833 -1.109424 -4.1833 0 
C -4.1833 1.109424 -3.742521 2.173559 -2.95804 2.95804 
C -2.173559 3.742521 -1.109424 4.1833 0 4.1833 
z
" style="stroke: #ffff00"/>
    </defs>
    <g>
     <use xlink:href="#m8e8ff0e2c6" x="158.010887" y="208.8" style="fill: #ffff00; stroke: #ffff00"/>
    </g>
   </g>
   <g id="PathCollection_2">
    <path d="M 284.513739 212.9833 
C 285.623163 212.9833 286.687298 212.542521 287.471779 211.75804 
C 288.25626 210.973559 288.697039 209.909424 288.697039 208.8 
C 288.697039 207.690576 288.25626 206.626441 287.471779 205.84196 
C 286.687298 205.057479 285.623163 204.6167 284.513739 204.6167 
C 283.404315 204.6167 282.340181 205.057479 281.555699 205.84196 
C 280.771218 206.626441 280.330439 207.690576 280.330439 208.8 
C 280.330439 209.909424 280.771218 210.973559 281.555699 211.75804 
C 282.340181 212.542521 283.404315 212.9833 284.513739 212.9833 
L 284.513739 212.9833 
z
" style="fill: none; stroke: #ffff00"/>
   </g>
   <g id="matplotlib.axis_1">
    <g id="xtick_1">
     <g id="text_1">
      <!-- $x_0$ -->
      <g style="fill: #ffff00" transform="translate(286.860291 223.398437) scale(0.1 -0.1)">
       <defs>
        <path id="DejaVuSans-Oblique-78" d="M 3841 3500 
L 2234 1784 
L 3219 0 
L 2559 0 
L 1819 1388 
L 531 0 
L -166 0 
L 1556 1844 
L 641 3500 
L 1300 3500 
L 1972 2234 
L 3144 3500 
L 3841 3500 
z
" transform="scale(0.015625)"/>
        <path id="DejaVuSans-30" d="M 2034 4250 
Q 1547 4250 1301 3770 
Q 1056 3291 1056 2328 
Q 1056 1369 1301 889 
Q 1547 409 2034 409 
Q 2525 409 2770 889 
Q 3016 1369 3016 2328 
Q 3016 3291 2770 3770 
Q 2525 4250 2034 4250 
z
M 2034 4750 
Q 2819 4750 3233 4129 
Q 3647 3509 3647 2328 
Q 3647 1150 3233 529 
Q 2819 -91 2034 -91 
Q 1250 -91 836 529 
Q 422 1150 422 2328 
Q 422 3509 836 4129 
Q 1250 4750 2034 4750 
z
" transform="scale(0.015625)"/>
       </defs>
       <use xlink:href="#DejaVuSans-Oblique-78" transform="translate(0 0.3125)"/>
       <use xlink:href="#DejaVuSans-30" transform="translate(59.179688 -16.09375) scale(0.7)"/>
      </g>
     </g>
    </g>
    <g id="text_2">
     <!-- $x$ -->
     <g style="fill: #ffff00" transform="translate(622.741188 230.277656) scale(0.15 -0.15)">
      <use xlink:href="#DejaVuSans-Oblique-78" transform="translate(0 0.3125)"/>
     </g>
    </g>
   </g>
   <g id="matplotlib.axis_2">
    <g id="ytick_1"/>
    <g id="ytick_2"/>
    <g id="ytick_3"/>
    <g id="ytick_4"/>
    <g id="ytick_5"/>
    <g id="ytick_6"/>
    <g id="text_3">
     <!-- $f(x)$ -->
     <g style="fill: #ffff00" transform="translate(18.597656 120.975) rotate(-90) scale(0.15 -0.15)">
      <defs>
       <path id="DejaVuSans-Oblique-66" d="M 3059 4863 
L 2969 4384 
L 2419 4384 
Q 2106 4384 1964 4261 
Q 1822 4138 1753 3809 
L 1691 3500 
L 2638 3500 
L 2553 3053 
L 1606 3053 
L 1013 0 
L 434 0 
L 1031 3053 
L 481 3053 
L 563 3500 
L 1113 3500 
L 1159 3744 
Q 1278 4363 1576 4613 
Q 1875 4863 2516 4863 
L 3059 4863 
z
" transform="scale(0.015625)"/>
       <path id="DejaVuSans-28" d="M 1984 4856 
Q 1566 4138 1362 3434 
Q 1159 2731 1159 2009 
Q 1159 1288 1364 580 
Q 1569 -128 1984 -844 
L 1484 -844 
Q 1016 -109 783 600 
Q 550 1309 550 2009 
Q 550 2706 781 3412 
Q 1013 4119 1484 4856 
L 1984 4856 
z
" transform="scale(0.015625)"/>
       <path id="DejaVuSans-29" d="M 513 4856 
L 1013 4856 
Q 1481 4119 1714 3412 
Q 1947 2706 1947 2009 
Q 1947 1309 1714 600 
Q 1481 -109 1013 -844 
L 513 -844 
Q 928 -128 1133 580 
Q 1338 1288 1338 2009 
Q 1338 2731 1133 3434 
Q 928 4138 513 4856 
z
" transform="scale(0.015625)"/>
      </defs>
      <use xlink:href="#DejaVuSans-Oblique-66" transform="translate(0 0.015625)"/>
      <use xlink:href="#DejaVuSans-28" transform="translate(35.205078 0.015625)"/>
      <use xlink:href="#DejaVuSans-Oblique-78" transform="translate(74.21875 0.015625)"/>
      <use xlink:href="#DejaVuSans-29" transform="translate(133.398438 0.015625)"/>
     </g>
    </g>
   </g>
   <g id="line2d_1">
    <path d="M 53.617188 34.557867 
L 59.253551 54.457308 
L 64.889915 72.716108 
L 70.526278 89.404355 
L 76.162642 104.59082 
L 81.799006 118.342952 
L 87.435369 130.726884 
L 93.071733 141.807426 
L 98.708097 151.648072 
L 104.34446 160.310994 
L 109.980824 167.857045 
L 115.617188 174.34576 
L 121.253551 179.835353 
L 126.889915 184.382719 
L 132.526278 188.043434 
L 138.162642 190.871755 
L 143.799006 192.920616 
L 149.435369 194.241638 
L 155.071733 194.885116 
L 160.708097 194.90003 
L 166.34446 194.334038 
L 171.980824 193.233481 
L 177.617188 191.643378 
L 183.253551 189.60743 
L 188.889915 187.168018 
L 194.526278 184.366205 
L 200.162642 181.241732 
L 205.799006 177.833023 
L 211.435369 174.177181 
L 217.071733 170.309991 
L 222.708097 166.265916 
L 228.34446 162.078102 
L 233.980824 157.778375 
L 239.617188 153.397241 
L 245.253551 148.963887 
L 250.889915 144.506181 
L 256.526278 140.05067 
L 262.162642 135.622584 
L 267.799006 131.245831 
L 273.435369 126.943 
L 279.071733 122.735363 
L 284.708097 118.64287 
L 290.34446 114.684152 
L 295.980824 110.876522 
L 301.617188 107.235971 
L 307.253551 103.777174 
L 312.889915 100.513483 
L 318.526278 97.456933 
L 324.162642 94.618238 
L 329.799006 92.006794 
L 335.435369 89.630677 
L 341.071733 87.496643 
L 346.708097 85.610129 
L 352.34446 83.975253 
L 357.980824 82.594813 
L 363.617188 81.470287 
L 369.253551 80.601835 
L 374.889915 79.988296 
L 380.526278 79.627192 
L 386.162642 79.514722 
L 391.799006 79.645768 
L 397.435369 80.013893 
L 403.071733 80.611339 
L 408.708097 81.429029 
L 414.34446 82.456567 
L 419.980824 83.682237 
L 425.617188 85.093004 
L 431.253551 86.674514 
L 436.889915 88.411092 
L 442.526278 90.285745 
L 448.162642 92.28016 
L 453.799006 94.374704 
L 459.435369 96.548427 
L 465.071733 98.779057 
L 470.708097 101.043002 
L 476.34446 103.315354 
L 481.980824 105.569882 
L 487.617188 107.779037 
L 493.253551 109.913952 
L 498.889915 111.944438 
L 504.526278 113.838988 
L 510.162642 115.564775 
L 515.799006 117.087653 
L 521.435369 118.372156 
L 527.071733 119.3815 
L 532.708097 120.07758 
L 538.34446 120.420972 
L 543.980824 120.370933 
L 549.617188 119.885399 
L 555.253551 118.920989 
L 560.889915 117.433001 
L 566.526278 115.375414 
L 572.162642 112.700888 
L 577.799006 109.360761 
L 583.435369 105.305055 
L 589.071733 100.482472 
L 594.708097 94.840392 
L 600.34446 88.324878 
L 605.980824 80.880673 
L 611.617188 72.4512 
" clip-path="url(#p0cc595f949)" style="fill: none; stroke: #ffff00; stroke-width: 1.5; stroke-linecap: square"/>
   </g>
   <g id="LineCollection_1">
    <path d="M 158.010887 208.8 
L 158.010887 194.968272 
" clip-path="url(#p0cc595f949)" style="fill: none; stroke: #ffff00; stroke-width: 1.5"/>
   </g>
   <g id="LineCollection_2">
    <path d="M 284.513739 208.8 
L 284.513739 118.781867 
" clip-path="url(#p0cc595f949)" style="fill: none; stroke-dasharray: 5.55,2.4; stroke-dashoffset: 0; stroke: #ffff00; stroke-width: 1.5"/>
   </g>
   <g id="patch_3">
    <path d="M 25.717188 208.8 
L 25.717188 7.2 
" style="fill: none; stroke: #ffff00; stroke-width: 0.8; stroke-linejoin: miter; stroke-linecap: square"/>
   </g>
   <g id="patch_4">
    <path d="M 25.717188 208.8 
L 639.517188 208.8 
" style="fill: none; stroke: #ffff00; stroke-width: 0.8; stroke-linejoin: miter; stroke-linecap: square"/>
   </g>
  </g>
  <g id="axes_2">
   <g id="patch_5">
    <path d="M 25.717188 450.72 
L 639.517188 450.72 
L 639.517188 249.12 
L 25.717188 249.12 
L 25.717188 450.72 
z
" style="fill: none"/>
   </g>
   <g id="matplotlib.axis_3">
    <g id="xtick_2"/>
    <g id="xtick_3"/>
    <g id="xtick_4"/>
    <g id="xtick_5"/>
    <g id="xtick_6"/>
    <g id="xtick_7"/>
    <g id="text_4">
     <!-- $x$ -->
     <g style="fill: #ffff00" transform="translate(622.741188 472.197656) scale(0.15 -0.15)">
      <use xlink:href="#DejaVuSans-Oblique-78" transform="translate(0 0.3125)"/>
     </g>
    </g>
   </g>
   <g id="matplotlib.axis_4">
    <g id="ytick_7"/>
    <g id="ytick_8"/>
    <g id="ytick_9"/>
    <g id="ytick_10"/>
    <g id="ytick_11"/>
    <g id="ytick_12"/>
    <g id="ytick_13"/>
    <g id="text_5">
     <!-- $f'(x)$ -->
     <g style="fill: #ffff00" transform="translate(18.597656 365.07) rotate(-90) scale(0.15 -0.15)">
      <defs>
       <path id="Cmsy10-30" d="M 225 347 
Q 184 359 184 409 
L 966 3316 
Q 1003 3434 1093 3506 
Q 1184 3578 1300 3578 
Q 1450 3578 1564 3479 
Q 1678 3381 1678 3231 
Q 1678 3166 1644 3084 
L 488 319 
Q 466 275 428 275 
Q 394 275 320 306 
Q 247 338 225 347 
z
" transform="scale(0.015625)"/>
      </defs>
      <use xlink:href="#DejaVuSans-Oblique-66" transform="translate(0 0.584375)"/>
      <use xlink:href="#Cmsy10-30" transform="translate(42.652786 38.865625) scale(0.7)"/>
      <use xlink:href="#DejaVuSans-28" transform="translate(64.630326 0.584375)"/>
      <use xlink:href="#DejaVuSans-Oblique-78" transform="translate(103.643997 0.584375)"/>
      <use xlink:href="#DejaVuSans-29" transform="translate(162.823685 0.584375)"/>
     </g>
    </g>
   </g>
   <g id="line2d_2">
    <path d="M 53.617188 450.72 
L 59.253551 439.336811 
L 64.889915 428.434105 
L 70.526278 418.002923 
L 76.162642 408.034303 
L 81.799006 398.519284 
L 87.435369 389.448905 
L 93.071733 380.814207 
L 98.708097 372.606228 
L 104.34446 364.816006 
L 109.980824 357.434583 
L 115.617188 350.452996 
L 121.253551 343.862284 
L 126.889915 337.653488 
L 132.526278 331.817646 
L 138.162642 326.345798 
L 143.799006 321.228982 
L 149.435369 316.458239 
L 155.071733 312.024606 
L 160.708097 307.919124 
L 166.34446 304.132831 
L 171.980824 300.656767 
L 177.617188 297.481971 
L 183.253551 294.599482 
L 188.889915 292.00034 
L 194.526278 289.675583 
L 200.162642 287.616251 
L 205.799006 285.813383 
L 211.435369 284.258018 
L 217.071733 282.941195 
L 222.708097 281.853955 
L 228.34446 280.987335 
L 233.980824 280.332375 
L 239.617188 279.880114 
L 245.253551 279.621592 
L 250.889915 279.547847 
L 256.526278 279.64992 
L 262.162642 279.918848 
L 267.799006 280.345672 
L 273.435369 280.92143 
L 279.071733 281.637162 
L 284.708097 282.483907 
L 290.34446 283.452704 
L 295.980824 284.534593 
L 301.617188 285.720612 
L 307.253551 287.001801 
L 312.889915 288.369199 
L 318.526278 289.813845 
L 324.162642 291.326778 
L 329.799006 292.899038 
L 335.435369 294.521664 
L 341.071733 296.185695 
L 346.708097 297.88217 
L 352.34446 299.602129 
L 357.980824 301.33661 
L 363.617188 303.076653 
L 369.253551 304.813297 
L 374.889915 306.537582 
L 380.526278 308.240546 
L 386.162642 309.913228 
L 391.799006 311.546669 
L 397.435369 313.131907 
L 403.071733 314.659981 
L 408.708097 316.12193 
L 414.34446 317.508795 
L 419.980824 318.811613 
L 425.617188 320.021425 
L 431.253551 321.129268 
L 436.889915 322.126184 
L 442.526278 323.00321 
L 448.162642 323.751386 
L 453.799006 324.361752 
L 459.435369 324.825346 
L 465.071733 325.133207 
L 470.708097 325.276376 
L 476.34446 325.24589 
L 481.980824 325.03279 
L 487.617188 324.628114 
L 493.253551 324.022902 
L 498.889915 323.208193 
L 504.526278 322.175026 
L 510.162642 320.91444 
L 515.799006 319.417475 
L 521.435369 317.67517 
L 527.071733 315.678563 
L 532.708097 313.418695 
L 538.34446 310.886603 
L 543.980824 308.073329 
L 549.617188 304.96991 
L 555.253551 301.567387 
L 560.889915 297.856797 
L 566.526278 293.829181 
L 572.162642 289.475577 
L 577.799006 284.787026 
L 583.435369 279.754565 
L 589.071733 274.369235 
L 594.708097 268.622074 
L 600.34446 262.504122 
L 605.980824 256.006417 
L 611.617188 249.12 
" clip-path="url(#pe536e10704)" style="fill: none; stroke: #ffff00; stroke-width: 1.5; stroke-linecap: square"/>
   </g>
   <g id="line2d_3">
    <path d="M 25.717188 309.843607 
L 639.517188 309.843607 
" clip-path="url(#pe536e10704)" style="fill: none; stroke-dasharray: 1.5,2.475; stroke-dashoffset: 0; stroke: #ffff00; stroke-width: 1.5"/>
   </g>
   <g id="LineCollection_3">
    <path d="M 158.010887 309.843373 
L 158.010887 204.557666 
" style="fill: none; stroke: #ffff00; stroke-width: 1.5"/>
   </g>
   <g id="LineCollection_4">
    <path d="M 284.513739 282.452626 
L 284.513739 204.557666 
" style="fill: none; stroke-dasharray: 5.55,2.4; stroke-dashoffset: 0; stroke: #ffff00; stroke-width: 1.5"/>
   </g>
   <g id="patch_6">
    <path d="M 25.717188 450.72 
L 25.717188 249.12 
" style="fill: none; stroke: #ffff00; stroke-width: 0.8; stroke-linejoin: miter; stroke-linecap: square"/>
   </g>
   <g id="patch_7">
    <path d="M 25.717188 450.72 
L 639.517188 450.72 
" style="fill: none; stroke: #ffff00; stroke-width: 0.8; stroke-linejoin: miter; stroke-linecap: square"/>
   </g>
  </g>
 </g>
 <defs>
  <clipPath id="p0cc595f949">
   <rect x="25.717188" y="7.2" width="613.8" height="201.6"/>
  </clipPath>
  <clipPath id="pe536e10704">
   <rect x="25.717188" y="249.12" width="613.8" height="201.6"/>
  </clipPath>
 </defs>
</svg>
