<?xml version="1.0" encoding="utf-8" standalone="no"?>
<!DOCTYPE svg PUBLIC "-//W3C//DTD SVG 1.1//EN"
  "http://www.w3.org/Graphics/SVG/1.1/DTD/svg11.dtd">
<svg xmlns:xlink="http://www.w3.org/1999/xlink" width="476.41375pt" height="473.53375pt" viewBox="0 0 476.41375 473.53375" xmlns="http://www.w3.org/2000/svg" version="1.1">
 <metadata>
  <rdf:RDF xmlns:dc="http://purl.org/dc/elements/1.1/" xmlns:cc="http://creativecommons.org/ns#" xmlns:rdf="http://www.w3.org/1999/02/22-rdf-syntax-ns#">
   <cc:Work>
    <dc:type rdf:resource="http://purl.org/dc/dcmitype/StillImage"/>
    <dc:date>2024-12-14T01:24:04.675890</dc:date>
    <dc:format>image/svg+xml</dc:format>
    <dc:creator>
     <cc:Agent>
      <dc:title>Matplotlib v3.9.2, https://matplotlib.org/</dc:title>
     </cc:Agent>
    </dc:creator>
   </cc:Work>
  </rdf:RDF>
 </metadata>
 <defs>
  <style type="text/css">*{stroke-linejoin: round; stroke-linecap: butt}</style>
 </defs>
 <g id="figure_1">
  <g id="patch_1">
   <path d="M 0 473.53375 
L 476.41375 473.53375 
L 476.41375 0 
L 0 0 
L 0 473.53375 
z
" style="fill: none"/>
  </g>
  <g id="axes_1">
   <g id="patch_2">
    <path d="M 22.81375 450.72 
L 469.21375 450.72 
L 469.21375 7.2 
L 22.81375 7.2 
L 22.81375 450.72 
z
" style="fill: none"/>
   </g>
   <g id="PathCollection_1">
    <defs>
     <path id="C0_0_2ee7c812ac" d="M 0 4.1833 
C 1.109424 4.1833 2.173559 3.742521 2.95804 2.95804 
C 3.742521 2.173559 4.1833 1.109424 4.1833 -0 
C 4.1833 -1.109424 3.742521 -2.173559 2.95804 -2.95804 
C 2.173559 -3.742521 1.109424 -4.1833 0 -4.1833 
C -1.109424 -4.1833 -2.173559 -3.742521 -2.95804 -2.95804 
C -3.742521 -2.173559 -4.1833 -1.109424 -4.1833 0 
C -4.1833 1.109424 -3.742521 2.173559 -2.95804 2.95804 
C -2.173559 3.742521 -1.109424 4.1833 0 4.1833 
z
"/>
    </defs>
    <g clip-path="url(#pcea2941262)">
     <use xlink:href="#C0_0_2ee7c812ac" x="43.104659" y="430.56" style="fill: none; stroke: #ffff00; stroke-opacity: 0.6"/>
    </g>
    <g clip-path="url(#pcea2941262)">
     <use xlink:href="#C0_0_2ee7c812ac" x="46.760679" y="419.148758" style="fill: none; stroke: #ffff00; stroke-opacity: 0.6"/>
    </g>
    <g clip-path="url(#pcea2941262)">
     <use xlink:href="#C0_0_2ee7c812ac" x="50.416698" y="407.746656" style="fill: none; stroke: #ffff00; stroke-opacity: 0.6"/>
    </g>
    <g clip-path="url(#pcea2941262)">
     <use xlink:href="#C0_0_2ee7c812ac" x="54.072718" y="396.362825" style="fill: none; stroke: #ffff00; stroke-opacity: 0.6"/>
    </g>
    <g clip-path="url(#pcea2941262)">
     <use xlink:href="#C0_0_2ee7c812ac" x="57.728737" y="385.00639" style="fill: none; stroke: #ffff00; stroke-opacity: 0.6"/>
    </g>
    <g clip-path="url(#pcea2941262)">
     <use xlink:href="#C0_0_2ee7c812ac" x="61.384757" y="373.686437" style="fill: none; stroke: #ffff00; stroke-opacity: 0.6"/>
    </g>
    <g clip-path="url(#pcea2941262)">
     <use xlink:href="#C0_0_2ee7c812ac" x="65.040777" y="362.412046" style="fill: none; stroke: #ffff00; stroke-opacity: 0.6"/>
    </g>
    <g clip-path="url(#pcea2941262)">
     <use xlink:href="#C0_0_2ee7c812ac" x="68.696795" y="351.192237" style="fill: none; stroke: #ffff00; stroke-opacity: 0.6"/>
    </g>
    <g clip-path="url(#pcea2941262)">
     <use xlink:href="#C0_0_2ee7c812ac" x="72.352815" y="340.036002" style="fill: none; stroke: #ffff00; stroke-opacity: 0.6"/>
    </g>
    <g clip-path="url(#pcea2941262)">
     <use xlink:href="#C0_0_2ee7c812ac" x="76.008835" y="328.952268" style="fill: none; stroke: #ffff00; stroke-opacity: 0.6"/>
    </g>
    <g clip-path="url(#pcea2941262)">
     <use xlink:href="#C0_0_2ee7c812ac" x="79.664855" y="317.949934" style="fill: none; stroke: #ffff00; stroke-opacity: 0.6"/>
    </g>
    <g clip-path="url(#pcea2941262)">
     <use xlink:href="#C0_0_2ee7c812ac" x="83.320875" y="307.037792" style="fill: none; stroke: #ffff00; stroke-opacity: 0.6"/>
    </g>
    <g clip-path="url(#pcea2941262)">
     <use xlink:href="#C0_0_2ee7c812ac" x="86.976895" y="296.224578" style="fill: none; stroke: #ffff00; stroke-opacity: 0.6"/>
    </g>
    <g clip-path="url(#pcea2941262)">
     <use xlink:href="#C0_0_2ee7c812ac" x="90.632915" y="285.518981" style="fill: none; stroke: #ffff00; stroke-opacity: 0.6"/>
    </g>
    <g clip-path="url(#pcea2941262)">
     <use xlink:href="#C0_0_2ee7c812ac" x="94.288931" y="274.929556" style="fill: none; stroke: #ffff00; stroke-opacity: 0.6"/>
    </g>
    <g clip-path="url(#pcea2941262)">
     <use xlink:href="#C0_0_2ee7c812ac" x="97.944951" y="264.46479" style="fill: none; stroke: #ffff00; stroke-opacity: 0.6"/>
    </g>
    <g clip-path="url(#pcea2941262)">
     <use xlink:href="#C0_0_2ee7c812ac" x="101.600971" y="254.133057" style="fill: none; stroke: #ffff00; stroke-opacity: 0.6"/>
    </g>
    <g clip-path="url(#pcea2941262)">
     <use xlink:href="#C0_0_2ee7c812ac" x="105.256991" y="243.942638" style="fill: none; stroke: #ffff00; stroke-opacity: 0.6"/>
    </g>
    <g clip-path="url(#pcea2941262)">
     <use xlink:href="#C0_0_2ee7c812ac" x="108.913011" y="233.901704" style="fill: none; stroke: #ffff00; stroke-opacity: 0.6"/>
    </g>
    <g clip-path="url(#pcea2941262)">
     <use xlink:href="#C0_0_2ee7c812ac" x="112.569027" y="224.018284" style="fill: none; stroke: #ffff00; stroke-opacity: 0.6"/>
    </g>
    <g clip-path="url(#pcea2941262)">
     <use xlink:href="#C0_0_2ee7c812ac" x="116.225051" y="214.300309" style="fill: none; stroke: #ffff00; stroke-opacity: 0.6"/>
    </g>
    <g clip-path="url(#pcea2941262)">
     <use xlink:href="#C0_0_2ee7c812ac" x="119.881067" y="204.755554" style="fill: none; stroke: #ffff00; stroke-opacity: 0.6"/>
    </g>
    <g clip-path="url(#pcea2941262)">
     <use xlink:href="#C0_0_2ee7c812ac" x="123.537091" y="195.391662" style="fill: none; stroke: #ffff00; stroke-opacity: 0.6"/>
    </g>
    <g clip-path="url(#pcea2941262)">
     <use xlink:href="#C0_0_2ee7c812ac" x="127.193107" y="186.216133" style="fill: none; stroke: #ffff00; stroke-opacity: 0.6"/>
    </g>
    <g clip-path="url(#pcea2941262)">
     <use xlink:href="#C0_0_2ee7c812ac" x="130.849131" y="177.23632" style="fill: none; stroke: #ffff00; stroke-opacity: 0.6"/>
    </g>
    <g clip-path="url(#pcea2941262)">
     <use xlink:href="#C0_0_2ee7c812ac" x="134.505147" y="168.459436" style="fill: none; stroke: #ffff00; stroke-opacity: 0.6"/>
    </g>
    <g clip-path="url(#pcea2941262)">
     <use xlink:href="#C0_0_2ee7c812ac" x="138.161171" y="159.892473" style="fill: none; stroke: #ffff00; stroke-opacity: 0.6"/>
    </g>
    <g clip-path="url(#pcea2941262)">
     <use xlink:href="#C0_0_2ee7c812ac" x="141.817187" y="151.542305" style="fill: none; stroke: #ffff00; stroke-opacity: 0.6"/>
    </g>
    <g clip-path="url(#pcea2941262)">
     <use xlink:href="#C0_0_2ee7c812ac" x="145.473203" y="143.415639" style="fill: none; stroke: #ffff00; stroke-opacity: 0.6"/>
    </g>
    <g clip-path="url(#pcea2941262)">
     <use xlink:href="#C0_0_2ee7c812ac" x="149.129227" y="135.518964" style="fill: none; stroke: #ffff00; stroke-opacity: 0.6"/>
    </g>
    <g clip-path="url(#pcea2941262)">
     <use xlink:href="#C0_0_2ee7c812ac" x="152.785243" y="127.858625" style="fill: none; stroke: #ffff00; stroke-opacity: 0.6"/>
    </g>
    <g clip-path="url(#pcea2941262)">
     <use xlink:href="#C0_0_2ee7c812ac" x="156.441267" y="120.440727" style="fill: none; stroke: #ffff00; stroke-opacity: 0.6"/>
    </g>
    <g clip-path="url(#pcea2941262)">
     <use xlink:href="#C0_0_2ee7c812ac" x="160.097283" y="113.271231" style="fill: none; stroke: #ffff00; stroke-opacity: 0.6"/>
    </g>
    <g clip-path="url(#pcea2941262)">
     <use xlink:href="#C0_0_2ee7c812ac" x="163.753306" y="106.355881" style="fill: none; stroke: #ffff00; stroke-opacity: 0.6"/>
    </g>
    <g clip-path="url(#pcea2941262)">
     <use xlink:href="#C0_0_2ee7c812ac" x="167.409323" y="99.700229" style="fill: none; stroke: #ffff00; stroke-opacity: 0.6"/>
    </g>
    <g clip-path="url(#pcea2941262)">
     <use xlink:href="#C0_0_2ee7c812ac" x="171.065346" y="93.309587" style="fill: none; stroke: #ffff00; stroke-opacity: 0.6"/>
    </g>
    <g clip-path="url(#pcea2941262)">
     <use xlink:href="#C0_0_2ee7c812ac" x="174.721363" y="87.189075" style="fill: none; stroke: #ffff00; stroke-opacity: 0.6"/>
    </g>
    <g clip-path="url(#pcea2941262)">
     <use xlink:href="#C0_0_2ee7c812ac" x="178.377386" y="81.343594" style="fill: none; stroke: #ffff00; stroke-opacity: 0.6"/>
    </g>
    <g clip-path="url(#pcea2941262)">
     <use xlink:href="#C0_0_2ee7c812ac" x="182.033395" y="75.777834" style="fill: none; stroke: #ffff00; stroke-opacity: 0.6"/>
    </g>
    <g clip-path="url(#pcea2941262)">
     <use xlink:href="#C0_0_2ee7c812ac" x="185.689419" y="70.496239" style="fill: none; stroke: #ffff00; stroke-opacity: 0.6"/>
    </g>
    <g clip-path="url(#pcea2941262)">
     <use xlink:href="#C0_0_2ee7c812ac" x="189.345442" y="65.503064" style="fill: none; stroke: #ffff00; stroke-opacity: 0.6"/>
    </g>
    <g clip-path="url(#pcea2941262)">
     <use xlink:href="#C0_0_2ee7c812ac" x="193.001466" y="60.802274" style="fill: none; stroke: #ffff00; stroke-opacity: 0.6"/>
    </g>
    <g clip-path="url(#pcea2941262)">
     <use xlink:href="#C0_0_2ee7c812ac" x="196.657475" y="56.397668" style="fill: none; stroke: #ffff00; stroke-opacity: 0.6"/>
    </g>
    <g clip-path="url(#pcea2941262)">
     <use xlink:href="#C0_0_2ee7c812ac" x="200.313498" y="52.292779" style="fill: none; stroke: #ffff00; stroke-opacity: 0.6"/>
    </g>
    <g clip-path="url(#pcea2941262)">
     <use xlink:href="#C0_0_2ee7c812ac" x="203.969522" y="48.490851" style="fill: none; stroke: #ffff00; stroke-opacity: 0.6"/>
    </g>
    <g clip-path="url(#pcea2941262)">
     <use xlink:href="#C0_0_2ee7c812ac" x="207.625546" y="44.99496" style="fill: none; stroke: #ffff00; stroke-opacity: 0.6"/>
    </g>
    <g clip-path="url(#pcea2941262)">
     <use xlink:href="#C0_0_2ee7c812ac" x="211.281555" y="41.807919" style="fill: none; stroke: #ffff00; stroke-opacity: 0.6"/>
    </g>
    <g clip-path="url(#pcea2941262)">
     <use xlink:href="#C0_0_2ee7c812ac" x="214.937578" y="38.932227" style="fill: none; stroke: #ffff00; stroke-opacity: 0.6"/>
    </g>
    <g clip-path="url(#pcea2941262)">
     <use xlink:href="#C0_0_2ee7c812ac" x="218.593602" y="36.370265" style="fill: none; stroke: #ffff00; stroke-opacity: 0.6"/>
    </g>
    <g clip-path="url(#pcea2941262)">
     <use xlink:href="#C0_0_2ee7c812ac" x="222.249611" y="34.124002" style="fill: none; stroke: #ffff00; stroke-opacity: 0.6"/>
    </g>
    <g clip-path="url(#pcea2941262)">
     <use xlink:href="#C0_0_2ee7c812ac" x="225.905634" y="32.195313" style="fill: none; stroke: #ffff00; stroke-opacity: 0.6"/>
    </g>
    <g clip-path="url(#pcea2941262)">
     <use xlink:href="#C0_0_2ee7c812ac" x="229.561658" y="30.585689" style="fill: none; stroke: #ffff00; stroke-opacity: 0.6"/>
    </g>
    <g clip-path="url(#pcea2941262)">
     <use xlink:href="#C0_0_2ee7c812ac" x="233.217682" y="29.296452" style="fill: none; stroke: #ffff00; stroke-opacity: 0.6"/>
    </g>
    <g clip-path="url(#pcea2941262)">
     <use xlink:href="#C0_0_2ee7c812ac" x="236.87369" y="28.32861" style="fill: none; stroke: #ffff00; stroke-opacity: 0.6"/>
    </g>
    <g clip-path="url(#pcea2941262)">
     <use xlink:href="#C0_0_2ee7c812ac" x="240.529714" y="27.682958" style="fill: none; stroke: #ffff00; stroke-opacity: 0.6"/>
    </g>
    <g clip-path="url(#pcea2941262)">
     <use xlink:href="#C0_0_2ee7c812ac" x="244.185738" y="27.36" style="fill: none; stroke: #ffff00; stroke-opacity: 0.6"/>
    </g>
    <g clip-path="url(#pcea2941262)">
     <use xlink:href="#C0_0_2ee7c812ac" x="247.841747" y="27.36" style="fill: none; stroke: #ffff00; stroke-opacity: 0.6"/>
    </g>
    <g clip-path="url(#pcea2941262)">
     <use xlink:href="#C0_0_2ee7c812ac" x="251.49777" y="27.682958" style="fill: none; stroke: #ffff00; stroke-opacity: 0.6"/>
    </g>
    <g clip-path="url(#pcea2941262)">
     <use xlink:href="#C0_0_2ee7c812ac" x="255.153794" y="28.32861" style="fill: none; stroke: #ffff00; stroke-opacity: 0.6"/>
    </g>
    <g clip-path="url(#pcea2941262)">
     <use xlink:href="#C0_0_2ee7c812ac" x="258.809818" y="29.296452" style="fill: none; stroke: #ffff00; stroke-opacity: 0.6"/>
    </g>
    <g clip-path="url(#pcea2941262)">
     <use xlink:href="#C0_0_2ee7c812ac" x="262.465826" y="30.585689" style="fill: none; stroke: #ffff00; stroke-opacity: 0.6"/>
    </g>
    <g clip-path="url(#pcea2941262)">
     <use xlink:href="#C0_0_2ee7c812ac" x="266.12185" y="32.195313" style="fill: none; stroke: #ffff00; stroke-opacity: 0.6"/>
    </g>
    <g clip-path="url(#pcea2941262)">
     <use xlink:href="#C0_0_2ee7c812ac" x="269.777874" y="34.124002" style="fill: none; stroke: #ffff00; stroke-opacity: 0.6"/>
    </g>
    <g clip-path="url(#pcea2941262)">
     <use xlink:href="#C0_0_2ee7c812ac" x="273.433898" y="36.370265" style="fill: none; stroke: #ffff00; stroke-opacity: 0.6"/>
    </g>
    <g clip-path="url(#pcea2941262)">
     <use xlink:href="#C0_0_2ee7c812ac" x="277.089906" y="38.932227" style="fill: none; stroke: #ffff00; stroke-opacity: 0.6"/>
    </g>
    <g clip-path="url(#pcea2941262)">
     <use xlink:href="#C0_0_2ee7c812ac" x="280.74593" y="41.807919" style="fill: none; stroke: #ffff00; stroke-opacity: 0.6"/>
    </g>
    <g clip-path="url(#pcea2941262)">
     <use xlink:href="#C0_0_2ee7c812ac" x="284.401954" y="44.99496" style="fill: none; stroke: #ffff00; stroke-opacity: 0.6"/>
    </g>
    <g clip-path="url(#pcea2941262)">
     <use xlink:href="#C0_0_2ee7c812ac" x="288.057962" y="48.490851" style="fill: none; stroke: #ffff00; stroke-opacity: 0.6"/>
    </g>
    <g clip-path="url(#pcea2941262)">
     <use xlink:href="#C0_0_2ee7c812ac" x="291.713986" y="52.292779" style="fill: none; stroke: #ffff00; stroke-opacity: 0.6"/>
    </g>
    <g clip-path="url(#pcea2941262)">
     <use xlink:href="#C0_0_2ee7c812ac" x="295.37001" y="56.397668" style="fill: none; stroke: #ffff00; stroke-opacity: 0.6"/>
    </g>
    <g clip-path="url(#pcea2941262)">
     <use xlink:href="#C0_0_2ee7c812ac" x="299.026034" y="60.802274" style="fill: none; stroke: #ffff00; stroke-opacity: 0.6"/>
    </g>
    <g clip-path="url(#pcea2941262)">
     <use xlink:href="#C0_0_2ee7c812ac" x="302.682042" y="65.503064" style="fill: none; stroke: #ffff00; stroke-opacity: 0.6"/>
    </g>
    <g clip-path="url(#pcea2941262)">
     <use xlink:href="#C0_0_2ee7c812ac" x="306.338066" y="70.496239" style="fill: none; stroke: #ffff00; stroke-opacity: 0.6"/>
    </g>
    <g clip-path="url(#pcea2941262)">
     <use xlink:href="#C0_0_2ee7c812ac" x="309.99409" y="75.777834" style="fill: none; stroke: #ffff00; stroke-opacity: 0.6"/>
    </g>
    <g clip-path="url(#pcea2941262)">
     <use xlink:href="#C0_0_2ee7c812ac" x="313.650114" y="81.343594" style="fill: none; stroke: #ffff00; stroke-opacity: 0.6"/>
    </g>
    <g clip-path="url(#pcea2941262)">
     <use xlink:href="#C0_0_2ee7c812ac" x="317.306137" y="87.189075" style="fill: none; stroke: #ffff00; stroke-opacity: 0.6"/>
    </g>
    <g clip-path="url(#pcea2941262)">
     <use xlink:href="#C0_0_2ee7c812ac" x="320.96213" y="93.309587" style="fill: none; stroke: #ffff00; stroke-opacity: 0.6"/>
    </g>
    <g clip-path="url(#pcea2941262)">
     <use xlink:href="#C0_0_2ee7c812ac" x="324.618154" y="99.700229" style="fill: none; stroke: #ffff00; stroke-opacity: 0.6"/>
    </g>
    <g clip-path="url(#pcea2941262)">
     <use xlink:href="#C0_0_2ee7c812ac" x="328.274178" y="106.355881" style="fill: none; stroke: #ffff00; stroke-opacity: 0.6"/>
    </g>
    <g clip-path="url(#pcea2941262)">
     <use xlink:href="#C0_0_2ee7c812ac" x="331.930202" y="113.271231" style="fill: none; stroke: #ffff00; stroke-opacity: 0.6"/>
    </g>
    <g clip-path="url(#pcea2941262)">
     <use xlink:href="#C0_0_2ee7c812ac" x="335.586226" y="120.440727" style="fill: none; stroke: #ffff00; stroke-opacity: 0.6"/>
    </g>
    <g clip-path="url(#pcea2941262)">
     <use xlink:href="#C0_0_2ee7c812ac" x="339.24225" y="127.858625" style="fill: none; stroke: #ffff00; stroke-opacity: 0.6"/>
    </g>
    <g clip-path="url(#pcea2941262)">
     <use xlink:href="#C0_0_2ee7c812ac" x="342.898273" y="135.518964" style="fill: none; stroke: #ffff00; stroke-opacity: 0.6"/>
    </g>
    <g clip-path="url(#pcea2941262)">
     <use xlink:href="#C0_0_2ee7c812ac" x="346.554297" y="143.415639" style="fill: none; stroke: #ffff00; stroke-opacity: 0.6"/>
    </g>
    <g clip-path="url(#pcea2941262)">
     <use xlink:href="#C0_0_2ee7c812ac" x="350.21029" y="151.542305" style="fill: none; stroke: #ffff00; stroke-opacity: 0.6"/>
    </g>
    <g clip-path="url(#pcea2941262)">
     <use xlink:href="#C0_0_2ee7c812ac" x="353.866314" y="159.892473" style="fill: none; stroke: #ffff00; stroke-opacity: 0.6"/>
    </g>
    <g clip-path="url(#pcea2941262)">
     <use xlink:href="#C0_0_2ee7c812ac" x="357.522338" y="168.459436" style="fill: none; stroke: #ffff00; stroke-opacity: 0.6"/>
    </g>
    <g clip-path="url(#pcea2941262)">
     <use xlink:href="#C0_0_2ee7c812ac" x="361.178362" y="177.23632" style="fill: none; stroke: #ffff00; stroke-opacity: 0.6"/>
    </g>
    <g clip-path="url(#pcea2941262)">
     <use xlink:href="#C0_0_2ee7c812ac" x="364.834385" y="186.216133" style="fill: none; stroke: #ffff00; stroke-opacity: 0.6"/>
    </g>
    <g clip-path="url(#pcea2941262)">
     <use xlink:href="#C0_0_2ee7c812ac" x="368.490409" y="195.391662" style="fill: none; stroke: #ffff00; stroke-opacity: 0.6"/>
    </g>
    <g clip-path="url(#pcea2941262)">
     <use xlink:href="#C0_0_2ee7c812ac" x="372.146433" y="204.755554" style="fill: none; stroke: #ffff00; stroke-opacity: 0.6"/>
    </g>
    <g clip-path="url(#pcea2941262)">
     <use xlink:href="#C0_0_2ee7c812ac" x="375.802426" y="214.300309" style="fill: none; stroke: #ffff00; stroke-opacity: 0.6"/>
    </g>
    <g clip-path="url(#pcea2941262)">
     <use xlink:href="#C0_0_2ee7c812ac" x="379.45845" y="224.018284" style="fill: none; stroke: #ffff00; stroke-opacity: 0.6"/>
    </g>
    <g clip-path="url(#pcea2941262)">
     <use xlink:href="#C0_0_2ee7c812ac" x="383.114474" y="233.901704" style="fill: none; stroke: #ffff00; stroke-opacity: 0.6"/>
    </g>
    <g clip-path="url(#pcea2941262)">
     <use xlink:href="#C0_0_2ee7c812ac" x="386.770498" y="243.942638" style="fill: none; stroke: #ffff00; stroke-opacity: 0.6"/>
    </g>
    <g clip-path="url(#pcea2941262)">
     <use xlink:href="#C0_0_2ee7c812ac" x="390.426521" y="254.133057" style="fill: none; stroke: #ffff00; stroke-opacity: 0.6"/>
    </g>
    <g clip-path="url(#pcea2941262)">
     <use xlink:href="#C0_0_2ee7c812ac" x="394.082545" y="264.46479" style="fill: none; stroke: #ffff00; stroke-opacity: 0.6"/>
    </g>
    <g clip-path="url(#pcea2941262)">
     <use xlink:href="#C0_0_2ee7c812ac" x="397.738569" y="274.929556" style="fill: none; stroke: #ffff00; stroke-opacity: 0.6"/>
    </g>
    <g clip-path="url(#pcea2941262)">
     <use xlink:href="#C0_0_2ee7c812ac" x="401.394562" y="285.518981" style="fill: none; stroke: #ffff00; stroke-opacity: 0.6"/>
    </g>
    <g clip-path="url(#pcea2941262)">
     <use xlink:href="#C0_0_2ee7c812ac" x="405.050586" y="296.224578" style="fill: none; stroke: #ffff00; stroke-opacity: 0.6"/>
    </g>
    <g clip-path="url(#pcea2941262)">
     <use xlink:href="#C0_0_2ee7c812ac" x="408.70661" y="307.037792" style="fill: none; stroke: #ffff00; stroke-opacity: 0.6"/>
    </g>
    <g clip-path="url(#pcea2941262)">
     <use xlink:href="#C0_0_2ee7c812ac" x="412.362634" y="317.949934" style="fill: none; stroke: #ffff00; stroke-opacity: 0.6"/>
    </g>
    <g clip-path="url(#pcea2941262)">
     <use xlink:href="#C0_0_2ee7c812ac" x="416.018657" y="328.952268" style="fill: none; stroke: #ffff00; stroke-opacity: 0.6"/>
    </g>
    <g clip-path="url(#pcea2941262)">
     <use xlink:href="#C0_0_2ee7c812ac" x="419.674681" y="340.036002" style="fill: none; stroke: #ffff00; stroke-opacity: 0.6"/>
    </g>
    <g clip-path="url(#pcea2941262)">
     <use xlink:href="#C0_0_2ee7c812ac" x="423.330705" y="351.192237" style="fill: none; stroke: #ffff00; stroke-opacity: 0.6"/>
    </g>
    <g clip-path="url(#pcea2941262)">
     <use xlink:href="#C0_0_2ee7c812ac" x="426.986698" y="362.412046" style="fill: none; stroke: #ffff00; stroke-opacity: 0.6"/>
    </g>
    <g clip-path="url(#pcea2941262)">
     <use xlink:href="#C0_0_2ee7c812ac" x="430.642722" y="373.686437" style="fill: none; stroke: #ffff00; stroke-opacity: 0.6"/>
    </g>
    <g clip-path="url(#pcea2941262)">
     <use xlink:href="#C0_0_2ee7c812ac" x="434.298746" y="385.00639" style="fill: none; stroke: #ffff00; stroke-opacity: 0.6"/>
    </g>
    <g clip-path="url(#pcea2941262)">
     <use xlink:href="#C0_0_2ee7c812ac" x="437.954769" y="396.362825" style="fill: none; stroke: #ffff00; stroke-opacity: 0.6"/>
    </g>
    <g clip-path="url(#pcea2941262)">
     <use xlink:href="#C0_0_2ee7c812ac" x="441.610793" y="407.746656" style="fill: none; stroke: #ffff00; stroke-opacity: 0.6"/>
    </g>
    <g clip-path="url(#pcea2941262)">
     <use xlink:href="#C0_0_2ee7c812ac" x="445.266817" y="419.148758" style="fill: none; stroke: #ffff00; stroke-opacity: 0.6"/>
    </g>
    <g clip-path="url(#pcea2941262)">
     <use xlink:href="#C0_0_2ee7c812ac" x="448.922841" y="430.56" style="fill: none; stroke: #ffff00; stroke-opacity: 0.6"/>
    </g>
   </g>
   <g id="matplotlib.axis_1">
    <g id="xtick_1"/>
    <g id="xtick_2"/>
    <g id="xtick_3"/>
    <g id="xtick_4"/>
    <g id="xtick_5"/>
    <g id="xtick_6"/>
    <g id="xtick_7"/>
    <g id="text_1">
     <!-- x -->
     <g style="fill: #ffff00" transform="translate(242.4625 463.838125) scale(0.12 -0.12)">
      <defs>
       <path id="DejaVuSans-78" d="M 3513 3500 
L 2247 1797 
L 3578 0 
L 2900 0 
L 1881 1375 
L 863 0 
L 184 0 
L 1544 1831 
L 300 3500 
L 978 3500 
L 1906 2253 
L 2834 3500 
L 3513 3500 
z
" transform="scale(0.015625)"/>
      </defs>
      <use xlink:href="#DejaVuSans-78"/>
     </g>
    </g>
   </g>
   <g id="matplotlib.axis_2">
    <g id="ytick_1"/>
    <g id="ytick_2"/>
    <g id="ytick_3"/>
    <g id="ytick_4"/>
    <g id="ytick_5"/>
    <g id="ytick_6"/>
    <g id="text_2">
     <!-- y -->
     <g style="fill: #ffff00" transform="translate(16.318125 232.51125) rotate(-90) scale(0.12 -0.12)">
      <defs>
       <path id="DejaVuSans-79" d="M 2059 -325 
Q 1816 -950 1584 -1140 
Q 1353 -1331 966 -1331 
L 506 -1331 
L 506 -850 
L 844 -850 
Q 1081 -850 1212 -737 
Q 1344 -625 1503 -206 
L 1606 56 
L 191 3500 
L 800 3500 
L 1894 763 
L 2988 3500 
L 3597 3500 
L 2059 -325 
z
" transform="scale(0.015625)"/>
      </defs>
      <use xlink:href="#DejaVuSans-79"/>
     </g>
    </g>
   </g>
   <g id="line2d_1">
    <path d="M 43.104659 412.383021 
L 188.532993 40.363752 
L 188.939218 39.781817 
L 303.494492 40.079226 
L 303.900717 40.600881 
L 448.922841 411.374224 
L 448.922841 411.374224 
" clip-path="url(#pcea2941262)" style="fill: none; stroke: #ffff00; stroke-width: 1.5; stroke-linecap: square"/>
   </g>
   <g id="line2d_2">
    <path d="M 43.104659 174.106122 
L 448.922841 174.106146 
L 448.922841 174.106146 
" clip-path="url(#pcea2941262)" style="fill: none; stroke-dasharray: 5.55,2.4; stroke-dashoffset: 0; stroke: #ffff00; stroke-width: 1.5"/>
   </g>
   <g id="patch_3">
    <path d="M 22.81375 450.72 
L 22.81375 7.2 
" style="fill: none; stroke: #ffff00; stroke-width: 0.8; stroke-linejoin: miter; stroke-linecap: square"/>
   </g>
   <g id="patch_4">
    <path d="M 22.81375 450.72 
L 469.21375 450.72 
" style="fill: none; stroke: #ffff00; stroke-width: 0.8; stroke-linejoin: miter; stroke-linecap: square"/>
   </g>
   <g id="patch_5">
    <path d="M 245.094767 74.691569 
Q 245.47966 58.055345 245.838694 42.536857 
" style="fill: none; stroke: #ffff00; stroke-linecap: round"/>
    <path d="M 243.328313 47.280061 
L 245.838694 42.536857 
L 248.127029 47.391084 
" style="fill: none; stroke: #ffff00; stroke-linecap: round"/>
   </g>
   <g id="text_3">
    <!-- Neural Network -->
    <g style="fill: #ffff00" transform="translate(198.115782 87.805678) scale(0.12 -0.12)">
     <defs>
      <path id="DejaVuSans-4e" d="M 628 4666 
L 1478 4666 
L 3547 763 
L 3547 4666 
L 4159 4666 
L 4159 0 
L 3309 0 
L 1241 3903 
L 1241 0 
L 628 0 
L 628 4666 
z
" transform="scale(0.015625)"/>
      <path id="DejaVuSans-65" d="M 3597 1894 
L 3597 1613 
L 953 1613 
Q 991 1019 1311 708 
Q 1631 397 2203 397 
Q 2534 397 2845 478 
Q 3156 559 3463 722 
L 3463 178 
Q 3153 47 2828 -22 
Q 2503 -91 2169 -91 
Q 1331 -91 842 396 
Q 353 884 353 1716 
Q 353 2575 817 3079 
Q 1281 3584 2069 3584 
Q 2775 3584 3186 3129 
Q 3597 2675 3597 1894 
z
M 3022 2063 
Q 3016 2534 2758 2815 
Q 2500 3097 2075 3097 
Q 1594 3097 1305 2825 
Q 1016 2553 972 2059 
L 3022 2063 
z
" transform="scale(0.015625)"/>
      <path id="DejaVuSans-75" d="M 544 1381 
L 544 3500 
L 1119 3500 
L 1119 1403 
Q 1119 906 1312 657 
Q 1506 409 1894 409 
Q 2359 409 2629 706 
Q 2900 1003 2900 1516 
L 2900 3500 
L 3475 3500 
L 3475 0 
L 2900 0 
L 2900 538 
Q 2691 219 2414 64 
Q 2138 -91 1772 -91 
Q 1169 -91 856 284 
Q 544 659 544 1381 
z
M 1991 3584 
L 1991 3584 
z
" transform="scale(0.015625)"/>
      <path id="DejaVuSans-72" d="M 2631 2963 
Q 2534 3019 2420 3045 
Q 2306 3072 2169 3072 
Q 1681 3072 1420 2755 
Q 1159 2438 1159 1844 
L 1159 0 
L 581 0 
L 581 3500 
L 1159 3500 
L 1159 2956 
Q 1341 3275 1631 3429 
Q 1922 3584 2338 3584 
Q 2397 3584 2469 3576 
Q 2541 3569 2628 3553 
L 2631 2963 
z
" transform="scale(0.015625)"/>
      <path id="DejaVuSans-61" d="M 2194 1759 
Q 1497 1759 1228 1600 
Q 959 1441 959 1056 
Q 959 750 1161 570 
Q 1363 391 1709 391 
Q 2188 391 2477 730 
Q 2766 1069 2766 1631 
L 2766 1759 
L 2194 1759 
z
M 3341 1997 
L 3341 0 
L 2766 0 
L 2766 531 
Q 2569 213 2275 61 
Q 1981 -91 1556 -91 
Q 1019 -91 701 211 
Q 384 513 384 1019 
Q 384 1609 779 1909 
Q 1175 2209 1959 2209 
L 2766 2209 
L 2766 2266 
Q 2766 2663 2505 2880 
Q 2244 3097 1772 3097 
Q 1472 3097 1187 3025 
Q 903 2953 641 2809 
L 641 3341 
Q 956 3463 1253 3523 
Q 1550 3584 1831 3584 
Q 2591 3584 2966 3190 
Q 3341 2797 3341 1997 
z
" transform="scale(0.015625)"/>
      <path id="DejaVuSans-6c" d="M 603 4863 
L 1178 4863 
L 1178 0 
L 603 0 
L 603 4863 
z
" transform="scale(0.015625)"/>
      <path id="DejaVuSans-20" transform="scale(0.015625)"/>
      <path id="DejaVuSans-74" d="M 1172 4494 
L 1172 3500 
L 2356 3500 
L 2356 3053 
L 1172 3053 
L 1172 1153 
Q 1172 725 1289 603 
Q 1406 481 1766 481 
L 2356 481 
L 2356 0 
L 1766 0 
Q 1100 0 847 248 
Q 594 497 594 1153 
L 594 3053 
L 172 3053 
L 172 3500 
L 594 3500 
L 594 4494 
L 1172 4494 
z
" transform="scale(0.015625)"/>
      <path id="DejaVuSans-77" d="M 269 3500 
L 844 3500 
L 1563 769 
L 2278 3500 
L 2956 3500 
L 3675 769 
L 4391 3500 
L 4966 3500 
L 4050 0 
L 3372 0 
L 2619 2869 
L 1863 0 
L 1184 0 
L 269 3500 
z
" transform="scale(0.015625)"/>
      <path id="DejaVuSans-6f" d="M 1959 3097 
Q 1497 3097 1228 2736 
Q 959 2375 959 1747 
Q 959 1119 1226 758 
Q 1494 397 1959 397 
Q 2419 397 2687 759 
Q 2956 1122 2956 1747 
Q 2956 2369 2687 2733 
Q 2419 3097 1959 3097 
z
M 1959 3584 
Q 2709 3584 3137 3096 
Q 3566 2609 3566 1747 
Q 3566 888 3137 398 
Q 2709 -91 1959 -91 
Q 1206 -91 779 398 
Q 353 888 353 1747 
Q 353 2609 779 3096 
Q 1206 3584 1959 3584 
z
" transform="scale(0.015625)"/>
      <path id="DejaVuSans-6b" d="M 581 4863 
L 1159 4863 
L 1159 1991 
L 2875 3500 
L 3609 3500 
L 1753 1863 
L 3688 0 
L 2938 0 
L 1159 1709 
L 1159 0 
L 581 0 
L 581 4863 
z
" transform="scale(0.015625)"/>
     </defs>
     <use xlink:href="#DejaVuSans-4e"/>
     <use xlink:href="#DejaVuSans-65" x="74.804688"/>
     <use xlink:href="#DejaVuSans-75" x="136.328125"/>
     <use xlink:href="#DejaVuSans-72" x="199.707031"/>
     <use xlink:href="#DejaVuSans-61" x="240.820312"/>
     <use xlink:href="#DejaVuSans-6c" x="302.099609"/>
     <use xlink:href="#DejaVuSans-20" x="329.882812"/>
     <use xlink:href="#DejaVuSans-4e" x="361.669922"/>
     <use xlink:href="#DejaVuSans-65" x="436.474609"/>
     <use xlink:href="#DejaVuSans-74" x="497.998047"/>
     <use xlink:href="#DejaVuSans-77" x="537.207031"/>
     <use xlink:href="#DejaVuSans-6f" x="618.994141"/>
     <use xlink:href="#DejaVuSans-72" x="680.175781"/>
     <use xlink:href="#DejaVuSans-6b" x="721.289062"/>
    </g>
   </g>
   <g id="patch_6">
    <path d="M 249.891896 215.821201 
Q 249.841717 197.170199 249.794547 179.637226 
" style="fill: none; stroke: #ffff00; stroke-linecap: round"/>
    <path d="M 247.407469 184.443666 
L 249.794547 179.637226 
L 252.207452 184.430752 
" style="fill: none; stroke: #ffff00; stroke-linecap: round"/>
   </g>
   <g id="text_4">
    <!-- Linear regression -->
    <g style="fill: #ffff00" transform="translate(198.115782 228.939811) scale(0.12 -0.12)">
     <defs>
      <path id="DejaVuSans-4c" d="M 628 4666 
L 1259 4666 
L 1259 531 
L 3531 531 
L 3531 0 
L 628 0 
L 628 4666 
z
" transform="scale(0.015625)"/>
      <path id="DejaVuSans-69" d="M 603 3500 
L 1178 3500 
L 1178 0 
L 603 0 
L 603 3500 
z
M 603 4863 
L 1178 4863 
L 1178 4134 
L 603 4134 
L 603 4863 
z
" transform="scale(0.015625)"/>
      <path id="DejaVuSans-6e" d="M 3513 2113 
L 3513 0 
L 2938 0 
L 2938 2094 
Q 2938 2591 2744 2837 
Q 2550 3084 2163 3084 
Q 1697 3084 1428 2787 
Q 1159 2491 1159 1978 
L 1159 0 
L 581 0 
L 581 3500 
L 1159 3500 
L 1159 2956 
Q 1366 3272 1645 3428 
Q 1925 3584 2291 3584 
Q 2894 3584 3203 3211 
Q 3513 2838 3513 2113 
z
" transform="scale(0.015625)"/>
      <path id="DejaVuSans-67" d="M 2906 1791 
Q 2906 2416 2648 2759 
Q 2391 3103 1925 3103 
Q 1463 3103 1205 2759 
Q 947 2416 947 1791 
Q 947 1169 1205 825 
Q 1463 481 1925 481 
Q 2391 481 2648 825 
Q 2906 1169 2906 1791 
z
M 3481 434 
Q 3481 -459 3084 -895 
Q 2688 -1331 1869 -1331 
Q 1566 -1331 1297 -1286 
Q 1028 -1241 775 -1147 
L 775 -588 
Q 1028 -725 1275 -790 
Q 1522 -856 1778 -856 
Q 2344 -856 2625 -561 
Q 2906 -266 2906 331 
L 2906 616 
Q 2728 306 2450 153 
Q 2172 0 1784 0 
Q 1141 0 747 490 
Q 353 981 353 1791 
Q 353 2603 747 3093 
Q 1141 3584 1784 3584 
Q 2172 3584 2450 3431 
Q 2728 3278 2906 2969 
L 2906 3500 
L 3481 3500 
L 3481 434 
z
" transform="scale(0.015625)"/>
      <path id="DejaVuSans-73" d="M 2834 3397 
L 2834 2853 
Q 2591 2978 2328 3040 
Q 2066 3103 1784 3103 
Q 1356 3103 1142 2972 
Q 928 2841 928 2578 
Q 928 2378 1081 2264 
Q 1234 2150 1697 2047 
L 1894 2003 
Q 2506 1872 2764 1633 
Q 3022 1394 3022 966 
Q 3022 478 2636 193 
Q 2250 -91 1575 -91 
Q 1294 -91 989 -36 
Q 684 19 347 128 
L 347 722 
Q 666 556 975 473 
Q 1284 391 1588 391 
Q 1994 391 2212 530 
Q 2431 669 2431 922 
Q 2431 1156 2273 1281 
Q 2116 1406 1581 1522 
L 1381 1569 
Q 847 1681 609 1914 
Q 372 2147 372 2553 
Q 372 3047 722 3315 
Q 1072 3584 1716 3584 
Q 2034 3584 2315 3537 
Q 2597 3491 2834 3397 
z
" transform="scale(0.015625)"/>
     </defs>
     <use xlink:href="#DejaVuSans-4c"/>
     <use xlink:href="#DejaVuSans-69" x="55.712891"/>
     <use xlink:href="#DejaVuSans-6e" x="83.496094"/>
     <use xlink:href="#DejaVuSans-65" x="146.875"/>
     <use xlink:href="#DejaVuSans-61" x="208.398438"/>
     <use xlink:href="#DejaVuSans-72" x="269.677734"/>
     <use xlink:href="#DejaVuSans-20" x="310.791016"/>
     <use xlink:href="#DejaVuSans-72" x="342.578125"/>
     <use xlink:href="#DejaVuSans-65" x="381.441406"/>
     <use xlink:href="#DejaVuSans-67" x="442.964844"/>
     <use xlink:href="#DejaVuSans-72" x="506.441406"/>
     <use xlink:href="#DejaVuSans-65" x="545.304688"/>
     <use xlink:href="#DejaVuSans-73" x="606.828125"/>
     <use xlink:href="#DejaVuSans-73" x="658.927734"/>
     <use xlink:href="#DejaVuSans-69" x="711.027344"/>
     <use xlink:href="#DejaVuSans-6f" x="738.810547"/>
     <use xlink:href="#DejaVuSans-6e" x="799.992188"/>
    </g>
   </g>
  </g>
 </g>
 <defs>
  <clipPath id="pcea2941262">
   <rect x="22.81375" y="7.2" width="446.4" height="443.52"/>
  </clipPath>
 </defs>
</svg>
