<?xml version="1.0" encoding="UTF-8"?>
<svg xmlns="http://www.w3.org/2000/svg" xmlns:xlink="http://www.w3.org/1999/xlink" width="372.835" height="287.795" viewBox="0 0 372.835 287.795">
<defs>
<clipPath id="clip-0">
<path clip-rule="nonzero" d="M 0 254 L 34 254 L 34 287.796875 L 0 287.796875 Z M 0 254 "/>
</clipPath>
<clipPath id="clip-1">
<path clip-rule="nonzero" d="M 339 112 L 372.835938 112 L 372.835938 147 L 339 147 Z M 339 112 "/>
</clipPath>
</defs>
<path fill="none" stroke-width="0.79701" stroke-linecap="butt" stroke-linejoin="miter" stroke="rgb(100%, 94.898987%, 0%)" stroke-opacity="1" stroke-miterlimit="10" d="M 5.977406 -28.347844 C 5.977406 -25.047063 3.301625 -22.367375 0.00084375 -22.367375 C -3.299938 -22.367375 -5.975719 -25.047063 -5.975719 -28.347844 C -5.975719 -31.648625 -3.299938 -34.324406 0.00084375 -34.324406 C 3.301625 -34.324406 5.977406 -31.648625 5.977406 -28.347844 Z M 5.977406 -28.347844 " transform="matrix(1, 0, 0, -1, 16.339, -12.008)"/>
<path fill="none" stroke-width="0.79701" stroke-linecap="butt" stroke-linejoin="miter" stroke="rgb(100%, 94.898987%, 0%)" stroke-opacity="1" stroke-miterlimit="10" d="M 5.977406 -56.6955 C 5.977406 -53.390813 3.301625 -50.715031 0.00084375 -50.715031 C -3.299938 -50.715031 -5.975719 -53.390813 -5.975719 -56.6955 C -5.975719 -59.996281 -3.299938 -62.672063 0.00084375 -62.672063 C 3.301625 -62.672063 5.977406 -59.996281 5.977406 -56.6955 Z M 5.977406 -56.6955 " transform="matrix(1, 0, 0, -1, 16.339, -12.008)"/>
<path fill="none" stroke-width="0.79701" stroke-linecap="butt" stroke-linejoin="miter" stroke="rgb(100%, 94.898987%, 0%)" stroke-opacity="1" stroke-miterlimit="10" d="M 5.977406 -85.03925 C 5.977406 -81.738469 3.301625 -79.062688 0.00084375 -79.062688 C -3.299938 -79.062688 -5.975719 -81.738469 -5.975719 -85.03925 C -5.975719 -88.340031 -3.299938 -91.019719 0.00084375 -91.019719 C 3.301625 -91.019719 5.977406 -88.340031 5.977406 -85.03925 Z M 5.977406 -85.03925 " transform="matrix(1, 0, 0, -1, 16.339, -12.008)"/>
<path fill="none" stroke-width="0.79701" stroke-linecap="butt" stroke-linejoin="miter" stroke="rgb(100%, 94.898987%, 0%)" stroke-opacity="1" stroke-miterlimit="10" d="M 5.977406 -113.386906 C 5.977406 -110.086125 3.301625 -107.410344 0.00084375 -107.410344 C -3.299938 -107.410344 -5.975719 -110.086125 -5.975719 -113.386906 C -5.975719 -116.687688 -3.299938 -119.363469 0.00084375 -119.363469 C 3.301625 -119.363469 5.977406 -116.687688 5.977406 -113.386906 Z M 5.977406 -113.386906 " transform="matrix(1, 0, 0, -1, 16.339, -12.008)"/>
<path fill="none" stroke-width="0.79701" stroke-linecap="butt" stroke-linejoin="miter" stroke="rgb(100%, 94.898987%, 0%)" stroke-opacity="1" stroke-miterlimit="10" d="M 5.977406 -141.734563 C 5.977406 -138.433781 3.301625 -135.758 0.00084375 -135.758 C -3.299938 -135.758 -5.975719 -138.433781 -5.975719 -141.734563 C -5.975719 -145.035344 -3.299938 -147.711125 0.00084375 -147.711125 C 3.301625 -147.711125 5.977406 -145.035344 5.977406 -141.734563 Z M 5.977406 -141.734563 " transform="matrix(1, 0, 0, -1, 16.339, -12.008)"/>
<path fill="none" stroke-width="0.79701" stroke-linecap="butt" stroke-linejoin="miter" stroke="rgb(100%, 94.898987%, 0%)" stroke-opacity="1" stroke-miterlimit="10" d="M 5.977406 -170.082219 C 5.977406 -166.777531 3.301625 -164.10175 0.00084375 -164.10175 C -3.299938 -164.10175 -5.975719 -166.777531 -5.975719 -170.082219 C -5.975719 -173.383 -3.299938 -176.058781 0.00084375 -176.058781 C 3.301625 -176.058781 5.977406 -173.383 5.977406 -170.082219 Z M 5.977406 -170.082219 " transform="matrix(1, 0, 0, -1, 16.339, -12.008)"/>
<path fill="none" stroke-width="0.79701" stroke-linecap="butt" stroke-linejoin="miter" stroke="rgb(100%, 94.898987%, 0%)" stroke-opacity="1" stroke-miterlimit="10" d="M 5.977406 -198.425969 C 5.977406 -195.125188 3.301625 -192.449406 0.00084375 -192.449406 C -3.299938 -192.449406 -5.975719 -195.125188 -5.975719 -198.425969 C -5.975719 -201.730656 -3.299938 -204.406438 0.00084375 -204.406438 C 3.301625 -204.406438 5.977406 -201.730656 5.977406 -198.425969 Z M 5.977406 -198.425969 " transform="matrix(1, 0, 0, -1, 16.339, -12.008)"/>
<path fill="none" stroke-width="0.79701" stroke-linecap="butt" stroke-linejoin="miter" stroke="rgb(100%, 94.898987%, 0%)" stroke-opacity="1" stroke-miterlimit="10" d="M 5.977406 -226.773625 C 5.977406 -223.472844 3.301625 -220.797063 0.00084375 -220.797063 C -3.299938 -220.797063 -5.975719 -223.472844 -5.975719 -226.773625 C -5.975719 -230.074406 -3.299938 -232.750188 0.00084375 -232.750188 C 3.301625 -232.750188 5.977406 -230.074406 5.977406 -226.773625 Z M 5.977406 -226.773625 " transform="matrix(1, 0, 0, -1, 16.339, -12.008)"/>
<path fill="none" stroke-width="0.79701" stroke-linecap="butt" stroke-linejoin="miter" stroke="rgb(100%, 94.898987%, 0%)" stroke-opacity="1" stroke-miterlimit="10" d="M 5.977406 -255.121281 C 5.977406 -251.8205 3.301625 -249.144719 0.00084375 -249.144719 C -3.299938 -249.144719 -5.975719 -251.8205 -5.975719 -255.121281 C -5.975719 -258.422063 -3.299938 -261.097844 0.00084375 -261.097844 C 3.301625 -261.097844 5.977406 -258.422063 5.977406 -255.121281 Z M 5.977406 -255.121281 " transform="matrix(1, 0, 0, -1, 16.339, -12.008)"/>
<g clip-path="url(#clip-0)">
<path fill="none" stroke-width="0.79701" stroke-linecap="butt" stroke-linejoin="miter" stroke="rgb(100%, 94.898987%, 0%)" stroke-opacity="1" stroke-miterlimit="10" d="M 5.977406 -283.468938 C 5.977406 -280.168156 3.301625 -277.492375 0.00084375 -277.492375 C -3.299938 -277.492375 -5.975719 -280.168156 -5.975719 -283.468938 C -5.975719 -286.769719 -3.299938 -289.4455 0.00084375 -289.4455 C 3.301625 -289.4455 5.977406 -286.769719 5.977406 -283.468938 Z M 5.977406 -283.468938 " transform="matrix(1, 0, 0, -1, 16.339, -12.008)"/>
</g>
<path fill="none" stroke-width="0.79701" stroke-linecap="butt" stroke-linejoin="miter" stroke="rgb(100%, 94.898987%, 0%)" stroke-opacity="1" stroke-miterlimit="10" d="M 119.364125 -56.6955 C 119.364125 -53.390813 116.688344 -50.715031 113.387563 -50.715031 C 110.086781 -50.715031 107.411 -53.390813 107.411 -56.6955 C 107.411 -59.996281 110.086781 -62.672063 113.387563 -62.672063 C 116.688344 -62.672063 119.364125 -59.996281 119.364125 -56.6955 Z M 119.364125 -56.6955 " transform="matrix(1, 0, 0, -1, 16.339, -12.008)"/>
<path fill="none" stroke-width="0.79701" stroke-linecap="butt" stroke-linejoin="miter" stroke="rgb(100%, 94.898987%, 0%)" stroke-opacity="1" stroke-miterlimit="10" d="M 119.364125 -85.03925 C 119.364125 -81.738469 116.688344 -79.062688 113.387563 -79.062688 C 110.086781 -79.062688 107.411 -81.738469 107.411 -85.03925 C 107.411 -88.340031 110.086781 -91.019719 113.387563 -91.019719 C 116.688344 -91.019719 119.364125 -88.340031 119.364125 -85.03925 Z M 119.364125 -85.03925 " transform="matrix(1, 0, 0, -1, 16.339, -12.008)"/>
<path fill="none" stroke-width="0.79701" stroke-linecap="butt" stroke-linejoin="miter" stroke="rgb(100%, 94.898987%, 0%)" stroke-opacity="1" stroke-miterlimit="10" d="M 119.364125 -113.386906 C 119.364125 -110.086125 116.688344 -107.410344 113.387563 -107.410344 C 110.086781 -107.410344 107.411 -110.086125 107.411 -113.386906 C 107.411 -116.687688 110.086781 -119.363469 113.387563 -119.363469 C 116.688344 -119.363469 119.364125 -116.687688 119.364125 -113.386906 Z M 119.364125 -113.386906 " transform="matrix(1, 0, 0, -1, 16.339, -12.008)"/>
<path fill="none" stroke-width="0.79701" stroke-linecap="butt" stroke-linejoin="miter" stroke="rgb(100%, 94.898987%, 0%)" stroke-opacity="1" stroke-miterlimit="10" d="M 119.364125 -141.734563 C 119.364125 -138.433781 116.688344 -135.758 113.387563 -135.758 C 110.086781 -135.758 107.411 -138.433781 107.411 -141.734563 C 107.411 -145.035344 110.086781 -147.711125 113.387563 -147.711125 C 116.688344 -147.711125 119.364125 -145.035344 119.364125 -141.734563 Z M 119.364125 -141.734563 " transform="matrix(1, 0, 0, -1, 16.339, -12.008)"/>
<path fill="none" stroke-width="0.79701" stroke-linecap="butt" stroke-linejoin="miter" stroke="rgb(100%, 94.898987%, 0%)" stroke-opacity="1" stroke-miterlimit="10" d="M 119.364125 -170.082219 C 119.364125 -166.777531 116.688344 -164.10175 113.387563 -164.10175 C 110.086781 -164.10175 107.411 -166.777531 107.411 -170.082219 C 107.411 -173.383 110.086781 -176.058781 113.387563 -176.058781 C 116.688344 -176.058781 119.364125 -173.383 119.364125 -170.082219 Z M 119.364125 -170.082219 " transform="matrix(1, 0, 0, -1, 16.339, -12.008)"/>
<path fill="none" stroke-width="0.79701" stroke-linecap="butt" stroke-linejoin="miter" stroke="rgb(100%, 94.898987%, 0%)" stroke-opacity="1" stroke-miterlimit="10" d="M 119.364125 -198.425969 C 119.364125 -195.125188 116.688344 -192.449406 113.387563 -192.449406 C 110.086781 -192.449406 107.411 -195.125188 107.411 -198.425969 C 107.411 -201.730656 110.086781 -204.406438 113.387563 -204.406438 C 116.688344 -204.406438 119.364125 -201.730656 119.364125 -198.425969 Z M 119.364125 -198.425969 " transform="matrix(1, 0, 0, -1, 16.339, -12.008)"/>
<path fill="none" stroke-width="0.79701" stroke-linecap="butt" stroke-linejoin="miter" stroke="rgb(100%, 94.898987%, 0%)" stroke-opacity="1" stroke-miterlimit="10" d="M 119.364125 -226.773625 C 119.364125 -223.472844 116.688344 -220.797063 113.387563 -220.797063 C 110.086781 -220.797063 107.411 -223.472844 107.411 -226.773625 C 107.411 -230.074406 110.086781 -232.750188 113.387563 -232.750188 C 116.688344 -232.750188 119.364125 -230.074406 119.364125 -226.773625 Z M 119.364125 -226.773625 " transform="matrix(1, 0, 0, -1, 16.339, -12.008)"/>
<path fill="none" stroke-width="0.79701" stroke-linecap="butt" stroke-linejoin="miter" stroke="rgb(100%, 94.898987%, 0%)" stroke-opacity="1" stroke-miterlimit="10" d="M 119.364125 -255.121281 C 119.364125 -251.8205 116.688344 -249.144719 113.387563 -249.144719 C 110.086781 -249.144719 107.411 -251.8205 107.411 -255.121281 C 107.411 -258.422063 110.086781 -261.097844 113.387563 -261.097844 C 116.688344 -261.097844 119.364125 -258.422063 119.364125 -255.121281 Z M 119.364125 -255.121281 " transform="matrix(1, 0, 0, -1, 16.339, -12.008)"/>
<path fill="none" stroke-width="0.79701" stroke-linecap="butt" stroke-linejoin="miter" stroke="rgb(100%, 94.898987%, 0%)" stroke-opacity="1" stroke-miterlimit="10" d="M 232.750844 -56.6955 C 232.750844 -53.390813 230.075063 -50.715031 226.774281 -50.715031 C 223.4735 -50.715031 220.797719 -53.390813 220.797719 -56.6955 C 220.797719 -59.996281 223.4735 -62.672063 226.774281 -62.672063 C 230.075063 -62.672063 232.750844 -59.996281 232.750844 -56.6955 Z M 232.750844 -56.6955 " transform="matrix(1, 0, 0, -1, 16.339, -12.008)"/>
<path fill="none" stroke-width="0.79701" stroke-linecap="butt" stroke-linejoin="miter" stroke="rgb(100%, 94.898987%, 0%)" stroke-opacity="1" stroke-miterlimit="10" d="M 232.750844 -85.03925 C 232.750844 -81.738469 230.075063 -79.062688 226.774281 -79.062688 C 223.4735 -79.062688 220.797719 -81.738469 220.797719 -85.03925 C 220.797719 -88.340031 223.4735 -91.019719 226.774281 -91.019719 C 230.075063 -91.019719 232.750844 -88.340031 232.750844 -85.03925 Z M 232.750844 -85.03925 " transform="matrix(1, 0, 0, -1, 16.339, -12.008)"/>
<path fill="none" stroke-width="0.79701" stroke-linecap="butt" stroke-linejoin="miter" stroke="rgb(100%, 94.898987%, 0%)" stroke-opacity="1" stroke-miterlimit="10" d="M 232.750844 -113.386906 C 232.750844 -110.086125 230.075063 -107.410344 226.774281 -107.410344 C 223.4735 -107.410344 220.797719 -110.086125 220.797719 -113.386906 C 220.797719 -116.687688 223.4735 -119.363469 226.774281 -119.363469 C 230.075063 -119.363469 232.750844 -116.687688 232.750844 -113.386906 Z M 232.750844 -113.386906 " transform="matrix(1, 0, 0, -1, 16.339, -12.008)"/>
<path fill="none" stroke-width="0.79701" stroke-linecap="butt" stroke-linejoin="miter" stroke="rgb(100%, 94.898987%, 0%)" stroke-opacity="1" stroke-miterlimit="10" d="M 232.750844 -141.734563 C 232.750844 -138.433781 230.075063 -135.758 226.774281 -135.758 C 223.4735 -135.758 220.797719 -138.433781 220.797719 -141.734563 C 220.797719 -145.035344 223.4735 -147.711125 226.774281 -147.711125 C 230.075063 -147.711125 232.750844 -145.035344 232.750844 -141.734563 Z M 232.750844 -141.734563 " transform="matrix(1, 0, 0, -1, 16.339, -12.008)"/>
<path fill="none" stroke-width="0.79701" stroke-linecap="butt" stroke-linejoin="miter" stroke="rgb(100%, 94.898987%, 0%)" stroke-opacity="1" stroke-miterlimit="10" d="M 232.750844 -170.082219 C 232.750844 -166.777531 230.075063 -164.10175 226.774281 -164.10175 C 223.4735 -164.10175 220.797719 -166.777531 220.797719 -170.082219 C 220.797719 -173.383 223.4735 -176.058781 226.774281 -176.058781 C 230.075063 -176.058781 232.750844 -173.383 232.750844 -170.082219 Z M 232.750844 -170.082219 " transform="matrix(1, 0, 0, -1, 16.339, -12.008)"/>
<path fill="none" stroke-width="0.79701" stroke-linecap="butt" stroke-linejoin="miter" stroke="rgb(100%, 94.898987%, 0%)" stroke-opacity="1" stroke-miterlimit="10" d="M 232.750844 -198.425969 C 232.750844 -195.125188 230.075063 -192.449406 226.774281 -192.449406 C 223.4735 -192.449406 220.797719 -195.125188 220.797719 -198.425969 C 220.797719 -201.730656 223.4735 -204.406438 226.774281 -204.406438 C 230.075063 -204.406438 232.750844 -201.730656 232.750844 -198.425969 Z M 232.750844 -198.425969 " transform="matrix(1, 0, 0, -1, 16.339, -12.008)"/>
<path fill="none" stroke-width="0.79701" stroke-linecap="butt" stroke-linejoin="miter" stroke="rgb(100%, 94.898987%, 0%)" stroke-opacity="1" stroke-miterlimit="10" d="M 232.750844 -226.773625 C 232.750844 -223.472844 230.075063 -220.797063 226.774281 -220.797063 C 223.4735 -220.797063 220.797719 -223.472844 220.797719 -226.773625 C 220.797719 -230.074406 223.4735 -232.750188 226.774281 -232.750188 C 230.075063 -232.750188 232.750844 -230.074406 232.750844 -226.773625 Z M 232.750844 -226.773625 " transform="matrix(1, 0, 0, -1, 16.339, -12.008)"/>
<path fill="none" stroke-width="0.79701" stroke-linecap="butt" stroke-linejoin="miter" stroke="rgb(100%, 94.898987%, 0%)" stroke-opacity="1" stroke-miterlimit="10" d="M 232.750844 -255.121281 C 232.750844 -251.8205 230.075063 -249.144719 226.774281 -249.144719 C 223.4735 -249.144719 220.797719 -251.8205 220.797719 -255.121281 C 220.797719 -258.422063 223.4735 -261.097844 226.774281 -261.097844 C 230.075063 -261.097844 232.750844 -258.422063 232.750844 -255.121281 Z M 232.750844 -255.121281 " transform="matrix(1, 0, 0, -1, 16.339, -12.008)"/>
<g clip-path="url(#clip-1)">
<path fill="none" stroke-width="0.79701" stroke-linecap="butt" stroke-linejoin="miter" stroke="rgb(100%, 94.898987%, 0%)" stroke-opacity="1" stroke-miterlimit="10" d="M 346.137563 -141.734563 C 346.137563 -138.433781 343.461781 -135.758 340.161 -135.758 C 336.860219 -135.758 334.184438 -138.433781 334.184438 -141.734563 C 334.184438 -145.035344 336.860219 -147.711125 340.161 -147.711125 C 343.461781 -147.711125 346.137563 -145.035344 346.137563 -141.734563 Z M 346.137563 -141.734563 " transform="matrix(1, 0, 0, -1, 16.339, -12.008)"/>
</g>
<path fill="none" stroke-width="0.79701" stroke-linecap="butt" stroke-linejoin="miter" stroke="rgb(100%, 94.898987%, 0%)" stroke-opacity="1" stroke-miterlimit="10" d="M 6.184437 -29.894719 L 107.200063 -55.148625 " transform="matrix(1, 0, 0, -1, 16.339, -12.008)"/>
<path fill="none" stroke-width="0.79701" stroke-linecap="butt" stroke-linejoin="miter" stroke="rgb(100%, 94.898987%, 0%)" stroke-opacity="1" stroke-miterlimit="10" d="M 5.703969 -31.199406 L 107.684438 -82.187688 " transform="matrix(1, 0, 0, -1, 16.339, -12.008)"/>
<path fill="none" stroke-width="0.79701" stroke-linecap="butt" stroke-linejoin="miter" stroke="rgb(100%, 94.898987%, 0%)" stroke-opacity="1" stroke-miterlimit="10" d="M 5.102406 -32.172063 L 108.286 -109.562688 " transform="matrix(1, 0, 0, -1, 16.339, -12.008)"/>
<path fill="none" stroke-width="0.79701" stroke-linecap="butt" stroke-linejoin="miter" stroke="rgb(100%, 94.898987%, 0%)" stroke-opacity="1" stroke-miterlimit="10" d="M 4.508656 -32.855656 L 108.87975 -137.22675 " transform="matrix(1, 0, 0, -1, 16.339, -12.008)"/>
<path fill="none" stroke-width="0.79701" stroke-linecap="butt" stroke-linejoin="miter" stroke="rgb(100%, 94.898987%, 0%)" stroke-opacity="1" stroke-miterlimit="10" d="M 3.981312 -33.324406 L 109.403188 -165.10175 " transform="matrix(1, 0, 0, -1, 16.339, -12.008)"/>
<path fill="none" stroke-width="0.79701" stroke-linecap="butt" stroke-linejoin="miter" stroke="rgb(100%, 94.898987%, 0%)" stroke-opacity="1" stroke-miterlimit="10" d="M 3.536 -33.652531 L 109.852406 -193.121281 " transform="matrix(1, 0, 0, -1, 16.339, -12.008)"/>
<path fill="none" stroke-width="0.79701" stroke-linecap="butt" stroke-linejoin="miter" stroke="rgb(100%, 94.898987%, 0%)" stroke-opacity="1" stroke-miterlimit="10" d="M 3.164906 -33.883 L 110.2235 -221.238469 " transform="matrix(1, 0, 0, -1, 16.339, -12.008)"/>
<path fill="none" stroke-width="0.79701" stroke-linecap="butt" stroke-linejoin="miter" stroke="rgb(100%, 94.898987%, 0%)" stroke-opacity="1" stroke-miterlimit="10" d="M 2.852406 -34.050969 L 110.536 -249.418156 " transform="matrix(1, 0, 0, -1, 16.339, -12.008)"/>
<path fill="none" stroke-width="0.79701" stroke-linecap="butt" stroke-linejoin="miter" stroke="rgb(100%, 94.898987%, 0%)" stroke-opacity="1" stroke-miterlimit="10" d="M 6.375844 -56.6955 L 107.012563 -56.6955 " transform="matrix(1, 0, 0, -1, 16.339, -12.008)"/>
<path fill="none" stroke-width="0.79701" stroke-linecap="butt" stroke-linejoin="miter" stroke="rgb(100%, 94.898987%, 0%)" stroke-opacity="1" stroke-miterlimit="10" d="M 6.184437 -58.238469 L 107.200063 -83.492375 " transform="matrix(1, 0, 0, -1, 16.339, -12.008)"/>
<path fill="none" stroke-width="0.79701" stroke-linecap="butt" stroke-linejoin="miter" stroke="rgb(100%, 94.898987%, 0%)" stroke-opacity="1" stroke-miterlimit="10" d="M 5.703969 -59.543156 L 107.684438 -110.535344 " transform="matrix(1, 0, 0, -1, 16.339, -12.008)"/>
<path fill="none" stroke-width="0.79701" stroke-linecap="butt" stroke-linejoin="miter" stroke="rgb(100%, 94.898987%, 0%)" stroke-opacity="1" stroke-miterlimit="10" d="M 5.102406 -60.519719 L 108.286 -137.910344 " transform="matrix(1, 0, 0, -1, 16.339, -12.008)"/>
<path fill="none" stroke-width="0.79701" stroke-linecap="butt" stroke-linejoin="miter" stroke="rgb(100%, 94.898987%, 0%)" stroke-opacity="1" stroke-miterlimit="10" d="M 4.508656 -61.203313 L 108.87975 -165.5705 " transform="matrix(1, 0, 0, -1, 16.339, -12.008)"/>
<path fill="none" stroke-width="0.79701" stroke-linecap="butt" stroke-linejoin="miter" stroke="rgb(100%, 94.898987%, 0%)" stroke-opacity="1" stroke-miterlimit="10" d="M 3.981312 -61.672063 L 109.403188 -193.449406 " transform="matrix(1, 0, 0, -1, 16.339, -12.008)"/>
<path fill="none" stroke-width="0.79701" stroke-linecap="butt" stroke-linejoin="miter" stroke="rgb(100%, 94.898987%, 0%)" stroke-opacity="1" stroke-miterlimit="10" d="M 3.536 -62.000188 L 109.852406 -221.468938 " transform="matrix(1, 0, 0, -1, 16.339, -12.008)"/>
<path fill="none" stroke-width="0.79701" stroke-linecap="butt" stroke-linejoin="miter" stroke="rgb(100%, 94.898987%, 0%)" stroke-opacity="1" stroke-miterlimit="10" d="M 3.164906 -62.230656 L 110.2235 -249.586125 " transform="matrix(1, 0, 0, -1, 16.339, -12.008)"/>
<path fill="none" stroke-width="0.79701" stroke-linecap="butt" stroke-linejoin="miter" stroke="rgb(100%, 94.898987%, 0%)" stroke-opacity="1" stroke-miterlimit="10" d="M 6.184437 -83.492375 L 107.200063 -58.238469 " transform="matrix(1, 0, 0, -1, 16.339, -12.008)"/>
<path fill="none" stroke-width="0.79701" stroke-linecap="butt" stroke-linejoin="miter" stroke="rgb(100%, 94.898987%, 0%)" stroke-opacity="1" stroke-miterlimit="10" d="M 6.375844 -85.03925 L 107.012563 -85.03925 " transform="matrix(1, 0, 0, -1, 16.339, -12.008)"/>
<path fill="none" stroke-width="0.79701" stroke-linecap="butt" stroke-linejoin="miter" stroke="rgb(100%, 94.898987%, 0%)" stroke-opacity="1" stroke-miterlimit="10" d="M 6.184437 -86.586125 L 107.200063 -111.840031 " transform="matrix(1, 0, 0, -1, 16.339, -12.008)"/>
<path fill="none" stroke-width="0.79701" stroke-linecap="butt" stroke-linejoin="miter" stroke="rgb(100%, 94.898987%, 0%)" stroke-opacity="1" stroke-miterlimit="10" d="M 5.703969 -87.890813 L 107.684438 -138.883 " transform="matrix(1, 0, 0, -1, 16.339, -12.008)"/>
<path fill="none" stroke-width="0.79701" stroke-linecap="butt" stroke-linejoin="miter" stroke="rgb(100%, 94.898987%, 0%)" stroke-opacity="1" stroke-miterlimit="10" d="M 5.102406 -88.867375 L 108.286 -166.254094 " transform="matrix(1, 0, 0, -1, 16.339, -12.008)"/>
<path fill="none" stroke-width="0.79701" stroke-linecap="butt" stroke-linejoin="miter" stroke="rgb(100%, 94.898987%, 0%)" stroke-opacity="1" stroke-miterlimit="10" d="M 4.508656 -89.550969 L 108.87975 -193.918156 " transform="matrix(1, 0, 0, -1, 16.339, -12.008)"/>
<path fill="none" stroke-width="0.79701" stroke-linecap="butt" stroke-linejoin="miter" stroke="rgb(100%, 94.898987%, 0%)" stroke-opacity="1" stroke-miterlimit="10" d="M 3.981312 -90.019719 L 109.403188 -221.797063 " transform="matrix(1, 0, 0, -1, 16.339, -12.008)"/>
<path fill="none" stroke-width="0.79701" stroke-linecap="butt" stroke-linejoin="miter" stroke="rgb(100%, 94.898987%, 0%)" stroke-opacity="1" stroke-miterlimit="10" d="M 3.536 -90.343938 L 109.852406 -249.816594 " transform="matrix(1, 0, 0, -1, 16.339, -12.008)"/>
<path fill="none" stroke-width="0.79701" stroke-linecap="butt" stroke-linejoin="miter" stroke="rgb(100%, 94.898987%, 0%)" stroke-opacity="1" stroke-miterlimit="10" d="M 5.703969 -110.535344 L 107.684438 -59.543156 " transform="matrix(1, 0, 0, -1, 16.339, -12.008)"/>
<path fill="none" stroke-width="0.79701" stroke-linecap="butt" stroke-linejoin="miter" stroke="rgb(100%, 94.898987%, 0%)" stroke-opacity="1" stroke-miterlimit="10" d="M 6.184437 -111.840031 L 107.200063 -86.586125 " transform="matrix(1, 0, 0, -1, 16.339, -12.008)"/>
<path fill="none" stroke-width="0.79701" stroke-linecap="butt" stroke-linejoin="miter" stroke="rgb(100%, 94.898987%, 0%)" stroke-opacity="1" stroke-miterlimit="10" d="M 6.375844 -113.386906 L 107.012563 -113.386906 " transform="matrix(1, 0, 0, -1, 16.339, -12.008)"/>
<path fill="none" stroke-width="0.79701" stroke-linecap="butt" stroke-linejoin="miter" stroke="rgb(100%, 94.898987%, 0%)" stroke-opacity="1" stroke-miterlimit="10" d="M 6.184437 -114.933781 L 107.200063 -140.187688 " transform="matrix(1, 0, 0, -1, 16.339, -12.008)"/>
<path fill="none" stroke-width="0.79701" stroke-linecap="butt" stroke-linejoin="miter" stroke="rgb(100%, 94.898987%, 0%)" stroke-opacity="1" stroke-miterlimit="10" d="M 5.703969 -116.238469 L 107.684438 -167.230656 " transform="matrix(1, 0, 0, -1, 16.339, -12.008)"/>
<path fill="none" stroke-width="0.79701" stroke-linecap="butt" stroke-linejoin="miter" stroke="rgb(100%, 94.898987%, 0%)" stroke-opacity="1" stroke-miterlimit="10" d="M 5.102406 -117.211125 L 108.286 -194.60175 " transform="matrix(1, 0, 0, -1, 16.339, -12.008)"/>
<path fill="none" stroke-width="0.79701" stroke-linecap="butt" stroke-linejoin="miter" stroke="rgb(100%, 94.898987%, 0%)" stroke-opacity="1" stroke-miterlimit="10" d="M 4.508656 -117.894719 L 108.87975 -222.265813 " transform="matrix(1, 0, 0, -1, 16.339, -12.008)"/>
<path fill="none" stroke-width="0.79701" stroke-linecap="butt" stroke-linejoin="miter" stroke="rgb(100%, 94.898987%, 0%)" stroke-opacity="1" stroke-miterlimit="10" d="M 3.981312 -118.367375 L 109.403188 -250.140813 " transform="matrix(1, 0, 0, -1, 16.339, -12.008)"/>
<path fill="none" stroke-width="0.79701" stroke-linecap="butt" stroke-linejoin="miter" stroke="rgb(100%, 94.898987%, 0%)" stroke-opacity="1" stroke-miterlimit="10" d="M 5.102406 -137.910344 L 108.286 -60.519719 " transform="matrix(1, 0, 0, -1, 16.339, -12.008)"/>
<path fill="none" stroke-width="0.79701" stroke-linecap="butt" stroke-linejoin="miter" stroke="rgb(100%, 94.898987%, 0%)" stroke-opacity="1" stroke-miterlimit="10" d="M 5.703969 -138.883 L 107.684438 -87.890813 " transform="matrix(1, 0, 0, -1, 16.339, -12.008)"/>
<path fill="none" stroke-width="0.79701" stroke-linecap="butt" stroke-linejoin="miter" stroke="rgb(100%, 94.898987%, 0%)" stroke-opacity="1" stroke-miterlimit="10" d="M 6.184437 -140.187688 L 107.200063 -114.933781 " transform="matrix(1, 0, 0, -1, 16.339, -12.008)"/>
<path fill="none" stroke-width="0.79701" stroke-linecap="butt" stroke-linejoin="miter" stroke="rgb(100%, 94.898987%, 0%)" stroke-opacity="1" stroke-miterlimit="10" d="M 6.375844 -141.734563 L 107.012563 -141.734563 " transform="matrix(1, 0, 0, -1, 16.339, -12.008)"/>
<path fill="none" stroke-width="0.79701" stroke-linecap="butt" stroke-linejoin="miter" stroke="rgb(100%, 94.898987%, 0%)" stroke-opacity="1" stroke-miterlimit="10" d="M 6.184437 -143.281438 L 107.200063 -168.535344 " transform="matrix(1, 0, 0, -1, 16.339, -12.008)"/>
<path fill="none" stroke-width="0.79701" stroke-linecap="butt" stroke-linejoin="miter" stroke="rgb(100%, 94.898987%, 0%)" stroke-opacity="1" stroke-miterlimit="10" d="M 5.703969 -144.586125 L 107.684438 -195.578313 " transform="matrix(1, 0, 0, -1, 16.339, -12.008)"/>
<path fill="none" stroke-width="0.79701" stroke-linecap="butt" stroke-linejoin="miter" stroke="rgb(100%, 94.898987%, 0%)" stroke-opacity="1" stroke-miterlimit="10" d="M 5.102406 -145.558781 L 108.286 -222.949406 " transform="matrix(1, 0, 0, -1, 16.339, -12.008)"/>
<path fill="none" stroke-width="0.79701" stroke-linecap="butt" stroke-linejoin="miter" stroke="rgb(100%, 94.898987%, 0%)" stroke-opacity="1" stroke-miterlimit="10" d="M 4.508656 -146.242375 L 108.87975 -250.613469 " transform="matrix(1, 0, 0, -1, 16.339, -12.008)"/>
<path fill="none" stroke-width="0.79701" stroke-linecap="butt" stroke-linejoin="miter" stroke="rgb(100%, 94.898987%, 0%)" stroke-opacity="1" stroke-miterlimit="10" d="M 4.508656 -165.5705 L 108.87975 -61.203313 " transform="matrix(1, 0, 0, -1, 16.339, -12.008)"/>
<path fill="none" stroke-width="0.79701" stroke-linecap="butt" stroke-linejoin="miter" stroke="rgb(100%, 94.898987%, 0%)" stroke-opacity="1" stroke-miterlimit="10" d="M 5.102406 -166.254094 L 108.286 -88.867375 " transform="matrix(1, 0, 0, -1, 16.339, -12.008)"/>
<path fill="none" stroke-width="0.79701" stroke-linecap="butt" stroke-linejoin="miter" stroke="rgb(100%, 94.898987%, 0%)" stroke-opacity="1" stroke-miterlimit="10" d="M 5.703969 -167.230656 L 107.684438 -116.238469 " transform="matrix(1, 0, 0, -1, 16.339, -12.008)"/>
<path fill="none" stroke-width="0.79701" stroke-linecap="butt" stroke-linejoin="miter" stroke="rgb(100%, 94.898987%, 0%)" stroke-opacity="1" stroke-miterlimit="10" d="M 6.184437 -168.535344 L 107.200063 -143.281438 " transform="matrix(1, 0, 0, -1, 16.339, -12.008)"/>
<path fill="none" stroke-width="0.79701" stroke-linecap="butt" stroke-linejoin="miter" stroke="rgb(100%, 94.898987%, 0%)" stroke-opacity="1" stroke-miterlimit="10" d="M 6.375844 -170.082219 L 107.012563 -170.082219 " transform="matrix(1, 0, 0, -1, 16.339, -12.008)"/>
<path fill="none" stroke-width="0.79701" stroke-linecap="butt" stroke-linejoin="miter" stroke="rgb(100%, 94.898987%, 0%)" stroke-opacity="1" stroke-miterlimit="10" d="M 6.184437 -171.625188 L 107.200063 -196.883 " transform="matrix(1, 0, 0, -1, 16.339, -12.008)"/>
<path fill="none" stroke-width="0.79701" stroke-linecap="butt" stroke-linejoin="miter" stroke="rgb(100%, 94.898987%, 0%)" stroke-opacity="1" stroke-miterlimit="10" d="M 5.703969 -172.933781 L 107.684438 -223.922063 " transform="matrix(1, 0, 0, -1, 16.339, -12.008)"/>
<path fill="none" stroke-width="0.79701" stroke-linecap="butt" stroke-linejoin="miter" stroke="rgb(100%, 94.898987%, 0%)" stroke-opacity="1" stroke-miterlimit="10" d="M 5.102406 -173.906438 L 108.286 -251.297063 " transform="matrix(1, 0, 0, -1, 16.339, -12.008)"/>
<path fill="none" stroke-width="0.79701" stroke-linecap="butt" stroke-linejoin="miter" stroke="rgb(100%, 94.898987%, 0%)" stroke-opacity="1" stroke-miterlimit="10" d="M 3.981312 -193.449406 L 109.403188 -61.672063 " transform="matrix(1, 0, 0, -1, 16.339, -12.008)"/>
<path fill="none" stroke-width="0.79701" stroke-linecap="butt" stroke-linejoin="miter" stroke="rgb(100%, 94.898987%, 0%)" stroke-opacity="1" stroke-miterlimit="10" d="M 4.508656 -193.918156 L 108.87975 -89.550969 " transform="matrix(1, 0, 0, -1, 16.339, -12.008)"/>
<path fill="none" stroke-width="0.79701" stroke-linecap="butt" stroke-linejoin="miter" stroke="rgb(100%, 94.898987%, 0%)" stroke-opacity="1" stroke-miterlimit="10" d="M 5.102406 -194.60175 L 108.286 -117.211125 " transform="matrix(1, 0, 0, -1, 16.339, -12.008)"/>
<path fill="none" stroke-width="0.79701" stroke-linecap="butt" stroke-linejoin="miter" stroke="rgb(100%, 94.898987%, 0%)" stroke-opacity="1" stroke-miterlimit="10" d="M 5.703969 -195.578313 L 107.684438 -144.586125 " transform="matrix(1, 0, 0, -1, 16.339, -12.008)"/>
<path fill="none" stroke-width="0.79701" stroke-linecap="butt" stroke-linejoin="miter" stroke="rgb(100%, 94.898987%, 0%)" stroke-opacity="1" stroke-miterlimit="10" d="M 6.184437 -196.883 L 107.200063 -171.625188 " transform="matrix(1, 0, 0, -1, 16.339, -12.008)"/>
<path fill="none" stroke-width="0.79701" stroke-linecap="butt" stroke-linejoin="miter" stroke="rgb(100%, 94.898987%, 0%)" stroke-opacity="1" stroke-miterlimit="10" d="M 6.375844 -198.425969 L 107.012563 -198.425969 " transform="matrix(1, 0, 0, -1, 16.339, -12.008)"/>
<path fill="none" stroke-width="0.79701" stroke-linecap="butt" stroke-linejoin="miter" stroke="rgb(100%, 94.898987%, 0%)" stroke-opacity="1" stroke-miterlimit="10" d="M 6.184437 -199.972844 L 107.200063 -225.22675 " transform="matrix(1, 0, 0, -1, 16.339, -12.008)"/>
<path fill="none" stroke-width="0.79701" stroke-linecap="butt" stroke-linejoin="miter" stroke="rgb(100%, 94.898987%, 0%)" stroke-opacity="1" stroke-miterlimit="10" d="M 5.703969 -201.277531 L 107.684438 -252.269719 " transform="matrix(1, 0, 0, -1, 16.339, -12.008)"/>
<path fill="none" stroke-width="0.79701" stroke-linecap="butt" stroke-linejoin="miter" stroke="rgb(100%, 94.898987%, 0%)" stroke-opacity="1" stroke-miterlimit="10" d="M 3.536 -221.468938 L 109.852406 -62.000188 " transform="matrix(1, 0, 0, -1, 16.339, -12.008)"/>
<path fill="none" stroke-width="0.79701" stroke-linecap="butt" stroke-linejoin="miter" stroke="rgb(100%, 94.898987%, 0%)" stroke-opacity="1" stroke-miterlimit="10" d="M 3.981312 -221.797063 L 109.403188 -90.019719 " transform="matrix(1, 0, 0, -1, 16.339, -12.008)"/>
<path fill="none" stroke-width="0.79701" stroke-linecap="butt" stroke-linejoin="miter" stroke="rgb(100%, 94.898987%, 0%)" stroke-opacity="1" stroke-miterlimit="10" d="M 4.508656 -222.265813 L 108.87975 -117.894719 " transform="matrix(1, 0, 0, -1, 16.339, -12.008)"/>
<path fill="none" stroke-width="0.79701" stroke-linecap="butt" stroke-linejoin="miter" stroke="rgb(100%, 94.898987%, 0%)" stroke-opacity="1" stroke-miterlimit="10" d="M 5.102406 -222.949406 L 108.286 -145.558781 " transform="matrix(1, 0, 0, -1, 16.339, -12.008)"/>
<path fill="none" stroke-width="0.79701" stroke-linecap="butt" stroke-linejoin="miter" stroke="rgb(100%, 94.898987%, 0%)" stroke-opacity="1" stroke-miterlimit="10" d="M 5.703969 -223.922063 L 107.684438 -172.933781 " transform="matrix(1, 0, 0, -1, 16.339, -12.008)"/>
<path fill="none" stroke-width="0.79701" stroke-linecap="butt" stroke-linejoin="miter" stroke="rgb(100%, 94.898987%, 0%)" stroke-opacity="1" stroke-miterlimit="10" d="M 6.184437 -225.22675 L 107.200063 -199.972844 " transform="matrix(1, 0, 0, -1, 16.339, -12.008)"/>
<path fill="none" stroke-width="0.79701" stroke-linecap="butt" stroke-linejoin="miter" stroke="rgb(100%, 94.898987%, 0%)" stroke-opacity="1" stroke-miterlimit="10" d="M 6.375844 -226.773625 L 107.012563 -226.773625 " transform="matrix(1, 0, 0, -1, 16.339, -12.008)"/>
<path fill="none" stroke-width="0.79701" stroke-linecap="butt" stroke-linejoin="miter" stroke="rgb(100%, 94.898987%, 0%)" stroke-opacity="1" stroke-miterlimit="10" d="M 6.184437 -228.3205 L 107.200063 -253.574406 " transform="matrix(1, 0, 0, -1, 16.339, -12.008)"/>
<path fill="none" stroke-width="0.79701" stroke-linecap="butt" stroke-linejoin="miter" stroke="rgb(100%, 94.898987%, 0%)" stroke-opacity="1" stroke-miterlimit="10" d="M 3.164906 -249.586125 L 110.2235 -62.230656 " transform="matrix(1, 0, 0, -1, 16.339, -12.008)"/>
<path fill="none" stroke-width="0.79701" stroke-linecap="butt" stroke-linejoin="miter" stroke="rgb(100%, 94.898987%, 0%)" stroke-opacity="1" stroke-miterlimit="10" d="M 3.536 -249.816594 L 109.852406 -90.343938 " transform="matrix(1, 0, 0, -1, 16.339, -12.008)"/>
<path fill="none" stroke-width="0.79701" stroke-linecap="butt" stroke-linejoin="miter" stroke="rgb(100%, 94.898987%, 0%)" stroke-opacity="1" stroke-miterlimit="10" d="M 3.981312 -250.140813 L 109.403188 -118.367375 " transform="matrix(1, 0, 0, -1, 16.339, -12.008)"/>
<path fill="none" stroke-width="0.79701" stroke-linecap="butt" stroke-linejoin="miter" stroke="rgb(100%, 94.898987%, 0%)" stroke-opacity="1" stroke-miterlimit="10" d="M 4.508656 -250.613469 L 108.87975 -146.242375 " transform="matrix(1, 0, 0, -1, 16.339, -12.008)"/>
<path fill="none" stroke-width="0.79701" stroke-linecap="butt" stroke-linejoin="miter" stroke="rgb(100%, 94.898987%, 0%)" stroke-opacity="1" stroke-miterlimit="10" d="M 5.102406 -251.297063 L 108.286 -173.906438 " transform="matrix(1, 0, 0, -1, 16.339, -12.008)"/>
<path fill="none" stroke-width="0.79701" stroke-linecap="butt" stroke-linejoin="miter" stroke="rgb(100%, 94.898987%, 0%)" stroke-opacity="1" stroke-miterlimit="10" d="M 5.703969 -252.269719 L 107.684438 -201.277531 " transform="matrix(1, 0, 0, -1, 16.339, -12.008)"/>
<path fill="none" stroke-width="0.79701" stroke-linecap="butt" stroke-linejoin="miter" stroke="rgb(100%, 94.898987%, 0%)" stroke-opacity="1" stroke-miterlimit="10" d="M 6.184437 -253.574406 L 107.200063 -228.3205 " transform="matrix(1, 0, 0, -1, 16.339, -12.008)"/>
<path fill="none" stroke-width="0.79701" stroke-linecap="butt" stroke-linejoin="miter" stroke="rgb(100%, 94.898987%, 0%)" stroke-opacity="1" stroke-miterlimit="10" d="M 6.375844 -255.121281 L 107.012563 -255.121281 " transform="matrix(1, 0, 0, -1, 16.339, -12.008)"/>
<path fill="none" stroke-width="0.79701" stroke-linecap="butt" stroke-linejoin="miter" stroke="rgb(100%, 94.898987%, 0%)" stroke-opacity="1" stroke-miterlimit="10" d="M 2.852406 -277.765813 L 110.536 -62.394719 " transform="matrix(1, 0, 0, -1, 16.339, -12.008)"/>
<path fill="none" stroke-width="0.79701" stroke-linecap="butt" stroke-linejoin="miter" stroke="rgb(100%, 94.898987%, 0%)" stroke-opacity="1" stroke-miterlimit="10" d="M 3.164906 -277.933781 L 110.2235 -90.574406 " transform="matrix(1, 0, 0, -1, 16.339, -12.008)"/>
<path fill="none" stroke-width="0.79701" stroke-linecap="butt" stroke-linejoin="miter" stroke="rgb(100%, 94.898987%, 0%)" stroke-opacity="1" stroke-miterlimit="10" d="M 3.536 -278.16425 L 109.852406 -118.691594 " transform="matrix(1, 0, 0, -1, 16.339, -12.008)"/>
<path fill="none" stroke-width="0.79701" stroke-linecap="butt" stroke-linejoin="miter" stroke="rgb(100%, 94.898987%, 0%)" stroke-opacity="1" stroke-miterlimit="10" d="M 3.981312 -278.488469 L 109.403188 -146.711125 " transform="matrix(1, 0, 0, -1, 16.339, -12.008)"/>
<path fill="none" stroke-width="0.79701" stroke-linecap="butt" stroke-linejoin="miter" stroke="rgb(100%, 94.898987%, 0%)" stroke-opacity="1" stroke-miterlimit="10" d="M 4.508656 -278.961125 L 108.87975 -174.590031 " transform="matrix(1, 0, 0, -1, 16.339, -12.008)"/>
<path fill="none" stroke-width="0.79701" stroke-linecap="butt" stroke-linejoin="miter" stroke="rgb(100%, 94.898987%, 0%)" stroke-opacity="1" stroke-miterlimit="10" d="M 5.102406 -279.640813 L 108.286 -202.254094 " transform="matrix(1, 0, 0, -1, 16.339, -12.008)"/>
<path fill="none" stroke-width="0.79701" stroke-linecap="butt" stroke-linejoin="miter" stroke="rgb(100%, 94.898987%, 0%)" stroke-opacity="1" stroke-miterlimit="10" d="M 5.703969 -280.617375 L 107.684438 -229.625188 " transform="matrix(1, 0, 0, -1, 16.339, -12.008)"/>
<path fill="none" stroke-width="0.79701" stroke-linecap="butt" stroke-linejoin="miter" stroke="rgb(100%, 94.898987%, 0%)" stroke-opacity="1" stroke-miterlimit="10" d="M 6.184437 -281.922063 L 107.200063 -256.668156 " transform="matrix(1, 0, 0, -1, 16.339, -12.008)"/>
<path fill="none" stroke-width="0.79701" stroke-linecap="butt" stroke-linejoin="miter" stroke="rgb(100%, 94.898987%, 0%)" stroke-opacity="1" stroke-miterlimit="10" d="M 119.762563 -56.6955 L 220.399281 -56.6955 " transform="matrix(1, 0, 0, -1, 16.339, -12.008)"/>
<path fill="none" stroke-width="0.79701" stroke-linecap="butt" stroke-linejoin="miter" stroke="rgb(100%, 94.898987%, 0%)" stroke-opacity="1" stroke-miterlimit="10" d="M 119.571156 -58.238469 L 220.586781 -83.492375 " transform="matrix(1, 0, 0, -1, 16.339, -12.008)"/>
<path fill="none" stroke-width="0.79701" stroke-linecap="butt" stroke-linejoin="miter" stroke="rgb(100%, 94.898987%, 0%)" stroke-opacity="1" stroke-miterlimit="10" d="M 119.090688 -59.543156 L 221.071156 -110.535344 " transform="matrix(1, 0, 0, -1, 16.339, -12.008)"/>
<path fill="none" stroke-width="0.79701" stroke-linecap="butt" stroke-linejoin="miter" stroke="rgb(100%, 94.898987%, 0%)" stroke-opacity="1" stroke-miterlimit="10" d="M 118.489125 -60.519719 L 221.672719 -137.910344 " transform="matrix(1, 0, 0, -1, 16.339, -12.008)"/>
<path fill="none" stroke-width="0.79701" stroke-linecap="butt" stroke-linejoin="miter" stroke="rgb(100%, 94.898987%, 0%)" stroke-opacity="1" stroke-miterlimit="10" d="M 117.895375 -61.203313 L 222.266469 -165.5705 " transform="matrix(1, 0, 0, -1, 16.339, -12.008)"/>
<path fill="none" stroke-width="0.79701" stroke-linecap="butt" stroke-linejoin="miter" stroke="rgb(100%, 94.898987%, 0%)" stroke-opacity="1" stroke-miterlimit="10" d="M 117.371938 -61.672063 L 222.789906 -193.449406 " transform="matrix(1, 0, 0, -1, 16.339, -12.008)"/>
<path fill="none" stroke-width="0.79701" stroke-linecap="butt" stroke-linejoin="miter" stroke="rgb(100%, 94.898987%, 0%)" stroke-opacity="1" stroke-miterlimit="10" d="M 116.922719 -62.000188 L 223.239125 -221.468938 " transform="matrix(1, 0, 0, -1, 16.339, -12.008)"/>
<path fill="none" stroke-width="0.79701" stroke-linecap="butt" stroke-linejoin="miter" stroke="rgb(100%, 94.898987%, 0%)" stroke-opacity="1" stroke-miterlimit="10" d="M 116.551625 -62.230656 L 223.610219 -249.586125 " transform="matrix(1, 0, 0, -1, 16.339, -12.008)"/>
<path fill="none" stroke-width="0.79701" stroke-linecap="butt" stroke-linejoin="miter" stroke="rgb(100%, 94.898987%, 0%)" stroke-opacity="1" stroke-miterlimit="10" d="M 119.571156 -83.492375 L 220.586781 -58.238469 " transform="matrix(1, 0, 0, -1, 16.339, -12.008)"/>
<path fill="none" stroke-width="0.79701" stroke-linecap="butt" stroke-linejoin="miter" stroke="rgb(100%, 94.898987%, 0%)" stroke-opacity="1" stroke-miterlimit="10" d="M 119.762563 -85.03925 L 220.399281 -85.03925 " transform="matrix(1, 0, 0, -1, 16.339, -12.008)"/>
<path fill="none" stroke-width="0.79701" stroke-linecap="butt" stroke-linejoin="miter" stroke="rgb(100%, 94.898987%, 0%)" stroke-opacity="1" stroke-miterlimit="10" d="M 119.571156 -86.586125 L 220.586781 -111.840031 " transform="matrix(1, 0, 0, -1, 16.339, -12.008)"/>
<path fill="none" stroke-width="0.79701" stroke-linecap="butt" stroke-linejoin="miter" stroke="rgb(100%, 94.898987%, 0%)" stroke-opacity="1" stroke-miterlimit="10" d="M 119.090688 -87.890813 L 221.071156 -138.883 " transform="matrix(1, 0, 0, -1, 16.339, -12.008)"/>
<path fill="none" stroke-width="0.79701" stroke-linecap="butt" stroke-linejoin="miter" stroke="rgb(100%, 94.898987%, 0%)" stroke-opacity="1" stroke-miterlimit="10" d="M 118.489125 -88.867375 L 221.672719 -166.254094 " transform="matrix(1, 0, 0, -1, 16.339, -12.008)"/>
<path fill="none" stroke-width="0.79701" stroke-linecap="butt" stroke-linejoin="miter" stroke="rgb(100%, 94.898987%, 0%)" stroke-opacity="1" stroke-miterlimit="10" d="M 117.895375 -89.550969 L 222.266469 -193.918156 " transform="matrix(1, 0, 0, -1, 16.339, -12.008)"/>
<path fill="none" stroke-width="0.79701" stroke-linecap="butt" stroke-linejoin="miter" stroke="rgb(100%, 94.898987%, 0%)" stroke-opacity="1" stroke-miterlimit="10" d="M 117.371938 -90.019719 L 222.789906 -221.797063 " transform="matrix(1, 0, 0, -1, 16.339, -12.008)"/>
<path fill="none" stroke-width="0.79701" stroke-linecap="butt" stroke-linejoin="miter" stroke="rgb(100%, 94.898987%, 0%)" stroke-opacity="1" stroke-miterlimit="10" d="M 116.922719 -90.343938 L 223.239125 -249.816594 " transform="matrix(1, 0, 0, -1, 16.339, -12.008)"/>
<path fill="none" stroke-width="0.79701" stroke-linecap="butt" stroke-linejoin="miter" stroke="rgb(100%, 94.898987%, 0%)" stroke-opacity="1" stroke-miterlimit="10" d="M 119.090688 -110.535344 L 221.071156 -59.543156 " transform="matrix(1, 0, 0, -1, 16.339, -12.008)"/>
<path fill="none" stroke-width="0.79701" stroke-linecap="butt" stroke-linejoin="miter" stroke="rgb(100%, 94.898987%, 0%)" stroke-opacity="1" stroke-miterlimit="10" d="M 119.571156 -111.840031 L 220.586781 -86.586125 " transform="matrix(1, 0, 0, -1, 16.339, -12.008)"/>
<path fill="none" stroke-width="0.79701" stroke-linecap="butt" stroke-linejoin="miter" stroke="rgb(100%, 94.898987%, 0%)" stroke-opacity="1" stroke-miterlimit="10" d="M 119.762563 -113.386906 L 220.399281 -113.386906 " transform="matrix(1, 0, 0, -1, 16.339, -12.008)"/>
<path fill="none" stroke-width="0.79701" stroke-linecap="butt" stroke-linejoin="miter" stroke="rgb(100%, 94.898987%, 0%)" stroke-opacity="1" stroke-miterlimit="10" d="M 119.571156 -114.933781 L 220.586781 -140.187688 " transform="matrix(1, 0, 0, -1, 16.339, -12.008)"/>
<path fill="none" stroke-width="0.79701" stroke-linecap="butt" stroke-linejoin="miter" stroke="rgb(100%, 94.898987%, 0%)" stroke-opacity="1" stroke-miterlimit="10" d="M 119.090688 -116.238469 L 221.071156 -167.230656 " transform="matrix(1, 0, 0, -1, 16.339, -12.008)"/>
<path fill="none" stroke-width="0.79701" stroke-linecap="butt" stroke-linejoin="miter" stroke="rgb(100%, 94.898987%, 0%)" stroke-opacity="1" stroke-miterlimit="10" d="M 118.489125 -117.211125 L 221.672719 -194.60175 " transform="matrix(1, 0, 0, -1, 16.339, -12.008)"/>
<path fill="none" stroke-width="0.79701" stroke-linecap="butt" stroke-linejoin="miter" stroke="rgb(100%, 94.898987%, 0%)" stroke-opacity="1" stroke-miterlimit="10" d="M 117.895375 -117.894719 L 222.266469 -222.265813 " transform="matrix(1, 0, 0, -1, 16.339, -12.008)"/>
<path fill="none" stroke-width="0.79701" stroke-linecap="butt" stroke-linejoin="miter" stroke="rgb(100%, 94.898987%, 0%)" stroke-opacity="1" stroke-miterlimit="10" d="M 117.371938 -118.367375 L 222.789906 -250.140813 " transform="matrix(1, 0, 0, -1, 16.339, -12.008)"/>
<path fill="none" stroke-width="0.79701" stroke-linecap="butt" stroke-linejoin="miter" stroke="rgb(100%, 94.898987%, 0%)" stroke-opacity="1" stroke-miterlimit="10" d="M 118.489125 -137.910344 L 221.672719 -60.519719 " transform="matrix(1, 0, 0, -1, 16.339, -12.008)"/>
<path fill="none" stroke-width="0.79701" stroke-linecap="butt" stroke-linejoin="miter" stroke="rgb(100%, 94.898987%, 0%)" stroke-opacity="1" stroke-miterlimit="10" d="M 119.090688 -138.883 L 221.071156 -87.890813 " transform="matrix(1, 0, 0, -1, 16.339, -12.008)"/>
<path fill="none" stroke-width="0.79701" stroke-linecap="butt" stroke-linejoin="miter" stroke="rgb(100%, 94.898987%, 0%)" stroke-opacity="1" stroke-miterlimit="10" d="M 119.571156 -140.187688 L 220.586781 -114.933781 " transform="matrix(1, 0, 0, -1, 16.339, -12.008)"/>
<path fill="none" stroke-width="0.79701" stroke-linecap="butt" stroke-linejoin="miter" stroke="rgb(100%, 94.898987%, 0%)" stroke-opacity="1" stroke-miterlimit="10" d="M 119.762563 -141.734563 L 220.399281 -141.734563 " transform="matrix(1, 0, 0, -1, 16.339, -12.008)"/>
<path fill="none" stroke-width="0.79701" stroke-linecap="butt" stroke-linejoin="miter" stroke="rgb(100%, 94.898987%, 0%)" stroke-opacity="1" stroke-miterlimit="10" d="M 119.571156 -143.281438 L 220.586781 -168.535344 " transform="matrix(1, 0, 0, -1, 16.339, -12.008)"/>
<path fill="none" stroke-width="0.79701" stroke-linecap="butt" stroke-linejoin="miter" stroke="rgb(100%, 94.898987%, 0%)" stroke-opacity="1" stroke-miterlimit="10" d="M 119.090688 -144.586125 L 221.071156 -195.578313 " transform="matrix(1, 0, 0, -1, 16.339, -12.008)"/>
<path fill="none" stroke-width="0.79701" stroke-linecap="butt" stroke-linejoin="miter" stroke="rgb(100%, 94.898987%, 0%)" stroke-opacity="1" stroke-miterlimit="10" d="M 118.489125 -145.558781 L 221.672719 -222.949406 " transform="matrix(1, 0, 0, -1, 16.339, -12.008)"/>
<path fill="none" stroke-width="0.79701" stroke-linecap="butt" stroke-linejoin="miter" stroke="rgb(100%, 94.898987%, 0%)" stroke-opacity="1" stroke-miterlimit="10" d="M 117.895375 -146.242375 L 222.266469 -250.613469 " transform="matrix(1, 0, 0, -1, 16.339, -12.008)"/>
<path fill="none" stroke-width="0.79701" stroke-linecap="butt" stroke-linejoin="miter" stroke="rgb(100%, 94.898987%, 0%)" stroke-opacity="1" stroke-miterlimit="10" d="M 117.895375 -165.5705 L 222.266469 -61.203313 " transform="matrix(1, 0, 0, -1, 16.339, -12.008)"/>
<path fill="none" stroke-width="0.79701" stroke-linecap="butt" stroke-linejoin="miter" stroke="rgb(100%, 94.898987%, 0%)" stroke-opacity="1" stroke-miterlimit="10" d="M 118.489125 -166.254094 L 221.672719 -88.867375 " transform="matrix(1, 0, 0, -1, 16.339, -12.008)"/>
<path fill="none" stroke-width="0.79701" stroke-linecap="butt" stroke-linejoin="miter" stroke="rgb(100%, 94.898987%, 0%)" stroke-opacity="1" stroke-miterlimit="10" d="M 119.090688 -167.230656 L 221.071156 -116.238469 " transform="matrix(1, 0, 0, -1, 16.339, -12.008)"/>
<path fill="none" stroke-width="0.79701" stroke-linecap="butt" stroke-linejoin="miter" stroke="rgb(100%, 94.898987%, 0%)" stroke-opacity="1" stroke-miterlimit="10" d="M 119.571156 -168.535344 L 220.586781 -143.281438 " transform="matrix(1, 0, 0, -1, 16.339, -12.008)"/>
<path fill="none" stroke-width="0.79701" stroke-linecap="butt" stroke-linejoin="miter" stroke="rgb(100%, 94.898987%, 0%)" stroke-opacity="1" stroke-miterlimit="10" d="M 119.762563 -170.082219 L 220.399281 -170.082219 " transform="matrix(1, 0, 0, -1, 16.339, -12.008)"/>
<path fill="none" stroke-width="0.79701" stroke-linecap="butt" stroke-linejoin="miter" stroke="rgb(100%, 94.898987%, 0%)" stroke-opacity="1" stroke-miterlimit="10" d="M 119.571156 -171.625188 L 220.586781 -196.883 " transform="matrix(1, 0, 0, -1, 16.339, -12.008)"/>
<path fill="none" stroke-width="0.79701" stroke-linecap="butt" stroke-linejoin="miter" stroke="rgb(100%, 94.898987%, 0%)" stroke-opacity="1" stroke-miterlimit="10" d="M 119.090688 -172.933781 L 221.071156 -223.922063 " transform="matrix(1, 0, 0, -1, 16.339, -12.008)"/>
<path fill="none" stroke-width="0.79701" stroke-linecap="butt" stroke-linejoin="miter" stroke="rgb(100%, 94.898987%, 0%)" stroke-opacity="1" stroke-miterlimit="10" d="M 118.489125 -173.906438 L 221.672719 -251.297063 " transform="matrix(1, 0, 0, -1, 16.339, -12.008)"/>
<path fill="none" stroke-width="0.79701" stroke-linecap="butt" stroke-linejoin="miter" stroke="rgb(100%, 94.898987%, 0%)" stroke-opacity="1" stroke-miterlimit="10" d="M 117.371938 -193.449406 L 222.789906 -61.672063 " transform="matrix(1, 0, 0, -1, 16.339, -12.008)"/>
<path fill="none" stroke-width="0.79701" stroke-linecap="butt" stroke-linejoin="miter" stroke="rgb(100%, 94.898987%, 0%)" stroke-opacity="1" stroke-miterlimit="10" d="M 117.895375 -193.918156 L 222.266469 -89.550969 " transform="matrix(1, 0, 0, -1, 16.339, -12.008)"/>
<path fill="none" stroke-width="0.79701" stroke-linecap="butt" stroke-linejoin="miter" stroke="rgb(100%, 94.898987%, 0%)" stroke-opacity="1" stroke-miterlimit="10" d="M 118.489125 -194.60175 L 221.672719 -117.211125 " transform="matrix(1, 0, 0, -1, 16.339, -12.008)"/>
<path fill="none" stroke-width="0.79701" stroke-linecap="butt" stroke-linejoin="miter" stroke="rgb(100%, 94.898987%, 0%)" stroke-opacity="1" stroke-miterlimit="10" d="M 119.090688 -195.578313 L 221.071156 -144.586125 " transform="matrix(1, 0, 0, -1, 16.339, -12.008)"/>
<path fill="none" stroke-width="0.79701" stroke-linecap="butt" stroke-linejoin="miter" stroke="rgb(100%, 94.898987%, 0%)" stroke-opacity="1" stroke-miterlimit="10" d="M 119.571156 -196.883 L 220.586781 -171.625188 " transform="matrix(1, 0, 0, -1, 16.339, -12.008)"/>
<path fill="none" stroke-width="0.79701" stroke-linecap="butt" stroke-linejoin="miter" stroke="rgb(100%, 94.898987%, 0%)" stroke-opacity="1" stroke-miterlimit="10" d="M 119.762563 -198.425969 L 220.399281 -198.425969 " transform="matrix(1, 0, 0, -1, 16.339, -12.008)"/>
<path fill="none" stroke-width="0.79701" stroke-linecap="butt" stroke-linejoin="miter" stroke="rgb(100%, 94.898987%, 0%)" stroke-opacity="1" stroke-miterlimit="10" d="M 119.571156 -199.972844 L 220.586781 -225.22675 " transform="matrix(1, 0, 0, -1, 16.339, -12.008)"/>
<path fill="none" stroke-width="0.79701" stroke-linecap="butt" stroke-linejoin="miter" stroke="rgb(100%, 94.898987%, 0%)" stroke-opacity="1" stroke-miterlimit="10" d="M 119.090688 -201.277531 L 221.071156 -252.269719 " transform="matrix(1, 0, 0, -1, 16.339, -12.008)"/>
<path fill="none" stroke-width="0.79701" stroke-linecap="butt" stroke-linejoin="miter" stroke="rgb(100%, 94.898987%, 0%)" stroke-opacity="1" stroke-miterlimit="10" d="M 116.922719 -221.468938 L 223.239125 -62.000188 " transform="matrix(1, 0, 0, -1, 16.339, -12.008)"/>
<path fill="none" stroke-width="0.79701" stroke-linecap="butt" stroke-linejoin="miter" stroke="rgb(100%, 94.898987%, 0%)" stroke-opacity="1" stroke-miterlimit="10" d="M 117.371938 -221.797063 L 222.789906 -90.019719 " transform="matrix(1, 0, 0, -1, 16.339, -12.008)"/>
<path fill="none" stroke-width="0.79701" stroke-linecap="butt" stroke-linejoin="miter" stroke="rgb(100%, 94.898987%, 0%)" stroke-opacity="1" stroke-miterlimit="10" d="M 117.895375 -222.265813 L 222.266469 -117.894719 " transform="matrix(1, 0, 0, -1, 16.339, -12.008)"/>
<path fill="none" stroke-width="0.79701" stroke-linecap="butt" stroke-linejoin="miter" stroke="rgb(100%, 94.898987%, 0%)" stroke-opacity="1" stroke-miterlimit="10" d="M 118.489125 -222.949406 L 221.672719 -145.558781 " transform="matrix(1, 0, 0, -1, 16.339, -12.008)"/>
<path fill="none" stroke-width="0.79701" stroke-linecap="butt" stroke-linejoin="miter" stroke="rgb(100%, 94.898987%, 0%)" stroke-opacity="1" stroke-miterlimit="10" d="M 119.090688 -223.922063 L 221.071156 -172.933781 " transform="matrix(1, 0, 0, -1, 16.339, -12.008)"/>
<path fill="none" stroke-width="0.79701" stroke-linecap="butt" stroke-linejoin="miter" stroke="rgb(100%, 94.898987%, 0%)" stroke-opacity="1" stroke-miterlimit="10" d="M 119.571156 -225.22675 L 220.586781 -199.972844 " transform="matrix(1, 0, 0, -1, 16.339, -12.008)"/>
<path fill="none" stroke-width="0.79701" stroke-linecap="butt" stroke-linejoin="miter" stroke="rgb(100%, 94.898987%, 0%)" stroke-opacity="1" stroke-miterlimit="10" d="M 119.762563 -226.773625 L 220.399281 -226.773625 " transform="matrix(1, 0, 0, -1, 16.339, -12.008)"/>
<path fill="none" stroke-width="0.79701" stroke-linecap="butt" stroke-linejoin="miter" stroke="rgb(100%, 94.898987%, 0%)" stroke-opacity="1" stroke-miterlimit="10" d="M 119.571156 -228.3205 L 220.586781 -253.574406 " transform="matrix(1, 0, 0, -1, 16.339, -12.008)"/>
<path fill="none" stroke-width="0.79701" stroke-linecap="butt" stroke-linejoin="miter" stroke="rgb(100%, 94.898987%, 0%)" stroke-opacity="1" stroke-miterlimit="10" d="M 116.551625 -249.586125 L 223.610219 -62.230656 " transform="matrix(1, 0, 0, -1, 16.339, -12.008)"/>
<path fill="none" stroke-width="0.79701" stroke-linecap="butt" stroke-linejoin="miter" stroke="rgb(100%, 94.898987%, 0%)" stroke-opacity="1" stroke-miterlimit="10" d="M 116.922719 -249.816594 L 223.239125 -90.343938 " transform="matrix(1, 0, 0, -1, 16.339, -12.008)"/>
<path fill="none" stroke-width="0.79701" stroke-linecap="butt" stroke-linejoin="miter" stroke="rgb(100%, 94.898987%, 0%)" stroke-opacity="1" stroke-miterlimit="10" d="M 117.371938 -250.140813 L 222.789906 -118.367375 " transform="matrix(1, 0, 0, -1, 16.339, -12.008)"/>
<path fill="none" stroke-width="0.79701" stroke-linecap="butt" stroke-linejoin="miter" stroke="rgb(100%, 94.898987%, 0%)" stroke-opacity="1" stroke-miterlimit="10" d="M 117.895375 -250.613469 L 222.266469 -146.242375 " transform="matrix(1, 0, 0, -1, 16.339, -12.008)"/>
<path fill="none" stroke-width="0.79701" stroke-linecap="butt" stroke-linejoin="miter" stroke="rgb(100%, 94.898987%, 0%)" stroke-opacity="1" stroke-miterlimit="10" d="M 118.489125 -251.297063 L 221.672719 -173.906438 " transform="matrix(1, 0, 0, -1, 16.339, -12.008)"/>
<path fill="none" stroke-width="0.79701" stroke-linecap="butt" stroke-linejoin="miter" stroke="rgb(100%, 94.898987%, 0%)" stroke-opacity="1" stroke-miterlimit="10" d="M 119.090688 -252.269719 L 221.071156 -201.277531 " transform="matrix(1, 0, 0, -1, 16.339, -12.008)"/>
<path fill="none" stroke-width="0.79701" stroke-linecap="butt" stroke-linejoin="miter" stroke="rgb(100%, 94.898987%, 0%)" stroke-opacity="1" stroke-miterlimit="10" d="M 119.571156 -253.574406 L 220.586781 -228.3205 " transform="matrix(1, 0, 0, -1, 16.339, -12.008)"/>
<path fill="none" stroke-width="0.79701" stroke-linecap="butt" stroke-linejoin="miter" stroke="rgb(100%, 94.898987%, 0%)" stroke-opacity="1" stroke-miterlimit="10" d="M 119.762563 -255.121281 L 220.399281 -255.121281 " transform="matrix(1, 0, 0, -1, 16.339, -12.008)"/>
<path fill="none" stroke-width="0.79701" stroke-linecap="butt" stroke-linejoin="miter" stroke="rgb(100%, 94.898987%, 0%)" stroke-opacity="1" stroke-miterlimit="10" d="M 231.875844 -60.519719 L 335.059438 -137.910344 " transform="matrix(1, 0, 0, -1, 16.339, -12.008)"/>
<path fill="none" stroke-width="0.79701" stroke-linecap="butt" stroke-linejoin="miter" stroke="rgb(100%, 94.898987%, 0%)" stroke-opacity="1" stroke-miterlimit="10" d="M 232.477406 -87.890813 L 334.457875 -138.883 " transform="matrix(1, 0, 0, -1, 16.339, -12.008)"/>
<path fill="none" stroke-width="0.79701" stroke-linecap="butt" stroke-linejoin="miter" stroke="rgb(100%, 94.898987%, 0%)" stroke-opacity="1" stroke-miterlimit="10" d="M 232.961781 -114.933781 L 333.977406 -140.187688 " transform="matrix(1, 0, 0, -1, 16.339, -12.008)"/>
<path fill="none" stroke-width="0.79701" stroke-linecap="butt" stroke-linejoin="miter" stroke="rgb(100%, 94.898987%, 0%)" stroke-opacity="1" stroke-miterlimit="10" d="M 233.149281 -141.734563 L 333.786 -141.734563 " transform="matrix(1, 0, 0, -1, 16.339, -12.008)"/>
<path fill="none" stroke-width="0.79701" stroke-linecap="butt" stroke-linejoin="miter" stroke="rgb(100%, 94.898987%, 0%)" stroke-opacity="1" stroke-miterlimit="10" d="M 232.961781 -168.535344 L 333.977406 -143.281438 " transform="matrix(1, 0, 0, -1, 16.339, -12.008)"/>
<path fill="none" stroke-width="0.79701" stroke-linecap="butt" stroke-linejoin="miter" stroke="rgb(100%, 94.898987%, 0%)" stroke-opacity="1" stroke-miterlimit="10" d="M 232.477406 -195.578313 L 334.457875 -144.586125 " transform="matrix(1, 0, 0, -1, 16.339, -12.008)"/>
<path fill="none" stroke-width="0.79701" stroke-linecap="butt" stroke-linejoin="miter" stroke="rgb(100%, 94.898987%, 0%)" stroke-opacity="1" stroke-miterlimit="10" d="M 231.875844 -222.949406 L 335.059438 -145.558781 " transform="matrix(1, 0, 0, -1, 16.339, -12.008)"/>
<path fill="none" stroke-width="0.79701" stroke-linecap="butt" stroke-linejoin="miter" stroke="rgb(100%, 94.898987%, 0%)" stroke-opacity="1" stroke-miterlimit="10" d="M 231.282094 -250.613469 L 335.653188 -146.242375 " transform="matrix(1, 0, 0, -1, 16.339, -12.008)"/>
</svg>
