<?xml version="1.0" encoding="UTF-8"?>
<svg xmlns="http://www.w3.org/2000/svg" xmlns:xlink="http://www.w3.org/1999/xlink" width="259.449" height="571.26" viewBox="0 0 259.449 571.26">
<defs>
<clipPath id="clip-0">
<path clip-rule="nonzero" d="M 112 537 L 147 537 L 147 571.261719 L 112 571.261719 Z M 112 537 "/>
</clipPath>
<clipPath id="clip-1">
<path clip-rule="nonzero" d="M 225 254 L 259.449219 254 L 259.449219 289 L 225 289 Z M 225 254 "/>
</clipPath>
</defs>
<path fill="none" stroke-width="0.79701" stroke-linecap="butt" stroke-linejoin="miter" stroke="rgb(100%, 94.898987%, 0%)" stroke-opacity="1" stroke-miterlimit="10" d="M 5.977406 -283.468938 C 5.977406 -280.168156 3.301625 -277.492375 0.00084375 -277.492375 C -3.299938 -277.492375 -5.975719 -280.168156 -5.975719 -283.468938 C -5.975719 -286.769719 -3.299938 -289.4455 0.00084375 -289.4455 C 3.301625 -289.4455 5.977406 -286.769719 5.977406 -283.468938 Z M 5.977406 -283.468938 " transform="matrix(1, 0, 0, -1, 16.339, -12.008)"/>
<path fill="none" stroke-width="0.79701" stroke-linecap="butt" stroke-linejoin="miter" stroke="rgb(100%, 94.898987%, 0%)" stroke-opacity="1" stroke-miterlimit="10" d="M 119.364125 -28.347844 C 119.364125 -25.047063 116.688344 -22.367375 113.387563 -22.367375 C 110.086781 -22.367375 107.411 -25.047063 107.411 -28.347844 C 107.411 -31.648625 110.086781 -34.324406 113.387563 -34.324406 C 116.688344 -34.324406 119.364125 -31.648625 119.364125 -28.347844 Z M 119.364125 -28.347844 " transform="matrix(1, 0, 0, -1, 16.339, -12.008)"/>
<path fill="none" stroke-width="0.79701" stroke-linecap="butt" stroke-linejoin="miter" stroke="rgb(100%, 94.898987%, 0%)" stroke-opacity="1" stroke-miterlimit="10" d="M 119.364125 -56.6955 C 119.364125 -53.390813 116.688344 -50.715031 113.387563 -50.715031 C 110.086781 -50.715031 107.411 -53.390813 107.411 -56.6955 C 107.411 -59.996281 110.086781 -62.672063 113.387563 -62.672063 C 116.688344 -62.672063 119.364125 -59.996281 119.364125 -56.6955 Z M 119.364125 -56.6955 " transform="matrix(1, 0, 0, -1, 16.339, -12.008)"/>
<path fill="none" stroke-width="0.79701" stroke-linecap="butt" stroke-linejoin="miter" stroke="rgb(100%, 94.898987%, 0%)" stroke-opacity="1" stroke-miterlimit="10" d="M 119.364125 -85.03925 C 119.364125 -81.738469 116.688344 -79.062688 113.387563 -79.062688 C 110.086781 -79.062688 107.411 -81.738469 107.411 -85.03925 C 107.411 -88.340031 110.086781 -91.019719 113.387563 -91.019719 C 116.688344 -91.019719 119.364125 -88.340031 119.364125 -85.03925 Z M 119.364125 -85.03925 " transform="matrix(1, 0, 0, -1, 16.339, -12.008)"/>
<path fill="none" stroke-width="0.79701" stroke-linecap="butt" stroke-linejoin="miter" stroke="rgb(100%, 94.898987%, 0%)" stroke-opacity="1" stroke-miterlimit="10" d="M 119.364125 -113.386906 C 119.364125 -110.086125 116.688344 -107.410344 113.387563 -107.410344 C 110.086781 -107.410344 107.411 -110.086125 107.411 -113.386906 C 107.411 -116.687688 110.086781 -119.363469 113.387563 -119.363469 C 116.688344 -119.363469 119.364125 -116.687688 119.364125 -113.386906 Z M 119.364125 -113.386906 " transform="matrix(1, 0, 0, -1, 16.339, -12.008)"/>
<path fill="none" stroke-width="0.79701" stroke-linecap="butt" stroke-linejoin="miter" stroke="rgb(100%, 94.898987%, 0%)" stroke-opacity="1" stroke-miterlimit="10" d="M 119.364125 -141.734563 C 119.364125 -138.433781 116.688344 -135.758 113.387563 -135.758 C 110.086781 -135.758 107.411 -138.433781 107.411 -141.734563 C 107.411 -145.035344 110.086781 -147.711125 113.387563 -147.711125 C 116.688344 -147.711125 119.364125 -145.035344 119.364125 -141.734563 Z M 119.364125 -141.734563 " transform="matrix(1, 0, 0, -1, 16.339, -12.008)"/>
<path fill="none" stroke-width="0.79701" stroke-linecap="butt" stroke-linejoin="miter" stroke="rgb(100%, 94.898987%, 0%)" stroke-opacity="1" stroke-miterlimit="10" d="M 119.364125 -170.082219 C 119.364125 -166.777531 116.688344 -164.10175 113.387563 -164.10175 C 110.086781 -164.10175 107.411 -166.777531 107.411 -170.082219 C 107.411 -173.383 110.086781 -176.058781 113.387563 -176.058781 C 116.688344 -176.058781 119.364125 -173.383 119.364125 -170.082219 Z M 119.364125 -170.082219 " transform="matrix(1, 0, 0, -1, 16.339, -12.008)"/>
<path fill="none" stroke-width="0.79701" stroke-linecap="butt" stroke-linejoin="miter" stroke="rgb(100%, 94.898987%, 0%)" stroke-opacity="1" stroke-miterlimit="10" d="M 119.364125 -198.425969 C 119.364125 -195.125188 116.688344 -192.449406 113.387563 -192.449406 C 110.086781 -192.449406 107.411 -195.125188 107.411 -198.425969 C 107.411 -201.730656 110.086781 -204.406438 113.387563 -204.406438 C 116.688344 -204.406438 119.364125 -201.730656 119.364125 -198.425969 Z M 119.364125 -198.425969 " transform="matrix(1, 0, 0, -1, 16.339, -12.008)"/>
<path fill="none" stroke-width="0.79701" stroke-linecap="butt" stroke-linejoin="miter" stroke="rgb(100%, 94.898987%, 0%)" stroke-opacity="1" stroke-miterlimit="10" d="M 119.364125 -226.773625 C 119.364125 -223.472844 116.688344 -220.797063 113.387563 -220.797063 C 110.086781 -220.797063 107.411 -223.472844 107.411 -226.773625 C 107.411 -230.074406 110.086781 -232.750188 113.387563 -232.750188 C 116.688344 -232.750188 119.364125 -230.074406 119.364125 -226.773625 Z M 119.364125 -226.773625 " transform="matrix(1, 0, 0, -1, 16.339, -12.008)"/>
<path fill="none" stroke-width="0.79701" stroke-linecap="butt" stroke-linejoin="miter" stroke="rgb(100%, 94.898987%, 0%)" stroke-opacity="1" stroke-miterlimit="10" d="M 119.364125 -255.121281 C 119.364125 -251.8205 116.688344 -249.144719 113.387563 -249.144719 C 110.086781 -249.144719 107.411 -251.8205 107.411 -255.121281 C 107.411 -258.422063 110.086781 -261.097844 113.387563 -261.097844 C 116.688344 -261.097844 119.364125 -258.422063 119.364125 -255.121281 Z M 119.364125 -255.121281 " transform="matrix(1, 0, 0, -1, 16.339, -12.008)"/>
<path fill="none" stroke-width="0.79701" stroke-linecap="butt" stroke-linejoin="miter" stroke="rgb(100%, 94.898987%, 0%)" stroke-opacity="1" stroke-miterlimit="10" d="M 119.364125 -283.468938 C 119.364125 -280.168156 116.688344 -277.492375 113.387563 -277.492375 C 110.086781 -277.492375 107.411 -280.168156 107.411 -283.468938 C 107.411 -286.769719 110.086781 -289.4455 113.387563 -289.4455 C 116.688344 -289.4455 119.364125 -286.769719 119.364125 -283.468938 Z M 119.364125 -283.468938 " transform="matrix(1, 0, 0, -1, 16.339, -12.008)"/>
<path fill="none" stroke-width="0.79701" stroke-linecap="butt" stroke-linejoin="miter" stroke="rgb(100%, 94.898987%, 0%)" stroke-opacity="1" stroke-miterlimit="10" d="M 119.364125 -311.816594 C 119.364125 -308.511906 116.688344 -305.836125 113.387563 -305.836125 C 110.086781 -305.836125 107.411 -308.511906 107.411 -311.816594 C 107.411 -315.117375 110.086781 -317.793156 113.387563 -317.793156 C 116.688344 -317.793156 119.364125 -315.117375 119.364125 -311.816594 Z M 119.364125 -311.816594 " transform="matrix(1, 0, 0, -1, 16.339, -12.008)"/>
<path fill="none" stroke-width="0.79701" stroke-linecap="butt" stroke-linejoin="miter" stroke="rgb(100%, 94.898987%, 0%)" stroke-opacity="1" stroke-miterlimit="10" d="M 119.364125 -340.160344 C 119.364125 -336.859563 116.688344 -334.183781 113.387563 -334.183781 C 110.086781 -334.183781 107.411 -336.859563 107.411 -340.160344 C 107.411 -343.465031 110.086781 -346.140813 113.387563 -346.140813 C 116.688344 -346.140813 119.364125 -343.465031 119.364125 -340.160344 Z M 119.364125 -340.160344 " transform="matrix(1, 0, 0, -1, 16.339, -12.008)"/>
<path fill="none" stroke-width="0.79701" stroke-linecap="butt" stroke-linejoin="miter" stroke="rgb(100%, 94.898987%, 0%)" stroke-opacity="1" stroke-miterlimit="10" d="M 119.364125 -368.508 C 119.364125 -365.207219 116.688344 -362.531438 113.387563 -362.531438 C 110.086781 -362.531438 107.411 -365.207219 107.411 -368.508 C 107.411 -371.808781 110.086781 -374.484563 113.387563 -374.484563 C 116.688344 -374.484563 119.364125 -371.808781 119.364125 -368.508 Z M 119.364125 -368.508 " transform="matrix(1, 0, 0, -1, 16.339, -12.008)"/>
<path fill="none" stroke-width="0.79701" stroke-linecap="butt" stroke-linejoin="miter" stroke="rgb(100%, 94.898987%, 0%)" stroke-opacity="1" stroke-miterlimit="10" d="M 119.364125 -396.855656 C 119.364125 -393.554875 116.688344 -390.879094 113.387563 -390.879094 C 110.086781 -390.879094 107.411 -393.554875 107.411 -396.855656 C 107.411 -400.156438 110.086781 -402.832219 113.387563 -402.832219 C 116.688344 -402.832219 119.364125 -400.156438 119.364125 -396.855656 Z M 119.364125 -396.855656 " transform="matrix(1, 0, 0, -1, 16.339, -12.008)"/>
<path fill="none" stroke-width="0.79701" stroke-linecap="butt" stroke-linejoin="miter" stroke="rgb(100%, 94.898987%, 0%)" stroke-opacity="1" stroke-miterlimit="10" d="M 119.364125 -425.203313 C 119.364125 -421.902531 116.688344 -419.222844 113.387563 -419.222844 C 110.086781 -419.222844 107.411 -421.902531 107.411 -425.203313 C 107.411 -428.504094 110.086781 -431.179875 113.387563 -431.179875 C 116.688344 -431.179875 119.364125 -428.504094 119.364125 -425.203313 Z M 119.364125 -425.203313 " transform="matrix(1, 0, 0, -1, 16.339, -12.008)"/>
<path fill="none" stroke-width="0.79701" stroke-linecap="butt" stroke-linejoin="miter" stroke="rgb(100%, 94.898987%, 0%)" stroke-opacity="1" stroke-miterlimit="10" d="M 119.364125 -453.547063 C 119.364125 -450.246281 116.688344 -447.5705 113.387563 -447.5705 C 110.086781 -447.5705 107.411 -450.246281 107.411 -453.547063 C 107.411 -456.85175 110.086781 -459.527531 113.387563 -459.527531 C 116.688344 -459.527531 119.364125 -456.85175 119.364125 -453.547063 Z M 119.364125 -453.547063 " transform="matrix(1, 0, 0, -1, 16.339, -12.008)"/>
<path fill="none" stroke-width="0.79701" stroke-linecap="butt" stroke-linejoin="miter" stroke="rgb(100%, 94.898987%, 0%)" stroke-opacity="1" stroke-miterlimit="10" d="M 119.364125 -481.894719 C 119.364125 -478.593938 116.688344 -475.918156 113.387563 -475.918156 C 110.086781 -475.918156 107.411 -478.593938 107.411 -481.894719 C 107.411 -485.1955 110.086781 -487.875188 113.387563 -487.875188 C 116.688344 -487.875188 119.364125 -485.1955 119.364125 -481.894719 Z M 119.364125 -481.894719 " transform="matrix(1, 0, 0, -1, 16.339, -12.008)"/>
<path fill="none" stroke-width="0.79701" stroke-linecap="butt" stroke-linejoin="miter" stroke="rgb(100%, 94.898987%, 0%)" stroke-opacity="1" stroke-miterlimit="10" d="M 119.364125 -510.242375 C 119.364125 -506.941594 116.688344 -504.265813 113.387563 -504.265813 C 110.086781 -504.265813 107.411 -506.941594 107.411 -510.242375 C 107.411 -513.543156 110.086781 -516.218938 113.387563 -516.218938 C 116.688344 -516.218938 119.364125 -513.543156 119.364125 -510.242375 Z M 119.364125 -510.242375 " transform="matrix(1, 0, 0, -1, 16.339, -12.008)"/>
<path fill="none" stroke-width="0.79701" stroke-linecap="butt" stroke-linejoin="miter" stroke="rgb(100%, 94.898987%, 0%)" stroke-opacity="1" stroke-miterlimit="10" d="M 119.364125 -538.590031 C 119.364125 -535.28925 116.688344 -532.613469 113.387563 -532.613469 C 110.086781 -532.613469 107.411 -535.28925 107.411 -538.590031 C 107.411 -541.890813 110.086781 -544.566594 113.387563 -544.566594 C 116.688344 -544.566594 119.364125 -541.890813 119.364125 -538.590031 Z M 119.364125 -538.590031 " transform="matrix(1, 0, 0, -1, 16.339, -12.008)"/>
<g clip-path="url(#clip-0)">
<path fill="none" stroke-width="0.79701" stroke-linecap="butt" stroke-linejoin="miter" stroke="rgb(100%, 94.898987%, 0%)" stroke-opacity="1" stroke-miterlimit="10" d="M 119.364125 -566.937688 C 119.364125 -563.633 116.688344 -560.957219 113.387563 -560.957219 C 110.086781 -560.957219 107.411 -563.633 107.411 -566.937688 C 107.411 -570.238469 110.086781 -572.91425 113.387563 -572.91425 C 116.688344 -572.91425 119.364125 -570.238469 119.364125 -566.937688 Z M 119.364125 -566.937688 " transform="matrix(1, 0, 0, -1, 16.339, -12.008)"/>
</g>
<g clip-path="url(#clip-1)">
<path fill="none" stroke-width="0.79701" stroke-linecap="butt" stroke-linejoin="miter" stroke="rgb(100%, 94.898987%, 0%)" stroke-opacity="1" stroke-miterlimit="10" d="M 232.750844 -283.468938 C 232.750844 -280.168156 230.075063 -277.492375 226.774281 -277.492375 C 223.4735 -277.492375 220.797719 -280.168156 220.797719 -283.468938 C 220.797719 -286.769719 223.4735 -289.4455 226.774281 -289.4455 C 230.075063 -289.4455 232.750844 -286.769719 232.750844 -283.468938 Z M 232.750844 -283.468938 " transform="matrix(1, 0, 0, -1, 16.339, -12.008)"/>
</g>
<path fill="none" stroke-width="0.79701" stroke-linecap="butt" stroke-linejoin="miter" stroke="rgb(100%, 94.898987%, 0%)" stroke-opacity="1" stroke-miterlimit="10" d="M 2.590687 -277.640813 L 110.797719 -34.172063 " transform="matrix(1, 0, 0, -1, 16.339, -12.008)"/>
<path fill="none" stroke-width="0.79701" stroke-linecap="butt" stroke-linejoin="miter" stroke="rgb(100%, 94.898987%, 0%)" stroke-opacity="1" stroke-miterlimit="10" d="M 2.852406 -277.765813 L 110.536 -62.394719 " transform="matrix(1, 0, 0, -1, 16.339, -12.008)"/>
<path fill="none" stroke-width="0.79701" stroke-linecap="butt" stroke-linejoin="miter" stroke="rgb(100%, 94.898987%, 0%)" stroke-opacity="1" stroke-miterlimit="10" d="M 3.164906 -277.933781 L 110.2235 -90.574406 " transform="matrix(1, 0, 0, -1, 16.339, -12.008)"/>
<path fill="none" stroke-width="0.79701" stroke-linecap="butt" stroke-linejoin="miter" stroke="rgb(100%, 94.898987%, 0%)" stroke-opacity="1" stroke-miterlimit="10" d="M 3.536 -278.16425 L 109.852406 -118.691594 " transform="matrix(1, 0, 0, -1, 16.339, -12.008)"/>
<path fill="none" stroke-width="0.79701" stroke-linecap="butt" stroke-linejoin="miter" stroke="rgb(100%, 94.898987%, 0%)" stroke-opacity="1" stroke-miterlimit="10" d="M 3.981312 -278.488469 L 109.403188 -146.711125 " transform="matrix(1, 0, 0, -1, 16.339, -12.008)"/>
<path fill="none" stroke-width="0.79701" stroke-linecap="butt" stroke-linejoin="miter" stroke="rgb(100%, 94.898987%, 0%)" stroke-opacity="1" stroke-miterlimit="10" d="M 4.508656 -278.961125 L 108.87975 -174.590031 " transform="matrix(1, 0, 0, -1, 16.339, -12.008)"/>
<path fill="none" stroke-width="0.79701" stroke-linecap="butt" stroke-linejoin="miter" stroke="rgb(100%, 94.898987%, 0%)" stroke-opacity="1" stroke-miterlimit="10" d="M 5.102406 -279.640813 L 108.286 -202.254094 " transform="matrix(1, 0, 0, -1, 16.339, -12.008)"/>
<path fill="none" stroke-width="0.79701" stroke-linecap="butt" stroke-linejoin="miter" stroke="rgb(100%, 94.898987%, 0%)" stroke-opacity="1" stroke-miterlimit="10" d="M 5.703969 -280.617375 L 107.684438 -229.625188 " transform="matrix(1, 0, 0, -1, 16.339, -12.008)"/>
<path fill="none" stroke-width="0.79701" stroke-linecap="butt" stroke-linejoin="miter" stroke="rgb(100%, 94.898987%, 0%)" stroke-opacity="1" stroke-miterlimit="10" d="M 6.184437 -281.922063 L 107.200063 -256.668156 " transform="matrix(1, 0, 0, -1, 16.339, -12.008)"/>
<path fill="none" stroke-width="0.79701" stroke-linecap="butt" stroke-linejoin="miter" stroke="rgb(100%, 94.898987%, 0%)" stroke-opacity="1" stroke-miterlimit="10" d="M 6.375844 -283.468938 L 107.012563 -283.468938 " transform="matrix(1, 0, 0, -1, 16.339, -12.008)"/>
<path fill="none" stroke-width="0.79701" stroke-linecap="butt" stroke-linejoin="miter" stroke="rgb(100%, 94.898987%, 0%)" stroke-opacity="1" stroke-miterlimit="10" d="M 6.184437 -285.015813 L 107.200063 -310.269719 " transform="matrix(1, 0, 0, -1, 16.339, -12.008)"/>
<path fill="none" stroke-width="0.79701" stroke-linecap="butt" stroke-linejoin="miter" stroke="rgb(100%, 94.898987%, 0%)" stroke-opacity="1" stroke-miterlimit="10" d="M 5.703969 -286.3205 L 107.684438 -337.308781 " transform="matrix(1, 0, 0, -1, 16.339, -12.008)"/>
<path fill="none" stroke-width="0.79701" stroke-linecap="butt" stroke-linejoin="miter" stroke="rgb(100%, 94.898987%, 0%)" stroke-opacity="1" stroke-miterlimit="10" d="M 5.102406 -287.293156 L 108.286 -364.683781 " transform="matrix(1, 0, 0, -1, 16.339, -12.008)"/>
<path fill="none" stroke-width="0.79701" stroke-linecap="butt" stroke-linejoin="miter" stroke="rgb(100%, 94.898987%, 0%)" stroke-opacity="1" stroke-miterlimit="10" d="M 4.508656 -287.97675 L 108.87975 -392.347844 " transform="matrix(1, 0, 0, -1, 16.339, -12.008)"/>
<path fill="none" stroke-width="0.79701" stroke-linecap="butt" stroke-linejoin="miter" stroke="rgb(100%, 94.898987%, 0%)" stroke-opacity="1" stroke-miterlimit="10" d="M 3.981312 -288.4455 L 109.403188 -420.222844 " transform="matrix(1, 0, 0, -1, 16.339, -12.008)"/>
<path fill="none" stroke-width="0.79701" stroke-linecap="butt" stroke-linejoin="miter" stroke="rgb(100%, 94.898987%, 0%)" stroke-opacity="1" stroke-miterlimit="10" d="M 3.536 -288.773625 L 109.852406 -448.242375 " transform="matrix(1, 0, 0, -1, 16.339, -12.008)"/>
<path fill="none" stroke-width="0.79701" stroke-linecap="butt" stroke-linejoin="miter" stroke="rgb(100%, 94.898987%, 0%)" stroke-opacity="1" stroke-miterlimit="10" d="M 3.164906 -289.004094 L 110.2235 -476.359563 " transform="matrix(1, 0, 0, -1, 16.339, -12.008)"/>
<path fill="none" stroke-width="0.79701" stroke-linecap="butt" stroke-linejoin="miter" stroke="rgb(100%, 94.898987%, 0%)" stroke-opacity="1" stroke-miterlimit="10" d="M 2.852406 -289.172063 L 110.536 -504.53925 " transform="matrix(1, 0, 0, -1, 16.339, -12.008)"/>
<path fill="none" stroke-width="0.79701" stroke-linecap="butt" stroke-linejoin="miter" stroke="rgb(100%, 94.898987%, 0%)" stroke-opacity="1" stroke-miterlimit="10" d="M 2.590687 -289.293156 L 110.797719 -532.761906 " transform="matrix(1, 0, 0, -1, 16.339, -12.008)"/>
<path fill="none" stroke-width="0.79701" stroke-linecap="butt" stroke-linejoin="miter" stroke="rgb(100%, 94.898987%, 0%)" stroke-opacity="1" stroke-miterlimit="10" d="M 2.368031 -289.386906 L 111.020375 -561.015813 " transform="matrix(1, 0, 0, -1, 16.339, -12.008)"/>
<path fill="none" stroke-width="0.79701" stroke-linecap="butt" stroke-linejoin="miter" stroke="rgb(100%, 94.898987%, 0%)" stroke-opacity="1" stroke-miterlimit="10" d="M 115.977406 -34.172063 L 224.184438 -277.640813 " transform="matrix(1, 0, 0, -1, 16.339, -12.008)"/>
<path fill="none" stroke-width="0.79701" stroke-linecap="butt" stroke-linejoin="miter" stroke="rgb(100%, 94.898987%, 0%)" stroke-opacity="1" stroke-miterlimit="10" d="M 116.239125 -62.394719 L 223.922719 -277.765813 " transform="matrix(1, 0, 0, -1, 16.339, -12.008)"/>
<path fill="none" stroke-width="0.79701" stroke-linecap="butt" stroke-linejoin="miter" stroke="rgb(100%, 94.898987%, 0%)" stroke-opacity="1" stroke-miterlimit="10" d="M 116.551625 -90.574406 L 223.610219 -277.933781 " transform="matrix(1, 0, 0, -1, 16.339, -12.008)"/>
<path fill="none" stroke-width="0.79701" stroke-linecap="butt" stroke-linejoin="miter" stroke="rgb(100%, 94.898987%, 0%)" stroke-opacity="1" stroke-miterlimit="10" d="M 116.922719 -118.691594 L 223.239125 -278.16425 " transform="matrix(1, 0, 0, -1, 16.339, -12.008)"/>
<path fill="none" stroke-width="0.79701" stroke-linecap="butt" stroke-linejoin="miter" stroke="rgb(100%, 94.898987%, 0%)" stroke-opacity="1" stroke-miterlimit="10" d="M 117.371938 -146.711125 L 222.789906 -278.488469 " transform="matrix(1, 0, 0, -1, 16.339, -12.008)"/>
<path fill="none" stroke-width="0.79701" stroke-linecap="butt" stroke-linejoin="miter" stroke="rgb(100%, 94.898987%, 0%)" stroke-opacity="1" stroke-miterlimit="10" d="M 117.895375 -174.590031 L 222.266469 -278.961125 " transform="matrix(1, 0, 0, -1, 16.339, -12.008)"/>
<path fill="none" stroke-width="0.79701" stroke-linecap="butt" stroke-linejoin="miter" stroke="rgb(100%, 94.898987%, 0%)" stroke-opacity="1" stroke-miterlimit="10" d="M 118.489125 -202.254094 L 221.672719 -279.640813 " transform="matrix(1, 0, 0, -1, 16.339, -12.008)"/>
<path fill="none" stroke-width="0.79701" stroke-linecap="butt" stroke-linejoin="miter" stroke="rgb(100%, 94.898987%, 0%)" stroke-opacity="1" stroke-miterlimit="10" d="M 119.090688 -229.625188 L 221.071156 -280.617375 " transform="matrix(1, 0, 0, -1, 16.339, -12.008)"/>
<path fill="none" stroke-width="0.79701" stroke-linecap="butt" stroke-linejoin="miter" stroke="rgb(100%, 94.898987%, 0%)" stroke-opacity="1" stroke-miterlimit="10" d="M 119.571156 -256.668156 L 220.586781 -281.922063 " transform="matrix(1, 0, 0, -1, 16.339, -12.008)"/>
<path fill="none" stroke-width="0.79701" stroke-linecap="butt" stroke-linejoin="miter" stroke="rgb(100%, 94.898987%, 0%)" stroke-opacity="1" stroke-miterlimit="10" d="M 119.762563 -283.468938 L 220.399281 -283.468938 " transform="matrix(1, 0, 0, -1, 16.339, -12.008)"/>
<path fill="none" stroke-width="0.79701" stroke-linecap="butt" stroke-linejoin="miter" stroke="rgb(100%, 94.898987%, 0%)" stroke-opacity="1" stroke-miterlimit="10" d="M 119.571156 -310.269719 L 220.586781 -285.015813 " transform="matrix(1, 0, 0, -1, 16.339, -12.008)"/>
<path fill="none" stroke-width="0.79701" stroke-linecap="butt" stroke-linejoin="miter" stroke="rgb(100%, 94.898987%, 0%)" stroke-opacity="1" stroke-miterlimit="10" d="M 119.090688 -337.308781 L 221.071156 -286.3205 " transform="matrix(1, 0, 0, -1, 16.339, -12.008)"/>
<path fill="none" stroke-width="0.79701" stroke-linecap="butt" stroke-linejoin="miter" stroke="rgb(100%, 94.898987%, 0%)" stroke-opacity="1" stroke-miterlimit="10" d="M 118.489125 -364.683781 L 221.672719 -287.293156 " transform="matrix(1, 0, 0, -1, 16.339, -12.008)"/>
<path fill="none" stroke-width="0.79701" stroke-linecap="butt" stroke-linejoin="miter" stroke="rgb(100%, 94.898987%, 0%)" stroke-opacity="1" stroke-miterlimit="10" d="M 117.895375 -392.347844 L 222.266469 -287.97675 " transform="matrix(1, 0, 0, -1, 16.339, -12.008)"/>
<path fill="none" stroke-width="0.79701" stroke-linecap="butt" stroke-linejoin="miter" stroke="rgb(100%, 94.898987%, 0%)" stroke-opacity="1" stroke-miterlimit="10" d="M 117.371938 -420.222844 L 222.789906 -288.4455 " transform="matrix(1, 0, 0, -1, 16.339, -12.008)"/>
<path fill="none" stroke-width="0.79701" stroke-linecap="butt" stroke-linejoin="miter" stroke="rgb(100%, 94.898987%, 0%)" stroke-opacity="1" stroke-miterlimit="10" d="M 116.922719 -448.242375 L 223.239125 -288.773625 " transform="matrix(1, 0, 0, -1, 16.339, -12.008)"/>
<path fill="none" stroke-width="0.79701" stroke-linecap="butt" stroke-linejoin="miter" stroke="rgb(100%, 94.898987%, 0%)" stroke-opacity="1" stroke-miterlimit="10" d="M 116.551625 -476.359563 L 223.610219 -289.004094 " transform="matrix(1, 0, 0, -1, 16.339, -12.008)"/>
<path fill="none" stroke-width="0.79701" stroke-linecap="butt" stroke-linejoin="miter" stroke="rgb(100%, 94.898987%, 0%)" stroke-opacity="1" stroke-miterlimit="10" d="M 116.239125 -504.53925 L 223.922719 -289.172063 " transform="matrix(1, 0, 0, -1, 16.339, -12.008)"/>
<path fill="none" stroke-width="0.79701" stroke-linecap="butt" stroke-linejoin="miter" stroke="rgb(100%, 94.898987%, 0%)" stroke-opacity="1" stroke-miterlimit="10" d="M 115.977406 -532.761906 L 224.184438 -289.293156 " transform="matrix(1, 0, 0, -1, 16.339, -12.008)"/>
<path fill="none" stroke-width="0.79701" stroke-linecap="butt" stroke-linejoin="miter" stroke="rgb(100%, 94.898987%, 0%)" stroke-opacity="1" stroke-miterlimit="10" d="M 115.75475 -561.015813 L 224.407094 -289.386906 " transform="matrix(1, 0, 0, -1, 16.339, -12.008)"/>
</svg>
