<?xml version="1.0" encoding="utf-8" standalone="no"?>
<!DOCTYPE svg PUBLIC "-//W3C//DTD SVG 1.1//EN"
  "http://www.w3.org/Graphics/SVG/1.1/DTD/svg11.dtd">
<svg xmlns:xlink="http://www.w3.org/1999/xlink" width="590.917187pt" height="587.317188pt" viewBox="0 0 590.917187 587.317188" xmlns="http://www.w3.org/2000/svg" version="1.1">
 <metadata>
  <rdf:RDF xmlns:dc="http://purl.org/dc/elements/1.1/" xmlns:cc="http://creativecommons.org/ns#" xmlns:rdf="http://www.w3.org/1999/02/22-rdf-syntax-ns#">
   <cc:Work>
    <dc:type rdf:resource="http://purl.org/dc/dcmitype/StillImage"/>
    <dc:date>2024-12-14T12:42:50.938408</dc:date>
    <dc:format>image/svg+xml</dc:format>
    <dc:creator>
     <cc:Agent>
      <dc:title>Matplotlib v3.9.2, https://matplotlib.org/</dc:title>
     </cc:Agent>
    </dc:creator>
   </cc:Work>
  </rdf:RDF>
 </metadata>
 <defs>
  <style type="text/css">*{stroke-linejoin: round; stroke-linecap: butt}</style>
 </defs>
 <g id="figure_1">
  <g id="patch_1">
   <path d="M 0 587.317188 
L 590.917187 587.317188 
L 590.917187 0 
L 0 0 
L 0 587.317188 
z
" style="fill: none"/>
  </g>
  <g id="axes_1">
   <g id="patch_2">
    <path d="M 25.717188 561.6 
L 583.717188 561.6 
L 583.717188 7.2 
L 25.717188 7.2 
L 25.717188 561.6 
z
" style="fill: none"/>
   </g>
   <g id="PathCollection_1">
    <defs>
     <path id="m12bb6f5ca2" d="M 0 5 
C 1.326016 5 2.597899 4.473168 3.535534 3.535534 
C 4.473168 2.597899 5 1.326016 5 0 
C 5 -1.326016 4.473168 -2.597899 3.535534 -3.535534 
C 2.597899 -4.473168 1.326016 -5 0 -5 
C -1.326016 -5 -2.597899 -4.473168 -3.535534 -3.535534 
C -4.473168 -2.597899 -5 -1.326016 -5 0 
C -5 1.326016 -4.473168 2.597899 -3.535534 3.535534 
C -2.597899 4.473168 -1.326016 5 0 5 
z
" style="stroke: #ffff00"/>
    </defs>
    <g clip-path="url(#p081a4c4203)">
     <use xlink:href="#m12bb6f5ca2" x="316.622029" y="298.416546" style="fill: #ffff00; stroke: #ffff00"/>
    </g>
   </g>
   <g id="PathCollection_2">
    <path d="M 53.617188 289.4 
C 54.943203 289.4 56.215087 288.873168 57.152721 287.935534 
C 58.090356 286.997899 58.617188 285.726016 58.617188 284.4 
C 58.617188 283.073985 58.090356 281.802101 57.152721 280.864466 
C 56.215087 279.926832 54.943203 279.4 53.617188 279.4 
C 52.291172 279.4 51.019288 279.926832 50.081654 280.864466 
C 49.144019 281.802101 48.617188 283.073985 48.617188 284.4 
C 48.617188 285.726016 49.144019 286.997899 50.081654 287.935534 
C 51.019288 288.873168 52.291172 289.4 53.617188 289.4 
L 53.617188 289.4 
z
" clip-path="url(#p081a4c4203)" style="fill: none; stroke: #ffff00"/>
   </g>
   <g id="matplotlib.axis_1">
    <g id="text_1">
     <!-- x -->
     <g style="fill: #ffff00" transform="translate(300.278125 576.997656) scale(0.15 -0.15)">
      <defs>
       <path id="DejaVuSans-78" d="M 3513 3500 
L 2247 1797 
L 3578 0 
L 2900 0 
L 1881 1375 
L 863 0 
L 184 0 
L 1544 1831 
L 300 3500 
L 978 3500 
L 1906 2253 
L 2834 3500 
L 3513 3500 
z
" transform="scale(0.015625)"/>
      </defs>
      <use xlink:href="#DejaVuSans-78"/>
     </g>
    </g>
   </g>
   <g id="matplotlib.axis_2">
    <g id="text_2">
     <!-- y -->
     <g style="fill: #ffff00" transform="translate(18.597656 288.839063) rotate(-90) scale(0.15 -0.15)">
      <defs>
       <path id="DejaVuSans-79" d="M 2059 -325 
Q 1816 -950 1584 -1140 
Q 1353 -1331 966 -1331 
L 506 -1331 
L 506 -850 
L 844 -850 
Q 1081 -850 1212 -737 
Q 1344 -625 1503 -206 
L 1606 56 
L 191 3500 
L 800 3500 
L 1894 763 
L 2988 3500 
L 3597 3500 
L 2059 -325 
z
" transform="scale(0.015625)"/>
      </defs>
      <use xlink:href="#DejaVuSans-79"/>
     </g>
    </g>
   </g>
   <g id="QuadContourSet_1">
    <path clip-path="url(#p081a4c4203)" style="fill: none; stroke: #ffff00; stroke-width: 0.5"/>
    <path clip-path="url(#p081a4c4203)" style="fill: none; stroke: #ffff00; stroke-width: 0.5"/>
    <path clip-path="url(#p081a4c4203)" style="fill: none; stroke: #ffff00; stroke-width: 0.5"/>
    <path clip-path="url(#p081a4c4203)" style="fill: none; stroke: #ffff00; stroke-width: 0.5"/>
    <path clip-path="url(#p081a4c4203)" style="fill: none; stroke: #ffff00; stroke-width: 0.5"/>
    <path clip-path="url(#p081a4c4203)" style="fill: none; stroke: #ffff00; stroke-width: 0.5"/>
    <path clip-path="url(#p081a4c4203)" style="fill: none; stroke: #ffff00; stroke-width: 0.5"/>
    <path clip-path="url(#p081a4c4203)" style="fill: none; stroke: #ffff00; stroke-width: 0.5"/>
    <path clip-path="url(#p081a4c4203)" style="fill: none; stroke: #ffff00; stroke-width: 0.5"/>
    <path clip-path="url(#p081a4c4203)" style="fill: none; stroke: #ffff00; stroke-width: 0.5"/>
    <path clip-path="url(#p081a4c4203)" style="fill: none; stroke: #ffff00; stroke-width: 0.5"/>
    <path clip-path="url(#p081a4c4203)" style="fill: none; stroke: #ffff00; stroke-width: 0.5"/>
    <path d="M 301.899006 332.403571 
L 301.131602 332 
L 296.262642 328.973654 
L 293.128928 326.4 
L 290.626278 323.887576 
L 288.152333 320.8 
L 284.989915 315.724569 
L 284.71654 315.2 
L 282.632677 309.6 
L 281.383345 304 
L 280.968545 298.4 
L 281.388276 292.8 
L 282.64254 287.2 
L 284.731334 281.6 
L 284.989915 281.104656 
L 288.175918 276 
L 290.626278 272.945872 
L 293.165578 270.4 
L 296.262642 267.859177 
L 301.189713 264.8 
L 301.899006 264.427328 
L 307.535369 262.417475 
L 313.171733 261.35919 
L 318.808097 261.252473 
L 324.44446 262.097323 
L 330.080824 263.89374 
L 331.939645 264.8 
L 335.717187 266.976404 
L 340.131038 270.4 
L 341.353551 271.558823 
L 345.080269 276 
L 346.989915 278.925416 
L 348.439296 281.6 
L 350.607664 287.2 
L 351.909708 292.8 
L 352.345429 298.4 
L 351.914827 304 
L 350.617902 309.6 
L 348.454654 315.2 
L 346.989915 317.907492 
L 345.104935 320.8 
L 341.353551 325.276447 
L 340.169802 326.4 
L 335.717187 329.857376 
L 332.002269 332 
L 330.080824 332.937644 
L 324.44446 334.735696 
L 318.808097 335.581314 
L 313.171733 335.474499 
L 307.535369 334.415252 
L 301.899006 332.403571 
z
" clip-path="url(#p081a4c4203)" style="fill: none; stroke: #ffff00; stroke-width: 0.5"/>
    <path d="M 313.171733 371.550363 
L 309.298775 371.2 
L 307.535369 371.02771 
L 301.899006 369.981865 
L 296.262642 368.440862 
L 290.626278 366.404702 
L 288.834486 365.6 
L 284.989915 363.723207 
L 279.353551 360.433494 
L 278.715263 360 
L 273.717188 356.282184 
L 271.498777 354.4 
L 268.080824 351.194728 
L 265.807441 348.8 
L 262.44446 344.840608 
L 261.188783 343.2 
L 257.407115 337.6 
L 256.808097 336.576426 
L 254.370887 332 
L 251.847592 326.4 
L 251.171733 324.566512 
L 249.897954 320.8 
L 248.425245 315.2 
L 247.373666 309.6 
L 246.743217 304 
L 246.533896 298.4 
L 246.745705 292.8 
L 247.378643 287.2 
L 248.432711 281.6 
L 249.907908 276 
L 251.171733 272.267826 
L 251.861154 270.4 
L 254.387161 264.8 
L 256.808097 260.258265 
L 257.42798 259.2 
L 261.212629 253.6 
L 262.44446 251.991667 
L 265.837211 248 
L 268.080824 245.638101 
L 271.535933 242.4 
L 273.717188 240.550382 
L 278.761882 236.8 
L 279.353551 236.398374 
L 284.989915 233.110351 
L 288.905239 231.2 
L 290.626278 230.427438 
L 296.262642 228.392241 
L 301.899006 226.851967 
L 307.535369 225.806615 
L 309.651103 225.6 
L 313.171733 225.281649 
L 318.808097 225.230255 
L 323.930107 225.6 
L 324.44446 225.6401 
L 330.080824 226.57444 
L 335.717187 228.003704 
L 341.353551 229.927891 
L 344.31748 231.2 
L 346.989915 232.446714 
L 352.626278 235.614076 
L 354.430256 236.8 
L 358.262642 239.559261 
L 361.707988 242.4 
L 363.899006 244.396628 
L 367.408299 248 
L 369.535369 250.440956 
L 372.009783 253.6 
L 375.171733 258.17484 
L 375.815206 259.2 
L 378.861735 264.8 
L 380.808097 269.027864 
L 381.386643 270.4 
L 383.318749 276 
L 384.82178 281.6 
L 385.895736 287.2 
L 386.44446 291.965001 
L 386.533155 292.8 
L 386.732216 298.4 
L 386.535494 304 
L 386.44446 304.8604 
L 385.900807 309.6 
L 384.829387 315.2 
L 383.328891 320.8 
L 381.399321 326.4 
L 380.808097 327.803711 
L 378.878346 332 
L 375.834585 337.6 
L 375.171733 338.656866 
L 372.03417 343.2 
L 369.535369 346.392397 
L 367.438821 348.8 
L 363.899006 352.436974 
L 361.746201 354.4 
L 358.262642 357.273863 
L 354.478393 360 
L 352.626278 361.218194 
L 346.989915 364.387184 
L 344.39148 365.6 
L 341.353551 366.904486 
L 335.717187 368.829583 
L 330.080824 370.259522 
L 324.44446 371.194305 
L 324.371444 371.2 
L 318.808097 371.60178 
L 313.171733 371.550363 
" clip-path="url(#p081a4c4203)" style="fill: none; stroke: #ffff00; stroke-width: 0.5"/>
    <path d="M 301.899006 393.787584 
L 300.938394 393.6 
L 296.262642 392.631595 
L 290.626278 391.089138 
L 284.989915 389.171584 
L 282.109637 388 
L 279.353551 386.806591 
L 273.717188 383.966697 
L 270.991058 382.4 
L 268.080824 380.612131 
L 262.55655 376.8 
L 262.44446 376.71692 
L 256.808097 372.080795 
L 255.833636 371.2 
L 251.171733 366.649017 
L 250.185868 365.6 
L 245.535369 360.221195 
L 245.35871 360 
L 241.275235 354.4 
L 239.899006 352.313936 
L 237.745044 348.8 
L 234.67382 343.2 
L 234.262642 342.350263 
L 232.116145 337.6 
L 229.923207 332 
L 228.626278 328.085609 
L 228.102459 326.4 
L 226.678785 320.8 
L 225.571691 315.2 
L 224.781177 309.6 
L 224.307243 304 
L 224.149888 298.4 
L 224.309113 292.8 
L 224.784919 287.2 
L 225.577304 281.6 
L 226.686268 276 
L 228.111813 270.4 
L 228.626278 268.746268 
L 229.935174 264.8 
L 232.130107 259.2 
L 234.262642 254.484351 
L 234.690907 253.6 
L 237.764267 248 
L 239.899006 244.519589 
L 241.298223 242.4 
L 245.383997 236.8 
L 245.535369 236.610564 
L 250.215731 231.2 
L 251.171733 230.18324 
L 255.868898 225.6 
L 256.808097 224.751449 
L 262.44446 220.117354 
L 262.60286 220 
L 268.080824 216.221366 
L 271.046792 214.4 
L 273.717188 212.865919 
L 279.353551 210.027106 
L 282.18854 208.8 
L 284.989915 207.660919 
L 290.626278 205.744051 
L 296.262642 204.202147 
L 301.103042 203.2 
L 301.899006 203.04462 
L 307.535369 202.297891 
L 313.171733 201.904701 
L 318.808097 201.865052 
L 324.44446 202.178943 
L 330.080824 202.846374 
L 332.033048 203.2 
L 335.717187 203.907784 
L 341.353551 205.365584 
L 346.989915 207.198348 
L 351.078958 208.8 
L 352.626278 209.445169 
L 358.262642 212.194453 
L 362.211039 214.4 
L 363.899006 215.4079 
L 369.535369 219.200094 
L 370.604036 220 
L 375.171733 223.672161 
L 377.349474 225.6 
L 380.808097 228.906618 
L 383.005119 231.2 
L 386.44446 235.102299 
L 387.82465 236.8 
L 391.981532 242.4 
L 392.080824 242.547838 
L 395.478962 248 
L 397.717188 252.013472 
L 398.54253 253.6 
L 401.113145 259.2 
L 403.341146 264.8 
L 403.353551 264.836845 
L 405.108646 270.4 
L 406.554316 276 
L 407.678937 281.6 
L 408.482508 287.2 
L 408.965031 292.8 
L 408.989915 293.662992 
L 409.118416 298.4 
L 408.989915 303.193325 
L 408.966928 304 
L 408.486303 309.6 
L 407.684628 315.2 
L 406.561905 320.8 
L 405.118132 326.4 
L 403.353551 331.999235 
L 403.353294 332 
L 401.127317 337.6 
L 398.558727 343.2 
L 397.717188 344.818787 
L 395.498496 348.8 
L 392.080824 354.286914 
L 392.00492 354.4 
L 387.850376 360 
L 386.44446 361.730234 
L 383.035545 365.6 
L 380.808097 367.926242 
L 377.385462 371.2 
L 375.171733 373.160556 
L 370.646713 376.8 
L 369.535369 377.632189 
L 363.899006 381.425929 
L 362.268358 382.4 
L 358.262642 384.638418 
L 352.626278 387.38875 
L 351.160867 388 
L 346.989915 389.63432 
L 341.353551 391.467741 
L 335.717187 392.926063 
L 332.210483 393.6 
L 330.080824 393.985897 
L 324.44446 394.653554 
L 318.808097 394.967551 
L 313.171733 394.927888 
L 307.535369 394.534566 
L 301.899006 393.787584 
z
" clip-path="url(#p081a4c4203)" style="fill: none; stroke: #ffff00; stroke-width: 0.5"/>
    <path d="M 290.626278 410.510597 
L 290.222374 410.4 
L 284.989915 408.893768 
L 279.353551 406.953885 
L 273.975323 404.8 
L 273.717188 404.691032 
L 268.080824 401.977195 
L 262.94587 399.2 
L 262.44446 398.913318 
L 256.808097 395.337058 
L 254.316775 393.6 
L 251.171733 391.274214 
L 247.109725 388 
L 245.535369 386.64909 
L 240.961122 382.4 
L 239.899006 381.345327 
L 235.645959 376.8 
L 234.262642 375.212084 
L 230.998784 371.2 
L 228.626278 368.05024 
L 226.895222 365.6 
L 223.25549 360 
L 222.989915 359.552468 
L 220.111015 354.4 
L 217.353551 348.94522 
L 217.284194 348.8 
L 214.891238 343.2 
L 212.779904 337.6 
L 211.717188 334.347458 
L 210.990324 332 
L 209.523235 326.4 
L 208.323032 320.8 
L 207.389717 315.2 
L 206.723288 309.6 
L 206.323746 304 
L 206.191092 298.4 
L 206.325324 292.8 
L 206.726442 287.2 
L 207.394448 281.6 
L 208.329341 276 
L 209.53112 270.4 
L 210.999786 264.8 
L 211.717188 262.485207 
L 212.791553 259.2 
L 214.904551 253.6 
L 217.299171 248 
L 217.353551 247.886211 
L 220.12863 242.4 
L 222.989915 237.281938 
L 223.276068 236.8 
L 226.917671 231.2 
L 228.626278 228.782679 
L 231.024713 225.6 
L 234.262642 221.621531 
L 235.675861 220 
L 239.899006 215.488469 
L 240.995604 214.4 
L 245.535369 210.184548 
L 247.149542 208.8 
L 251.171733 205.559041 
L 254.362888 203.2 
L 256.808097 201.495669 
L 262.44446 197.920617 
L 263.005412 197.6 
L 268.080824 194.855885 
L 273.717188 192.142914 
L 274.055846 192 
L 279.353551 189.879006 
L 284.989915 187.939711 
L 290.340296 186.4 
L 290.626278 186.321715 
L 296.262642 185.080627 
L 301.899006 184.141348 
L 307.535369 183.50388 
L 313.171733 183.168222 
L 318.808097 183.134374 
L 324.44446 183.402337 
L 330.080824 183.972109 
L 335.717187 184.843692 
L 341.353551 186.017085 
L 342.816569 186.4 
L 346.989915 187.548294 
L 352.626278 189.416422 
L 358.262642 191.601836 
L 359.159353 192 
L 363.899006 194.218275 
L 369.535369 197.190666 
L 370.233064 197.6 
L 375.171733 200.663034 
L 378.886509 203.2 
L 380.808097 204.591848 
L 386.12916 208.8 
L 386.44446 209.065439 
L 392.080824 214.209621 
L 392.274398 214.4 
L 397.601097 220 
L 397.717188 220.131085 
L 402.235192 225.6 
L 403.353551 227.062015 
L 406.319647 231.2 
L 408.989915 235.249132 
L 409.9521 236.8 
L 413.124397 242.4 
L 414.626278 245.330237 
L 415.918158 248 
L 418.342804 253.6 
L 420.262642 258.625066 
L 420.470668 259.2 
L 422.226831 264.8 
L 423.712938 270.4 
L 424.928989 276 
L 425.874984 281.6 
L 425.899006 281.799017 
L 426.518143 287.2 
L 426.903616 292.8 
L 427.032613 298.4 
L 426.905132 304 
L 426.521174 309.6 
L 425.899006 315.040269 
L 425.879771 315.2 
L 424.935372 320.8 
L 423.720917 326.4 
L 422.236406 332 
L 420.481838 337.6 
L 420.262642 338.206285 
L 418.356284 343.2 
L 415.933323 348.8 
L 414.626278 351.502784 
L 413.142245 354.4 
L 409.971733 360 
L 408.989915 361.583326 
L 406.342412 365.6 
L 403.353551 369.771717 
L 402.261512 371.2 
L 397.717188 376.703182 
L 397.631482 376.8 
L 392.306954 382.4 
L 392.080824 382.622482 
L 386.44446 387.768626 
L 386.169728 388 
L 380.808097 392.241754 
L 378.933571 393.6 
L 375.171733 396.169975 
L 370.287934 399.2 
L 369.535369 399.641667 
L 363.899006 402.615008 
L 359.231957 404.8 
L 358.262642 405.230533 
L 352.626278 407.416609 
L 346.989915 409.285303 
L 342.939902 410.4 
L 341.353551 410.815315 
L 335.717187 411.989046 
L 330.080824 412.86088 
L 324.44446 413.430817 
L 318.808097 413.698856 
L 313.171733 413.664999 
L 307.535369 413.329244 
L 301.899006 412.691592 
L 296.262642 411.752043 
L 290.626278 410.510597 
z
" clip-path="url(#p081a4c4203)" style="fill: none; stroke: #ffff00; stroke-width: 0.5"/>
    <path d="M 296.262642 428.093797 
L 291.610725 427.2 
L 290.626278 427.002446 
L 284.989915 425.596306 
L 279.353551 423.915109 
L 273.717188 421.958853 
L 272.810716 421.6 
L 268.080824 419.640435 
L 262.44446 417.017471 
L 260.47428 416 
L 256.808097 414.014282 
L 251.171733 410.659555 
L 250.771652 410.4 
L 245.535369 406.828696 
L 242.787724 404.8 
L 239.899006 402.551836 
L 235.897341 399.2 
L 234.262642 397.752503 
L 229.883418 393.6 
L 228.626278 392.335686 
L 224.582762 388 
L 222.989915 386.181849 
L 219.870327 382.4 
L 217.353551 379.138474 
L 215.648683 376.8 
L 211.847617 371.2 
L 211.717188 370.992465 
L 208.505495 365.6 
L 206.080824 361.174855 
L 205.469093 360 
L 202.806864 354.4 
L 200.44446 348.907432 
L 200.400441 348.8 
L 198.34752 343.2 
L 196.536204 337.6 
L 194.966491 332 
L 194.808097 331.332127 
L 193.691281 326.4 
L 192.653913 320.8 
L 191.847222 315.2 
L 191.271209 309.6 
L 190.925874 304 
L 190.811217 298.4 
L 190.927237 292.8 
L 191.273936 287.2 
L 191.851312 281.6 
L 192.659365 276 
L 193.698097 270.4 
L 194.808097 265.503237 
L 194.975057 264.8 
L 196.546197 259.2 
L 198.358942 253.6 
L 200.413291 248 
L 200.44446 247.923975 
L 202.821851 242.4 
L 205.485578 236.8 
L 206.080824 235.657393 
L 208.524421 231.2 
L 211.717188 225.841844 
L 211.869251 225.6 
L 215.671982 220 
L 217.353551 217.694423 
L 219.896748 214.4 
L 222.989915 210.651611 
L 224.612694 208.8 
L 228.626278 204.49795 
L 229.917325 203.2 
L 234.262642 199.08104 
L 235.935787 197.6 
L 239.899006 194.281427 
L 242.8314 192 
L 245.535369 190.004156 
L 250.821423 186.4 
L 251.171733 186.1728 
L 256.808097 182.81904 
L 260.536875 180.8 
L 262.44446 179.815126 
L 268.080824 177.192883 
L 272.892459 175.2 
L 273.717188 174.873594 
L 279.353551 172.917851 
L 284.989915 171.237095 
L 290.626278 169.831325 
L 291.779312 169.6 
L 296.262642 168.738811 
L 301.899006 167.919426 
L 307.535369 167.363326 
L 313.171733 167.070513 
L 318.808097 167.040985 
L 324.44446 167.274744 
L 330.080824 167.771789 
L 335.717187 168.53212 
L 341.353551 169.555737 
L 341.547416 169.6 
L 346.989915 170.897861 
L 352.626278 172.516938 
L 358.262642 174.411001 
L 360.312888 175.2 
L 363.899006 176.64423 
L 369.535369 179.201926 
L 372.700866 180.8 
L 375.171733 182.108236 
L 380.808097 185.3943 
L 382.387999 186.4 
L 386.44446 189.114573 
L 390.421671 192 
L 392.080824 193.268753 
L 397.336973 197.6 
L 397.717188 197.93121 
L 403.353551 203.194665 
L 403.358904 203.2 
L 408.657165 208.8 
L 408.989915 209.174387 
L 413.359358 214.4 
L 414.626278 216.01964 
L 417.56575 220 
L 420.262642 223.92233 
L 421.355092 225.6 
L 424.731592 231.2 
L 425.899006 233.304501 
L 427.740539 236.8 
L 430.434308 242.4 
L 431.535369 244.929834 
L 432.807628 248 
L 434.884037 253.6 
L 436.716247 259.2 
L 437.171733 260.806237 
L 438.252516 264.8 
L 439.534934 270.4 
L 440.58431 276 
L 441.400645 281.6 
L 441.983937 287.2 
L 442.334188 292.8 
L 442.451398 298.4 
L 442.335566 304 
L 441.986692 309.6 
L 441.404776 315.2 
L 440.589819 320.8 
L 439.54182 326.4 
L 438.260779 332 
L 437.171733 336.027956 
L 436.726348 337.6 
L 434.895581 343.2 
L 432.820615 348.8 
L 431.535369 351.903436 
L 430.449464 354.4 
L 427.75721 360 
L 425.899006 363.528957 
L 424.750742 365.6 
L 421.375837 371.2 
L 420.262642 372.910277 
L 417.589341 376.8 
L 414.626278 380.813939 
L 413.38613 382.4 
L 408.989915 387.659636 
L 408.687519 388 
L 403.391156 393.6 
L 403.353551 393.637488 
L 397.717188 398.902721 
L 397.37604 399.2 
L 392.080824 403.564833 
L 390.466108 404.8 
L 386.44446 407.718549 
L 382.438709 410.4 
L 380.808097 411.438279 
L 375.171733 414.72529 
L 372.764881 416 
L 369.535369 417.63084 
L 363.899006 420.189239 
L 360.396956 421.6 
L 358.262642 422.421567 
L 352.626278 424.316128 
L 346.989915 425.93563 
L 341.689249 427.2 
L 341.353551 427.276666 
L 335.717187 428.30054 
L 330.080824 429.061062 
L 324.44446 429.558232 
L 318.808097 429.79205 
L 313.171733 429.762515 
L 307.535369 429.469628 
L 301.899006 428.913389 
L 296.262642 428.093797 
z
" clip-path="url(#p081a4c4203)" style="fill: none; stroke: #ffff00; stroke-width: 0.5"/>
    <path d="M 313.171733 444.117003 
L 310.63263 444 
L 307.535369 443.851679 
L 301.899006 443.339071 
L 296.262642 442.583769 
L 290.626278 441.585772 
L 284.989915 440.34508 
L 279.353551 438.861693 
L 277.845934 438.4 
L 273.717188 437.083998 
L 268.080824 435.034853 
L 262.608263 432.8 
L 262.44446 432.73026 
L 256.808097 430.067203 
L 251.285767 427.2 
L 251.171733 427.138162 
L 245.535369 423.806614 
L 242.086898 421.6 
L 239.899006 420.134883 
L 234.262642 416.072651 
L 234.168509 416 
L 228.626278 411.513881 
L 227.335579 410.4 
L 222.989915 406.457314 
L 221.269957 404.8 
L 217.353551 400.822216 
L 215.844549 399.2 
L 211.717188 394.509393 
L 210.958863 393.6 
L 206.556018 388 
L 206.080824 387.356597 
L 202.602078 382.4 
L 200.44446 379.113719 
L 198.997334 376.8 
L 195.736393 371.2 
L 194.808097 369.478278 
L 192.811621 365.6 
L 190.159508 360 
L 189.171733 357.715594 
L 187.800103 354.4 
L 185.704134 348.8 
L 183.828862 343.2 
L 183.535369 342.206658 
L 182.230735 337.6 
L 180.856323 332 
L 179.693456 326.4 
L 178.742133 320.8 
L 178.002354 315.2 
L 177.899006 314.10437 
L 177.491038 309.6 
L 177.186958 304 
L 177.085999 298.4 
L 177.188159 292.8 
L 177.493439 287.2 
L 177.899006 282.732707 
L 178.006104 281.6 
L 178.747133 276 
L 179.699707 270.4 
L 180.863824 264.8 
L 182.239485 259.2 
L 183.535369 254.627843 
L 183.839295 253.6 
L 185.715872 248 
L 187.813145 242.4 
L 189.171733 239.117778 
L 190.174502 236.8 
L 192.827979 231.2 
L 194.808097 227.355316 
L 195.754953 225.6 
L 199.017322 220 
L 200.44446 217.719168 
L 202.624558 214.4 
L 206.080824 209.47731 
L 206.581251 208.8 
L 210.985673 203.2 
L 211.717188 202.323055 
L 215.874504 197.6 
L 217.353551 196.010494 
L 221.303424 192 
L 222.989915 190.375426 
L 227.372994 186.4 
L 228.626278 185.31872 
L 234.210394 180.8 
L 234.262642 180.759686 
L 239.899006 176.698571 
L 242.13747 175.2 
L 245.535369 173.026318 
L 251.171733 169.695645 
L 251.348154 169.6 
L 256.808097 166.765901 
L 262.44446 164.103514 
L 262.687651 164 
L 268.080824 161.798098 
L 273.717188 159.749448 
L 277.951885 158.4 
L 279.353551 157.970853 
L 284.989915 156.48781 
L 290.626278 155.247405 
L 296.262642 154.249639 
L 301.899006 153.494512 
L 307.535369 152.982023 
L 311.337286 152.8 
L 313.171733 152.715487 
L 318.808097 152.689302 
L 321.817941 152.8 
L 324.44446 152.900388 
L 330.080824 153.358453 
L 335.717187 154.059157 
L 341.353551 155.0025 
L 346.989915 156.188481 
L 352.626278 157.6171 
L 355.266629 158.4 
L 358.262642 159.324613 
L 363.899006 161.316619 
L 369.535369 163.561165 
L 370.525896 164 
L 375.171733 166.145827 
L 380.808097 169.012446 
L 381.866169 169.6 
L 386.44446 172.25533 
L 391.127678 175.2 
L 392.080824 175.827181 
L 397.717188 179.823749 
L 399.001517 180.8 
L 403.353551 184.269438 
L 405.857896 186.4 
L 408.989915 189.201176 
L 411.933999 192 
L 414.626278 194.697768 
L 417.360689 197.6 
L 420.262642 200.856031 
L 422.241112 203.2 
L 425.899006 207.796246 
L 426.657671 208.8 
L 430.633826 214.4 
L 431.535369 215.75728 
L 434.218587 220 
L 437.171733 225.01535 
L 437.50026 225.6 
L 440.413969 231.2 
L 442.808097 236.201408 
L 443.082118 236.8 
L 445.422804 242.4 
L 447.540631 248 
L 448.44446 250.670995 
L 449.394106 253.6 
L 450.996215 259.2 
L 452.384793 264.8 
L 453.559841 270.4 
L 454.080824 273.434271 
L 454.503658 276 
L 455.22159 281.6 
L 455.734573 287.2 
L 456.042604 292.8 
L 456.145685 298.4 
L 456.043815 304 
L 455.736995 309.6 
L 455.225224 315.2 
L 454.508502 320.8 
L 454.080824 323.398534 
L 453.56615 326.4 
L 452.392364 332 
L 451.005047 337.6 
L 449.4042 343.2 
L 448.44446 346.162198 
L 447.552483 348.8 
L 445.435973 354.4 
L 443.096604 360 
L 442.808097 360.630561 
L 440.430494 365.6 
L 437.518162 371.2 
L 437.171733 371.816779 
L 434.238789 376.8 
L 431.535369 381.076407 
L 430.65656 382.4 
L 426.68192 388 
L 425.899006 389.036208 
L 422.268241 393.6 
L 420.262642 395.976912 
L 417.391019 399.2 
L 414.626278 402.135361 
L 411.967911 404.8 
L 408.989915 407.63192 
L 405.895839 410.4 
L 403.353551 412.563465 
L 399.044033 416 
L 397.717188 417.008846 
L 392.080824 421.006512 
L 391.179131 421.6 
L 386.44446 424.577804 
L 381.924486 427.2 
L 380.808097 427.820093 
L 375.171733 430.687433 
L 370.599056 432.8 
L 369.535369 433.271361 
L 363.899006 435.516449 
L 358.262642 437.508935 
L 355.376031 438.4 
L 352.626278 439.215528 
L 346.989915 440.644478 
L 341.353551 441.830734 
L 335.717187 442.774295 
L 330.080824 443.475162 
L 324.44446 443.933333 
L 322.700616 444 
L 318.808097 444.143194 
L 313.171733 444.117003 
z
" clip-path="url(#p081a4c4203)" style="fill: none; stroke: #ffff00; stroke-width: 0.5"/>
    <path d="M 296.262642 455.760144 
L 290.626278 454.855107 
L 284.989915 453.704657 
L 279.353551 452.329165 
L 273.717188 450.72863 
L 268.080824 448.87675 
L 262.44446 446.74874 
L 255.967133 444 
L 251.171733 441.705519 
L 244.887178 438.4 
L 239.899006 435.468749 
L 234.262642 431.865861 
L 227.714983 427.2 
L 220.73295 421.6 
L 214.492325 416 
L 208.87673 410.4 
L 203.792934 404.8 
L 199.165368 399.2 
L 194.808097 393.417471 
L 189.171733 384.937628 
L 187.621899 382.4 
L 183.535369 375.132317 
L 181.530435 371.2 
L 177.899006 363.325689 
L 176.512145 360 
L 174.379985 354.4 
L 172.262642 348.189026 
L 170.783909 343.2 
L 169.319426 337.6 
L 168.050285 332 
L 166.626278 324.167503 
L 166.11751 320.8 
L 165.459589 315.2 
L 164.989804 309.6 
L 164.708155 304 
L 164.614643 298.4 
L 164.709267 292.8 
L 164.992027 287.2 
L 165.462924 281.6 
L 166.121957 276 
L 166.982256 270.4 
L 168.057211 264.8 
L 169.327507 259.2 
L 170.793144 253.6 
L 172.461747 248 
L 174.391988 242.4 
L 176.525349 236.8 
L 178.901761 231.2 
L 181.546686 225.6 
L 184.440703 220 
L 189.171733 211.895357 
L 191.148443 208.8 
L 194.962281 203.2 
L 200.44446 196.029889 
L 206.080824 189.441971 
L 211.717188 183.525363 
L 217.353551 178.186406 
L 222.989915 173.348091 
L 228.626278 168.946514 
L 235.730611 164 
L 239.899006 161.364307 
L 245.535369 158.06656 
L 251.171733 155.127686 
L 256.808097 152.445356 
L 262.44446 150.084337 
L 270.33293 147.2 
L 273.717188 146.104099 
L 279.353551 144.503908 
L 284.989915 143.128711 
L 292.932146 141.6 
L 296.262642 141.07248 
L 301.899006 140.396831 
L 307.535369 139.938283 
L 313.171733 139.696835 
L 318.808097 139.672487 
L 324.44446 139.86524 
L 330.080824 140.275093 
L 335.717187 140.902046 
L 341.353551 141.751412 
L 346.989915 142.851149 
L 352.626278 144.17588 
L 358.262642 145.725605 
L 363.899006 147.511656 
L 369.535369 149.586822 
L 377.177237 152.8 
L 380.808097 154.501815 
L 388.271646 158.4 
L 392.080824 160.599605 
L 397.717188 164.111402 
L 405.467444 169.6 
L 408.989915 172.330387 
L 414.626278 177.056827 
L 420.262642 182.272994 
L 425.899006 188.054221 
L 431.535369 194.492125 
L 434.042977 197.6 
L 438.26484 203.2 
L 442.808097 209.88096 
L 445.596171 214.4 
L 448.812228 220 
L 451.695519 225.6 
L 454.35385 231.2 
L 456.711388 236.8 
L 459.717188 244.853223 
L 460.769337 248 
L 462.444706 253.6 
L 463.923042 259.2 
L 465.353551 265.570623 
L 466.253835 270.4 
L 467.108072 276 
L 467.772603 281.6 
L 468.247428 287.2 
L 468.532547 292.8 
L 468.627961 298.4 
L 468.533668 304 
L 468.24967 309.6 
L 467.775966 315.2 
L 467.112556 320.8 
L 466.25944 326.4 
L 465.21133 332 
L 463.931192 337.6 
L 462.454021 343.2 
L 459.717188 351.980095 
L 458.876086 354.4 
L 456.72471 360 
L 454.080824 366.228722 
L 451.711922 371.2 
L 448.44446 377.497264 
L 445.615925 382.4 
L 442.132749 388 
L 437.171733 395.133399 
L 431.535369 402.34107 
L 429.452273 404.8 
L 424.375099 410.4 
L 418.760199 416 
L 412.51205 421.6 
L 408.989915 424.502727 
L 403.353551 428.80162 
L 397.597552 432.8 
L 392.080824 436.233636 
L 386.44446 439.446415 
L 380.808097 442.331535 
L 375.171733 444.937202 
L 369.535369 447.246366 
L 363.048375 449.6 
L 358.262642 451.107205 
L 352.626278 452.657263 
L 346.989915 453.982279 
L 340.595015 455.2 
L 335.717187 455.930613 
L 330.080824 456.557696 
L 324.44446 456.967634 
L 318.808097 457.160427 
L 313.171733 457.136074 
L 307.535369 456.894576 
L 301.899006 456.435933 
L 296.262642 455.760144 
L 296.262642 455.760144 
" clip-path="url(#p081a4c4203)" style="fill: none; stroke: #ffff00; stroke-width: 0.5"/>
    <path d="M 290.626278 467.061987 
L 287.029182 466.4 
L 284.989915 466.011983 
L 279.353551 464.729754 
L 273.717188 463.237741 
L 268.080824 461.535944 
L 265.910867 460.8 
L 262.44446 459.583109 
L 256.808097 457.387303 
L 251.698821 455.2 
L 251.171733 454.966145 
L 245.535369 452.240398 
L 240.491889 449.6 
L 239.899006 449.277895 
L 234.262642 445.982208 
L 231.096947 444 
L 228.626278 442.392311 
L 222.989915 438.481976 
L 222.878659 438.4 
L 217.353551 434.162761 
L 215.6747 432.8 
L 211.717188 429.450883 
L 209.19658 427.2 
L 206.080824 424.293979 
L 203.336029 421.6 
L 200.44446 418.629945 
L 198.005293 416 
L 194.808097 412.384555 
L 193.13249 410.4 
L 189.171733 405.468357 
L 188.658179 404.8 
L 184.575937 399.2 
L 183.535369 397.690972 
L 180.831386 393.6 
L 177.899006 388.894548 
L 177.363734 388 
L 174.215973 382.4 
L 172.262642 378.685234 
L 171.309295 376.8 
L 168.672765 371.2 
L 166.626278 366.505434 
L 166.246134 365.6 
L 164.083121 360 
L 162.108245 354.4 
L 160.989915 350.894929 
L 160.345282 348.8 
L 158.803544 343.2 
L 157.44325 337.6 
L 156.2644 332 
L 155.353551 326.885983 
L 155.269967 326.4 
L 154.482033 320.8 
L 153.869311 315.2 
L 153.4318 309.6 
L 153.1695 304 
L 153.082412 298.4 
L 153.170536 292.8 
L 153.433871 287.2 
L 153.872417 281.6 
L 154.486175 276 
L 155.275144 270.4 
L 155.353551 269.944606 
L 156.270833 264.8 
L 157.450755 259.2 
L 158.812121 253.6 
L 160.354932 248 
L 160.989915 245.937714 
L 162.119363 242.4 
L 164.09535 236.8 
L 166.259475 231.2 
L 166.626278 230.326754 
L 168.687771 225.6 
L 171.325456 220 
L 172.262642 218.147478 
L 174.233977 214.4 
L 177.382938 208.8 
L 177.899006 207.937856 
L 180.852637 203.2 
L 183.535369 199.14255 
L 184.599412 197.6 
L 188.682958 192 
L 189.171733 191.364084 
L 193.159752 186.4 
L 194.808097 184.448297 
L 198.035274 180.8 
L 200.44446 178.203096 
L 203.369 175.2 
L 206.080824 172.53908 
L 209.232853 169.6 
L 211.717188 167.382067 
L 215.71464 164 
L 217.353551 162.66998 
L 222.922695 158.4 
L 222.989915 158.350482 
L 228.626278 154.441053 
L 231.148805 152.8 
L 234.262642 150.850698 
L 239.899006 147.555745 
L 240.553956 147.2 
L 245.535369 144.592655 
L 251.171733 141.867494 
L 251.774771 141.6 
L 256.808097 139.445659 
L 262.44446 137.250308 
L 266.006795 136 
L 268.080824 135.296731 
L 273.717188 133.595275 
L 279.353551 132.103561 
L 284.989915 130.821588 
L 287.206064 130.4 
L 290.626278 129.770688 
L 296.262642 128.936474 
L 301.899006 128.305126 
L 307.535369 127.876644 
L 313.171733 127.651027 
L 318.808097 127.628276 
L 324.44446 127.80839 
L 330.080824 128.19137 
L 335.717187 128.777215 
L 341.353551 129.565927 
L 346.094628 130.4 
L 346.989915 130.562842 
L 352.626278 131.79777 
L 358.262642 133.242439 
L 363.899006 134.89685 
L 367.234436 136 
L 369.535369 136.787703 
L 375.171733 138.934358 
L 380.808097 141.298114 
L 381.46739 141.6 
L 386.44446 143.961832 
L 392.080824 146.861521 
L 392.691378 147.2 
L 397.717188 150.091333 
L 402.109231 152.8 
L 403.353551 153.597489 
L 408.989915 157.452494 
L 410.293222 158.4 
L 414.626278 161.6787 
L 417.522557 164 
L 420.262642 166.289555 
L 424.014748 169.6 
L 425.899006 171.33634 
L 429.880988 175.2 
L 431.535369 176.879874 
L 435.21118 180.8 
L 437.171733 182.992841 
L 440.078796 186.4 
L 442.808097 189.762834 
L 444.544467 192 
L 448.44446 197.29638 
L 448.658672 197.6 
L 452.396085 203.2 
L 454.080824 205.877314 
L 455.846069 208.8 
L 459.02341 214.4 
L 459.717188 215.70708 
L 461.907782 220 
L 464.56832 225.6 
L 465.353551 227.384975 
L 466.969407 231.2 
L 469.151585 236.8 
L 470.989915 241.966773 
L 471.138529 242.4 
L 472.876651 248 
L 474.43187 253.6 
L 475.804186 259.2 
L 476.626278 263.070582 
L 476.980883 264.8 
L 477.95255 270.4 
L 478.747645 276 
L 479.366168 281.6 
L 479.808119 287.2 
L 480.073499 292.8 
L 480.162307 298.4 
L 480.074542 304 
L 479.810206 309.6 
L 479.369298 315.2 
L 478.751818 320.8 
L 477.957767 326.4 
L 476.987143 332 
L 476.626278 333.761551 
L 475.811752 337.6 
L 474.440517 343.2 
L 472.886379 348.8 
L 471.149337 354.4 
L 470.989915 354.864995 
L 469.163916 360 
L 466.982859 365.6 
L 465.353551 369.448605 
L 464.583456 371.2 
L 461.924082 376.8 
L 459.717188 381.126627 
L 459.041577 382.4 
L 455.865447 388 
L 454.080824 390.955827 
L 452.417535 393.6 
L 448.681385 399.2 
L 448.44446 399.53592 
L 444.569488 404.8 
L 442.808097 407.070092 
L 440.106338 410.4 
L 437.171733 413.84043 
L 435.241484 416 
L 431.535369 419.95353 
L 429.914331 421.6 
L 425.899006 425.497036 
L 424.051451 427.2 
L 420.262642 430.543669 
L 417.562998 432.8 
L 414.626278 435.154281 
L 410.337842 438.4 
L 408.989915 439.380172 
L 403.353551 443.23607 
L 402.16187 444 
L 397.717188 446.741742 
L 392.749978 449.6 
L 392.080824 449.971045 
L 386.44446 452.871357 
L 381.538384 455.2 
L 380.808097 455.534464 
L 375.171733 457.898709 
L 369.535369 460.04581 
L 367.332784 460.8 
L 363.899006 461.935905 
L 358.262642 463.590647 
L 352.626278 465.035606 
L 346.989915 466.270781 
L 346.279627 466.4 
L 341.353551 467.266787 
L 335.717187 468.055651 
L 330.080824 468.64161 
L 324.44446 469.024665 
L 318.808097 469.204814 
L 313.171733 469.182058 
L 307.535369 468.956398 
L 301.899006 468.527832 
L 296.262642 467.896362 
L 290.626278 467.061987 
z
" clip-path="url(#p081a4c4203)" style="fill: none; stroke: #ffff00; stroke-width: 0.5"/>
    <path d="M 290.626278 478.445024 
L 285.733469 477.6 
L 284.989915 477.467505 
L 279.353551 476.266695 
L 273.717188 474.869422 
L 268.080824 473.275686 
L 264.064383 472 
L 262.44446 471.468616 
L 256.808097 469.416811 
L 251.171733 467.162101 
L 249.423908 466.4 
L 245.535369 464.647006 
L 239.899006 461.896291 
L 237.811826 460.8 
L 234.262642 458.870374 
L 228.626278 455.588841 
L 227.999856 455.2 
L 222.989915 451.977066 
L 219.510778 449.6 
L 217.353551 448.070483 
L 211.929521 444 
L 211.717188 443.834404 
L 206.080824 439.195985 
L 205.161677 438.4 
L 200.44446 434.148111 
L 199.019654 432.8 
L 194.808097 428.645553 
L 193.408944 427.2 
L 189.171733 422.627677 
L 188.260582 421.6 
L 183.535369 416.022569 
L 183.517042 416 
L 179.181014 410.4 
L 177.899006 408.659359 
L 175.169721 404.8 
L 172.262642 400.46699 
L 171.445154 399.2 
L 168.027258 393.6 
L 166.626278 391.165446 
L 164.87189 388 
L 161.956332 382.4 
L 160.989915 380.415732 
L 159.291552 376.8 
L 156.842594 371.2 
L 155.353551 367.522563 
L 154.60182 365.6 
L 152.587406 360 
L 150.748204 354.4 
L 149.717188 350.930214 
L 149.105234 348.8 
L 147.665895 343.2 
L 146.39595 337.6 
L 145.295397 332 
L 144.364237 326.4 
L 144.080824 324.316538 
L 143.617845 320.8 
L 143.044511 315.2 
L 142.635124 309.6 
L 142.389686 304 
L 142.308197 298.4 
L 142.390655 292.8 
L 142.637062 287.2 
L 143.047417 281.6 
L 143.62172 276 
L 144.080824 272.517472 
L 144.369242 270.4 
L 145.301403 264.8 
L 146.402956 259.2 
L 147.673903 253.6 
L 149.114242 248 
L 149.717188 245.902451 
L 150.758558 242.4 
L 152.598795 236.8 
L 154.614245 231.2 
L 155.353551 229.310106 
L 156.856533 225.6 
L 159.306563 220 
L 160.989915 216.417685 
L 161.973008 214.4 
L 164.889678 208.8 
L 166.626278 205.667771 
L 168.046881 203.2 
L 171.465931 197.6 
L 172.262642 196.365607 
L 175.192527 192 
L 177.899006 188.174049 
L 179.206015 186.4 
L 183.535369 180.81023 
L 183.543636 180.8 
L 188.289273 175.2 
L 189.171733 174.204945 
L 193.440296 169.6 
L 194.808097 168.187194 
L 199.053919 164 
L 200.44446 162.684626 
L 205.199144 158.4 
L 206.080824 157.636638 
L 211.717188 152.999294 
L 211.972789 152.8 
L 217.353551 148.762888 
L 219.558336 147.2 
L 222.989915 144.855931 
L 228.052236 141.6 
L 228.626278 141.243747 
L 234.262642 137.962895 
L 237.873766 136 
L 239.899006 134.936456 
L 245.535369 132.186292 
L 249.498564 130.4 
L 251.171733 129.670592 
L 256.808097 127.416319 
L 262.44446 125.364912 
L 264.166927 124.8 
L 268.080824 123.557117 
L 273.717188 121.96368 
L 279.353551 120.566669 
L 284.989915 119.366083 
L 285.922144 119.2 
L 290.626278 118.387709 
L 296.262642 117.604827 
L 301.899006 117.012327 
L 307.535369 116.610211 
L 313.171733 116.398477 
L 318.808097 116.377125 
L 324.44446 116.546157 
L 330.080824 116.905571 
L 335.717187 117.455368 
L 341.353551 118.195547 
L 346.989915 119.126109 
L 347.361453 119.2 
L 352.626278 120.280291 
L 358.262642 121.633244 
L 363.899006 123.182623 
L 369.120736 124.8 
L 369.535369 124.932639 
L 375.171733 126.938543 
L 380.808097 129.147314 
L 383.735817 130.4 
L 386.44446 131.598232 
L 392.080824 134.301352 
L 395.367694 136 
L 397.717188 137.256813 
L 403.353551 140.48897 
L 405.169064 141.6 
L 408.989915 144.023244 
L 413.702264 147.2 
L 414.626278 147.846413 
L 420.262642 152.022929 
L 421.255806 152.8 
L 425.899006 156.57538 
L 428.030204 158.4 
L 431.535369 161.523412 
L 434.181597 164 
L 437.171733 166.917518 
L 439.795377 169.6 
L 442.808097 172.817167 
L 444.94201 175.2 
L 448.44446 179.292891 
L 449.680165 180.8 
L 454.058168 186.4 
L 454.080824 186.430466 
L 458.056222 192 
L 459.717188 194.452778 
L 461.766089 197.6 
L 465.214763 203.2 
L 465.353551 203.439022 
L 468.350631 208.8 
L 470.989915 213.825497 
L 471.280813 214.4 
L 473.933452 220 
L 476.403188 225.6 
L 476.626278 226.146305 
L 478.61858 231.2 
L 480.649678 236.8 
L 482.262642 241.670568 
L 482.496122 242.4 
L 484.117935 248 
L 485.569084 253.6 
L 486.849568 259.2 
L 487.899006 264.495315 
L 487.957434 264.8 
L 488.866185 270.4 
L 489.609797 276 
L 490.188271 281.6 
L 490.601606 287.2 
L 490.849802 292.8 
L 490.932859 298.4 
L 490.850778 304 
L 490.603558 309.6 
L 490.191199 315.2 
L 489.613701 320.8 
L 488.871064 326.4 
L 487.963289 332 
L 487.899006 332.335522 
L 486.856628 337.6 
L 485.577152 343.2 
L 484.127011 348.8 
L 482.506207 354.4 
L 482.262642 355.161367 
L 480.661156 360 
L 478.631101 365.6 
L 476.626278 370.68786 
L 476.417238 371.2 
L 473.948583 376.8 
L 471.297025 382.4 
L 470.989915 383.006753 
L 468.368567 388 
L 465.353551 393.394993 
L 465.234556 393.6 
L 461.787047 399.2 
L 459.717188 402.38043 
L 458.079233 404.8 
L 454.0833 410.4 
L 454.080824 410.403301 
L 449.706662 416 
L 448.44446 417.53985 
L 444.970983 421.6 
L 442.808097 424.015819 
L 439.82705 427.2 
L 437.171733 429.915548 
L 434.21623 432.8 
L 431.535369 435.309606 
L 428.068093 438.4 
L 425.899006 440.257489 
L 421.297298 444 
L 420.262642 444.809715 
L 414.626278 448.987163 
L 413.750454 449.6 
L 408.989915 452.809932 
L 405.222184 455.2 
L 403.353551 456.343775 
L 397.717188 459.576602 
L 395.430635 460.8 
L 392.080824 462.531522 
L 386.44446 465.235184 
L 383.811882 466.4 
L 380.808097 467.685481 
L 375.171733 469.89468 
L 369.535369 471.900973 
L 369.225867 472 
L 363.899006 473.65025 
L 358.262642 475.199919 
L 352.626278 476.553126 
L 347.525271 477.6 
L 346.989915 477.70649 
L 341.353551 478.637221 
L 335.717187 479.377535 
L 330.080824 479.927432 
L 324.44446 480.286911 
L 318.808097 480.455973 
L 313.171733 480.434618 
L 307.535369 480.222846 
L 301.899006 479.820656 
L 296.262642 479.228049 
L 290.626278 478.445024 
z
" clip-path="url(#p081a4c4203)" style="fill: none; stroke: #ffff00; stroke-width: 0.5"/>
    <path d="M 290.626278 489.157508 
L 288.428862 488.8 
L 284.989915 488.223799 
L 279.353551 487.094685 
L 273.717188 485.780839 
L 268.080824 484.282259 
L 264.457012 483.2 
L 262.44446 482.580452 
L 256.808097 480.654923 
L 251.171733 478.538978 
L 248.877029 477.6 
L 245.535369 476.189202 
L 239.899006 473.613151 
L 236.61956 472 
L 234.262642 470.802622 
L 228.626278 467.736293 
L 226.322426 466.4 
L 222.989915 464.401529 
L 217.353551 460.811679 
L 217.336227 460.8 
L 211.717188 456.87912 
L 209.436737 455.2 
L 206.080824 452.639142 
L 202.29616 449.6 
L 200.44446 448.056939 
L 195.806658 444 
L 194.808097 443.092245 
L 189.879897 438.4 
L 189.171733 437.698217 
L 184.442833 432.8 
L 183.535369 431.820042 
L 179.434538 427.2 
L 177.899006 425.393156 
L 174.803789 421.6 
L 172.262642 418.340986 
L 170.507212 416 
L 166.626278 410.572013 
L 166.507828 410.4 
L 162.839724 404.8 
L 160.989915 401.823267 
L 159.417745 399.2 
L 156.243011 393.6 
L 155.353551 391.935954 
L 153.321987 388 
L 150.606727 382.4 
L 149.717188 380.438848 
L 148.121491 376.8 
L 145.835189 371.2 
L 144.080824 366.559064 
L 143.729932 365.6 
L 141.845012 360 
L 140.12404 354.4 
L 138.567016 348.8 
L 138.44446 348.30734 
L 137.213506 343.2 
L 136.022654 337.6 
L 134.990646 332 
L 134.11748 326.4 
L 133.403157 320.8 
L 132.847677 315.2 
L 132.808097 314.641177 
L 132.461823 309.6 
L 132.231209 304 
L 132.154642 298.4 
L 132.23212 292.8 
L 132.463643 287.2 
L 132.808097 282.197167 
L 132.850493 281.6 
L 133.406912 276 
L 134.122173 270.4 
L 134.996278 264.8 
L 136.029225 259.2 
L 137.221015 253.6 
L 138.44446 248.527343 
L 138.575735 248 
L 140.133728 242.4 
L 141.855668 236.8 
L 143.741557 231.2 
L 144.080824 230.27315 
L 145.848201 225.6 
L 148.135505 220 
L 149.717188 216.394579 
L 150.622258 214.4 
L 153.338553 208.8 
L 155.353551 204.897539 
L 156.261238 203.2 
L 159.437044 197.6 
L 160.989915 195.009763 
L 162.860848 192 
L 166.530063 186.4 
L 166.626278 186.260317 
L 170.531452 180.8 
L 172.262642 178.491975 
L 174.830196 175.2 
L 177.899006 171.440192 
L 179.463289 169.6 
L 183.535369 165.013503 
L 184.474132 164 
L 189.171733 159.135376 
L 189.913975 158.4 
L 194.808097 153.741281 
L 195.843778 152.8 
L 200.44446 148.776429 
L 202.336625 147.2 
L 206.080824 144.193997 
L 209.480895 141.6 
L 211.717188 139.953736 
L 217.353551 136.021583 
L 217.386296 136 
L 222.989915 132.43172 
L 226.378548 130.4 
L 228.626278 129.096512 
L 234.262642 126.030777 
L 236.685772 124.8 
L 239.899006 123.219715 
L 245.535369 120.644147 
L 248.956663 119.2 
L 251.171733 118.293773 
L 256.808097 116.178212 
L 262.44446 114.253033 
L 264.566171 113.6 
L 268.080824 112.550526 
L 273.717188 111.052211 
L 279.353551 109.738597 
L 284.989915 108.609682 
L 288.629329 108 
L 290.626278 107.675163 
L 296.262642 106.937661 
L 301.899006 106.379507 
L 307.535369 106.000699 
L 313.171733 105.801239 
L 318.808097 105.781125 
L 324.44446 105.940358 
L 330.080824 106.278939 
L 335.717187 106.796866 
L 341.353551 107.49414 
L 344.606051 108 
L 346.989915 108.381828 
L 352.626278 109.469315 
L 358.262642 110.741502 
L 363.899006 112.198389 
L 368.711416 113.6 
L 369.535369 113.847359 
L 375.171733 115.729835 
L 380.808097 117.802693 
L 384.287943 119.2 
L 386.44446 120.093421 
L 392.080824 122.624931 
L 396.574876 124.8 
L 397.717188 125.370991 
L 403.353551 128.391223 
L 406.866381 130.4 
L 408.989915 131.655481 
L 414.626278 135.197568 
L 415.831771 136 
L 420.262642 139.052873 
L 423.76376 141.6 
L 425.899006 143.209913 
L 430.925007 147.2 
L 431.535369 147.702844 
L 437.171733 152.57981 
L 437.414583 152.8 
L 442.808097 157.882013 
L 443.333815 158.4 
L 448.44446 163.640993 
L 448.779884 164 
L 453.798478 169.6 
L 454.080824 169.929056 
L 458.421818 175.2 
L 459.717188 176.846016 
L 462.708665 180.8 
L 465.353551 184.466383 
L 466.696562 186.4 
L 470.396386 192 
L 470.989915 192.946909 
L 473.801921 197.6 
L 476.626278 202.540542 
L 476.99022 203.2 
L 479.904177 208.8 
L 482.262642 213.624823 
L 482.628885 214.4 
L 485.104018 220 
L 487.408487 225.6 
L 487.899006 226.887328 
L 489.48909 231.2 
L 491.388674 236.8 
L 493.123119 242.4 
L 493.535369 243.871098 
L 494.65614 248 
L 496.016273 253.6 
L 497.216445 259.2 
L 498.256658 264.8 
L 499.136911 270.4 
L 499.171733 270.670727 
L 499.836361 276 
L 500.379656 281.6 
L 500.767855 287.2 
L 501.000958 292.8 
L 501.078964 298.4 
L 501.001874 304 
L 500.769688 309.6 
L 500.382406 315.2 
L 499.840027 320.8 
L 499.171733 326.16571 
L 499.141637 326.4 
L 498.26233 332 
L 497.223062 337.6 
L 496.023834 343.2 
L 494.664647 348.8 
L 493.535369 352.96283 
L 493.132877 354.4 
L 491.399408 360 
L 489.5008 365.6 
L 487.899006 369.946487 
L 487.421597 371.2 
L 485.118137 376.8 
L 482.644012 382.4 
L 482.262642 383.207503 
L 479.920872 388 
L 477.007958 393.6 
L 476.626278 394.291832 
L 473.821376 399.2 
L 470.989915 403.88678 
L 470.417685 404.8 
L 466.718982 410.4 
L 465.353551 412.366464 
L 462.733116 416 
L 459.717188 419.987397 
L 458.448463 421.6 
L 454.080824 426.904689 
L 453.827499 427.2 
L 448.810167 432.8 
L 448.44446 433.191514 
L 443.366738 438.4 
L 442.808097 438.950554 
L 437.450387 444 
L 437.171733 444.25271 
L 431.535369 449.130764 
L 430.965927 449.6 
L 425.899006 453.623438 
L 423.808443 455.2 
L 420.262642 457.78017 
L 415.880637 460.8 
L 414.626278 461.635127 
L 408.989915 465.177923 
L 406.923295 466.4 
L 403.353551 468.441718 
L 397.717188 471.462536 
L 396.642157 472 
L 392.080824 474.208047 
L 386.44446 476.740031 
L 384.369079 477.6 
L 380.808097 479.030147 
L 375.171733 481.103382 
L 369.535369 482.9862 
L 368.82333 483.2 
L 363.899006 484.634459 
L 358.262642 486.091603 
L 352.626278 487.364015 
L 346.989915 488.451693 
L 344.815717 488.8 
L 341.353551 489.338561 
L 335.717187 490.035955 
L 330.080824 490.553971 
L 324.44446 490.892609 
L 318.808097 491.05187 
L 313.171733 491.031753 
L 307.535369 490.832258 
L 301.899006 490.453385 
L 296.262642 489.895135 
L 290.626278 489.157508 
z
" clip-path="url(#p081a4c4203)" style="fill: none; stroke: #ffff00; stroke-width: 0.5"/>
    <path d="M 296.262642 500.00688 
L 290.626278 499.290226 
L 284.989915 498.399054 
L 279.353551 497.333557 
L 273.717188 496.093736 
L 267.088752 494.4 
L 262.44446 493.053179 
L 256.808097 491.239285 
L 250.014668 488.8 
L 245.535369 487.021819 
L 236.873078 483.2 
L 234.262642 481.955446 
L 225.911315 477.6 
L 222.989915 475.959312 
L 216.407268 472 
L 211.717188 468.941955 
L 206.080824 465.018714 
L 200.44446 460.799495 
L 193.616519 455.2 
L 187.35569 449.6 
L 181.591958 444 
L 176.265938 438.4 
L 171.327341 432.8 
L 166.626278 427.058402 
L 160.989915 419.507988 
L 158.546532 416 
L 154.845536 410.4 
L 149.717188 401.841383 
L 148.239302 399.2 
L 144.080824 391.206072 
L 142.53237 388 
L 138.44446 378.754581 
L 137.640726 376.8 
L 135.496818 371.2 
L 132.808097 363.442278 
L 131.719433 360 
L 130.10241 354.4 
L 128.639431 348.8 
L 127.171733 342.430151 
L 126.204813 337.6 
L 125.233311 332 
L 124.411339 326.4 
L 123.738897 320.8 
L 123.215985 315.2 
L 122.842602 309.6 
L 122.61875 304 
L 122.544426 298.4 
L 122.619633 292.8 
L 122.84437 287.2 
L 123.218636 281.6 
L 123.742432 276 
L 124.415758 270.4 
L 125.238613 264.8 
L 126.210998 259.2 
L 127.337781 253.6 
L 128.647624 248 
L 130.111512 242.4 
L 132.808097 233.391135 
L 133.523017 231.2 
L 135.509021 225.6 
L 138.44446 218.07816 
L 140.00619 214.4 
L 144.080824 205.627159 
L 145.292445 203.2 
L 149.717188 194.991652 
L 151.449103 192 
L 155.353551 185.640352 
L 160.989915 177.325293 
L 162.525245 175.2 
L 166.763947 169.6 
L 172.262642 162.938137 
L 177.899006 156.667016 
L 183.535369 150.89132 
L 189.171733 145.55701 
L 194.808097 140.617627 
L 200.488573 136 
L 208.069923 130.4 
L 211.717188 127.891083 
L 217.353551 124.235266 
L 225.971179 119.2 
L 228.626278 117.755017 
L 236.943562 113.6 
L 239.899006 112.233266 
L 245.535369 109.81145 
L 251.171733 107.586672 
L 256.808097 105.593742 
L 262.44446 103.780158 
L 268.080824 102.153079 
L 273.717188 100.739169 
L 279.353551 99.499554 
L 284.989915 98.434235 
L 290.626278 97.543211 
L 296.537818 96.8 
L 301.899006 96.298184 
L 307.535369 95.940131 
L 313.171733 95.751599 
L 318.808097 95.732587 
L 324.44446 95.883096 
L 330.080824 96.203126 
L 336.635024 96.8 
L 341.353551 97.367287 
L 346.989915 98.219217 
L 352.626278 99.245442 
L 358.262642 100.445962 
L 366.006477 102.4 
L 369.535369 103.397999 
L 375.171733 105.171355 
L 383.123768 108 
L 386.44446 109.2936 
L 392.080824 111.673988 
L 397.717188 114.258738 
L 403.353551 117.093127 
L 408.989915 120.147036 
L 416.769008 124.8 
L 420.262642 127.049288 
L 425.899006 130.897285 
L 432.733648 136 
L 439.57879 141.6 
L 445.849185 147.2 
L 451.617015 152.8 
L 456.942859 158.4 
L 461.877936 164 
L 466.465847 169.6 
L 470.989915 175.550239 
L 476.626278 183.711027 
L 478.364625 186.4 
L 482.262642 192.778772 
L 484.981289 197.6 
L 487.966167 203.2 
L 490.691444 208.8 
L 493.535369 215.063551 
L 495.580376 220 
L 499.171733 229.608042 
L 499.722994 231.2 
L 501.507059 236.8 
L 503.136028 242.4 
L 504.808097 248.841614 
L 505.895609 253.6 
L 507.02495 259.2 
L 508.003771 264.8 
L 508.832073 270.4 
L 509.509855 276 
L 510.037118 281.6 
L 510.44446 287.957446 
L 510.634478 292.8 
L 510.708013 298.4 
L 510.635342 304 
L 510.41564 309.6 
L 510.039787 315.2 
L 509.513413 320.8 
L 508.83652 326.4 
L 508.009108 332 
L 507.031176 337.6 
L 505.902725 343.2 
L 504.618148 348.8 
L 503.145193 354.4 
L 501.51714 360 
L 499.171733 367.224486 
L 497.752597 371.2 
L 495.593609 376.8 
L 493.266221 382.4 
L 490.707058 388 
L 487.899006 393.762316 
L 484.999441 399.2 
L 481.828122 404.8 
L 476.626278 413.122037 
L 474.699596 416 
L 470.75945 421.6 
L 465.353551 428.629771 
L 459.717188 435.339325 
L 454.080824 441.499517 
L 448.44446 447.172546 
L 442.808097 452.411562 
L 437.171733 457.262257 
L 431.535369 461.764123 
L 425.239362 466.4 
L 416.821244 472 
L 414.626278 473.368571 
L 407.34021 477.6 
L 403.353551 479.739842 
L 396.384544 483.2 
L 392.080824 485.158952 
L 383.209975 488.8 
L 380.808097 489.708707 
L 375.171733 491.661744 
L 366.125174 494.4 
L 363.899006 495.011947 
L 358.262642 496.386992 
L 352.626278 497.587712 
L 346.989915 498.614108 
L 341.353551 499.466179 
L 335.717187 500.139983 
L 330.080824 500.629612 
L 324.44446 500.949693 
L 318.808097 501.100226 
L 313.171733 501.081212 
L 307.535369 500.892649 
L 301.899006 500.534538 
L 296.262642 500.00688 
L 296.262642 500.00688 
" clip-path="url(#p081a4c4203)" style="fill: none; stroke: #ffff00; stroke-width: 0.5"/>
    <path d="M 273.717188 505.903885 
L 272.43775 505.6 
L 268.080824 504.536813 
L 262.44446 502.991866 
L 256.808097 501.277372 
L 252.986668 500 
L 251.171733 499.376239 
L 245.535369 497.264796 
L 239.899006 494.979029 
L 238.572381 494.4 
L 234.262642 492.464409 
L 228.626278 489.753627 
L 226.766524 488.8 
L 222.989915 486.805655 
L 217.353551 483.644481 
L 216.604798 483.2 
L 211.717188 480.209292 
L 207.676031 477.6 
L 206.080824 476.537307 
L 200.44446 472.586016 
L 199.648126 472 
L 194.808097 468.321473 
L 192.394249 466.4 
L 189.171733 463.747845 
L 185.744911 460.8 
L 183.535369 458.832594 
L 179.624895 455.2 
L 177.899006 453.538447 
L 173.970966 449.6 
L 172.262642 447.822507 
L 168.729575 444 
L 166.626278 441.635144 
L 163.855076 438.4 
L 160.989915 434.918627 
L 159.308314 432.8 
L 155.353551 427.605394 
L 155.055518 427.2 
L 151.113778 421.6 
L 149.717188 419.523577 
L 147.425953 416 
L 144.080824 410.604711 
L 143.957981 410.4 
L 140.761475 404.8 
L 138.44446 400.521341 
L 137.7512 399.2 
L 134.971921 393.6 
L 132.808097 388.975801 
L 132.365275 388 
L 129.978023 382.4 
L 127.744817 376.8 
L 127.171733 375.256459 
L 125.709807 371.2 
L 123.841127 365.6 
L 122.121976 360 
L 121.535369 357.907138 
L 120.580352 354.4 
L 119.200705 348.8 
L 117.96633 343.2 
L 116.877226 337.6 
L 115.933393 332 
L 115.899006 331.758857 
L 115.155992 326.4 
L 114.520792 320.8 
L 114.02684 315.2 
L 113.674136 309.6 
L 113.462681 304 
L 113.392474 298.4 
L 113.463516 292.8 
L 113.675806 287.2 
L 114.029344 281.6 
L 114.52413 276 
L 115.160165 270.4 
L 115.899006 265.076964 
L 115.938543 264.8 
L 116.883235 259.2 
L 117.973198 253.6 
L 119.208431 248 
L 120.588936 242.4 
L 121.535369 238.926342 
L 122.131696 236.8 
L 123.85173 231.2 
L 125.721294 225.6 
L 127.171733 221.577176 
L 127.757561 220 
L 129.991678 214.4 
L 132.37984 208.8 
L 132.808097 207.856632 
L 134.987878 203.2 
L 137.768095 197.6 
L 138.44446 196.311274 
L 140.779882 192 
L 143.977357 186.4 
L 144.080824 186.227628 
L 147.446974 180.8 
L 149.717188 177.309709 
L 151.136556 175.2 
L 155.079331 169.6 
L 155.353551 169.227091 
L 159.334047 164 
L 160.989915 161.914297 
L 163.882869 158.4 
L 166.626278 155.198044 
L 168.759588 152.8 
L 172.262642 149.010809 
L 174.003373 147.2 
L 177.899006 143.294885 
L 179.659896 141.6 
L 183.535369 138.000667 
L 185.782731 136 
L 189.171733 133.085273 
L 192.435143 130.4 
L 194.808097 128.511445 
L 199.692384 124.8 
L 200.44446 124.246657 
L 206.080824 120.296108 
L 207.726498 119.2 
L 211.717188 116.623762 
L 216.659716 113.6 
L 217.353551 113.188192 
L 222.989915 110.027576 
L 226.830129 108 
L 228.626278 107.079146 
L 234.262642 104.368828 
L 238.647137 102.4 
L 239.899006 101.85369 
L 245.535369 99.568304 
L 251.171733 97.457212 
L 253.084318 96.8 
L 256.808097 95.555471 
L 262.44446 93.841254 
L 268.080824 92.296557 
L 272.575228 91.2 
L 273.717188 90.928811 
L 279.353551 89.755304 
L 284.989915 88.746797 
L 290.626278 87.903291 
L 296.262642 87.224785 
L 301.899006 86.711279 
L 307.535369 86.362774 
L 313.171733 86.179269 
L 318.808097 86.160764 
L 324.44446 86.30726 
L 330.080824 86.618756 
L 335.717187 87.095252 
L 341.353551 87.736749 
L 346.989915 88.543246 
L 352.626278 89.514743 
L 358.262642 90.651241 
L 360.63914 91.2 
L 363.899006 91.97336 
L 369.535369 93.480033 
L 375.171733 95.156227 
L 380.191418 96.8 
L 380.808097 97.007629 
L 386.44446 99.079626 
L 392.080824 101.325918 
L 394.581834 102.4 
L 397.717188 103.785532 
L 403.353551 106.455623 
L 406.408424 108 
L 408.989915 109.344014 
L 414.626278 112.463202 
L 416.565631 113.6 
L 420.262642 115.833764 
L 425.538991 119.2 
L 425.899006 119.436975 
L 431.535369 123.343466 
L 433.536276 124.8 
L 437.171733 127.533142 
L 440.81083 130.4 
L 442.808097 132.026765 
L 447.473116 136 
L 448.44446 136.856327 
L 453.600025 141.6 
L 454.080824 142.058472 
L 459.256092 147.2 
L 459.717188 147.675374 
L 464.495881 152.8 
L 465.353551 153.755822 
L 469.365838 158.4 
L 470.989915 160.35657 
L 473.905747 164 
L 476.626278 167.544032 
L 478.149883 169.6 
L 482.123271 175.2 
L 482.262642 175.40556 
L 485.797716 180.8 
L 487.899006 184.162912 
L 489.251578 186.4 
L 492.472272 192 
L 493.535369 193.948368 
L 495.465344 197.6 
L 498.265117 203.2 
L 499.171733 205.123261 
L 500.85223 208.8 
L 503.25668 214.4 
L 504.808097 218.262414 
L 505.485438 220 
L 507.517895 225.6 
L 509.399834 231.2 
L 510.44446 234.57868 
L 511.111567 236.8 
L 512.647152 242.4 
L 514.036533 248 
L 515.279708 253.6 
L 516.080824 257.689673 
L 516.368434 259.2 
L 517.292707 264.8 
L 518.074848 270.4 
L 518.714858 276 
L 519.212737 281.6 
L 519.568485 287.2 
L 519.782101 292.8 
L 519.853587 298.4 
L 519.782941 304 
L 519.570165 309.6 
L 519.215257 315.2 
L 518.718218 320.8 
L 518.079047 326.4 
L 517.297746 332 
L 516.374313 337.6 
L 516.080824 339.142415 
L 515.286619 343.2 
L 514.044308 348.8 
L 512.655792 354.4 
L 511.12107 360 
L 510.44446 362.254123 
L 509.410507 365.6 
L 507.529458 371.2 
L 505.49789 376.8 
L 504.808097 378.570251 
L 503.270427 382.4 
L 500.866894 388 
L 499.171733 391.710151 
L 498.281186 393.6 
L 495.482358 399.2 
L 493.535369 402.885001 
L 492.490813 404.8 
L 489.271095 410.4 
L 487.899006 412.670022 
L 485.818894 416 
L 482.262642 421.428249 
L 482.146226 421.6 
L 478.173881 427.2 
L 476.626278 429.288877 
L 473.931686 432.8 
L 470.989915 436.476729 
L 469.393863 438.4 
L 465.353551 443.077701 
L 464.526154 444 
L 459.717188 449.15824 
L 459.288792 449.6 
L 454.080824 454.775127 
L 453.635355 455.2 
L 448.44446 459.977171 
L 447.511307 460.8 
L 442.808097 464.806565 
L 440.852143 466.4 
L 437.171733 469.299966 
L 433.581009 472 
L 431.535369 473.489376 
L 425.899006 477.396601 
L 425.590057 477.6 
L 420.262642 480.999433 
L 416.621237 483.2 
L 414.626278 484.369599 
L 408.989915 487.489337 
L 406.472928 488.8 
L 403.353551 490.377257 
L 397.717188 493.047805 
L 394.657796 494.4 
L 392.080824 495.506889 
L 386.44446 497.753555 
L 380.808097 499.825897 
L 380.29108 500 
L 375.171733 501.67668 
L 369.535369 503.353145 
L 363.899006 504.860063 
L 360.780527 505.6 
L 358.262642 506.181499 
L 352.626278 507.318176 
L 346.989915 508.289826 
L 341.353551 509.09645 
L 335.717187 509.738048 
L 330.080824 510.214619 
L 324.44446 510.526164 
L 318.808097 510.672683 
L 313.171733 510.654175 
L 307.535369 510.470642 
L 301.899006 510.122081 
L 296.262642 509.608495 
L 290.626278 508.929882 
L 284.989915 508.086242 
L 279.353551 507.077577 
L 273.717188 505.903885 
z
" clip-path="url(#p081a4c4203)" style="fill: none; stroke: #ffff00; stroke-width: 0.5"/>
    <path d="M 284.989915 517.359508 
L 279.353551 516.391577 
L 273.717188 515.248373 
L 268.080824 513.944429 
L 262.44446 512.479746 
L 256.808097 510.845104 
L 251.171733 509.011307 
L 241.856154 505.6 
L 239.899006 504.828046 
L 234.262642 502.43536 
L 228.626278 499.869552 
L 222.989915 497.060811 
L 217.353551 494.068405 
L 208.396999 488.8 
L 206.080824 487.349139 
L 199.817587 483.2 
L 192.094691 477.6 
L 189.171733 475.347136 
L 183.535369 470.76732 
L 177.899006 465.857043 
L 172.262642 460.581516 
L 166.626278 454.900889 
L 160.989915 448.769296 
L 155.353551 442.133677 
L 149.717188 434.932306 
L 148.13714 432.8 
L 144.080824 427.088193 
L 138.44446 418.387752 
L 136.988508 416 
L 132.808097 408.72811 
L 130.701343 404.8 
L 127.171733 397.786733 
L 125.215684 393.6 
L 121.535369 385.067372 
L 120.463051 382.4 
L 118.357049 376.8 
L 115.899006 369.665983 
L 114.617359 365.6 
L 112.993421 360 
L 111.51073 354.4 
L 110.171804 348.8 
L 109.00395 343.2 
L 107.973538 337.6 
L 107.080569 332 
L 106.325042 326.4 
L 105.706957 320.8 
L 105.226315 315.2 
L 104.883115 309.6 
L 104.626278 299.812869 
L 104.626278 297.00373 
L 104.67817 292.8 
L 104.88474 287.2 
L 105.228752 281.6 
L 105.710206 276 
L 106.329103 270.4 
L 107.085442 264.8 
L 107.979223 259.2 
L 109.010447 253.6 
L 110.262642 247.641866 
L 111.519077 242.4 
L 113.002602 236.8 
L 115.899006 227.167699 
L 116.407477 225.6 
L 118.369067 220 
L 121.535369 211.765663 
L 122.763023 208.8 
L 127.171733 199.046821 
L 127.868339 197.6 
L 132.808097 188.105319 
L 133.751474 186.4 
L 138.44446 178.445222 
L 140.487427 175.2 
L 144.179932 169.6 
L 149.717188 161.900621 
L 155.353551 154.699627 
L 156.92324 152.8 
L 161.759415 147.2 
L 166.945496 141.6 
L 172.523282 136 
L 178.541509 130.4 
L 185.057349 124.8 
L 192.138311 119.2 
L 194.808097 117.205951 
L 200.44446 113.198904 
L 208.45062 108 
L 211.717188 106.013465 
L 218.024083 102.4 
L 222.989915 99.772254 
L 228.977177 96.8 
L 234.262642 94.39767 
L 241.941208 91.2 
L 245.535369 89.820387 
L 251.171733 87.821878 
L 258.120044 85.6 
L 262.44446 84.35311 
L 268.080824 82.888651 
L 273.717188 81.584908 
L 281.888984 80 
L 284.989915 79.473246 
L 290.626278 78.672446 
L 296.262642 78.028292 
L 301.899006 77.540785 
L 307.535369 77.209924 
L 313.171733 77.035709 
L 318.808097 77.018142 
L 324.44446 77.15722 
L 330.080824 77.452946 
L 335.717187 77.905317 
L 341.353551 78.514336 
L 346.989915 79.28 
L 352.626278 80.207566 
L 358.262642 81.314547 
L 363.899006 82.582242 
L 369.535369 84.010652 
L 375.172449 85.6 
L 380.808097 87.396271 
L 386.44446 89.35777 
L 392.080824 91.492057 
L 397.717188 93.846333 
L 404.253151 96.8 
L 408.989915 99.1272 
L 415.221641 102.4 
L 420.262642 105.26926 
L 425.899006 108.676341 
L 433.362109 113.6 
L 441.110704 119.2 
L 442.808097 120.494749 
L 448.44446 124.996764 
L 454.702873 130.4 
L 460.709646 136 
L 466.289536 141.6 
L 471.488464 147.2 
L 476.626278 153.148558 
L 482.262642 160.229605 
L 487.899006 167.938237 
L 489.050741 169.6 
L 493.535369 176.411979 
L 496.230565 180.8 
L 499.499926 186.4 
L 504.808097 196.455695 
L 505.377195 197.6 
L 508.011731 203.2 
L 510.494277 208.8 
L 512.760888 214.4 
L 516.080824 223.402577 
L 516.833908 225.6 
L 518.610968 231.2 
L 520.245896 236.8 
L 521.73811 242.4 
L 523.05216 248 
L 524.227933 253.6 
L 525.265427 259.2 
L 526.164643 264.8 
L 527.353551 274.249021 
L 527.543103 276 
L 528.0147 281.6 
L 528.351669 287.2 
L 528.554009 292.8 
L 528.621721 298.4 
L 528.554805 304 
L 528.35326 309.6 
L 528.017086 315.2 
L 527.353551 322.582713 
L 526.929667 326.4 
L 526.169546 332 
L 525.271147 337.6 
L 524.23447 343.2 
L 523.059514 348.8 
L 521.717188 354.512245 
L 520.255135 360 
L 518.621046 365.6 
L 516.080824 373.430258 
L 514.893389 376.8 
L 512.773847 382.4 
L 510.44446 388.147757 
L 508.026851 393.6 
L 504.808097 400.376873 
L 502.542174 404.8 
L 499.171733 411.010419 
L 493.535369 420.421554 
L 492.78832 421.6 
L 487.899006 428.894573 
L 482.262642 436.603725 
L 480.875183 438.4 
L 476.364045 444 
L 470.989915 450.187616 
L 465.353551 456.202078 
L 459.717188 461.788805 
L 454.080824 466.989873 
L 448.246432 472 
L 441.154771 477.6 
L 433.409728 483.2 
L 431.535369 484.483191 
L 424.860528 488.8 
L 420.262642 491.563822 
L 414.626278 494.762009 
L 408.989915 497.705973 
L 403.353551 500.462581 
L 397.717188 502.986786 
L 391.413891 505.6 
L 386.44446 507.475173 
L 380.808097 509.436982 
L 375.171733 511.232887 
L 369.535369 512.822256 
L 363.899006 514.250886 
L 358.262642 515.518776 
L 351.589578 516.8 
L 346.989915 517.552783 
L 341.353551 518.318562 
L 335.717187 518.927671 
L 330.080824 519.380111 
L 324.44446 519.67588 
L 318.808097 519.81498 
L 313.171733 519.797409 
L 307.535369 519.623169 
L 301.899006 519.292259 
L 296.262642 518.804678 
L 290.626278 518.160428 
L 284.989915 517.359508 
L 284.989915 517.359508 
" clip-path="url(#p081a4c4203)" style="fill: none; stroke: #ffff00; stroke-width: 0.5"/>
    <path d="M 301.899006 528.118298 
L 300.462253 528 
L 296.262642 527.645679 
L 290.626278 527.017337 
L 284.989915 526.236194 
L 279.353551 525.30225 
L 273.717188 524.215504 
L 268.080824 522.975958 
L 265.74929 522.4 
L 262.44446 521.56294 
L 256.808097 519.97867 
L 251.171733 518.23773 
L 246.901324 516.8 
L 245.535369 516.328175 
L 239.899006 514.220533 
L 234.262642 511.952151 
L 232.517402 511.2 
L 228.626278 509.478308 
L 222.989915 506.819379 
L 220.556143 505.6 
L 217.353551 503.951459 
L 211.717188 500.880581 
L 210.185514 500 
L 206.080824 497.573675 
L 200.978773 494.4 
L 200.44446 494.058002 
L 194.808097 490.270954 
L 192.717844 488.8 
L 189.171733 486.23003 
L 185.171717 483.2 
L 183.535369 481.922316 
L 178.229296 477.6 
L 177.899006 477.322404 
L 172.262642 472.388799 
L 171.835472 472 
L 166.626278 467.103264 
L 165.905733 466.4 
L 160.989915 461.439419 
L 160.378806 460.8 
L 155.353551 455.357435 
L 155.213181 455.2 
L 150.395384 449.6 
L 149.717188 448.781943 
L 145.884453 444 
L 144.080824 441.66143 
L 141.646285 438.4 
L 138.44446 433.935578 
L 137.6554 432.8 
L 133.923065 427.2 
L 132.808097 425.452739 
L 130.423821 421.6 
L 127.171733 416.100512 
L 127.114038 416 
L 124.04912 410.4 
L 121.535369 405.571483 
L 121.14517 404.8 
L 118.458083 399.2 
L 115.916268 393.6 
L 115.899006 393.559664 
L 113.585609 388 
L 111.396677 382.4 
L 110.262642 379.298644 
L 109.373612 376.8 
L 107.518546 371.2 
L 105.800923 365.6 
L 104.626278 361.437181 
L 104.231382 360 
L 102.826499 354.4 
L 101.555451 348.8 
L 100.41824 343.2 
L 99.414864 337.6 
L 98.989915 334.863244 
L 98.556692 332 
L 97.839799 326.4 
L 97.25332 320.8 
L 96.797256 315.2 
L 96.471605 309.6 
L 96.276369 304 
L 96.211548 298.4 
L 96.27714 292.8 
L 96.473147 287.2 
L 96.799568 281.6 
L 97.256403 276 
L 97.843652 270.4 
L 98.561316 264.8 
L 98.989915 261.969891 
L 99.4204 259.2 
L 100.424567 253.6 
L 101.562569 248 
L 102.834407 242.4 
L 104.240082 236.8 
L 104.626278 235.395202 
L 105.810669 231.2 
L 107.529105 225.6 
L 109.384983 220 
L 110.262642 217.534319 
L 111.409197 214.4 
L 113.598964 208.8 
L 115.899006 203.27441 
L 115.930861 203.2 
L 118.473535 197.6 
L 121.16148 192 
L 121.535369 191.260989 
L 124.066792 186.4 
L 127.132594 180.8 
L 127.171733 180.731833 
L 130.443848 175.2 
L 132.808097 171.380625 
L 133.944654 169.6 
L 137.677928 164 
L 138.44446 162.897108 
L 141.670506 158.4 
L 144.080824 155.171765 
L 145.910478 152.8 
L 149.717188 148.051587 
L 150.423339 147.2 
L 155.242171 141.6 
L 155.353551 141.475105 
L 160.4099 136 
L 160.989915 135.393237 
L 165.939086 130.4 
L 166.626278 129.729418 
L 171.871256 124.8 
L 172.262642 124.443838 
L 177.899006 119.511158 
L 178.269298 119.2 
L 183.535369 114.911049 
L 185.214754 113.6 
L 189.171733 110.6031 
L 192.764191 108 
L 194.808097 106.561907 
L 200.44446 102.775507 
L 201.031226 102.4 
L 206.080824 99.259476 
L 210.24229 96.8 
L 211.717188 95.952197 
L 217.353551 92.881816 
L 220.621316 91.2 
L 222.989915 90.013461 
L 228.626278 87.354951 
L 232.593194 85.6 
L 234.262642 84.880623 
L 239.899006 82.61259 
L 245.535369 80.505272 
L 246.998377 80 
L 251.171733 78.595155 
L 256.808097 76.854476 
L 262.44446 75.270443 
L 265.881604 74.4 
L 268.080824 73.856807 
L 273.717188 72.617441 
L 279.353551 71.530854 
L 284.989915 70.597046 
L 290.626278 69.816017 
L 296.262642 69.187768 
L 300.859345 68.8 
L 301.899006 68.71441 
L 307.535369 68.399493 
L 313.171733 68.233674 
L 318.808097 68.216953 
L 324.44446 68.349329 
L 330.080824 68.630804 
L 332.295672 68.8 
L 335.717187 69.067829 
L 341.353551 69.661811 
L 346.989915 70.408572 
L 352.626278 71.308112 
L 358.262642 72.36043 
L 363.899006 73.565528 
L 367.362786 74.4 
L 369.535369 74.936655 
L 375.171733 76.485552 
L 380.808097 78.191096 
L 386.283177 80 
L 386.44446 80.05467 
L 392.080824 82.12594 
L 397.717188 84.357925 
L 400.643081 85.6 
L 403.353551 86.781306 
L 408.989915 89.402807 
L 412.625167 91.2 
L 414.626278 92.21641 
L 420.262642 95.248768 
L 422.993323 96.8 
L 425.899006 98.497139 
L 431.535369 101.963499 
L 432.211148 102.4 
L 437.171733 105.697021 
L 440.478411 108 
L 442.808097 109.67097 
L 448.046659 113.6 
L 448.44446 113.907538 
L 454.080824 118.455372 
L 454.966599 119.2 
L 459.717188 123.320356 
L 461.357253 124.8 
L 465.353551 128.523602 
L 467.292469 130.4 
L 470.989915 134.099506 
L 472.821241 136 
L 476.626278 140.087289 
L 477.985778 141.6 
L 482.262642 146.531881 
L 482.822641 147.2 
L 487.345743 152.8 
L 487.899006 153.511848 
L 491.575181 158.4 
L 493.535369 161.112803 
L 495.556146 164 
L 499.171733 169.385585 
L 499.311302 169.6 
L 502.801426 175.2 
L 504.808097 178.569495 
L 506.097254 180.8 
L 509.183348 186.4 
L 510.44446 188.805739 
L 512.070927 192 
L 514.776153 197.6 
L 516.080824 200.455058 
L 517.300223 203.2 
L 519.645807 208.8 
L 521.717188 214.064344 
L 521.845679 214.4 
L 523.85112 220 
L 525.718283 225.6 
L 527.353551 230.896769 
L 527.444696 231.2 
L 528.993321 236.8 
L 530.407317 242.4 
L 531.686685 248 
L 532.831424 253.6 
L 532.989915 254.478662 
L 533.819636 259.2 
L 534.672606 264.8 
L 535.394409 270.4 
L 535.985045 276 
L 536.444515 281.6 
L 536.772819 287.2 
L 536.969956 292.8 
L 537.035927 298.4 
L 536.970731 304 
L 536.774369 309.6 
L 536.446841 315.2 
L 535.988146 320.8 
L 535.398284 326.4 
L 534.677256 332 
L 533.825062 337.6 
L 532.989915 342.355957 
L 532.837789 343.2 
L 531.693845 348.8 
L 530.415273 354.4 
L 529.002072 360 
L 527.454243 365.6 
L 527.353551 365.935149 
L 525.728905 371.2 
L 523.862559 376.8 
L 521.857936 382.4 
L 521.717188 382.767814 
L 519.659245 388 
L 517.314501 393.6 
L 516.080824 396.37802 
L 514.791705 399.2 
L 512.087342 404.8 
L 510.44446 408.027477 
L 509.201137 410.4 
L 506.115933 416 
L 504.808097 418.263445 
L 502.821589 421.6 
L 499.332382 427.2 
L 499.171733 427.44686 
L 495.578832 432.8 
L 493.535369 435.720313 
L 491.599577 438.4 
L 487.899006 443.321732 
L 487.371963 444 
L 482.84987 449.6 
L 482.262642 450.300756 
L 478.014994 455.2 
L 476.626278 456.745539 
L 472.852585 460.8 
L 470.989915 462.733409 
L 467.326099 466.4 
L 465.353551 468.309314 
L 461.393347 472 
L 459.717188 473.512491 
L 455.005355 477.6 
L 454.080824 478.377349 
L 448.44446 482.92601 
L 448.090118 483.2 
L 442.808097 487.162324 
L 440.525232 488.8 
L 437.171733 491.135989 
L 432.261654 494.4 
L 431.535369 494.869202 
L 425.899006 498.336139 
L 423.050773 500 
L 420.262642 501.584124 
L 414.626278 504.616973 
L 412.691205 505.6 
L 408.989915 507.430129 
L 403.353551 510.052043 
L 400.720015 511.2 
L 397.717188 512.47493 
L 392.080824 514.707257 
L 386.44446 516.778846 
L 386.382062 516.8 
L 380.808097 518.64185 
L 375.171733 520.347649 
L 369.535369 521.896778 
L 367.498439 522.4 
L 363.899006 523.267279 
L 358.262642 524.472553 
L 352.626278 525.525025 
L 346.989915 526.424696 
L 341.353551 527.171566 
L 335.717187 527.765634 
L 332.723606 528 
L 330.080824 528.201916 
L 324.44446 528.48343 
L 318.808097 528.615826 
L 313.171733 528.599102 
L 307.535369 528.433259 
L 301.899006 528.118298 
z
" clip-path="url(#p081a4c4203)" style="fill: none; stroke: #ffff00; stroke-width: 0.5"/>
    <path d="M 279.353551 533.901308 
L 277.713652 533.6 
L 273.717188 532.848012 
L 268.080824 531.638336 
L 262.44446 530.279541 
L 256.808097 528.771627 
L 254.183424 528 
L 251.171733 527.09273 
L 245.535369 525.241978 
L 239.899006 523.238425 
L 237.707497 522.4 
L 234.262642 521.048703 
L 228.626278 518.681084 
L 224.426098 516.8 
L 222.989915 516.140086 
L 217.353551 513.389486 
L 213.114699 511.2 
L 211.717188 510.458895 
L 206.080824 507.304887 
L 203.185595 505.6 
L 200.44446 503.941626 
L 194.808097 500.362104 
L 194.263708 500 
L 189.171733 496.517619 
L 186.209302 494.4 
L 183.535369 492.4332 
L 178.800761 488.8 
L 177.899006 488.087361 
L 172.262642 483.448325 
L 171.972485 483.2 
L 166.626278 478.483762 
L 165.66142 477.6 
L 160.989915 473.185289 
L 159.780295 472 
L 155.353551 467.520062 
L 154.284805 466.4 
L 149.717188 461.450779 
L 149.136531 460.8 
L 144.309337 455.2 
L 144.080824 454.925263 
L 139.7939 449.6 
L 138.44446 447.860448 
L 135.543014 444 
L 132.808097 440.218404 
L 131.53271 438.4 
L 127.759048 432.8 
L 127.171733 431.89135 
L 124.228323 427.2 
L 121.535369 422.717051 
L 120.883456 421.6 
L 117.760556 416 
L 115.899006 412.498999 
L 114.813833 410.4 
L 112.059908 404.8 
L 110.262642 400.947749 
L 109.469202 399.2 
L 107.064367 393.6 
L 104.796974 388 
L 104.626278 387.551213 
L 102.718431 382.4 
L 100.778203 376.8 
L 98.989915 371.256124 
L 98.972274 371.2 
L 97.342481 365.6 
L 95.843102 360 
L 94.474138 354.4 
L 93.353551 349.33336 
L 93.238529 348.8 
L 92.158019 343.2 
L 91.204672 337.6 
L 90.378488 332 
L 89.679467 326.4 
L 89.10761 320.8 
L 88.662915 315.2 
L 88.345383 309.6 
L 88.155014 304 
L 88.091808 298.4 
L 88.155766 292.8 
L 88.346886 287.2 
L 88.665169 281.6 
L 89.110615 276 
L 89.683225 270.4 
L 90.382997 264.8 
L 91.209932 259.2 
L 92.16403 253.6 
L 93.245292 248 
L 93.353551 247.498311 
L 94.481844 242.4 
L 95.851579 236.8 
L 97.351729 231.2 
L 98.982292 225.6 
L 98.989915 225.575759 
L 100.789275 220 
L 102.730294 214.4 
L 104.626278 209.282768 
L 104.809969 208.8 
L 107.078174 203.2 
L 109.483821 197.6 
L 110.262642 195.885001 
L 112.075766 192 
L 114.830526 186.4 
L 115.899006 184.333886 
L 117.778583 180.8 
L 120.902342 175.2 
L 121.535369 174.115594 
L 124.248646 169.6 
L 127.171733 164.942213 
L 127.780895 164 
L 131.555468 158.4 
L 132.808097 156.614456 
L 135.567419 152.8 
L 138.44446 148.972876 
L 139.820058 147.2 
L 144.080824 141.908368 
L 144.337364 141.6 
L 149.16556 136 
L 149.717188 135.381879 
L 154.315866 130.4 
L 155.353551 129.312701 
L 159.813533 124.8 
L 160.989915 123.647496 
L 165.696995 119.2 
L 166.626278 118.348979 
L 172.010577 113.6 
L 172.262642 113.384313 
L 177.899006 108.746096 
L 178.843264 108 
L 183.535369 104.400031 
L 186.254947 102.4 
L 189.171733 100.315357 
L 194.312781 96.8 
L 194.808097 96.47059 
L 200.44446 92.891648 
L 203.241046 91.2 
L 206.080824 89.528029 
L 211.717188 86.374518 
L 213.177937 85.6 
L 217.353551 83.44351 
L 222.989915 80.693331 
L 224.499057 80 
L 228.626278 78.151868 
L 234.262642 75.784603 
L 237.792931 74.4 
L 239.899006 73.594378 
L 245.535369 71.591117 
L 251.171733 69.740635 
L 254.294636 68.8 
L 256.808097 68.061174 
L 262.44446 66.553474 
L 268.080824 65.194873 
L 273.717188 63.985369 
L 277.89165 63.2 
L 279.353551 62.931434 
L 284.989915 62.041567 
L 290.626278 61.29729 
L 296.262642 60.698602 
L 301.899006 60.245505 
L 307.535369 59.937997 
L 313.171733 59.77608 
L 318.808097 59.759752 
L 324.44446 59.889014 
L 330.080824 60.163866 
L 335.717187 60.584308 
L 341.353551 61.150339 
L 346.989915 61.861961 
L 352.626278 62.719172 
L 355.328827 63.2 
L 358.262642 63.734551 
L 363.899006 64.910612 
L 369.535369 66.235771 
L 375.171733 67.710028 
L 378.956167 68.8 
L 380.808097 69.346552 
L 386.44446 71.162765 
L 392.080824 73.131758 
L 395.449835 74.4 
L 397.717188 75.275136 
L 403.353551 77.607266 
L 408.772406 80 
L 408.989915 80.098537 
L 414.626278 82.812667 
L 420.091068 85.6 
L 420.262642 85.689845 
L 425.899006 88.806347 
L 430.010385 91.2 
L 431.535369 92.112172 
L 437.171733 95.653091 
L 438.913951 96.8 
L 442.808097 99.435737 
L 446.996272 102.4 
L 448.44446 103.45469 
L 454.080824 107.738904 
L 454.410524 108 
L 459.717188 112.3279 
L 461.216725 113.6 
L 465.353551 117.21736 
L 467.536579 119.2 
L 470.989915 122.435899 
L 473.422405 124.8 
L 476.626278 128.01588 
L 478.919275 130.4 
L 482.262642 133.994058 
L 484.066233 136 
L 487.899006 140.412342 
L 488.897262 141.6 
L 493.439066 147.2 
L 493.535369 147.323221 
L 497.6815 152.8 
L 499.171733 154.845692 
L 501.682224 158.4 
L 504.808097 163.006166 
L 505.462638 164 
L 509.00029 169.6 
L 510.44446 171.987669 
L 512.331732 175.2 
L 515.475573 180.8 
L 516.080824 181.930692 
L 518.406547 186.4 
L 521.178524 192 
L 521.717188 193.147031 
L 523.75168 197.6 
L 526.171955 203.2 
L 527.353551 206.099625 
L 528.424909 208.8 
L 530.512047 214.4 
L 532.464557 220 
L 532.989915 221.618369 
L 534.249201 225.6 
L 535.88917 231.2 
L 537.397971 236.8 
L 538.626278 241.79299 
L 538.771863 242.4 
L 539.987083 248 
L 541.074424 253.6 
L 542.033887 259.2 
L 542.865473 264.8 
L 543.56918 270.4 
L 544.145009 276 
L 544.262642 277.470572 
L 544.584882 281.6 
L 544.897127 287.2 
L 545.084621 292.8 
L 545.147365 298.4 
L 545.085358 304 
L 544.898601 309.6 
L 544.587093 315.2 
L 544.262642 319.364794 
L 544.148032 320.8 
L 543.572958 326.4 
L 542.870007 332 
L 542.039177 337.6 
L 541.080469 343.2 
L 539.993883 348.8 
L 538.77942 354.4 
L 538.626278 355.038876 
L 537.406497 360 
L 535.898471 365.6 
L 534.259277 371.2 
L 532.989915 375.215247 
L 532.475695 376.8 
L 530.52398 382.4 
L 528.437638 388 
L 527.353551 390.733437 
L 526.185846 393.6 
L 523.766388 399.2 
L 521.717188 403.686594 
L 521.194482 404.8 
L 518.423345 410.4 
L 516.080824 414.902886 
L 515.493716 416 
L 512.350739 421.6 
L 510.44446 424.845536 
L 509.020748 427.2 
L 505.483985 432.8 
L 504.808097 433.826494 
L 501.705137 438.4 
L 499.171733 441.987578 
L 497.706076 444 
L 493.535369 449.510471 
L 493.465414 449.6 
L 488.924586 455.2 
L 487.899006 456.420418 
L 484.095479 460.8 
L 482.262642 462.838878 
L 478.950577 466.4 
L 476.626278 468.817134 
L 473.45591 472 
L 470.989915 474.397114 
L 467.572451 477.6 
L 465.353551 479.615586 
L 461.255147 483.2 
L 459.717188 484.504925 
L 454.451701 488.8 
L 454.080824 489.093756 
L 448.44446 493.378703 
L 447.042365 494.4 
L 442.808097 497.397385 
L 438.963527 500 
L 437.171733 501.179736 
L 431.535369 504.721228 
L 430.066461 505.6 
L 425.899006 508.026683 
L 420.262642 511.143676 
L 420.155099 511.2 
L 414.626278 514.020425 
L 408.989915 516.734972 
L 408.846395 516.8 
L 403.353551 519.225767 
L 397.717188 521.558246 
L 395.53665 522.4 
L 392.080824 523.701112 
L 386.44446 525.670392 
L 380.808097 527.486871 
L 379.06967 528 
L 375.171733 529.122822 
L 369.535369 530.597289 
L 363.899006 531.922637 
L 358.262642 533.098866 
L 355.512621 533.6 
L 352.626278 534.113599 
L 346.989915 534.97093 
L 341.353551 535.68265 
L 335.717187 536.248761 
L 330.080824 536.669261 
L 324.44446 536.944151 
L 318.808097 537.073431 
L 313.171733 537.057101 
L 307.535369 536.895161 
L 301.899006 536.587611 
L 296.262642 536.13445 
L 290.626278 535.53568 
L 284.989915 534.791299 
L 279.353551 533.901308 
z
" clip-path="url(#p081a4c4203)" style="fill: none; stroke: #ffff00; stroke-width: 0.5"/>
    <path d="M 307.535369 545.090059 
L 301.899006 544.796248 
L 296.262642 544.353505 
L 290.626278 543.768501 
L 284.989915 543.041233 
L 279.353551 542.171703 
L 273.717188 541.159911 
L 264.576977 539.2 
L 262.44446 538.697997 
L 256.808097 537.225566 
L 251.171733 535.607525 
L 244.815427 533.6 
L 239.899006 531.894479 
L 229.785363 528 
L 228.626278 527.525136 
L 222.989915 525.063179 
L 217.254938 522.4 
L 211.717188 519.612017 
L 206.080824 516.612983 
L 196.823425 511.2 
L 194.808097 509.954245 
L 188.129674 505.6 
L 180.218403 500 
L 177.899006 498.270303 
L 172.262642 493.877936 
L 166.169651 488.8 
L 159.90756 483.2 
L 154.057276 477.6 
L 148.577772 472 
L 143.433296 466.4 
L 138.44446 460.616794 
L 132.808097 453.587196 
L 127.171733 446.004811 
L 125.753294 444 
L 121.535369 437.780295 
L 115.899006 428.745385 
L 114.983112 427.2 
L 110.262642 418.754653 
L 108.809265 416 
L 104.626278 407.545741 
L 103.346857 404.8 
L 98.989915 394.700915 
L 98.541319 393.6 
L 96.389869 388 
L 93.353551 379.392745 
L 92.500034 376.8 
L 90.783709 371.2 
L 89.194547 365.6 
L 87.717188 359.935556 
L 86.429807 354.4 
L 85.251509 348.8 
L 84.197282 343.2 
L 83.267124 337.6 
L 82.080824 328.878108 
L 81.786184 326.4 
L 81.241485 320.8 
L 80.81791 315.2 
L 80.515459 309.6 
L 80.334131 304 
L 80.273927 298.4 
L 80.334847 292.8 
L 80.51689 287.2 
L 80.820057 281.6 
L 81.244348 276 
L 82.080824 267.95462 
L 82.465435 264.8 
L 83.272256 259.2 
L 84.203147 253.6 
L 85.258108 248 
L 86.437139 242.4 
L 87.740814 236.8 
L 89.203565 231.2 
L 90.793478 225.6 
L 93.353551 217.440255 
L 94.380393 214.4 
L 96.402199 208.8 
L 98.989915 202.131597 
L 100.88552 197.6 
L 104.626278 189.287329 
L 106.008346 186.4 
L 110.262642 178.078421 
L 111.823804 175.2 
L 115.899006 168.087387 
L 121.535369 159.053319 
L 121.962817 158.4 
L 127.171733 150.828099 
L 132.808097 143.246147 
L 134.092281 141.6 
L 138.625403 136 
L 144.080824 129.707446 
L 149.717188 123.636859 
L 155.353551 117.957903 
L 160.989915 112.63551 
L 166.626278 107.638678 
L 172.957889 102.4 
L 180.263405 96.8 
L 183.535369 94.427164 
L 189.171733 90.5276 
L 196.877677 85.6 
L 200.44446 83.45283 
L 206.485452 80 
L 211.717188 77.221074 
L 217.353551 74.384267 
L 222.989915 71.76989 
L 229.867139 68.8 
L 234.262642 67.042857 
L 239.899006 64.938766 
L 245.535369 62.988861 
L 251.171733 61.225454 
L 256.808097 59.607638 
L 264.719215 57.6 
L 268.080824 56.826963 
L 273.717188 55.673064 
L 279.353551 54.661409 
L 284.989915 53.791998 
L 290.626278 53.064829 
L 296.262642 52.479904 
L 302.5973 52 
L 307.535369 51.742697 
L 313.171733 51.588056 
L 318.808097 51.572462 
L 324.44446 51.695915 
L 330.664535 52 
L 335.717187 52.368236 
L 341.353551 52.921257 
L 346.989915 53.61652 
L 352.626278 54.454027 
L 358.262642 55.433777 
L 363.899006 56.55577 
L 369.535369 57.825183 
L 375.171733 59.264754 
L 380.808097 60.849915 
L 388.304887 63.2 
L 392.080824 64.487293 
L 397.717188 66.557942 
L 403.40664 68.8 
L 408.989915 71.204466 
L 415.895544 74.4 
L 420.262642 76.571065 
L 426.749733 80 
L 431.535369 82.713843 
L 437.171733 86.083387 
L 445.054446 91.2 
L 448.44446 93.533618 
L 454.080824 97.605156 
L 460.288061 102.4 
L 467.021866 108 
L 473.291954 113.6 
L 479.146485 119.2 
L 484.627168 124.8 
L 489.770315 130.4 
L 494.60768 136 
L 499.171733 141.606007 
L 504.808097 149.073704 
L 510.44446 157.150091 
L 511.27669 158.4 
L 516.080824 165.990945 
L 518.233691 169.6 
L 521.717188 175.722441 
L 524.413179 180.8 
L 527.353551 186.61858 
L 529.876718 192 
L 532.989915 199.078601 
L 534.679542 203.2 
L 538.626278 213.707762 
L 538.871342 214.4 
L 540.725952 220 
L 542.452683 225.6 
L 544.262642 232.003676 
L 545.4917 236.8 
L 546.801949 242.4 
L 547.987448 248 
L 549.048196 253.6 
L 549.98216 259.2 
L 550.77404 264.8 
L 551.444148 270.4 
L 551.992483 276 
L 552.419046 281.6 
L 552.723837 287.2 
L 552.906855 292.8 
L 552.968101 298.4 
L 552.907575 304 
L 552.725276 309.6 
L 552.421205 315.2 
L 551.995361 320.8 
L 551.447746 326.4 
L 550.778358 332 
L 549.899006 338.140974 
L 549.054094 343.2 
L 547.994083 348.8 
L 546.809321 354.4 
L 544.262642 364.83045 
L 544.060605 365.6 
L 542.462507 371.2 
L 540.736531 376.8 
L 538.626278 383.124532 
L 536.856577 388 
L 532.989915 397.754943 
L 532.382062 399.2 
L 529.891834 404.8 
L 527.26463 410.4 
L 524.430338 416 
L 521.450539 421.6 
L 516.080824 430.842354 
L 514.879882 432.8 
L 510.44446 439.682645 
L 504.808097 447.759598 
L 503.457507 449.6 
L 499.171733 455.226717 
L 493.535369 462.105213 
L 487.899006 468.513335 
L 482.262642 474.495886 
L 476.626278 480.092153 
L 470.989915 485.336731 
L 465.353551 490.260205 
L 459.717188 494.889711 
L 453.036274 500 
L 445.103173 505.6 
L 442.808097 507.138 
L 436.436043 511.2 
L 431.535369 514.119264 
L 425.899006 517.302964 
L 415.962945 522.4 
L 414.626278 523.0482 
L 408.989915 525.628685 
L 403.353551 528.055011 
L 397.717188 530.275073 
L 388.403115 533.6 
L 386.44446 534.252125 
L 380.808097 535.983116 
L 375.171733 537.568498 
L 368.700337 539.2 
L 363.899006 540.277085 
L 358.262642 541.399231 
L 352.626278 542.379114 
L 346.989915 543.216734 
L 341.353551 543.912092 
L 335.717187 544.465188 
L 330.080824 544.874312 
L 324.44446 545.136847 
L 318.808097 545.260316 
L 313.171733 545.24472 
L 307.535369 545.090059 
L 307.535369 545.090059 
" clip-path="url(#p081a4c4203)" style="fill: none; stroke: #ffff00; stroke-width: 0.5"/>
    <path d="M 284.989915 551.032007 
L 280.704826 550.4 
L 279.353551 550.196222 
L 273.717188 549.207168 
L 268.080824 548.079048 
L 262.44446 546.811864 
L 256.808097 545.405613 
L 254.59919 544.8 
L 251.171733 543.838694 
L 245.535369 542.115589 
L 239.899006 540.250221 
L 236.95054 539.2 
L 234.262642 538.220062 
L 228.626278 536.01958 
L 222.989915 533.673488 
L 222.82368 533.6 
L 217.353551 531.123512 
L 211.717188 528.422645 
L 210.88133 528 
L 206.080824 525.512721 
L 200.44446 522.439559 
L 200.375343 522.4 
L 194.808097 519.132921 
L 191.012479 516.8 
L 189.171733 515.639223 
L 183.535369 511.924185 
L 182.48222 511.2 
L 177.899006 507.964359 
L 174.683308 505.6 
L 172.262642 503.771427 
L 167.461224 500 
L 166.626278 499.325689 
L 160.989915 494.599381 
L 160.760601 494.4 
L 155.353551 489.562468 
L 154.530592 488.8 
L 149.717188 484.207264 
L 148.696584 483.2 
L 144.080824 478.504386 
L 143.220393 477.6 
L 138.44446 472.420717 
L 138.068589 472 
L 133.224355 466.4 
L 132.808097 465.902486 
L 128.667893 460.8 
L 127.171733 458.891391 
L 124.362877 455.2 
L 121.535369 451.348959 
L 120.287822 449.6 
L 116.438566 444 
L 115.899006 443.184246 
L 112.82221 438.4 
L 110.262642 434.257548 
L 109.386309 432.8 
L 106.15682 427.2 
L 104.626278 424.42804 
L 103.105744 421.6 
L 100.228663 416 
L 98.989915 413.471246 
L 97.523885 410.4 
L 94.981192 404.8 
L 93.353551 401.021502 
L 92.588475 399.2 
L 90.363498 393.6 
L 88.265684 388 
L 87.717188 386.441337 
L 86.329625 382.4 
L 84.530978 376.8 
L 82.8564 371.2 
L 82.080824 368.398835 
L 81.324294 365.6 
L 79.931729 360 
L 78.660288 354.4 
L 77.50997 348.8 
L 76.480776 343.2 
L 76.44446 342.976045 
L 75.592926 337.6 
L 74.824233 332 
L 74.173854 326.4 
L 73.64179 320.8 
L 73.228039 315.2 
L 72.932603 309.6 
L 72.755482 304 
L 72.696674 298.4 
L 72.756181 292.8 
L 72.934002 287.2 
L 73.230137 281.6 
L 73.644586 276 
L 74.17735 270.4 
L 74.828428 264.8 
L 75.59782 259.2 
L 76.44446 253.859063 
L 76.486502 253.6 
L 77.516411 248 
L 78.667445 242.4 
L 79.939602 236.8 
L 81.332883 231.2 
L 82.080824 228.434249 
L 82.865931 225.6 
L 84.541242 220 
L 86.340623 214.4 
L 87.717188 210.392222 
L 88.277707 208.8 
L 90.376272 203.2 
L 92.602001 197.6 
L 93.353551 195.811272 
L 94.995834 192 
L 97.539298 186.4 
L 98.989915 183.361919 
L 100.245271 180.8 
L 103.123143 175.2 
L 104.626278 172.405055 
L 106.1755 169.6 
L 109.405801 164 
L 110.262642 162.575216 
L 112.843076 158.4 
L 115.899006 153.649302 
L 116.460886 152.8 
L 120.311 147.2 
L 121.535369 145.483903 
L 124.387618 141.6 
L 127.171733 137.941882 
L 128.694292 136 
L 132.808097 130.931063 
L 133.252514 130.4 
L 138.097687 124.8 
L 138.44446 124.411926 
L 143.251394 119.2 
L 144.080824 118.328358 
L 148.729617 113.6 
L 149.717188 112.625508 
L 154.565794 108 
L 155.353551 107.270271 
L 160.798128 102.4 
L 160.989915 102.233275 
L 166.626278 97.507753 
L 167.50278 96.8 
L 172.262642 93.061819 
L 174.727718 91.2 
L 177.899006 88.868662 
L 182.529723 85.6 
L 183.535369 84.908585 
L 189.171733 81.194118 
L 191.065641 80 
L 194.808097 77.700098 
L 200.432451 74.4 
L 200.44446 74.393127 
L 206.080824 71.320414 
L 210.945991 68.8 
L 211.717188 68.410106 
L 217.353551 65.709624 
L 222.89766 63.2 
L 222.989915 63.159222 
L 228.626278 60.813456 
L 234.262642 58.61328 
L 237.042382 57.6 
L 239.899006 56.58263 
L 245.535369 54.717516 
L 251.171733 52.994645 
L 254.71854 52 
L 256.808097 51.427185 
L 262.44446 50.021121 
L 268.080824 48.754105 
L 273.717188 47.626135 
L 279.353551 46.637212 
L 280.92674 46.4 
L 284.989915 45.800801 
L 290.626278 45.105594 
L 296.262642 44.546378 
L 301.899006 44.123153 
L 307.535369 43.835919 
L 313.171733 43.684677 
L 318.808097 43.669425 
L 324.44446 43.790165 
L 330.080824 44.046896 
L 335.717187 44.439619 
L 341.353551 44.968332 
L 346.989915 45.633036 
L 352.388827 46.4 
L 352.626278 46.43449 
L 358.262642 47.392225 
L 363.899006 48.489006 
L 369.535369 49.724835 
L 375.171733 51.09971 
L 378.52353 52 
L 380.808097 52.627738 
L 386.44446 54.318704 
L 392.080824 56.151913 
L 396.212506 57.6 
L 397.717188 58.139774 
L 403.353551 60.307294 
L 408.989915 62.620404 
L 410.318589 63.2 
L 414.626278 65.124381 
L 420.262642 67.79142 
L 422.281266 68.8 
L 425.899006 70.652186 
L 431.535369 73.690631 
L 432.788262 74.4 
L 437.171733 76.944683 
L 442.194367 80 
L 442.808097 80.383034 
L 448.44446 84.061454 
L 450.703252 85.6 
L 454.080824 87.961933 
L 458.525219 91.2 
L 459.717188 92.092227 
L 465.353551 96.480749 
L 465.748329 96.8 
L 470.989915 101.158184 
L 472.429891 102.4 
L 476.626278 106.123794 
L 478.667407 108 
L 482.262642 111.403382 
L 484.505447 113.6 
L 487.899006 117.02593 
L 489.982812 119.2 
L 493.535369 123.024096 
L 495.133434 124.8 
L 499.171733 129.434823 
L 499.987117 130.4 
L 504.562914 136 
L 504.808097 136.310589 
L 508.860399 141.6 
L 510.44446 143.742831 
L 512.926875 147.2 
L 516.080824 151.758121 
L 516.781654 152.8 
L 520.406419 158.4 
L 521.717188 160.507688 
L 523.830174 164 
L 527.080118 169.6 
L 527.353551 170.092092 
L 530.116872 175.2 
L 532.989915 180.757701 
L 533.011219 180.8 
L 535.700519 186.4 
L 538.258652 192 
L 538.626278 192.848263 
L 540.633991 197.6 
L 542.872235 203.2 
L 544.262642 206.88954 
L 544.964993 208.8 
L 546.898995 214.4 
L 548.708246 220 
L 549.899006 223.958592 
L 550.38096 225.6 
L 551.903474 231.2 
L 553.304216 236.8 
L 554.583185 242.4 
L 555.535369 247.007885 
L 555.735602 248 
L 556.746884 253.6 
L 557.639233 259.2 
L 558.412649 264.8 
L 559.067132 270.4 
L 559.602682 276 
L 560.019299 281.6 
L 560.316983 287.2 
L 560.495734 292.8 
L 560.555552 298.4 
L 560.496437 304 
L 560.318389 309.6 
L 560.021407 315.2 
L 559.605493 320.8 
L 559.070646 326.4 
L 558.416866 332 
L 557.644153 337.6 
L 556.752506 343.2 
L 555.741927 348.8 
L 555.535369 349.824092 
L 554.590381 354.4 
L 553.312131 360 
L 551.912109 365.6 
L 550.390315 371.2 
L 549.899006 372.874 
L 548.718567 376.8 
L 546.910053 382.4 
L 544.976788 388 
L 544.262642 389.943239 
L 542.885081 393.6 
L 540.647593 399.2 
L 538.626278 403.985457 
L 538.273379 404.8 
L 535.716021 410.4 
L 533.027496 416 
L 532.989915 416.074637 
L 530.134374 421.6 
L 527.353551 426.74161 
L 527.098912 427.2 
L 523.849785 432.8 
L 521.717188 436.325574 
L 520.427416 438.4 
L 516.803491 444 
L 516.080824 445.074583 
L 512.950202 449.6 
L 510.44446 453.090405 
L 508.885304 455.2 
L 504.808097 460.523022 
L 504.589492 460.8 
L 500.014612 466.4 
L 499.171733 467.397917 
L 495.162736 472 
L 493.535369 473.808807 
L 490.014039 477.6 
L 487.899006 479.807051 
L 484.538728 483.2 
L 482.262642 485.429606 
L 478.702882 488.8 
L 476.626278 490.709142 
L 472.46772 494.4 
L 470.989915 495.674651 
L 465.788686 500 
L 465.353551 500.351944 
L 459.717188 504.741176 
L 458.57003 505.6 
L 454.080824 508.871231 
L 450.7512 511.2 
L 448.44446 512.771447 
L 442.808097 516.450431 
L 442.248073 516.8 
L 437.171733 519.88845 
L 432.845983 522.4 
L 431.535369 523.142158 
L 425.899006 526.181047 
L 422.346694 528 
L 420.262642 529.041419 
L 414.626278 531.708838 
L 410.393551 533.6 
L 408.989915 534.212381 
L 403.353551 536.525813 
L 397.717188 538.693635 
L 396.305832 539.2 
L 392.080824 540.680997 
L 386.44446 542.514455 
L 380.808097 544.205651 
L 378.645339 544.8 
L 375.171733 545.733131 
L 369.535369 547.108189 
L 363.899006 548.344182 
L 358.262642 549.441109 
L 352.626278 550.398971 
L 352.619195 550.4 
L 346.989915 551.199793 
L 341.353551 551.864584 
L 335.717187 552.393366 
L 330.080824 552.786139 
L 324.44446 553.042904 
L 318.808097 553.163659 
L 313.171733 553.148406 
L 307.535369 552.997144 
L 301.899006 552.709873 
L 296.262642 552.286593 
L 290.626278 551.727305 
L 284.989915 551.032007 
z
" clip-path="url(#p081a4c4203)" style="fill: none; stroke: #ffff00; stroke-width: 0.5"/>
    <path d="M 273.717188 557.001743 
L 268.487273 556 
L 268.080824 555.920437 
L 262.44446 554.681104 
L 256.808097 553.305763 
L 251.171733 551.794412 
L 246.400816 550.4 
L 245.535369 550.141368 
L 239.899006 548.317922 
L 234.262642 546.35541 
L 230.091081 544.8 
L 228.626278 544.241276 
L 222.989915 541.949121 
L 217.353551 539.514703 
L 216.665153 539.2 
L 211.717188 536.884796 
L 206.080824 534.101874 
L 205.114898 533.6 
L 200.44446 531.114864 
L 194.867822 528 
L 194.808097 527.965816 
L 189.171733 524.587052 
L 185.681208 522.4 
L 183.535369 521.021445 
L 177.899006 517.243796 
L 177.263217 516.8 
L 172.262642 513.218807 
L 169.55165 511.2 
L 166.626278 508.963454 
L 162.389193 505.6 
L 160.989915 504.458801 
L 155.717247 500 
L 155.353551 499.683778 
L 149.717188 494.608821 
L 149.492968 494.4 
L 144.080824 489.213427 
L 143.663282 488.8 
L 138.44446 483.478338 
L 138.180001 483.2 
L 133.018082 477.6 
L 132.808097 477.364961 
L 128.159758 472 
L 127.171733 470.822261 
L 123.570578 466.4 
L 121.535369 463.81601 
L 119.227546 460.8 
L 115.899006 456.297407 
L 115.110213 455.2 
L 111.226301 449.6 
L 110.262642 448.158115 
L 107.558518 444 
L 104.626278 439.314272 
L 104.069156 438.4 
L 100.790567 432.8 
L 98.989915 429.5935 
L 97.680179 427.2 
L 94.746244 421.6 
L 93.353551 418.818113 
L 91.977895 416 
L 89.371429 410.4 
L 87.717188 406.663566 
L 86.912195 404.8 
L 84.617267 399.2 
L 82.44641 393.6 
L 82.080824 392.599758 
L 80.439545 388 
L 78.562485 382.4 
L 76.806548 376.8 
L 76.44446 375.55968 
L 75.201256 371.2 
L 73.722678 365.6 
L 72.362414 360 
L 71.120464 354.4 
L 70.808097 352.843219 
L 70.015219 348.8 
L 69.032687 343.2 
L 68.165788 337.6 
L 67.414521 332 
L 66.778886 326.4 
L 66.258883 320.8 
L 65.854512 315.2 
L 65.565774 309.6 
L 65.392667 304 
L 65.335193 298.4 
L 65.39335 292.8 
L 65.56714 287.2 
L 65.856562 281.6 
L 66.261616 276 
L 66.782302 270.4 
L 67.418621 264.8 
L 68.170571 259.2 
L 69.038154 253.6 
L 70.021368 248 
L 70.808097 243.990636 
L 71.127455 242.4 
L 72.370104 236.8 
L 73.731068 231.2 
L 75.210345 225.6 
L 76.44446 221.274087 
L 76.816568 220 
L 78.573221 214.4 
L 80.450997 208.8 
L 82.080824 204.233972 
L 82.458874 203.2 
L 84.630464 197.6 
L 86.926124 192 
L 87.717188 190.169237 
L 89.386458 186.4 
L 91.993675 180.8 
L 93.353551 178.014979 
L 94.763198 175.2 
L 97.697904 169.6 
L 98.989915 167.239485 
L 100.809548 164 
L 104.088928 158.4 
L 104.626278 157.518378 
L 107.579635 152.8 
L 110.262642 148.675275 
L 111.248837 147.2 
L 115.133584 141.6 
L 115.899006 140.535329 
L 119.252441 136 
L 121.535369 133.017122 
L 123.597087 130.4 
L 127.171733 126.011142 
L 128.187977 124.8 
L 132.808097 119.468609 
L 133.048118 119.2 
L 138.210976 113.6 
L 138.44446 113.354306 
L 143.696222 108 
L 144.080824 107.619253 
L 149.528002 102.4 
L 149.717188 102.223836 
L 155.353551 97.149724 
L 155.755846 96.8 
L 160.989915 92.374557 
L 162.430327 91.2 
L 166.626278 87.869724 
L 169.595514 85.6 
L 172.262642 83.614162 
L 177.310028 80 
L 177.899006 79.588941 
L 183.535369 75.811857 
L 185.733374 74.4 
L 189.171733 72.245948 
L 194.808097 68.867677 
L 194.926357 68.8 
L 200.44446 65.71827 
L 205.177843 63.2 
L 206.080824 62.730896 
L 211.717188 59.94836 
L 216.736712 57.6 
L 217.353551 57.318048 
L 222.989915 54.883961 
L 228.626278 52.592117 
L 230.178841 52 
L 234.262642 50.477514 
L 239.899006 48.515263 
L 245.535369 46.692058 
L 246.5128 46.4 
L 251.171733 45.038495 
L 256.808097 43.52734 
L 262.44446 42.152177 
L 268.080824 40.913006 
L 268.658191 40.8 
L 273.717188 39.831118 
L 279.353551 38.884727 
L 284.989915 38.071402 
L 290.626278 37.391145 
L 296.262642 36.843954 
L 301.899006 36.429831 
L 307.535369 36.148774 
L 313.171733 36.000783 
L 318.808097 35.98586 
L 324.44446 36.104003 
L 330.080824 36.355214 
L 335.717187 36.739491 
L 341.353551 37.256835 
L 346.989915 37.907245 
L 352.626278 38.690723 
L 358.262642 39.607267 
L 363.899006 40.656879 
L 364.581089 40.8 
L 369.535369 41.862402 
L 375.171733 43.207063 
L 380.808097 44.687714 
L 386.44446 46.304357 
L 386.752042 46.4 
L 392.080824 48.094224 
L 397.717188 50.025287 
L 403.093809 52 
L 403.353551 52.097591 
L 408.989915 54.357529 
L 414.626278 56.759712 
L 416.48767 57.6 
L 420.262642 59.344231 
L 425.899006 62.094111 
L 428.051745 63.2 
L 431.535369 65.0327 
L 437.171733 68.147033 
L 438.29949 68.8 
L 442.808097 71.474915 
L 447.522957 74.4 
L 448.44446 74.98617 
L 454.080824 78.728119 
L 455.919637 80 
L 459.717188 82.694935 
L 463.652712 85.6 
L 465.353551 86.888976 
L 470.830498 91.2 
L 470.989915 91.328918 
L 476.626278 96.056481 
L 477.482041 96.8 
L 482.262642 101.070557 
L 483.70107 102.4 
L 487.899006 106.392321 
L 489.534755 108 
L 493.535369 112.049325 
L 495.019347 113.6 
L 499.171733 118.072511 
L 500.186692 119.2 
L 504.808097 124.49675 
L 505.064874 124.8 
L 509.656162 130.4 
L 510.44446 131.394077 
L 513.99224 136 
L 516.080824 138.806645 
L 518.101595 141.6 
L 521.717188 146.779631 
L 522.002667 147.2 
L 525.667445 152.8 
L 527.353551 155.477497 
L 529.14537 158.4 
L 532.444164 164 
L 532.989915 164.965879 
L 535.540998 169.6 
L 538.49263 175.2 
L 538.626278 175.465356 
L 541.245737 180.8 
L 543.867616 186.4 
L 544.262642 187.286987 
L 546.310281 192 
L 548.618535 197.6 
L 549.899006 200.884006 
L 550.78048 203.2 
L 552.790083 208.8 
L 554.677914 214.4 
L 555.535369 217.118907 
L 556.422787 220 
L 558.028734 225.6 
L 559.515748 231.2 
L 560.88383 236.8 
L 561.171733 238.090687 
L 562.111075 242.4 
L 563.215538 248 
L 564.203778 253.6 
L 565.075794 259.2 
L 565.831588 264.8 
L 566.471158 270.4 
L 566.808097 274.005359 
L 566.990353 276 
L 567.388407 281.6 
L 567.672828 287.2 
L 567.843614 292.8 
L 567.900767 298.4 
L 567.844286 304 
L 567.674171 309.6 
L 567.390422 315.2 
L 566.993039 320.8 
L 566.808097 322.826696 
L 566.474592 326.4 
L 565.835709 332 
L 565.080602 337.6 
L 564.209272 343.2 
L 563.221719 348.8 
L 562.117943 354.4 
L 561.171733 358.743264 
L 560.89156 360 
L 559.524182 365.6 
L 558.037871 371.2 
L 556.432626 376.8 
L 555.535369 379.714224 
L 554.688708 382.4 
L 552.801596 388 
L 550.792712 393.6 
L 549.899006 395.948928 
L 548.631804 399.2 
L 546.324288 404.8 
L 544.262642 409.546689 
L 543.882729 410.4 
L 541.261606 416 
L 538.626278 421.368436 
L 538.509682 421.6 
L 535.558825 427.2 
L 532.989915 431.867678 
L 532.463258 432.8 
L 529.165259 438.4 
L 527.353551 441.355627 
L 525.68869 444 
L 522.024729 449.6 
L 521.717188 450.052953 
L 518.125112 455.2 
L 516.080824 458.026448 
L 514.017295 460.8 
L 510.44446 465.43938 
L 509.682846 466.4 
L 505.092447 472 
L 504.808097 472.335876 
L 500.21602 477.6 
L 499.171733 478.76028 
L 495.05054 483.2 
L 493.535369 484.78355 
L 489.567933 488.8 
L 487.899006 490.440569 
L 483.736368 494.4 
L 482.262642 495.762293 
L 477.519604 500 
L 476.626278 500.77628 
L 470.989915 505.504609 
L 470.871975 505.6 
L 465.353551 509.944356 
L 463.696956 511.2 
L 459.717188 514.138176 
L 455.966869 516.8 
L 454.080824 518.104747 
L 448.44446 521.847255 
L 447.575634 522.4 
L 442.808097 525.358197 
L 438.355951 528 
L 437.171733 528.685755 
L 431.535369 531.800531 
L 428.115399 533.6 
L 425.899006 534.738747 
L 420.262642 537.489009 
L 416.560126 539.2 
L 414.626278 540.073116 
L 408.989915 542.475625 
L 403.353551 544.735871 
L 403.18289 544.8 
L 397.717188 546.807697 
L 392.080824 548.739017 
L 386.857287 550.4 
L 386.44446 550.528386 
L 380.808097 552.145238 
L 375.171733 553.626082 
L 369.535369 554.970917 
L 364.73709 556 
L 363.899006 556.175878 
L 358.262642 557.225622 
L 352.626278 558.142283 
L 346.989915 558.92586 
L 341.353551 559.576353 
L 335.717187 560.093763 
L 330.080824 560.478089 
L 324.44446 560.729331 
L 318.808097 560.84749 
L 313.171733 560.832564 
L 307.535369 560.684555 
L 301.899006 560.403463 
L 296.262642 559.989286 
L 290.626278 559.442026 
L 284.989915 558.761682 
L 279.353551 557.948255 
L 273.717188 557.001743 
z
" clip-path="url(#p081a4c4203)" style="fill: none; stroke: #ffff00; stroke-width: 0.5"/>
   </g>
   <g id="patch_3">
    <path d="M 25.717188 561.6 
L 25.717188 7.2 
" style="fill: none; stroke: #ffff00; stroke-width: 0.8; stroke-linejoin: miter; stroke-linecap: square"/>
   </g>
   <g id="patch_4">
    <path d="M 25.717188 561.6 
L 583.717188 561.6 
" style="fill: none; stroke: #ffff00; stroke-width: 0.8; stroke-linejoin: miter; stroke-linecap: square"/>
   </g>
  </g>
 </g>
 <defs>
  <clipPath id="p081a4c4203">
   <rect x="25.717188" y="7.2" width="558" height="554.4"/>
  </clipPath>
 </defs>
</svg>
