<svg id="Ebene_1" data-name="Ebene 1" xmlns="http://www.w3.org/2000/svg" viewBox="0 0 970.66 292.36">
  <defs>
    <style>
      .cls-1 {
        fill: #2a3f92;
      }
    </style>
  </defs>
  <g id="Blau">
    <g id="Logo">
      <path class="cls-1" d="M159.67,133.75V263a2.46,2.46,0,0,0,2.46,2.46H291.37a4.92,4.92,0,0,0,1.81-9.5h0a220.16,220.16,0,0,1-124-124h0A4.92,4.92,0,0,0,159.67,133.75Z" transform="translate(-4.67 -128.82)"/>
      <path class="cls-1" d="M141.3,416.25V287a2.46,2.46,0,0,0-2.46-2.46H9.6a4.92,4.92,0,0,0-1.81,9.5h0a220.16,220.16,0,0,1,124,124h0A4.92,4.92,0,0,0,141.3,416.25Z" transform="translate(-4.67 -128.82)"/>
      <path class="cls-1" d="M291.37,284.55H162.13a2.46,2.46,0,0,0-2.46,2.46V416.25a4.92,4.92,0,0,0,9.5,1.81h0a220.16,220.16,0,0,1,124-124h0A4.92,4.92,0,0,0,291.37,284.55Z" transform="translate(-4.67 -128.82)"/>
    </g>
    <g id="atroo">
      <path class="cls-1" d="M450.78,238.83q-17.1-13.89-48.19-13.9a124.29,124.29,0,0,0-28.9,3.53,86.07,86.07,0,0,0-24.26,9.48,1.41,1.41,0,0,0-.54,1.83L363.49,270a1.4,1.4,0,0,0,2.07.53,48,48,0,0,1,13-6A57.21,57.21,0,0,1,395.09,262q12.12,0,17.53,4.63a14.8,14.8,0,0,1,4.71,7.7A1.42,1.42,0,0,1,416,276.1H397.73q-18.75,0-31,4.19t-18.2,12.35q-6,8.17-5.95,19.85a35.18,35.18,0,0,0,20.07,32.43q9.91,5.07,24.7,5.07,15.66,0,24.92-6.62a27.45,27.45,0,0,0,6.68-6.83,1.41,1.41,0,0,1,2.58.8v9a1.42,1.42,0,0,0,1.42,1.42h43.48a1.42,1.42,0,0,0,1.42-1.42V282.94Q467.87,252.73,450.78,238.83Zm-39,78.41a17,17,0,0,1-9.38,2.75c-3.67,0-6.58-.91-8.71-2.75a8.8,8.8,0,0,1-3.19-6.95q0-5.07,3.63-7.61t11.58-2.54h10.94a1.42,1.42,0,0,1,1.41,1.42v6.71a1.33,1.33,0,0,1-.08.49A15.65,15.65,0,0,1,411.74,317.24Z" transform="translate(-4.67 -128.82)"/>
      <path class="cls-1" d="M556.72,312.27a9.81,9.81,0,0,1-7.38-3.08q-3-3.09-3-8.61v-29a1.41,1.41,0,0,1,1.42-1.42h21.86a1.42,1.42,0,0,0,1.42-1.42V235.18a1.41,1.41,0,0,0-1.42-1.42H547.78a1.42,1.42,0,0,1-1.42-1.42V201.43a1.43,1.43,0,0,0-1.42-1.42h-47a1.43,1.43,0,0,0-1.42,1.42v30.91a1.42,1.42,0,0,1-1.41,1.42H481.39a1.42,1.42,0,0,0-1.42,1.42v33.55a1.43,1.43,0,0,0,1.42,1.42H495.1a1.41,1.41,0,0,1,1.41,1.42V301q0,24.93,13.9,37t38.82,12a89.46,89.46,0,0,0,16.87-1.55,45.29,45.29,0,0,0,12.74-4.27,1.41,1.41,0,0,0,.65-1.71l-10.94-31.83a1.41,1.41,0,0,0-2-.78A19.77,19.77,0,0,1,556.72,312.27Z" transform="translate(-4.67 -128.82)"/>
      <path class="cls-1" d="M639.87,236.66v-8.1a1.42,1.42,0,0,0-1.42-1.42H593.87a1.43,1.43,0,0,0-1.42,1.42v117.8a1.42,1.42,0,0,0,1.42,1.42h47a1.42,1.42,0,0,0,1.42-1.42V294.19q0-14.34,7.16-20.18t18.42-5.85c1.76,0,3.49.08,5.18.22,1.27.11,2.69.27,4.25.46a1.42,1.42,0,0,0,1.6-1.41V226.37a1.43,1.43,0,0,0-1.45-1.42q-16.05.28-27.66,7a39.06,39.06,0,0,0-7.51,5.67A1.42,1.42,0,0,1,639.87,236.66Z" transform="translate(-4.67 -128.82)"/>
      <path class="cls-1" d="M792.05,232.87q-15.87-7.94-36.39-7.94t-36.28,7.94a61.87,61.87,0,0,0-24.81,22.06q-9,14.11-9.05,32.42t9.05,32.42a62.64,62.64,0,0,0,24.81,22.17Q735.15,350,755.66,350t36.39-8.05a61.58,61.58,0,0,0,24.81-22.17q8.94-14.11,8.94-32.42t-8.94-32.42A60.83,60.83,0,0,0,792.05,232.87Zm-19.41,67.6a18.48,18.48,0,0,1-7,8,19.91,19.91,0,0,1-19.85,0,18.44,18.44,0,0,1-7.06-8A29.51,29.51,0,0,1,736,287.35q0-7.94,2.65-13.12a18.32,18.32,0,0,1,17-10.48,18.92,18.92,0,0,1,9.93,2.65,18.73,18.73,0,0,1,7,7.83q2.65,5.17,2.65,13.12A29.51,29.51,0,0,1,772.64,300.47Z" transform="translate(-4.67 -128.82)"/>
      <path class="cls-1" d="M966.4,254.93a61,61,0,0,0-24.81-22.06q-15.89-7.94-36.4-7.94t-36.28,7.94a61.87,61.87,0,0,0-24.81,22.06q-9,14.11-9,32.42t9,32.42a62.64,62.64,0,0,0,24.81,22.17Q884.68,350,905.19,350t36.4-8.05a61.71,61.71,0,0,0,24.81-22.17q8.93-14.11,8.93-32.42T966.4,254.93Zm-44.22,45.54a18.56,18.56,0,0,1-7.06,8,19.91,19.91,0,0,1-19.85,0,18.56,18.56,0,0,1-7.06-8,29.65,29.65,0,0,1-2.64-13.12q0-7.94,2.64-13.12a18.87,18.87,0,0,1,34,0q2.64,5.17,2.64,13.12A29.65,29.65,0,0,1,922.18,300.47Z" transform="translate(-4.67 -128.82)"/>
    </g>
  </g>
</svg>
