<svg width="200" height="47" viewBox="0 0 200 47" fill="none" xmlns="http://www.w3.org/2000/svg">
<path d="M39.5305 36.14V5.92957H48.9923C49.271 5.92957 49.7925 5.93556 50.5538 5.95054C51.315 5.96553 52.0463 6.01947 52.7476 6.11838C55.1123 6.41209 57.0994 7.25727 58.7178 8.6569C60.3332 10.0565 61.553 11.8278 62.3772 13.9767C63.2014 16.1226 63.615 18.4753 63.615 21.0348C63.615 23.5943 63.2014 25.968 62.3772 28.1139C61.553 30.2598 60.3302 32.0311 58.7178 33.4217C57.1024 34.8123 55.1123 35.6575 52.7476 35.9512C52.0493 36.0501 51.318 36.1041 50.5538 36.1191C49.7925 36.1341 49.271 36.14 48.9923 36.14H39.5305ZM44.0201 31.9651H48.9923C49.4688 31.9651 50.0353 31.9501 50.6916 31.9232C51.348 31.8962 51.9294 31.8392 52.4329 31.7553C53.9704 31.4616 55.2202 30.7933 56.1793 29.7503C57.1383 28.7073 57.8396 27.4246 58.2892 25.902C58.7358 24.3765 58.9605 22.7551 58.9605 21.0348C58.9605 19.3145 58.7298 17.6121 58.2682 16.0956C57.8067 14.5791 57.0964 13.3054 56.1403 12.2774C55.1812 11.2494 53.9464 10.596 52.4359 10.3173C51.9324 10.2184 51.348 10.1584 50.6856 10.1405C50.0203 10.1195 49.4598 10.1075 48.9983 10.1075H44.0261V31.9681L44.0201 31.9651Z" fill="#1F4898"/>
<path d="M77.5246 36.761C75.2738 36.761 73.2957 36.2695 71.5964 35.2835C69.897 34.2975 68.5753 32.9188 67.6313 31.1505C66.6872 29.3823 66.2136 27.3293 66.2136 24.9945C66.2136 22.519 66.6782 20.3731 67.6103 18.5538C68.5394 16.7346 69.8371 15.329 71.5035 14.337C73.1668 13.3449 75.106 12.8474 77.3148 12.8474C79.5236 12.8474 81.5886 13.3839 83.21 14.4538C84.8315 15.5238 86.0453 17.0433 86.8515 19.0154C87.6547 20.9875 87.9754 23.3312 87.8046 26.0435H83.4198V24.4491C83.3929 21.8207 82.8924 19.8755 81.9213 18.6168C80.9503 17.358 79.4697 16.7286 77.4856 16.7286C75.2888 16.7286 73.6404 17.4209 72.5345 18.8056C71.4285 20.1902 70.8771 22.1893 70.8771 24.8057C70.8771 27.4222 71.4285 29.2204 72.5345 30.5871C73.6404 31.9507 75.2348 32.6311 77.3178 32.6311C78.6874 32.6311 79.8743 32.3194 80.8753 31.699C81.8763 31.0756 82.6556 30.1855 83.213 29.0226L87.5138 30.3863C86.6327 32.4153 85.296 33.9828 83.5068 35.0947C81.7175 36.2066 79.7244 36.761 77.5276 36.761H77.5246ZM69.4475 26.0405V22.6209H85.6227V26.0405H69.4475Z" fill="#1F4898"/>
<path d="M91.9087 36.14V5.92957H96.3144V19.839H95.8109V36.14H91.9087ZM102.566 36.7694C100.399 36.7694 98.5802 36.2419 97.1116 35.187C95.643 34.132 94.5311 32.6994 93.7759 30.8952C93.0206 29.0909 92.643 27.0559 92.643 24.7901C92.643 22.5243 93.0176 20.4893 93.7669 18.6851C94.5161 16.8809 95.6191 15.4573 97.0816 14.4143C98.5442 13.3713 100.342 12.8528 102.482 12.8528C104.622 12.8528 106.444 13.3743 107.991 14.4143C109.537 15.4573 110.727 16.8749 111.569 18.6731C112.409 20.4714 112.828 22.5094 112.828 24.7901C112.828 27.0709 112.412 29.0939 111.581 30.9072C110.748 32.7174 109.567 34.147 108.036 35.196C106.504 36.2449 104.682 36.7694 102.569 36.7694H102.566ZM101.958 32.8043C103.358 32.8043 104.514 32.4477 105.428 31.7344C106.343 31.0211 107.029 30.059 107.484 28.8512C107.94 27.6404 108.168 26.2887 108.168 24.7931C108.168 23.2976 107.94 21.9669 107.484 20.7651C107.029 19.5632 106.334 18.6042 105.399 17.8909C104.46 17.1776 103.265 16.8209 101.811 16.8209C100.441 16.8209 99.3115 17.1566 98.4243 17.8279C97.5372 18.4993 96.8778 19.4374 96.4522 20.6392C96.0267 21.841 95.8139 23.2257 95.8139 24.7931C95.8139 26.3606 96.0237 27.7452 96.4433 28.9471C96.8629 30.1489 97.5282 31.093 98.4363 31.7793C99.3444 32.4656 100.519 32.8073 101.961 32.8073L101.958 32.8043Z" fill="#1F4898"/>
<path d="M113.65 16.7363V13.2117H129.133V16.7363H113.65ZM129.133 35.8696C127.707 36.1483 126.307 36.2682 124.937 36.2262C123.568 36.1843 122.342 35.9175 121.266 35.429C120.19 34.9405 119.378 34.1702 118.832 33.1213C118.344 32.1832 118.08 31.2301 118.047 30.259C118.011 29.288 117.993 28.1851 117.993 26.9533V6.91785H122.399V26.7435C122.399 27.6516 122.411 28.4428 122.432 29.1142C122.453 29.7855 122.597 30.352 122.86 30.8135C123.364 31.6797 124.164 32.1742 125.261 32.2941C126.358 32.4139 127.65 32.366 129.133 32.1562V35.8696Z" fill="#1F4898"/>
<path d="M132.427 36.14V5.92957H144.638C144.931 5.92957 145.294 5.94155 145.728 5.95953C146.163 5.98051 146.574 6.02547 146.966 6.0974C148.645 6.36414 150.047 6.93658 151.174 7.81772C152.301 8.69886 153.143 9.81077 153.704 11.1535C154.264 12.4961 154.543 13.9797 154.543 15.6011C154.543 18.0078 153.928 20.0817 152.697 21.82C151.465 23.5613 149.619 24.6493 147.158 25.0839L145.375 25.2936H136.815V36.14H132.43H132.427ZM136.812 21.1397H144.47C144.748 21.1397 145.06 21.1247 145.402 21.0977C145.743 21.0708 146.07 21.0198 146.376 20.9509C147.272 20.7411 147.991 20.3515 148.537 19.785C149.082 19.2186 149.475 18.5652 149.712 17.8249C149.948 17.0847 150.068 16.3414 150.068 15.6011C150.068 14.8608 149.948 14.1236 149.712 13.3893C149.475 12.655 149.082 12.0046 148.537 11.4382C147.991 10.8717 147.272 10.4821 146.376 10.2753C146.067 10.1914 145.743 10.1345 145.402 10.1075C145.06 10.0805 144.748 10.0655 144.47 10.0655H136.812V21.1427V21.1397ZM150.092 36.14L144.134 23.8461L148.561 22.7132L155.106 36.14H150.092Z" fill="#1F4898"/>
<path d="M165.783 36.7611C164.104 36.7611 162.699 36.4494 161.566 35.829C160.433 35.2056 159.576 34.3814 158.994 33.3534C158.413 32.3254 158.122 31.1955 158.122 29.9667C158.122 28.8188 158.326 27.8118 158.731 26.9456C159.135 26.0795 159.738 25.3422 160.535 24.7338C161.332 24.1254 162.312 23.6339 163.472 23.2532C164.479 22.9595 165.618 22.7018 166.892 22.477C168.166 22.2522 169.502 22.0424 170.908 21.8476C172.313 21.6528 173.71 21.455 175.095 21.2602L173.5 22.1413C173.527 20.3641 173.153 19.0484 172.376 18.1882C171.6 17.328 170.266 16.8965 168.381 16.8965C167.191 16.8965 166.101 17.1722 165.108 17.7266C164.116 18.2781 163.424 19.1922 163.032 20.463L158.941 19.2042C159.501 17.2591 160.565 15.7156 162.138 14.5677C163.712 13.4199 165.807 12.8474 168.42 12.8474C170.449 12.8474 172.215 13.1951 173.716 13.8844C175.221 14.5767 176.321 15.6707 177.022 17.1692C177.385 17.9095 177.609 18.6947 177.693 19.5189C177.777 20.3431 177.819 21.2332 177.819 22.1833V36.1347H173.938V30.9527L174.693 31.6241C173.755 33.3594 172.562 34.6481 171.115 35.4963C169.667 36.3415 167.887 36.7641 165.777 36.7641L165.783 36.7611ZM166.559 33.1736C167.803 33.1736 168.873 32.9518 169.769 32.5112C170.665 32.0706 171.384 31.5072 171.93 30.8239C172.475 30.1375 172.832 29.4242 173 28.6839C173.237 28.0126 173.374 27.2573 173.407 26.4182C173.443 25.579 173.458 24.9076 173.458 24.4041L174.885 24.9286C173.5 25.1384 172.242 25.3272 171.109 25.4951C169.976 25.6629 168.951 25.8277 168.037 25.9896C167.12 26.1514 166.307 26.3432 165.591 26.565C164.989 26.7748 164.455 27.0266 163.988 27.3203C163.52 27.614 163.148 27.9706 162.876 28.3902C162.603 28.8098 162.465 29.3193 162.465 29.9217C162.465 30.5241 162.612 31.0516 162.906 31.5462C163.199 32.0437 163.646 32.4363 164.248 32.733C164.851 33.0267 165.618 33.1736 166.556 33.1736H166.559Z" fill="#1F4898"/>
<path d="M183.321 46.5637L187.706 34.6264L187.769 38.1509L177.887 13.8357H182.461L189.846 32.6124H188.503L195.552 13.8357H200L187.496 46.5637H183.321Z" fill="#1F4898"/>
<path d="M27.5371 17.0473L10.4898 0H0L17.0474 17.0473C19.2202 19.2202 19.2202 22.7418 17.0474 24.9147L0 41.962H10.4898L27.5341 24.9147C29.707 22.7418 29.707 19.2202 27.5341 17.0473H27.5371Z" fill="#1F4898"/>
<path d="M7.34283 18.2137L0 10.8708V31.8504L7.34283 24.5075C9.08114 22.7692 9.08114 19.952 7.34283 18.2137Z" fill="#1F4898"/>
</svg>
