<?xml version="1.0" encoding="UTF-8" standalone="no"?>
<svg
   width="400pt"
   height="137.88539pt"
   viewBox="0 0 400 137.88539"
   version="1.2"
   id="svg627"
   sodipodi:docname="MSB Medical School Berlin Logo 2021-11-12.svg"
   inkscape:version="1.1.1 (3bf5ae0d25, 2021-09-20)"
   xmlns:inkscape="http://www.inkscape.org/namespaces/inkscape"
   xmlns:sodipodi="http://sodipodi.sourceforge.net/DTD/sodipodi-0.dtd"
   xmlns="http://www.w3.org/2000/svg"
   xmlns:svg="http://www.w3.org/2000/svg">
  <sodipodi:namedview
     id="namedview629"
     pagecolor="#ffffff"
     bordercolor="#111111"
     borderopacity="1"
     inkscape:pageshadow="0"
     inkscape:pageopacity="0"
     inkscape:pagecheckerboard="1"
     inkscape:document-units="pt"
     showgrid="false"
     fit-margin-top="0"
     fit-margin-left="0"
     fit-margin-right="0"
     fit-margin-bottom="0"
     inkscape:zoom="1.1616719"
     inkscape:cx="297.41616"
     inkscape:cy="175.17855"
     inkscape:window-width="1600"
     inkscape:window-height="837"
     inkscape:window-x="-8"
     inkscape:window-y="-8"
     inkscape:window-maximized="1"
     inkscape:current-layer="svg627" />
  <defs
     id="defs248" />
  <path
     style="fill:#7a7878;fill-opacity:1;stroke:none;stroke-width:1.97725"
     d="m 191.83617,93.588516 h 3.12035 v -14.76757 h -2.78051 l -4.07807,6.76589 -0.71057,1.66831 h -0.0927 l -0.80325,-1.60652 -4.26345,-6.82768 h -2.84229 v 14.76757 h 2.96587 v -7.41468 l -0.43252,-3.02766 h 0.12358 l 0.98862,2.28619 3.61466,5.53012 h 0.98862 l 3.3984,-5.53012 1.01952,-2.31709 h 0.12357 l -0.33984,3.05856 z m 0,0"
     id="path1092" />
  <path
     style="fill:#7a7878;fill-opacity:1;stroke:none;stroke-width:1.97725"
     d="m 206.32281,90.715326 c -0.27805,0.18537 -0.67968,0.37073 -1.20489,0.587 -0.52521,0.18536 -1.1431,0.27805 -1.79188,0.27805 -1.08131,0 -1.88457,-0.21626 -2.34798,-0.67968 -0.49432,-0.46342 -0.80326,-1.17399 -0.86505,-2.13172 h 7.38379 c 0.0927,-0.37074 0.15447,-0.74147 0.18536,-1.08131 0.0309,-0.37074 0.0618,-0.67968 0.0618,-0.98863 0,-0.86504 -0.12357,-1.57562 -0.40163,-2.16261 -0.27805,-0.5561 -0.64878,-1.01952 -1.1122,-1.39025 -0.43252,-0.33984 -0.95773,-0.587 -1.54472,-0.74147 -0.5561,-0.15447 -1.1431,-0.21626 -1.7301,-0.21626 -1.82277,0 -3.24392,0.49431 -4.23254,1.48293 -0.98863,0.98863 -1.48294,2.47156 -1.48294,4.38702 0,1.82278 0.43252,3.24393 1.32846,4.29434 0.86505,1.01952 2.2553,1.54473 4.17076,1.54473 0.95773,0 1.82278,-0.12358 2.65693,-0.40163 0.83415,-0.24716 1.45204,-0.5561 1.94635,-0.92684 z m -1.76099,-5.53012 c 0.33984,0.46342 0.49431,1.05042 0.43252,1.85367 h -4.75775 c 0.0618,-0.74146 0.30894,-1.32846 0.74147,-1.82277 0.40162,-0.46342 1.05041,-0.71058 1.91546,-0.71058 0.80325,0 1.32846,0.24716 1.6683,0.67968 z m 0,0"
     id="path1096" />
  <path
     style="fill:#7a7878;fill-opacity:1;stroke:none;stroke-width:1.97725"
     d="m 220.49554,78.820946 h -2.96587 v 3.80002 c -0.37073,-0.12358 -0.71057,-0.21626 -1.05041,-0.30895 -0.37074,-0.0618 -0.80326,-0.0927 -1.29757,-0.0927 -0.86505,0 -1.6683,0.15447 -2.34798,0.43252 -0.64879,0.24716 -1.23578,0.64879 -1.66831,1.174 -0.46341,0.5561 -0.80325,1.17399 -1.05041,1.91546 -0.21626,0.74146 -0.33984,1.57561 -0.33984,2.50245 0,1.91546 0.40163,3.3675 1.20489,4.26344 0.83415,0.92684 1.97725,1.39026 3.46018,1.39026 0.80326,0 1.51383,-0.15448 2.13172,-0.49432 0.587,-0.30894 1.05042,-0.77236 1.39026,-1.32846 h 0.27805 l 0.40162,1.54472 h 2.03904 c -0.0927,-0.74146 -0.15447,-1.45204 -0.18537,-2.06993 0,-0.64878 0,-1.26667 0,-1.85367 z m -7.10573,11.73991 c -0.40163,-0.5561 -0.587,-1.29757 -0.587,-2.22441 0,-1.32846 0.24716,-2.28619 0.71058,-2.84229 0.43252,-0.52521 1.1122,-0.80326 2.06993,-0.80326 0.46342,0 0.86504,0.0309 1.14309,0.12358 0.27806,0.0927 0.55611,0.24716 0.80326,0.43252 v 4.44881 c -0.15447,0.5561 -0.43252,0.98863 -0.80326,1.26668 -0.37073,0.33984 -0.89594,0.46341 -1.54472,0.46341 -0.80326,0 -1.42115,-0.27805 -1.79188,-0.86504 z m 0,0"
     id="path1100" />
  <path
     style="fill:#7a7878;fill-opacity:1;stroke:none;stroke-width:1.97725"
     d="m 224.01655,93.588516 h 2.93498 v -11.09113 h -2.93498 z m 0.0309,-12.41959 c 0.30894,0.30894 0.77236,0.46342 1.39025,0.46342 0.587,0 1.05042,-0.15448 1.42115,-0.46342 0.37073,-0.27805 0.52521,-0.64879 0.52521,-1.05042 0,-0.43252 -0.15448,-0.80325 -0.52521,-1.1122 -0.37073,-0.30894 -0.83415,-0.46342 -1.42115,-0.46342 -0.61789,0 -1.08131,0.15448 -1.39025,0.43253 -0.30895,0.33984 -0.49431,0.71057 -0.49431,1.14309 0,0.40163 0.18536,0.77237 0.49431,1.05042 z m 0,0"
     id="path1104" />
  <path
     style="fill:#7a7878;fill-opacity:1;stroke:none;stroke-width:1.97725"
     d="m 238.02823,90.684436 c -0.30894,0.21626 -0.64878,0.33984 -0.98862,0.43252 -0.33984,0.12358 -0.80326,0.18537 -1.39025,0.18537 -0.49432,0 -0.92684,-0.0927 -1.29757,-0.27805 -0.37074,-0.15448 -0.67968,-0.40163 -0.89594,-0.67968 -0.24716,-0.30895 -0.43253,-0.64879 -0.52521,-1.05042 -0.12358,-0.37073 -0.18537,-0.80325 -0.18537,-1.23578 0,-1.14309 0.24716,-1.94635 0.71058,-2.50245 0.46341,-0.49431 1.14309,-0.74147 2.03903,-0.74147 0.49432,0 0.89594,0.0309 1.26668,0.0927 0.33984,0.0927 0.71057,0.21626 1.08131,0.37074 l 0.71057,-2.37888 c -0.43252,-0.18537 -0.92684,-0.37073 -1.45204,-0.52521 -0.52521,-0.12357 -1.23578,-0.18536 -2.06993,-0.18536 -1.7301,0 -3.05856,0.5252 -3.9545,1.54472 -0.89594,1.05042 -1.35936,2.50246 -1.35936,4.32523 0,0.86505 0.0618,1.66831 0.27805,2.37888 0.18537,0.71057 0.46342,1.32846 0.89594,1.85367 0.40163,0.52521 0.95773,0.92684 1.60652,1.20489 0.64878,0.24715 1.45204,0.40163 2.40977,0.40163 0.71057,0 1.39025,-0.0618 2.06993,-0.24716 0.64878,-0.15447 1.23578,-0.43252 1.73009,-0.74147 z m 0,0"
     id="path1108" />
  <path
     style="fill:#7a7878;fill-opacity:1;stroke:none;stroke-width:1.97725"
     d="m 241.5668,85.494156 c 0.49431,-0.21626 1.05041,-0.43252 1.6992,-0.587 0.64878,-0.15447 1.29757,-0.24715 1.97725,-0.24715 0.74146,0 1.20488,0.12358 1.48293,0.37073 0.27805,0.27805 0.40163,0.67968 0.40163,1.20489 0,0.18536 0,0.46341 -0.0618,0.74147 -0.12358,0 -0.40163,-0.0927 -0.80325,-0.15448 -0.40163,-0.0618 -0.80326,-0.0618 -1.20489,-0.0618 -1.6992,0 -2.96587,0.30895 -3.80003,0.92684 -0.83415,0.67968 -1.26667,1.60651 -1.26667,2.87319 0,0.46342 0.0927,0.86504 0.27805,1.26667 0.18537,0.40163 0.43252,0.74147 0.74147,1.01952 0.33984,0.30895 0.71057,0.52521 1.1431,0.67968 0.43252,0.15447 0.92683,0.21626 1.45204,0.21626 0.89594,0 1.60651,-0.15447 2.19351,-0.5252 0.5561,-0.33984 1.01952,-0.77237 1.39025,-1.26668 h 0.24716 l 0.49431,1.6683 h 2.37888 c -0.12358,-0.46341 -0.24716,-0.95773 -0.30895,-1.45204 -0.0927,-0.5252 -0.12358,-1.05041 -0.12358,-1.57562 0,-0.77236 0.0309,-1.54472 0.0927,-2.2244 0.0618,-0.71058 0.0927,-1.42115 0.0927,-2.13172 0,-0.587 -0.0618,-1.1431 -0.21626,-1.63741 -0.12358,-0.49431 -0.33984,-0.89594 -0.64879,-1.23578 -0.33984,-0.33984 -0.74146,-0.587 -1.26667,-0.80326 -0.52521,-0.18537 -1.17399,-0.24716 -1.94636,-0.24716 -0.98862,0 -1.94635,0.0618 -2.84229,0.24716 -0.92684,0.21626 -1.73009,0.43252 -2.34798,0.71057 z m 1.91546,5.53012 c -0.27805,-0.27805 -0.43252,-0.64879 -0.43252,-1.1431 0,-0.40163 0.18536,-0.77236 0.5561,-1.05041 0.33984,-0.27805 0.92683,-0.40163 1.6683,-0.40163 0.15447,0 0.30895,0 0.49431,0.0309 0.15448,0.0309 0.33984,0.0309 0.52521,0.0618 0.15447,0.0309 0.33984,0.0618 0.49431,0.0927 0.15447,0 0.24716,0.0618 0.30895,0.0927 v 1.26667 c -0.18537,0.30895 -0.46342,0.64879 -0.86505,0.95773 -0.40163,0.30895 -0.92683,0.46342 -1.57562,0.46342 -0.49431,0 -0.89594,-0.12358 -1.17399,-0.37073 z m 0,0"
     id="path1112" />
  <path
     style="fill:#7a7878;fill-opacity:1;stroke:none;stroke-width:1.97725"
     d="m 256.1335,78.820946 h -2.96587 v 12.57406 c 0,0.89594 0.24716,1.54473 0.71057,1.94635 0.46342,0.40163 1.1431,0.587 2.03904,0.587 0.5561,0 1.08131,-0.0618 1.60652,-0.18537 0.49431,-0.12358 0.89594,-0.24715 1.17399,-0.37073 l -0.33984,-2.2862 c -0.24716,0.0618 -0.46342,0.15448 -0.61789,0.15448 -0.18537,0.0618 -0.40163,0.0618 -0.587,0.0618 -0.67968,0 -1.01952,-0.52521 -1.01952,-1.60652 z m 0,0"
     id="path1116" />
  <path
     style="fill:#e1173f;fill-opacity:1;stroke:none;stroke-width:1.97725"
     d="m 272.09739,90.777116 c -0.49431,0.27805 -1.20488,0.40163 -2.13172,0.40163 -0.40163,0 -0.77236,-0.0309 -1.14309,-0.0927 -0.40163,-0.0618 -0.77237,-0.12357 -1.11221,-0.21626 -0.33984,-0.0927 -0.61789,-0.18536 -0.89594,-0.27805 -0.27805,-0.0927 -0.5252,-0.18536 -0.64878,-0.27805 l -1.05041,2.65693 c 0.18536,0.0927 0.46341,0.18537 0.80325,0.27805 0.30895,0.0927 0.71058,0.21626 1.1431,0.30895 0.43252,0.0927 0.89594,0.15447 1.42115,0.21626 0.5252,0.0618 1.0813,0.12358 1.63741,0.12358 0.86504,0 1.6374,-0.0927 2.34798,-0.27806 0.74147,-0.18536 1.35936,-0.46341 1.88456,-0.86504 0.49432,-0.40163 0.89594,-0.86505 1.17399,-1.45204 0.27806,-0.61789 0.43253,-1.29757 0.43253,-2.13172 0,-0.80326 -0.21626,-1.48294 -0.5561,-2.00815 -0.37074,-0.5252 -0.83415,-0.92683 -1.35936,-1.29757 -0.5561,-0.33984 -1.1431,-0.61789 -1.76099,-0.83415 -0.64878,-0.21626 -1.23578,-0.43252 -1.76099,-0.64878 -0.5561,-0.21626 -1.01951,-0.46342 -1.35935,-0.74147 -0.37074,-0.24716 -0.5561,-0.587 -0.5561,-1.01952 0,-0.46342 0.18536,-0.77236 0.58699,-1.05041 0.37073,-0.21627 0.92684,-0.33984 1.63741,-0.33984 0.40163,0 0.77236,0 1.1431,0.0618 0.37073,0.0618 0.74146,0.12357 1.0813,0.18536 0.33984,0.0927 0.61789,0.15448 0.89594,0.27805 0.24716,0.0927 0.46342,0.21627 0.64879,0.30895 l 0.98862,-2.62603 c -0.5252,-0.27806 -1.23578,-0.52521 -2.03903,-0.67968 -0.86505,-0.15448 -1.7301,-0.24716 -2.65693,-0.24716 -0.80326,0 -1.54473,0.0927 -2.19351,0.27805 -0.67968,0.18537 -1.26668,0.46342 -1.73009,0.80326 -0.46342,0.37073 -0.83416,0.83415 -1.08131,1.39025 -0.27805,0.5561 -0.40163,1.17399 -0.40163,1.91546 0,0.86505 0.18537,1.57562 0.52521,2.10083 0.37073,0.5252 0.83415,0.95773 1.39025,1.32846 0.52521,0.37073 1.1122,0.64879 1.76099,0.83415 0.61789,0.21626 1.20488,0.43253 1.76098,0.64879 0.52521,0.21626 0.98863,0.43252 1.35936,0.67968 0.33984,0.27805 0.52521,0.61789 0.52521,1.05041 0,0.5561 -0.21626,0.95773 -0.71058,1.23578 z m 0,0"
     id="path1068" />
  <path
     style="fill:#e1173f;fill-opacity:1;stroke:none;stroke-width:1.97725"
     d="m 285.86916,90.684436 c -0.30894,0.21626 -0.64878,0.33984 -0.98862,0.43252 -0.33984,0.12358 -0.80326,0.18537 -1.39025,0.18537 -0.49432,0 -0.92684,-0.0927 -1.29757,-0.27805 -0.37074,-0.15448 -0.67968,-0.40163 -0.89594,-0.67968 -0.24716,-0.30895 -0.43253,-0.64879 -0.52521,-1.05042 -0.12358,-0.37073 -0.18537,-0.80325 -0.18537,-1.23578 0,-1.14309 0.24716,-1.94635 0.71058,-2.50245 0.46341,-0.49431 1.14309,-0.74147 2.03903,-0.74147 0.49432,0 0.89594,0.0309 1.26668,0.0927 0.33984,0.0927 0.71057,0.21626 1.08131,0.37074 l 0.71057,-2.37888 c -0.43252,-0.18537 -0.92684,-0.37073 -1.45204,-0.52521 -0.52521,-0.12357 -1.23578,-0.18536 -2.06993,-0.18536 -1.7301,0 -3.05856,0.5252 -3.9545,1.54472 -0.89594,1.05042 -1.35936,2.50246 -1.35936,4.32523 0,0.86505 0.0618,1.66831 0.27805,2.37888 0.18537,0.71057 0.46342,1.32846 0.89594,1.85367 0.40163,0.52521 0.95773,0.92684 1.60652,1.20489 0.64878,0.24715 1.45204,0.40163 2.40977,0.40163 0.71057,0 1.39025,-0.0618 2.06993,-0.24716 0.64878,-0.15447 1.23578,-0.43252 1.73009,-0.74147 z m 0,0"
     id="path1072" />
  <path
     style="fill:#e1173f;fill-opacity:1;stroke:none;stroke-width:1.97725"
     d="m 299.17033,93.588516 v -6.7659 c 0,-0.86504 -0.0927,-1.60651 -0.24715,-2.2244 -0.15447,-0.587 -0.37074,-1.08131 -0.67968,-1.42115 -0.30895,-0.37073 -0.67968,-0.61789 -1.1431,-0.77236 -0.43252,-0.15447 -0.95773,-0.21626 -1.57562,-0.21626 -0.86504,0 -1.57562,0.15447 -2.16261,0.46341 -0.5561,0.30895 -1.05042,0.71058 -1.42115,1.20489 h -0.24716 v -5.0358 h -2.96587 v 14.76757 h 2.96587 v -6.82769 c 0.15448,-0.58699 0.46342,-1.05041 0.95773,-1.42114 0.46342,-0.37074 0.95773,-0.52521 1.51383,-0.52521 0.80326,0 1.32847,0.21626 1.60652,0.61789 0.27805,0.40163 0.43252,1.1122 0.43252,2.06993 v 6.08622 z m 0,0"
     id="path1076" />
  <path
     style="fill:#e1173f;fill-opacity:1;stroke:none;stroke-width:1.97725"
     d="m 301.91379,90.375486 c 0.21626,0.71057 0.5561,1.32847 1.01952,1.85367 0.46342,0.52521 1.05041,0.92684 1.76099,1.23578 0.67968,0.27805 1.54472,0.43253 2.47156,0.43253 0.89594,0 1.69919,-0.12358 2.40977,-0.40163 0.67968,-0.27805 1.26667,-0.64879 1.73009,-1.1431 0.49431,-0.52521 0.86505,-1.1122 1.1122,-1.85367 0.24716,-0.74147 0.37074,-1.54473 0.37074,-2.44067 0,-0.83415 -0.0927,-1.63741 -0.33984,-2.34798 -0.21626,-0.67968 -0.587,-1.32846 -1.05042,-1.85367 -0.46341,-0.52521 -1.05041,-0.92684 -1.76098,-1.20489 -0.67968,-0.30894 -1.51383,-0.46341 -2.47156,-0.46341 -1.79188,0 -3.18214,0.5252 -4.13987,1.57562 -0.98862,1.01952 -1.45204,2.47156 -1.45204,4.29433 0,0.83415 0.0927,1.60652 0.33984,2.31709 z m 3.3984,-4.91223 c 0.43252,-0.5252 1.05041,-0.80325 1.85367,-0.80325 0.46341,0 0.86504,0.0927 1.20488,0.24715 0.33984,0.18537 0.587,0.40163 0.80326,0.71058 0.18537,0.30894 0.33984,0.67968 0.46342,1.0813 0.0618,0.40163 0.12358,0.86505 0.12358,1.35936 0,2.2553 -0.86505,3.3675 -2.59514,3.3675 -0.46342,0 -0.86505,-0.0618 -1.17399,-0.27805 -0.30895,-0.18536 -0.587,-0.40162 -0.77237,-0.71057 -0.21626,-0.30894 -0.37073,-0.67968 -0.46341,-1.08131 -0.12358,-0.40163 -0.15448,-0.83415 -0.15448,-1.29757 0,-1.20488 0.24716,-2.06993 0.71058,-2.59514 z m 0,0"
     id="path1080" />
  <path
     style="fill:#e1173f;fill-opacity:1;stroke:none;stroke-width:1.97725"
     d="m 314.91338,90.375486 c 0.21626,0.71057 0.5561,1.32847 1.01952,1.85367 0.46342,0.52521 1.05041,0.92684 1.76099,1.23578 0.67968,0.27805 1.54472,0.43253 2.47156,0.43253 0.89594,0 1.69919,-0.12358 2.40977,-0.40163 0.67968,-0.27805 1.26667,-0.64879 1.73009,-1.1431 0.49431,-0.52521 0.86505,-1.1122 1.1122,-1.85367 0.24716,-0.74147 0.37074,-1.54473 0.37074,-2.44067 0,-0.83415 -0.0927,-1.63741 -0.33984,-2.34798 -0.21626,-0.67968 -0.587,-1.32846 -1.05042,-1.85367 -0.46341,-0.52521 -1.05041,-0.92684 -1.76098,-1.20489 -0.67968,-0.30894 -1.51383,-0.46341 -2.47156,-0.46341 -1.79188,0 -3.18214,0.5252 -4.13987,1.57562 -0.98862,1.01952 -1.45204,2.47156 -1.45204,4.29433 0,0.83415 0.0927,1.60652 0.33984,2.31709 z m 3.3984,-4.91223 c 0.43252,-0.5252 1.05041,-0.80325 1.85367,-0.80325 0.46341,0 0.86504,0.0927 1.20488,0.24715 0.33984,0.18537 0.587,0.40163 0.80326,0.71058 0.18537,0.30894 0.33984,0.67968 0.46342,1.0813 0.0618,0.40163 0.12358,0.86505 0.12358,1.35936 0,2.2553 -0.86505,3.3675 -2.59514,3.3675 -0.46342,0 -0.86505,-0.0618 -1.17399,-0.27805 -0.30895,-0.18536 -0.587,-0.40162 -0.77237,-0.71057 -0.21626,-0.30894 -0.37073,-0.67968 -0.46341,-1.08131 -0.12358,-0.40163 -0.15448,-0.83415 -0.15448,-1.29757 0,-1.20488 0.24716,-2.06993 0.71058,-2.59514 z m 0,0"
     id="path1084" />
  <path
     style="fill:#e1173f;fill-opacity:1;stroke:none;stroke-width:1.97725"
     d="m 331.21856,78.820946 h -2.96587 v 12.57406 c 0,0.89594 0.24716,1.54473 0.71057,1.94635 0.46342,0.40163 1.1431,0.587 2.03904,0.587 0.5561,0 1.08131,-0.0618 1.60652,-0.18537 0.49431,-0.12358 0.89594,-0.24715 1.17399,-0.37073 l -0.33984,-2.2862 c -0.24716,0.0618 -0.46342,0.15448 -0.61789,0.15448 -0.18537,0.0618 -0.40163,0.0618 -0.587,0.0618 -0.67968,0 -1.01952,-0.52521 -1.01952,-1.60652 z m 0,0"
     id="path1088" />
  <path
     style="clip-rule:nonzero;fill:#7a7878;fill-opacity:1;stroke:none;stroke-width:1.97725"
     d="m 351.29021,80.458346 c -0.37073,-0.49431 -0.80325,-0.86504 -1.39025,-1.14309 -0.5561,-0.27805 -1.20488,-0.46342 -1.88456,-0.5561 -0.71058,-0.12358 -1.42115,-0.15448 -2.16262,-0.15448 -0.43252,0 -0.89594,0 -1.35936,0.0309 -0.43252,0 -0.86504,0.0309 -1.29757,0.0618 -0.43252,0 -0.83415,0.0618 -1.20488,0.0927 -0.37074,0.0618 -0.71058,0.0927 -1.01952,0.12358 v 14.58221 c 0.40163,0.0618 0.86504,0.12357 1.32846,0.18536 0.49431,0.0309 0.95773,0.0618 1.45204,0.0618 0.46342,0.0309 0.89594,0.0618 1.32847,0.0618 0.40163,0 0.74147,0 0.98862,0 0.77236,0 1.54473,-0.0927 2.2862,-0.24715 0.74146,-0.18537 1.42114,-0.43253 1.97724,-0.80326 0.55611,-0.33984 1.05042,-0.80326 1.42115,-1.32847 0.33984,-0.5561 0.52521,-1.20488 0.52521,-2.00814 0,-0.5561 -0.0927,-1.05041 -0.24716,-1.51383 -0.21626,-0.40163 -0.43252,-0.77236 -0.74147,-1.08131 -0.30894,-0.30894 -0.64878,-0.5252 -1.05041,-0.71057 -0.40163,-0.15447 -0.86505,-0.27805 -1.32846,-0.30895 v -0.12357 c 0.5252,-0.12358 0.98862,-0.24716 1.32846,-0.49432 0.37073,-0.21626 0.64879,-0.49431 0.89594,-0.80325 0.21626,-0.30895 0.40163,-0.64879 0.49431,-1.01952 0.12358,-0.33984 0.15448,-0.71058 0.15448,-1.05042 0,-0.74146 -0.15448,-1.35935 -0.49432,-1.85367 z m -5.77727,10.78219 c -0.21626,0 -0.43252,0 -0.61789,0 -0.18537,0 -0.40163,0 -0.52521,-0.0309 -0.18536,-0.0309 -0.30894,-0.0618 -0.40162,-0.0618 v -3.86181 h 1.73009 c 0.40163,0 0.80326,0.0309 1.20488,0.0618 0.37074,0.0309 0.74147,0.12358 1.05042,0.24716 0.30894,0.15447 0.5561,0.33984 0.74147,0.61789 0.21626,0.27805 0.30894,0.61789 0.30894,1.0813 0,0.33984 -0.0927,0.67968 -0.24716,0.89594 -0.15447,0.24716 -0.37073,0.46342 -0.64878,0.61789 -0.27805,0.15448 -0.587,0.27805 -0.92684,0.33984 -0.37073,0.0927 -0.74146,0.12358 -1.14309,0.12358 -0.15447,0 -0.33984,0 -0.52521,-0.0309 z m -1.54472,-6.27159 v -3.73823 c 0.21626,-0.0309 0.46341,-0.0618 0.80325,-0.0618 0.33984,-0.0309 0.74147,-0.0309 1.1431,-0.0309 0.30894,0 0.64878,0.0309 0.98862,0.0618 0.30895,0.0309 0.587,0.12358 0.86505,0.24716 0.27805,0.12358 0.46342,0.30894 0.61789,0.52521 0.15447,0.24715 0.24716,0.5252 0.24716,0.89594 0,0.5561 -0.21627,0.95773 -0.61789,1.29757 -0.40163,0.30894 -0.92684,0.5561 -1.51383,0.74146 -0.18537,0.0309 -0.43253,0.0618 -0.71058,0.0618 -0.27805,0 -0.5561,0 -0.74147,0 z m 0,0"
     id="path1044" />
  <path
     style="clip-rule:nonzero;fill:#7a7878;fill-opacity:1;stroke:none;stroke-width:1.97725"
     d="m 363.11811,90.715326 c -0.27805,0.18537 -0.67968,0.37073 -1.20489,0.587 -0.52521,0.18536 -1.1431,0.27805 -1.79188,0.27805 -1.08131,0 -1.88457,-0.21626 -2.34798,-0.67968 -0.49432,-0.46342 -0.80326,-1.17399 -0.86505,-2.13172 h 7.38379 c 0.0927,-0.37074 0.15447,-0.74147 0.18536,-1.08131 0.0309,-0.37074 0.0618,-0.67968 0.0618,-0.98863 0,-0.86504 -0.12357,-1.57562 -0.40163,-2.16261 -0.27805,-0.5561 -0.64878,-1.01952 -1.1122,-1.39025 -0.43252,-0.33984 -0.95773,-0.587 -1.54472,-0.74147 -0.5561,-0.15447 -1.1431,-0.21626 -1.7301,-0.21626 -1.82277,0 -3.24392,0.49431 -4.23254,1.48293 -0.98863,0.98863 -1.48294,2.47156 -1.48294,4.38702 0,1.82278 0.43252,3.24393 1.32846,4.29434 0.86505,1.01952 2.2553,1.54473 4.17076,1.54473 0.95773,0 1.82278,-0.12358 2.65693,-0.40163 0.83415,-0.24716 1.45204,-0.5561 1.94635,-0.92684 z m -1.76099,-5.53012 c 0.33984,0.46342 0.49431,1.05042 0.43252,1.85367 h -4.75775 c 0.0618,-0.74146 0.30894,-1.32846 0.74147,-1.82277 0.40162,-0.46342 1.05041,-0.71058 1.91546,-0.71058 0.80325,0 1.32846,0.24716 1.6683,0.67968 z m 0,0"
     id="path1048" />
  <path
     style="clip-rule:nonzero;fill:#7a7878;fill-opacity:1;stroke:none;stroke-width:1.97725"
     d="m 374.1705,82.497386 c -0.49431,-0.15447 -0.92684,-0.24715 -1.32846,-0.24715 -0.61789,0 -1.1431,0.15447 -1.60652,0.46341 -0.46342,0.33984 -0.86504,0.77237 -1.1431,1.32847 h -0.24715 l -0.33984,-1.54473 h -2.31709 v 11.09113 h 2.96587 v -7.01305 c 0.12358,-0.46342 0.40163,-0.83415 0.80326,-1.1431 0.40163,-0.27805 0.89594,-0.43252 1.51383,-0.43252 0.43252,0 0.83415,0.0618 1.26668,0.21626 z m 0,0"
     id="path1052" />
  <path
     style="clip-rule:nonzero;fill:#7a7878;fill-opacity:1;stroke:none;stroke-width:1.97725"
     d="m 378.78379,78.820946 h -2.96587 v 12.57406 c 0,0.89594 0.24716,1.54473 0.71057,1.94635 0.46342,0.40163 1.1431,0.587 2.03904,0.587 0.5561,0 1.08131,-0.0618 1.60652,-0.18537 0.49431,-0.12358 0.89594,-0.24715 1.17399,-0.37073 l -0.33984,-2.2862 c -0.24716,0.0618 -0.46342,0.15448 -0.61789,0.15448 -0.18537,0.0618 -0.40163,0.0618 -0.587,0.0618 -0.67968,0 -1.01952,-0.52521 -1.01952,-1.60652 z m 0,0"
     id="path1056" />
  <path
     style="clip-rule:nonzero;fill:#7a7878;fill-opacity:1;stroke:none;stroke-width:1.97725"
     d="m 383.23863,93.588516 h 2.93498 v -11.09113 h -2.93498 z m 0.0309,-12.41959 c 0.30894,0.30894 0.77236,0.46342 1.39025,0.46342 0.587,0 1.05042,-0.15448 1.42115,-0.46342 0.37073,-0.27805 0.52521,-0.64879 0.52521,-1.05042 0,-0.43252 -0.15448,-0.80325 -0.52521,-1.1122 -0.37073,-0.30894 -0.83415,-0.46342 -1.42115,-0.46342 -0.61789,0 -1.08131,0.15448 -1.39025,0.43253 -0.30895,0.33984 -0.49431,0.71057 -0.49431,1.14309 0,0.40163 0.18536,0.77237 0.49431,1.05042 z m 0,0"
     id="path1060" />
  <path
     style="clip-rule:nonzero;fill:#7a7878;fill-opacity:1;stroke:none;stroke-width:1.97725"
     d="m 399.99999,93.588516 v -6.70411 c 0,-0.89594 -0.0927,-1.63741 -0.24715,-2.2553 -0.15447,-0.61789 -0.40163,-1.1122 -0.67968,-1.45204 -0.33984,-0.37073 -0.71057,-0.61789 -1.1431,-0.77236 -0.46342,-0.15447 -0.98862,-0.21626 -1.60651,-0.21626 -0.95773,0 -1.73009,0.18536 -2.34798,0.5561 -0.61789,0.37073 -1.11221,0.83415 -1.45205,1.35936 h -0.30894 l -0.33984,-1.60652 h -2.31709 v 11.09113 h 2.96587 c 0,-1.17399 0,-2.31709 0,-3.49108 -0.0309,-1.1431 -0.0309,-2.28619 -0.0309,-3.46018 0.18537,-0.52521 0.49431,-0.95773 0.92683,-1.32847 0.46342,-0.33984 0.98863,-0.49431 1.60652,-0.49431 0.74147,0 1.26667,0.21626 1.57562,0.61789 0.27805,0.43252 0.43252,1.1431 0.43252,2.06993 v 6.08622 z m 0,0"
     id="path1064" />
  <path
     style="fill:#7a7878;fill-opacity:1;stroke:none;stroke-width:1.97725"
     d="m 187.60363,114.6917 h 1.73009 v -12.29601 h -1.73009 v 5.25206 h -6.24069 v -5.25206 h -1.76099 v 12.29601 h 1.76099 v -5.49922 h 6.24069 z m 0,0"
     id="path1216" />
  <path
     style="fill:#7a7878;fill-opacity:1;stroke:none;stroke-width:1.97725"
     d="m 192.24541,112.00388 c 0.18537,0.58699 0.46342,1.1122 0.83416,1.54472 0.37073,0.43253 0.83415,0.77237 1.39025,1.01952 0.5561,0.24716 1.23578,0.37074 2.00814,0.37074 0.71058,0 1.32847,-0.0927 1.88457,-0.33984 0.5561,-0.21627 1.01952,-0.52521 1.42114,-0.95773 0.37074,-0.43253 0.64879,-0.92684 0.86505,-1.54473 0.18537,-0.58699 0.30895,-1.26667 0.30895,-2.00814 0,-0.71058 -0.0927,-1.35936 -0.27806,-1.94636 -0.18536,-0.58699 -0.46341,-1.1122 -0.83415,-1.54472 -0.37073,-0.46342 -0.83415,-0.77236 -1.39025,-1.01952 -0.587,-0.24716 -1.23578,-0.37073 -1.97725,-0.37073 -0.74147,0 -1.35936,0.0927 -1.91546,0.33984 -0.5561,0.21626 -1.01952,0.5252 -1.42115,0.95773 -0.37073,0.43252 -0.67967,0.92683 -0.86504,1.51383 -0.18537,0.61789 -0.30895,1.29757 -0.30895,2.06993 0,0.67968 0.0927,1.32846 0.27805,1.91546 z m 2.19351,-4.57239 c 0.46342,-0.58699 1.1431,-0.86505 2.03904,-0.86505 0.49431,0 0.89594,0.12358 1.26668,0.30895 0.33984,0.18537 0.61789,0.46342 0.83415,0.77236 0.21626,0.33984 0.37073,0.71058 0.46342,1.1122 0.0927,0.43253 0.15447,0.86505 0.15447,1.32847 0,2.31709 -0.89594,3.49108 -2.71872,3.49108 -0.49431,0 -0.92683,-0.12358 -1.26667,-0.30895 -0.37074,-0.18536 -0.64879,-0.46341 -0.83416,-0.80325 -0.24715,-0.33984 -0.40162,-0.67968 -0.49431,-1.11221 -0.0927,-0.40163 -0.15447,-0.83415 -0.15447,-1.26667 0,-1.17399 0.21626,-2.06993 0.71057,-2.65693 z m 0,0"
     id="path1220" />
  <path
     style="fill:#7a7878;fill-opacity:1;stroke:none;stroke-width:1.97725"
     d="m 209.98447,112.86892 c -0.24715,0.21627 -0.5252,0.37074 -0.89594,0.49432 -0.37073,0.12357 -0.80325,0.21626 -1.29757,0.21626 -0.5252,0 -1.01952,-0.12358 -1.39025,-0.30895 -0.37073,-0.18536 -0.67968,-0.46341 -0.89594,-0.80325 -0.24716,-0.30895 -0.40163,-0.67968 -0.52521,-1.11221 -0.0927,-0.40163 -0.15447,-0.83415 -0.15447,-1.26667 0,-2.34798 0.95773,-3.52198 2.84229,-3.52198 0.43253,0 0.83416,0.0618 1.20489,0.15448 0.37073,0.0927 0.71057,0.21626 1.01952,0.37073 l 0.43252,-1.29757 c -0.37073,-0.18537 -0.77236,-0.30894 -1.23578,-0.43252 -0.46342,-0.12358 -1.01952,-0.15447 -1.63741,-0.15447 -1.42114,0 -2.47156,0.40162 -3.24392,1.26667 -0.74147,0.86505 -1.1431,2.03904 -1.1431,3.61466 0,0.71057 0.0618,1.39025 0.24716,1.97725 0.15447,0.61789 0.40163,1.1122 0.71057,1.54472 0.33984,0.40163 0.80326,0.74147 1.35936,0.98863 0.52521,0.21626 1.17399,0.33984 1.94636,0.33984 0.61789,0 1.20488,-0.0618 1.76098,-0.21627 0.52521,-0.15447 1.01952,-0.37073 1.42115,-0.64878 z m 0,0"
     id="path1224" />
  <path
     style="fill:#7a7878;fill-opacity:1;stroke:none;stroke-width:1.97725"
     d="m 221.0485,114.6917 v -5.43743 c 0,-0.80326 -0.0927,-1.45205 -0.21626,-1.97725 -0.12358,-0.52521 -0.30895,-0.92684 -0.587,-1.26668 -0.24715,-0.27805 -0.61789,-0.5252 -1.01952,-0.64878 -0.40162,-0.12358 -0.89594,-0.15447 -1.45204,-0.15447 -0.74147,0 -1.32846,0.12357 -1.82277,0.37073 -0.49432,0.27805 -0.92684,0.61789 -1.26668,1.01952 h -0.21626 v -4.20165 h -1.60651 v 12.29601 h 1.60651 v -5.90085 c 0.0927,-0.30895 0.21626,-0.61789 0.40163,-0.89594 0.18537,-0.24716 0.37073,-0.46342 0.61789,-0.64879 0.24715,-0.21626 0.52521,-0.33984 0.83415,-0.43252 0.27805,-0.12358 0.587,-0.18537 0.89594,-0.18537 0.43252,0 0.77236,0.0618 1.08131,0.18537 0.27805,0.12358 0.49431,0.30895 0.67968,0.5561 0.15447,0.24716 0.27805,0.52521 0.33984,0.89594 0.0618,0.37074 0.0927,0.80326 0.0927,1.32847 v 5.09759 z m 0,0"
     id="path1228" />
  <path
     style="fill:#7a7878;fill-opacity:1;stroke:none;stroke-width:1.97725"
     d="m 228.24306,113.23966 c -0.37073,0.21626 -0.83415,0.33984 -1.42114,0.33984 -0.52521,0 -1.05042,-0.0927 -1.57562,-0.27805 -0.49431,-0.18537 -0.92684,-0.33984 -1.23578,-0.52521 l -0.46342,1.39025 c 0.37073,0.21626 0.83415,0.37074 1.39025,0.5561 0.5561,0.15448 1.20489,0.21627 1.94636,0.21627 1.20488,0 2.06993,-0.27805 2.65692,-0.83416 0.587,-0.5252 0.86505,-1.23578 0.86505,-2.10082 0,-0.46342 -0.0927,-0.89594 -0.24716,-1.20489 -0.21626,-0.30894 -0.43252,-0.58699 -0.74146,-0.77236 -0.27805,-0.21626 -0.61789,-0.37073 -0.95773,-0.49431 -0.33984,-0.12358 -0.71058,-0.24716 -1.05042,-0.33984 -0.27805,-0.0618 -0.5252,-0.12358 -0.74146,-0.21626 -0.21627,-0.0618 -0.43253,-0.15448 -0.6179,-0.24716 -0.18536,-0.0927 -0.30894,-0.21626 -0.43252,-0.37073 -0.0927,-0.12358 -0.15447,-0.30895 -0.15447,-0.49432 0,-0.49431 0.15447,-0.83415 0.43252,-1.01951 0.27805,-0.18537 0.71058,-0.27806 1.29757,-0.27806 0.52521,0 1.01952,0.0618 1.45204,0.21627 0.43253,0.15447 0.80326,0.30894 1.11221,0.46341 l 0.40162,-1.39025 c -0.37073,-0.15447 -0.83415,-0.30894 -1.32846,-0.43252 -0.52521,-0.15447 -1.1122,-0.21626 -1.85367,-0.21626 -0.98862,0 -1.76099,0.21626 -2.28619,0.64878 -0.5561,0.46342 -0.83416,1.1431 -0.83416,2.03904 0,0.49431 0.0927,0.86504 0.27806,1.17399 0.15447,0.30894 0.40162,0.5561 0.67967,0.74147 0.24716,0.18536 0.55611,0.33984 0.92684,0.46342 0.33984,0.12357 0.67968,0.21626 1.01952,0.30894 0.24715,0.0927 0.52521,0.15447 0.77236,0.24716 0.24716,0.0927 0.46342,0.18536 0.64879,0.27805 0.18536,0.12358 0.33984,0.24715 0.46341,0.40163 0.0927,0.15447 0.15448,0.37073 0.15448,0.58699 0,0.587 -0.18537,0.95773 -0.55611,1.1431 z m 0,0"
     id="path1232" />
  <path
     style="fill:#7a7878;fill-opacity:1;stroke:none;stroke-width:1.97725"
     d="m 239.33558,112.86892 c -0.24715,0.21627 -0.5252,0.37074 -0.89594,0.49432 -0.37073,0.12357 -0.80325,0.21626 -1.29757,0.21626 -0.5252,0 -1.01952,-0.12358 -1.39025,-0.30895 -0.37073,-0.18536 -0.67968,-0.46341 -0.89594,-0.80325 -0.24716,-0.30895 -0.40163,-0.67968 -0.52521,-1.11221 -0.0927,-0.40163 -0.15447,-0.83415 -0.15447,-1.26667 0,-2.34798 0.95773,-3.52198 2.84229,-3.52198 0.43253,0 0.83416,0.0618 1.20489,0.15448 0.37073,0.0927 0.71057,0.21626 1.01952,0.37073 l 0.43252,-1.29757 c -0.37073,-0.18537 -0.77236,-0.30894 -1.23578,-0.43252 -0.46342,-0.12358 -1.01952,-0.15447 -1.63741,-0.15447 -1.42114,0 -2.47156,0.40162 -3.24392,1.26667 -0.74147,0.86505 -1.1431,2.03904 -1.1431,3.61466 0,0.71057 0.0618,1.39025 0.24716,1.97725 0.15447,0.61789 0.40163,1.1122 0.71057,1.54472 0.33984,0.40163 0.80326,0.74147 1.35936,0.98863 0.52521,0.21626 1.17399,0.33984 1.94636,0.33984 0.61789,0 1.20488,-0.0618 1.76098,-0.21627 0.52521,-0.15447 1.01952,-0.37073 1.42115,-0.64878 z m 0,0"
     id="path1236" />
  <path
     style="fill:#7a7878;fill-opacity:1;stroke:none;stroke-width:1.97725"
     d="m 250.39961,114.6917 v -5.43743 c 0,-0.80326 -0.0927,-1.45205 -0.21626,-1.97725 -0.12358,-0.52521 -0.30895,-0.92684 -0.587,-1.26668 -0.24715,-0.27805 -0.61789,-0.5252 -1.01952,-0.64878 -0.40162,-0.12358 -0.89594,-0.15447 -1.45204,-0.15447 -0.74147,0 -1.32846,0.12357 -1.82277,0.37073 -0.49432,0.27805 -0.92684,0.61789 -1.26668,1.01952 h -0.21626 v -4.20165 h -1.60651 v 12.29601 h 1.60651 v -5.90085 c 0.0927,-0.30895 0.21626,-0.61789 0.40163,-0.89594 0.18537,-0.24716 0.37073,-0.46342 0.61789,-0.64879 0.24715,-0.21626 0.52521,-0.33984 0.83415,-0.43252 0.27805,-0.12358 0.587,-0.18537 0.89594,-0.18537 0.43252,0 0.77236,0.0618 1.08131,0.18537 0.27805,0.12358 0.49431,0.30895 0.67968,0.5561 0.15447,0.24716 0.27805,0.52521 0.33984,0.89594 0.0618,0.37074 0.0927,0.80326 0.0927,1.32847 v 5.09759 z m 0,0"
     id="path1240" />
  <path
     style="fill:#7a7878;fill-opacity:1;stroke:none;stroke-width:1.97725"
     d="m 253.48521,105.45424 v 5.46833 c 0,0.77236 0.0618,1.42115 0.21626,1.91546 0.12357,0.52521 0.33984,0.92683 0.61789,1.23578 0.24715,0.30894 0.61789,0.5561 1.01952,0.67968 0.40162,0.12358 0.86504,0.18537 1.39025,0.18537 0.83415,0 1.48294,-0.15448 2.03904,-0.49432 0.5252,-0.33984 0.95773,-0.74146 1.26667,-1.29757 h 0.15447 l 0.43253,1.54473 h 1.0813 c -0.0618,-0.37073 -0.12357,-0.80326 -0.15447,-1.26667 -0.0309,-0.46342 -0.0309,-0.92684 -0.0309,-1.35936 v -6.61143 h -1.63741 v 6.02443 c -0.21626,0.587 -0.587,1.08131 -1.01952,1.48294 -0.43252,0.40163 -1.01952,0.61789 -1.73009,0.61789 -0.40163,0 -0.71058,-0.0927 -0.98863,-0.21626 -0.27805,-0.12358 -0.46341,-0.30895 -0.61789,-0.587 -0.18536,-0.24716 -0.27805,-0.5561 -0.33984,-0.92683 -0.0309,-0.37074 -0.0927,-0.80326 -0.0927,-1.29757 v -5.0976 z m 0,0"
     id="path1244" />
  <path
     style="fill:#7a7878;fill-opacity:1;stroke:none;stroke-width:1.97725"
     d="m 266.63341,102.39569 h -1.60651 v 10.44234 c 0,0.77236 0.18536,1.29757 0.5561,1.60651 0.37073,0.33984 0.89594,0.49432 1.51383,0.49432 0.15447,0 0.30894,-0.0309 0.46342,-0.0309 0.18536,-0.0309 0.37073,-0.0309 0.5252,-0.0618 0.18537,-0.0618 0.37074,-0.0927 0.52521,-0.12358 0.15447,-0.0618 0.30894,-0.0927 0.43252,-0.12357 l -0.21626,-1.20489 c -0.24715,0.0618 -0.46342,0.12358 -0.64878,0.12358 -0.15448,0.0309 -0.33984,0.0618 -0.52521,0.0618 -0.30894,0 -0.5561,-0.12358 -0.74147,-0.30895 -0.18537,-0.18536 -0.27805,-0.5561 -0.27805,-1.01952 z m 0,0"
     id="path1248" />
  <path
     style="fill:#7a7878;fill-opacity:1;stroke:none;stroke-width:1.97725"
     d="m 277.60899,112.71445 c -0.24716,0.21626 -0.587,0.43252 -1.01952,0.587 -0.46342,0.18536 -0.92683,0.27805 -1.42115,0.27805 -1.17399,0 -2.00814,-0.30895 -2.50245,-0.83415 -0.49431,-0.55611 -0.77236,-1.39026 -0.77236,-2.44067 h 6.58053 c 0.0309,-0.24716 0.0618,-0.49431 0.0618,-0.74147 0.0309,-0.24715 0.0309,-0.43252 0.0309,-0.64878 0,-0.77237 -0.12358,-1.39026 -0.33984,-1.88457 -0.21626,-0.46342 -0.52521,-0.83415 -0.89594,-1.14309 -0.37073,-0.24716 -0.77236,-0.43253 -1.23578,-0.55611 -0.46342,-0.0927 -0.89594,-0.12357 -1.35936,-0.12357 -1.45204,0 -2.56424,0.40162 -3.33661,1.23578 -0.77236,0.83415 -1.17399,2.06993 -1.17399,3.64555 0,0.74147 0.0927,1.39025 0.27805,2.00814 0.15448,0.587 0.43253,1.1122 0.80326,1.51383 0.37074,0.43253 0.83415,0.74147 1.39025,0.98863 0.587,0.21626 1.23578,0.33984 2.00815,0.33984 0.74147,0 1.39025,-0.0927 2.00814,-0.27805 0.587,-0.18537 1.1122,-0.43253 1.51383,-0.71058 z m -5.65369,-3.58376 c 0.0927,-0.92684 0.37073,-1.60652 0.83415,-1.97725 0.49431,-0.40163 1.14309,-0.587 1.94635,-0.587 0.74147,0 1.29757,0.18537 1.73009,0.587 0.40163,0.37073 0.5561,1.05041 0.5561,1.97725 z m 0,0"
     id="path1252" />
  <path
     style="fill:#7a7878;fill-opacity:1;stroke:none;stroke-width:1.97725"
     d=""
     id="path1256" />
  <path
     style="fill:#7a7878;fill-opacity:1;stroke:none;stroke-width:1.97725"
     d="m 285.24132,106.8445 h 1.54473 v 7.8472 h 1.63741 v -7.8472 h 2.68782 v -1.39026 h -2.68782 c 0,-0.37073 0,-0.67968 0.0309,-0.95773 0.0309,-0.24715 0.12358,-0.43252 0.24716,-0.58699 0.0927,-0.15448 0.24715,-0.24716 0.46342,-0.30895 0.18536,-0.0618 0.43252,-0.0927 0.77236,-0.0927 0.24715,0 0.5252,0.0309 0.77236,0.0618 0.27805,0.0309 0.5561,0.12358 0.83415,0.24715 l 0.37074,-1.32846 c -0.37074,-0.12358 -0.71058,-0.21626 -1.05042,-0.27805 -0.33984,-0.0618 -0.74146,-0.0618 -1.17399,-0.0618 -0.5252,0 -0.95773,0.0309 -1.32846,0.15447 -0.37074,0.0927 -0.67968,0.27805 -0.89594,0.49431 -0.21626,0.24716 -0.40163,0.587 -0.52521,0.95773 -0.0927,0.40163 -0.15447,0.89594 -0.15447,1.45205 v 0.24715 h -1.54473 z m 0,0"
     id="path1260" />
  <path
     style="fill:#7a7878;fill-opacity:1;stroke:none;stroke-width:1.97725"
     d="m 292.75484,105.45424 v 5.46833 c 0,0.77236 0.0618,1.42115 0.21626,1.91546 0.12357,0.52521 0.33984,0.92683 0.61789,1.23578 0.24715,0.30894 0.61789,0.5561 1.01952,0.67968 0.40162,0.12358 0.86504,0.18537 1.39025,0.18537 0.83415,0 1.48294,-0.15448 2.03904,-0.49432 0.5252,-0.33984 0.95773,-0.74146 1.26667,-1.29757 h 0.15447 l 0.43253,1.54473 h 1.0813 c -0.0618,-0.37073 -0.12357,-0.80326 -0.15447,-1.26667 -0.0309,-0.46342 -0.0309,-0.92684 -0.0309,-1.35936 v -6.61143 h -1.63741 v 6.02443 c -0.21626,0.587 -0.587,1.08131 -1.01952,1.48294 -0.43252,0.40163 -1.01952,0.61789 -1.73009,0.61789 -0.40163,0 -0.71058,-0.0927 -0.98863,-0.21626 -0.27805,-0.12358 -0.46341,-0.30895 -0.61789,-0.587 -0.18536,-0.24716 -0.27805,-0.5561 -0.33984,-0.92683 -0.0309,-0.37074 -0.0927,-0.80326 -0.0927,-1.29757 v -5.0976 z m 1.26667,-1.54472 c 0.18537,0.18536 0.43252,0.27805 0.74147,0.27805 0.30894,0 0.52521,-0.0927 0.71057,-0.27805 0.18537,-0.21626 0.27805,-0.43253 0.27805,-0.71058 0,-0.27805 -0.0927,-0.49431 -0.27805,-0.67968 -0.18536,-0.21626 -0.40163,-0.27805 -0.71057,-0.27805 -0.30895,0 -0.5561,0.0618 -0.74147,0.27805 -0.18537,0.18537 -0.27805,0.40163 -0.27805,0.67968 0,0.27805 0.0927,0.49432 0.27805,0.71058 z m 3.76913,0 c 0.18537,0.18536 0.43252,0.27805 0.74147,0.27805 0.27805,0 0.5252,-0.0927 0.74147,-0.27805 0.15447,-0.21626 0.24715,-0.43253 0.24715,-0.71058 0,-0.27805 -0.0927,-0.49431 -0.24715,-0.67968 -0.21627,-0.21626 -0.46342,-0.27805 -0.74147,-0.27805 -0.30895,0 -0.5561,0.0618 -0.74147,0.27805 -0.18537,0.18537 -0.27805,0.40163 -0.27805,0.67968 0,0.27805 0.0927,0.49432 0.27805,0.71058 z m 0,0"
     id="path1264" />
  <path
     style="fill:#7a7878;fill-opacity:1;stroke:none;stroke-width:1.97725"
     d="m 309.20875,105.45424 c -0.21626,-0.0927 -0.43252,-0.12358 -0.64878,-0.15447 -0.24716,-0.0309 -0.43252,-0.0618 -0.587,-0.0618 -0.5561,0 -0.98862,0.12358 -1.32846,0.37073 -0.37073,0.27806 -0.71057,0.61789 -0.95773,1.08131 h -0.15447 l -0.33984,-1.23578 h -1.1122 v 9.23746 h 1.60651 v -6.2098 c 0.0927,-0.49431 0.30894,-0.89594 0.64878,-1.20488 0.33984,-0.30895 0.83416,-0.46342 1.45205,-0.46342 0.15447,0 0.33984,0 0.5252,0.0309 0.18537,0.0618 0.40163,0.0927 0.587,0.15447 z m 0,0"
     id="path1268" />
  <path
     style="fill:#7a7878;fill-opacity:1;stroke:none;stroke-width:1.97725"
     d="m 184.14344,130.63558 3.15124,0.33984 v 3.05855 c -0.27805,0.15448 -0.58699,0.24716 -0.92683,0.33984 -0.37074,0.0618 -0.74147,0.0927 -1.1431,0.0927 -0.61789,0 -1.17399,-0.0927 -1.6992,-0.27805 -0.5561,-0.18537 -0.98862,-0.46342 -1.39025,-0.86505 -0.37073,-0.40163 -0.67968,-0.89594 -0.89594,-1.51383 -0.21626,-0.61789 -0.33984,-1.32847 -0.33984,-2.16262 0,-0.89594 0.12358,-1.6683 0.40163,-2.28619 0.24715,-0.61789 0.58699,-1.1122 1.01952,-1.48294 0.40163,-0.37073 0.86504,-0.67968 1.39025,-0.83415 0.52521,-0.15447 1.05041,-0.24715 1.57562,-0.24715 1.1431,0 2.00814,0.15447 2.62603,0.40162 l 0.43253,-1.48293 c -0.33984,-0.12358 -0.74147,-0.24716 -1.26668,-0.33984 -0.49431,-0.0927 -1.17399,-0.12358 -1.94635,-0.12358 -0.71058,0 -1.42115,0.12358 -2.13172,0.37073 -0.71058,0.21627 -1.39026,0.61789 -1.97725,1.11221 -0.5561,0.5252 -1.05042,1.17399 -1.42115,1.97724 -0.37073,0.83416 -0.5561,1.79189 -0.5561,2.93498 0,1.08131 0.15447,2.03904 0.46342,2.8114 0.27805,0.83415 0.71057,1.48294 1.26667,2.00815 0.52521,0.5252 1.1431,0.92683 1.88457,1.17399 0.71057,0.24715 1.48293,0.37073 2.31708,0.37073 0.33984,0 0.71058,0 1.05042,-0.0618 0.33984,-0.0618 0.71057,-0.0927 1.01952,-0.18536 0.33984,-0.0927 0.64878,-0.18537 0.95773,-0.30895 0.27805,-0.12358 0.5252,-0.27805 0.74146,-0.43252 v -5.43744 h -4.60328 z m 0,0"
     id="path1120" />
  <path
     style="fill:#7a7878;fill-opacity:1;stroke:none;stroke-width:1.97725"
     d="m 198.20805,133.81771 c -0.24716,0.21626 -0.587,0.43252 -1.01952,0.587 -0.46342,0.18536 -0.92683,0.27805 -1.42115,0.27805 -1.17399,0 -2.00814,-0.30895 -2.50245,-0.83415 -0.49431,-0.55611 -0.77236,-1.39026 -0.77236,-2.44067 h 6.58053 c 0.0309,-0.24716 0.0618,-0.49431 0.0618,-0.74147 0.0309,-0.24715 0.0309,-0.43252 0.0309,-0.64878 0,-0.77237 -0.12358,-1.39026 -0.33984,-1.88457 -0.21626,-0.46342 -0.52521,-0.83415 -0.89594,-1.14309 -0.37073,-0.24716 -0.77236,-0.43253 -1.23578,-0.55611 -0.46342,-0.0927 -0.89594,-0.12357 -1.35936,-0.12357 -1.45204,0 -2.56424,0.40162 -3.33661,1.23578 -0.77236,0.83415 -1.17399,2.06993 -1.17399,3.64555 0,0.74147 0.0927,1.39025 0.27805,2.00814 0.15448,0.587 0.43253,1.1122 0.80326,1.51383 0.37074,0.43253 0.83415,0.74147 1.39025,0.98863 0.587,0.21626 1.23578,0.33984 2.00815,0.33984 0.74147,0 1.39025,-0.0927 2.00814,-0.27805 0.587,-0.18537 1.1122,-0.43253 1.51383,-0.71058 z m -5.65369,-3.58376 c 0.0927,-0.92684 0.37073,-1.60652 0.83415,-1.97725 0.49431,-0.40163 1.14309,-0.587 1.94635,-0.587 0.74147,0 1.29757,0.18537 1.73009,0.587 0.40163,0.37073 0.5561,1.05041 0.5561,1.97725 z m 0,0"
     id="path1124" />
  <path
     style="fill:#7a7878;fill-opacity:1;stroke:none;stroke-width:1.97725"
     d="m 205.94398,134.34292 c -0.37073,0.21626 -0.83415,0.33984 -1.42114,0.33984 -0.52521,0 -1.05042,-0.0927 -1.57562,-0.27805 -0.49431,-0.18537 -0.92684,-0.33984 -1.23578,-0.52521 l -0.46342,1.39025 c 0.37073,0.21626 0.83415,0.37074 1.39025,0.5561 0.5561,0.15448 1.20489,0.21627 1.94636,0.21627 1.20488,0 2.06993,-0.27805 2.65692,-0.83416 0.587,-0.5252 0.86505,-1.23578 0.86505,-2.10082 0,-0.46342 -0.0927,-0.89594 -0.24716,-1.20489 -0.21626,-0.30894 -0.43252,-0.58699 -0.74146,-0.77236 -0.27805,-0.21626 -0.61789,-0.37073 -0.95773,-0.49431 -0.33984,-0.12358 -0.71058,-0.24716 -1.05042,-0.33984 -0.27805,-0.0618 -0.5252,-0.12358 -0.74146,-0.21626 -0.21627,-0.0618 -0.43253,-0.15448 -0.6179,-0.24716 -0.18536,-0.0927 -0.30894,-0.21626 -0.43252,-0.37073 -0.0927,-0.12358 -0.15447,-0.30895 -0.15447,-0.49432 0,-0.49431 0.15447,-0.83415 0.43252,-1.01951 0.27805,-0.18537 0.71058,-0.27806 1.29757,-0.27806 0.52521,0 1.01952,0.0618 1.45204,0.21627 0.43253,0.15447 0.80326,0.30894 1.11221,0.46341 l 0.40162,-1.39025 c -0.37073,-0.15447 -0.83415,-0.30894 -1.32846,-0.43252 -0.52521,-0.15447 -1.1122,-0.21626 -1.85367,-0.21626 -0.98862,0 -1.76099,0.21626 -2.28619,0.64878 -0.5561,0.46342 -0.83416,1.1431 -0.83416,2.03904 0,0.49431 0.0927,0.86504 0.27806,1.17399 0.15447,0.30894 0.40162,0.5561 0.67967,0.74147 0.24716,0.18536 0.55611,0.33984 0.92684,0.46342 0.33984,0.12357 0.67968,0.21626 1.01952,0.30894 0.24715,0.0927 0.52521,0.15447 0.77236,0.24716 0.24716,0.0927 0.46342,0.18536 0.64879,0.27805 0.18536,0.12358 0.33984,0.24715 0.46341,0.40163 0.0927,0.15447 0.15448,0.37073 0.15448,0.58699 0,0.587 -0.18537,0.95773 -0.55611,1.1431 z m 0,0"
     id="path1128" />
  <path
     style="fill:#7a7878;fill-opacity:1;stroke:none;stroke-width:1.97725"
     d="m 210.61045,126.5575 v 5.46833 c 0,0.77236 0.0618,1.42115 0.21626,1.91546 0.12357,0.52521 0.33984,0.92683 0.61789,1.23578 0.24715,0.30894 0.61789,0.5561 1.01952,0.67968 0.40162,0.12358 0.86504,0.18537 1.39025,0.18537 0.83415,0 1.48294,-0.15448 2.03904,-0.49432 0.5252,-0.33984 0.95773,-0.74146 1.26667,-1.29757 h 0.15447 l 0.43253,1.54473 h 1.0813 c -0.0618,-0.37073 -0.12357,-0.80326 -0.15447,-1.26667 -0.0309,-0.46342 -0.0309,-0.92684 -0.0309,-1.35936 v -6.61143 h -1.63741 v 6.02443 c -0.21626,0.587 -0.587,1.08131 -1.01952,1.48294 -0.43252,0.40163 -1.01952,0.61789 -1.73009,0.61789 -0.40163,0 -0.71058,-0.0927 -0.98863,-0.21626 -0.27805,-0.12358 -0.46341,-0.30895 -0.61789,-0.587 -0.18536,-0.24716 -0.27805,-0.5561 -0.33984,-0.92683 -0.0309,-0.37074 -0.0927,-0.80326 -0.0927,-1.29757 v -5.0976 z m 0,0"
     id="path1132" />
  <path
     style="fill:#7a7878;fill-opacity:1;stroke:none;stroke-width:1.97725"
     d="m 230.12292,135.79496 v -5.43743 c 0,-0.77237 -0.0927,-1.45205 -0.21626,-1.97725 -0.15447,-0.52521 -0.37074,-0.92684 -0.61789,-1.26668 -0.27805,-0.27805 -0.64879,-0.5252 -1.05042,-0.64878 -0.40162,-0.12358 -0.86504,-0.15447 -1.42114,-0.15447 -0.74147,0 -1.39026,0.12357 -1.94636,0.40162 -0.5561,0.30895 -0.98862,0.64879 -1.32846,1.08131 h -0.15447 l -0.33984,-1.23578 h -1.1122 v 9.23746 h 1.60651 v -6.08622 c 0.21626,-0.58699 0.52521,-1.05041 1.01952,-1.42115 0.46342,-0.37073 1.05041,-0.5561 1.76099,-0.5561 0.80325,0 1.39025,0.24716 1.69919,0.74147 0.30895,0.49431 0.46342,1.23578 0.46342,2.22441 v 5.09759 z m 0,0"
     id="path1136" />
  <path
     style="fill:#7a7878;fill-opacity:1;stroke:none;stroke-width:1.97725"
     d="m 241.11751,123.49895 h -1.60652 v 3.21302 c -0.18536,-0.0618 -0.33983,-0.0927 -0.49431,-0.15447 -0.15447,-0.0309 -0.33984,-0.0927 -0.49431,-0.0927 -0.18537,-0.0309 -0.33984,-0.0618 -0.5561,-0.0618 -0.18537,-0.0309 -0.40163,-0.0309 -0.64879,-0.0309 -1.48293,0 -2.59513,0.43252 -3.39839,1.23578 -0.80326,0.86504 -1.20489,2.06993 -1.20489,3.64555 0,1.63741 0.33984,2.8114 0.98863,3.61465 0.64878,0.77237 1.63741,1.174 2.96587,1.174 0.67968,0 1.29757,-0.15448 1.82278,-0.46342 0.49431,-0.30895 0.89594,-0.67968 1.17399,-1.1431 h 0.18536 l 0.40163,1.39025 h 1.05042 c -0.0618,-0.49431 -0.12358,-1.01951 -0.15448,-1.54472 0,-0.49431 -0.0309,-1.08131 -0.0309,-1.6683 z m -1.60652,9.05209 c -0.15447,0.67968 -0.46341,1.23578 -0.86504,1.57562 -0.40163,0.37073 -0.95773,0.5561 -1.6683,0.5561 -0.49432,0 -0.89595,-0.0927 -1.20489,-0.27805 -0.33984,-0.15448 -0.61789,-0.40163 -0.83415,-0.71058 -0.18537,-0.27805 -0.33984,-0.64878 -0.43253,-1.0813 -0.0927,-0.40163 -0.12357,-0.86505 -0.12357,-1.35936 0,-1.23578 0.24715,-2.13172 0.77236,-2.68782 0.52521,-0.52521 1.26667,-0.83416 2.2244,-0.83416 0.52521,0 0.92684,0.0618 1.23578,0.12358 0.33984,0.0927 0.61789,0.21626 0.89594,0.40163 z m 0,0"
     id="path1140" />
  <path
     style="fill:#7a7878;fill-opacity:1;stroke:none;stroke-width:1.97725"
     d="m 252.45718,135.79496 v -5.43743 c 0,-0.80326 -0.0927,-1.45205 -0.21626,-1.97725 -0.12358,-0.52521 -0.30895,-0.92684 -0.587,-1.26668 -0.24715,-0.27805 -0.61789,-0.5252 -1.01952,-0.64878 -0.40162,-0.12358 -0.89594,-0.15447 -1.45204,-0.15447 -0.74147,0 -1.32846,0.12357 -1.82277,0.37073 -0.49432,0.27805 -0.92684,0.61789 -1.26668,1.01952 h -0.21626 v -4.20165 h -1.60651 v 12.29601 h 1.60651 v -5.90085 c 0.0927,-0.30895 0.21626,-0.61789 0.40163,-0.89594 0.18537,-0.24716 0.37073,-0.46342 0.61789,-0.64879 0.24715,-0.21626 0.52521,-0.33984 0.83415,-0.43252 0.27805,-0.12358 0.587,-0.18537 0.89594,-0.18537 0.43252,0 0.77236,0.0618 1.08131,0.18537 0.27805,0.12358 0.49431,0.30895 0.67968,0.5561 0.15447,0.24716 0.27805,0.52521 0.33984,0.89594 0.0618,0.37074 0.0927,0.80326 0.0927,1.32847 v 5.09759 z m 0,0"
     id="path1144" />
  <path
     style="fill:#7a7878;fill-opacity:1;stroke:none;stroke-width:1.97725"
     d="m 262.43224,133.81771 c -0.24716,0.21626 -0.587,0.43252 -1.01952,0.587 -0.46342,0.18536 -0.92683,0.27805 -1.42115,0.27805 -1.17399,0 -2.00814,-0.30895 -2.50245,-0.83415 -0.49431,-0.55611 -0.77236,-1.39026 -0.77236,-2.44067 h 6.58053 c 0.0309,-0.24716 0.0618,-0.49431 0.0618,-0.74147 0.0309,-0.24715 0.0309,-0.43252 0.0309,-0.64878 0,-0.77237 -0.12358,-1.39026 -0.33984,-1.88457 -0.21626,-0.46342 -0.52521,-0.83415 -0.89594,-1.14309 -0.37073,-0.24716 -0.77236,-0.43253 -1.23578,-0.55611 -0.46342,-0.0927 -0.89594,-0.12357 -1.35936,-0.12357 -1.45204,0 -2.56424,0.40162 -3.33661,1.23578 -0.77236,0.83415 -1.17399,2.06993 -1.17399,3.64555 0,0.74147 0.0927,1.39025 0.27805,2.00814 0.15448,0.587 0.43253,1.1122 0.80326,1.51383 0.37074,0.43253 0.83415,0.74147 1.39025,0.98863 0.587,0.21626 1.23578,0.33984 2.00815,0.33984 0.74147,0 1.39025,-0.0927 2.00814,-0.27805 0.587,-0.18537 1.1122,-0.43253 1.51383,-0.71058 z m -5.65369,-3.58376 c 0.0927,-0.92684 0.37073,-1.60652 0.83415,-1.97725 0.49431,-0.40163 1.14309,-0.587 1.94635,-0.587 0.74147,0 1.29757,0.18537 1.73009,0.587 0.40163,0.37073 0.5561,1.05041 0.5561,1.97725 z m 0,0"
     id="path1148" />
  <path
     style="fill:#7a7878;fill-opacity:1;stroke:none;stroke-width:1.97725"
     d="m 266.52268,135.79496 h 1.60652 v -9.23746 h -1.60652 z m -0.0309,-10.72039 c 0.21626,0.21626 0.49431,0.30894 0.83415,0.30894 0.33984,0 0.61789,-0.0927 0.83415,-0.30894 0.24716,-0.18537 0.33984,-0.43253 0.33984,-0.71058 0,-0.24715 -0.0927,-0.49431 -0.33984,-0.74147 -0.21626,-0.21626 -0.49431,-0.30894 -0.83415,-0.30894 -0.33984,0 -0.61789,0.0927 -0.83415,0.30894 -0.21626,0.24716 -0.30895,0.49432 -0.30895,0.74147 0,0.27805 0.0927,0.52521 0.30895,0.71058 z m 0,0"
     id="path1152" />
  <path
     style="fill:#7a7878;fill-opacity:1;stroke:none;stroke-width:1.97725"
     d="m 270.52183,127.94776 h 1.54473 v 5.25206 c 0,0.98863 0.18537,1.73009 0.52521,2.16262 0.33983,0.46341 0.92683,0.67968 1.76098,0.67968 0.49431,0 0.92684,-0.0618 1.39025,-0.18537 0.40163,-0.0927 0.80326,-0.24716 1.174,-0.40163 l -0.37074,-1.1431 c -0.27805,0.12358 -0.5561,0.18537 -0.80326,0.24716 -0.24715,0.0618 -0.49431,0.12358 -0.80325,0.12358 -0.46342,0 -0.77236,-0.18537 -0.95773,-0.46342 -0.21626,-0.30894 -0.27805,-0.83415 -0.27805,-1.57562 v -4.69596 h 2.7805 v -1.39026 h -2.7805 v -2.28619 l -1.63741,0.43252 v 1.85367 h -1.54473 z m 0,0"
     id="path1156" />
  <path
     style="fill:#7a7878;fill-opacity:1;stroke:none;stroke-width:1.97725"
     d=""
     id="path1160" />
  <path
     style="fill:#7a7878;fill-opacity:1;stroke:none;stroke-width:1.97725"
     d="m 283.87388,126.5575 v 5.46833 c 0,0.77236 0.0618,1.42115 0.21626,1.91546 0.12357,0.52521 0.33984,0.92683 0.61789,1.23578 0.24715,0.30894 0.61789,0.5561 1.01952,0.67968 0.40162,0.12358 0.86504,0.18537 1.39025,0.18537 0.83415,0 1.48294,-0.15448 2.03904,-0.49432 0.5252,-0.33984 0.95773,-0.74146 1.26667,-1.29757 h 0.15447 l 0.43253,1.54473 h 1.0813 c -0.0618,-0.37073 -0.12357,-0.80326 -0.15447,-1.26667 -0.0309,-0.46342 -0.0309,-0.92684 -0.0309,-1.35936 v -6.61143 h -1.63741 v 6.02443 c -0.21626,0.587 -0.587,1.08131 -1.01952,1.48294 -0.43252,0.40163 -1.01952,0.61789 -1.73009,0.61789 -0.40163,0 -0.71058,-0.0927 -0.98863,-0.21626 -0.27805,-0.12358 -0.46341,-0.30895 -0.61789,-0.587 -0.18536,-0.24716 -0.27805,-0.5561 -0.33984,-0.92683 -0.0309,-0.37074 -0.0927,-0.80326 -0.0927,-1.29757 v -5.0976 z m 0,0"
     id="path1164" />
  <path
     style="fill:#7a7878;fill-opacity:1;stroke:none;stroke-width:1.97725"
     d="m 303.38635,135.79496 v -5.43743 c 0,-0.77237 -0.0927,-1.45205 -0.21626,-1.97725 -0.15447,-0.52521 -0.37074,-0.92684 -0.61789,-1.26668 -0.27805,-0.27805 -0.64879,-0.5252 -1.05042,-0.64878 -0.40162,-0.12358 -0.86504,-0.15447 -1.42114,-0.15447 -0.74147,0 -1.39026,0.12357 -1.94636,0.40162 -0.5561,0.30895 -0.98862,0.64879 -1.32846,1.08131 h -0.15447 l -0.33984,-1.23578 h -1.1122 v 9.23746 h 1.60651 v -6.08622 c 0.21626,-0.58699 0.52521,-1.05041 1.01952,-1.42115 0.46342,-0.37073 1.05041,-0.5561 1.76099,-0.5561 0.80325,0 1.39025,0.24716 1.69919,0.74147 0.30895,0.49431 0.46342,1.23578 0.46342,2.22441 v 5.09759 z m 0,0"
     id="path1168" />
  <path
     style="fill:#7a7878;fill-opacity:1;stroke:none;stroke-width:1.97725"
     d="m 314.38093,123.49895 h -1.60652 v 3.21302 c -0.18536,-0.0618 -0.33983,-0.0927 -0.49431,-0.15447 -0.15447,-0.0309 -0.33984,-0.0927 -0.49431,-0.0927 -0.18537,-0.0309 -0.33984,-0.0618 -0.5561,-0.0618 -0.18537,-0.0309 -0.40163,-0.0309 -0.64879,-0.0309 -1.48293,0 -2.59513,0.43252 -3.39839,1.23578 -0.80326,0.86504 -1.20489,2.06993 -1.20489,3.64555 0,1.63741 0.33984,2.8114 0.98863,3.61465 0.64878,0.77237 1.63741,1.174 2.96587,1.174 0.67968,0 1.29757,-0.15448 1.82278,-0.46342 0.49431,-0.30895 0.89594,-0.67968 1.17399,-1.1431 h 0.18536 l 0.40163,1.39025 h 1.05042 c -0.0618,-0.49431 -0.12358,-1.01951 -0.15448,-1.54472 0,-0.49431 -0.0309,-1.08131 -0.0309,-1.6683 z m -1.60652,9.05209 c -0.15447,0.67968 -0.46341,1.23578 -0.86504,1.57562 -0.40163,0.37073 -0.95773,0.5561 -1.6683,0.5561 -0.49432,0 -0.89595,-0.0927 -1.20489,-0.27805 -0.33984,-0.15448 -0.61789,-0.40163 -0.83415,-0.71058 -0.18537,-0.27805 -0.33984,-0.64878 -0.43253,-1.0813 -0.0927,-0.40163 -0.12357,-0.86505 -0.12357,-1.35936 0,-1.23578 0.24715,-2.13172 0.77236,-2.68782 0.52521,-0.52521 1.26667,-0.83416 2.2244,-0.83416 0.52521,0 0.92684,0.0618 1.23578,0.12358 0.33984,0.0927 0.61789,0.21626 0.89594,0.40163 z m 0,0"
     id="path1172" />
  <path
     style="fill:#7a7878;fill-opacity:1;stroke:none;stroke-width:1.97725"
     d=""
     id="path1176" />
  <path
     style="fill:#7a7878;fill-opacity:1;stroke:none;stroke-width:1.97725"
     d="m 333.03168,135.79496 h 1.76099 v -12.29601 h -1.39026 l -3.95449,6.24069 -0.61789,1.35935 h -0.0309 l -0.64878,-1.32846 -4.17076,-6.27158 h -1.29757 v 12.29601 h 1.63741 v -7.93989 l -0.27805,-1.94635 h 0.0927 l 0.71058,1.6683 3.61465,5.46833 h 0.52521 l 3.42929,-5.43743 0.74147,-1.6992 h 0.0927 l -0.21626,1.94635 z m 0,0"
     id="path1180" />
  <path
     style="fill:#7a7878;fill-opacity:1;stroke:none;stroke-width:1.97725"
     d="m 344.80527,133.81771 c -0.24716,0.21626 -0.587,0.43252 -1.01952,0.587 -0.46342,0.18536 -0.92683,0.27805 -1.42115,0.27805 -1.17399,0 -2.00814,-0.30895 -2.50245,-0.83415 -0.49431,-0.55611 -0.77236,-1.39026 -0.77236,-2.44067 h 6.58053 c 0.0309,-0.24716 0.0618,-0.49431 0.0618,-0.74147 0.0309,-0.24715 0.0309,-0.43252 0.0309,-0.64878 0,-0.77237 -0.12358,-1.39026 -0.33984,-1.88457 -0.21626,-0.46342 -0.52521,-0.83415 -0.89594,-1.14309 -0.37073,-0.24716 -0.77236,-0.43253 -1.23578,-0.55611 -0.46342,-0.0927 -0.89594,-0.12357 -1.35936,-0.12357 -1.45204,0 -2.56424,0.40162 -3.33661,1.23578 -0.77236,0.83415 -1.17399,2.06993 -1.17399,3.64555 0,0.74147 0.0927,1.39025 0.27805,2.00814 0.15448,0.587 0.43253,1.1122 0.80326,1.51383 0.37074,0.43253 0.83415,0.74147 1.39025,0.98863 0.587,0.21626 1.23578,0.33984 2.00815,0.33984 0.74147,0 1.39025,-0.0927 2.00814,-0.27805 0.587,-0.18537 1.1122,-0.43253 1.51383,-0.71058 z m -5.65369,-3.58376 c 0.0927,-0.92684 0.37073,-1.60652 0.83415,-1.97725 0.49431,-0.40163 1.14309,-0.587 1.94635,-0.587 0.74147,0 1.29757,0.18537 1.73009,0.587 0.40163,0.37073 0.5561,1.05041 0.5561,1.97725 z m 0,0"
     id="path1184" />
  <path
     style="fill:#7a7878;fill-opacity:1;stroke:none;stroke-width:1.97725"
     d="m 356.34123,123.49895 h -1.60652 v 3.21302 c -0.18536,-0.0618 -0.33983,-0.0927 -0.49431,-0.15447 -0.15447,-0.0309 -0.33984,-0.0927 -0.49431,-0.0927 -0.18537,-0.0309 -0.33984,-0.0618 -0.5561,-0.0618 -0.18537,-0.0309 -0.40163,-0.0309 -0.64879,-0.0309 -1.48293,0 -2.59513,0.43252 -3.39839,1.23578 -0.80326,0.86504 -1.20489,2.06993 -1.20489,3.64555 0,1.63741 0.33984,2.8114 0.98863,3.61465 0.64878,0.77237 1.63741,1.174 2.96587,1.174 0.67968,0 1.29757,-0.15448 1.82278,-0.46342 0.49431,-0.30895 0.89594,-0.67968 1.17399,-1.1431 h 0.18536 l 0.40163,1.39025 h 1.05042 c -0.0618,-0.49431 -0.12358,-1.01951 -0.15448,-1.54472 0,-0.49431 -0.0309,-1.08131 -0.0309,-1.6683 z m -1.60652,9.05209 c -0.15447,0.67968 -0.46341,1.23578 -0.86504,1.57562 -0.40163,0.37073 -0.95773,0.5561 -1.6683,0.5561 -0.49432,0 -0.89595,-0.0927 -1.20489,-0.27805 -0.33984,-0.15448 -0.61789,-0.40163 -0.83415,-0.71058 -0.18537,-0.27805 -0.33984,-0.64878 -0.43253,-1.0813 -0.0927,-0.40163 -0.12357,-0.86505 -0.12357,-1.35936 0,-1.23578 0.24715,-2.13172 0.77236,-2.68782 0.52521,-0.52521 1.26667,-0.83416 2.2244,-0.83416 0.52521,0 0.92684,0.0618 1.23578,0.12358 0.33984,0.0927 0.61789,0.21626 0.89594,0.40163 z m 0,0"
     id="path1188" />
  <path
     style="fill:#7a7878;fill-opacity:1;stroke:none;stroke-width:1.97725"
     d="m 359.95733,135.79496 h 1.60652 v -9.23746 h -1.60652 z m -0.0309,-10.72039 c 0.21626,0.21626 0.49431,0.30894 0.83415,0.30894 0.33984,0 0.61789,-0.0927 0.83415,-0.30894 0.24716,-0.18537 0.33984,-0.43253 0.33984,-0.71058 0,-0.24715 -0.0927,-0.49431 -0.33984,-0.74147 -0.21626,-0.21626 -0.49431,-0.30894 -0.83415,-0.30894 -0.33984,0 -0.61789,0.0927 -0.83415,0.30894 -0.21626,0.24716 -0.30895,0.49432 -0.30895,0.74147 0,0.27805 0.0927,0.52521 0.30895,0.71058 z m 0,0"
     id="path1192" />
  <path
     style="fill:#7a7878;fill-opacity:1;stroke:none;stroke-width:1.97725"
     d="m 364.35811,135.79496 h 7.26021 v -1.35936 h -5.83906 l 1.23578,-0.86504 4.60328,-5.6228 v -1.39026 h -7.26021 v 1.39026 h 5.80817 l -1.23578,0.89594 -4.57239,5.56101 z m 0,0"
     id="path1196" />
  <path
     style="fill:#7a7878;fill-opacity:1;stroke:none;stroke-width:1.97725"
     d="m 374.5889,135.79496 h 1.60652 v -9.23746 h -1.60652 z m -0.0309,-10.72039 c 0.21626,0.21626 0.49431,0.30894 0.83415,0.30894 0.33984,0 0.61789,-0.0927 0.83415,-0.30894 0.24716,-0.18537 0.33984,-0.43253 0.33984,-0.71058 0,-0.24715 -0.0927,-0.49431 -0.33984,-0.74147 -0.21626,-0.21626 -0.49431,-0.30894 -0.83415,-0.30894 -0.33984,0 -0.61789,0.0927 -0.83415,0.30894 -0.21626,0.24716 -0.30895,0.49432 -0.30895,0.74147 0,0.27805 0.0927,0.52521 0.30895,0.71058 z m 0,0"
     id="path1200" />
  <path
     style="fill:#7a7878;fill-opacity:1;stroke:none;stroke-width:1.97725"
     d="m 387.88729,135.79496 v -5.43743 c 0,-0.77237 -0.0927,-1.45205 -0.21626,-1.97725 -0.15447,-0.52521 -0.37074,-0.92684 -0.61789,-1.26668 -0.27805,-0.27805 -0.64879,-0.5252 -1.05042,-0.64878 -0.40162,-0.12358 -0.86504,-0.15447 -1.42114,-0.15447 -0.74147,0 -1.39026,0.12357 -1.94636,0.40162 -0.5561,0.30895 -0.98862,0.64879 -1.32846,1.08131 h -0.15447 l -0.33984,-1.23578 h -1.1122 v 9.23746 h 1.60651 v -6.08622 c 0.21626,-0.58699 0.52521,-1.05041 1.01952,-1.42115 0.46342,-0.37073 1.05041,-0.5561 1.76099,-0.5561 0.80325,0 1.39025,0.24716 1.69919,0.74147 0.30895,0.49431 0.46342,1.23578 0.46342,2.22441 v 5.09759 z m 0,0"
     id="path1204" />
  <path
     style="fill:#7a7878;fill-opacity:1;stroke:none;stroke-width:1.97725"
     d="m 49.80194,136.39259 h 8.4342 V 77.322286 H 51.56293 L 32.5937,107.25907 29.62783,113.87049 H 29.47335 L 26.35301,107.44444 6.33337,77.322286 H 0 V 136.39259 H 7.93988 V 98.237866 l -1.35935,-9.26835 h 0.43252 l 3.46018,8.00168 17.30093,26.260334 h 2.53335 l 16.46677,-26.167654 3.61466,-8.18704 h 0.33984 l -0.92684,9.45372 z m 0,0"
     id="path1208" />
  <path
     style="fill:#7a7878;fill-opacity:1;stroke:none;stroke-width:1.97725"
     d="m 160.05683,83.810136 c -1.35936,-1.85367 -3.05856,-3.30571 -5.15938,-4.38702 -2.10083,-1.1122 -4.38702,-1.85367 -6.92037,-2.2862 -2.62604,-0.43252 -5.0667,-0.58699 -7.50737,-0.58699 -3.55287,0 -6.82768,0.0927 -9.97892,0.33984 -3.12035,0.24715 -5.80817,0.49431 -8.09436,0.92683 v 58.143474 c 1.26667,0.27805 2.71871,0.5252 4.29433,0.58699 1.60652,0.18537 3.21303,0.27805 4.81955,0.33984 1.60651,0.0927 3.12034,0.18537 4.57238,0.18537 1.42115,0.0927 2.68782,0.0927 3.70734,0.0927 2.96588,0 5.80817,-0.33984 8.77404,-1.01952 2.87319,-0.67968 5.49923,-1.79188 7.75452,-3.21302 2.2862,-1.42115 4.13987,-3.21303 5.59191,-5.49923 1.42115,-2.19351 2.10083,-4.78865 2.10083,-7.8472 0,-2.2553 -0.43253,-4.29434 -1.17399,-5.99354 -0.77237,-1.6683 -1.85367,-3.12034 -3.12035,-4.29433 -1.26667,-1.17399 -2.7805,-2.10083 -4.4797,-2.78051 -1.6992,-0.67968 -3.46019,-1.1122 -5.22117,-1.35936 v -0.33984 c 2.10082,-0.40163 3.86181,-1.17399 5.37564,-2.10082 1.54473,-0.92684 2.8114,-2.10083 3.80002,-3.367504 0.92684,-1.26668 1.6992,-2.62604 2.19351,-4.04719 0.43253,-1.45204 0.67968,-2.87318 0.67968,-4.32523 0,-2.93497 -0.67968,-5.31385 -2.00814,-7.16752 z m -29.2262,25.920494 h 7.8472 c 1.94636,0 3.89271,0.0618 5.83906,0.33984 1.94636,0.15448 3.70734,0.58699 5.22117,1.32846 1.60652,0.67968 2.87319,1.6992 3.89271,3.05856 0.92684,1.32846 1.42115,3.12034 1.42115,5.40654 0,1.76099 -0.40163,3.3675 -1.17399,4.63417 -0.83415,1.35936 -1.94636,2.44067 -3.27482,3.27482 -1.35936,0.86505 -2.87319,1.45204 -4.66507,1.85367 -1.76099,0.43253 -3.52197,0.61789 -5.46833,0.61789 -0.77236,0 -1.60651,0 -2.53335,-0.0927 -0.92683,0 -1.85367,0 -2.7805,-0.0927 -0.92684,-0.0927 -1.79188,-0.0927 -2.53335,-0.15448 -0.77237,-0.0927 -1.35936,-0.18536 -1.79188,-0.27805 z m 0,-6.58053 V 83.902816 c 0.86504,-0.0927 2.13172,-0.18537 3.73823,-0.24715 1.6683,-0.0927 3.46019,-0.18537 5.46833,-0.18537 1.60651,0 3.21303,0.0927 4.72686,0.33984 1.60651,0.24715 3.02766,0.67968 4.23255,1.26667 1.26667,0.67968 2.2553,1.51383 3.02766,2.68782 0.77236,1.20489 1.1122,2.71872 1.1122,4.66508 0,1.42114 -0.27805,2.68782 -0.86505,3.80002 -0.58699,1.08131 -1.32846,2.00814 -2.25529,2.84229 -0.95773,0.86505 -2.03904,1.544734 -3.30572,2.131734 -1.26667,0.58699 -2.62603,1.0813 -4.04718,1.51383 -0.92683,0.0927 -2.10082,0.15448 -3.46018,0.24715 -1.45204,0.0927 -2.71872,0.18537 -3.70734,0.18537 z m 0,0"
     id="path1212" />
  <path
     style="fill:#e1173f;fill-opacity:1;stroke:none;stroke-width:1.97725"
     d="m 106.78366,86.848256 c 0,-0.83415 0,-3.30571 0.15448,-7.26021 -5.71548,-1.94635 -10.72039,-2.96587 -14.76757,-2.96587 -3.3675,0 -6.58053,0.77236 -9.79356,2.28619 -3.12034,1.45205 -5.46833,3.46019 -7.07484,6.08622 -1.60652,2.53335 -2.44067,5.22117 -2.44067,8.09436 0,3.21303 0.98863,6.08622 3.02766,8.372414 1.94636,2.34799 5.99354,4.88134 11.89439,7.41469 5.99353,2.62603 9.88624,4.88133 11.64723,6.92037 1.79188,2.03903 2.62603,4.4797 2.62603,7.10573 0,3.27482 -1.17399,5.80817 -3.64555,7.66184 -2.44067,1.79188 -5.31385,2.71872 -8.49599,2.71872 -2.37888,0 -4.57239,-0.52521 -6.51874,-1.60652 -2.00814,-1.01952 -3.46019,-2.47156 -4.4797,-4.04718 -0.92684,-1.6992 -1.85367,-4.57238 -2.78051,-8.71225 h -3.21303 c 0,6.42606 -0.15447,11.55455 -0.58699,15.44726 3.64555,1.17399 6.76589,2.03903 9.39193,2.53335 2.50245,0.49431 5.12848,0.77236 7.75452,0.77236 3.80002,0 7.35289,-0.86505 10.62771,-2.47156 3.21303,-1.57562 5.74638,-3.70734 7.35289,-6.39517 1.60652,-2.71871 2.44067,-5.5919 2.44067,-8.71225 0,-3.52197 -1.1122,-6.64232 -3.30571,-9.45372 -2.19351,-2.7805 -6.30248,-5.46832 -12.3887,-8.09436 -6.08622,-2.626034 -9.97893,-4.819544 -11.49276,-6.487844 -1.60651,-1.79189 -2.34798,-3.70735 -2.34798,-5.99354 0,-2.62603 0.92683,-4.81954 2.87319,-6.67321 1.94635,-1.76099 4.54149,-2.68782 7.8472,-2.68782 2.2862,0 4.29434,0.40162 6.14801,1.32846 1.85367,0.92683 3.30571,2.19351 4.13986,3.89271 0.92684,1.60651 1.76099,4.13986 2.44067,7.69273 h 3.12034 c -0.15448,-2.87319 -0.15448,-5.15938 -0.15448,-6.7659 z m 0,0"
     id="path1272" />
  <path
     style="fill:none;stroke:#e1173f;stroke-width:0.438949;stroke-linecap:butt;stroke-linejoin:miter;stroke-miterlimit:10;stroke-opacity:1"
     d="m 106.75559,86.844466 c 0,-0.83416 0,-3.30573 0.15443,-7.26022 -5.7155,-1.94635 -10.72041,-2.96587 -14.76758,-2.96587 -3.36751,0 -6.58054,0.77237 -9.79357,2.28619 -3.12033,1.45205 -5.46831,3.46018 -7.07483,6.08623 -1.60651,2.53335 -2.44068,5.22116 -2.44068,8.09436 0,3.21303 0.98863,6.08621 3.02767,8.372404 1.94636,2.34798 5.99353,4.88133 11.89439,7.41468 5.99354,2.62604 9.88624,4.88133 11.64722,6.92037 1.79188,2.03904 2.62604,4.47971 2.62604,7.10574 0,3.27482 -1.17399,5.80816 -3.64555,7.66184 -2.44067,1.79188 -5.31385,2.71871 -8.496,2.71871 -2.37886,0 -4.57238,-0.52519 -6.51873,-1.60651 -2.00815,-1.01951 -3.46018,-2.47156 -4.47971,-4.04717 -0.92684,-1.69921 -1.85367,-4.57239 -2.78051,-8.71225 h -3.21303 c 0,6.42605 -0.15442,11.55454 -0.58698,15.44725 3.64555,1.17399 6.76589,2.03904 9.39193,2.53335 2.50244,0.49431 5.12849,0.77235 7.75451,0.77235 3.80003,0 7.35289,-0.86504 10.62771,-2.47156 3.21303,-1.57561 5.74638,-3.70734 7.35289,-6.39515 1.60652,-2.71872 2.44068,-5.59192 2.44068,-8.71225 0,-3.52198 -1.1122,-6.64233 -3.30572,-9.45372 -2.1935,-2.78051 -6.30248,-5.46834 -12.38869,-8.09436 -6.08623,-2.626054 -9.97894,-4.819554 -11.49276,-6.487854 -1.60651,-1.79188 -2.34798,-3.70734 -2.34798,-5.99353 0,-2.62605 0.92684,-4.81955 2.87318,-6.67322 1.94636,-1.76099 4.5415,-2.68783 7.8472,-2.68783 2.2862,0 4.29435,0.40164 6.14802,1.32847 1.85367,0.92684 3.3057,2.1935 4.13987,3.89271 0.92683,1.60652 1.76097,4.13987 2.44065,7.69272 h 3.12036 c -0.15443,-2.87318 -0.15443,-5.15937 -0.15443,-6.76588 z m 0,0"
     id="path400" />
  <path
     style="fill:#7a7878;fill-opacity:1;fill-rule:nonzero;stroke:none;stroke-width:1.97725"
     d="m 123.74757,10.002097 h 10.00209 V 0 h -10.00209 z m 0,0"
     id="path402" />
  <path
     style="fill:#7a7878;fill-opacity:1;fill-rule:nonzero;stroke:none;stroke-width:1.97725"
     d="M 133.74966,60.01258 H 123.74757 V 50.010483 h 10.00209 z m 0,0"
     id="path404" />
  <path
     style="fill:#e1173f;fill-opacity:1;fill-rule:nonzero;stroke:none;stroke-width:1.97725"
     d="M 133.74966,35.003477 H 123.74757 V 25.00138 h 10.00209 z m 0,0"
     id="path406" />
  <path
     style="fill:#7a7878;fill-opacity:1;fill-rule:nonzero;stroke:none;stroke-width:1.97725"
     d="M 159.92505,35.003477 H 149.92294 V 25.00138 h 10.00211 z m 0,0"
     id="path408" />
  <path
     style="fill:#7a7878;fill-opacity:1;fill-rule:nonzero;stroke:none;stroke-width:1.97725"
     d="M 107.24217,35.003477 H 97.24009 V 25.00138 h 10.00208 z m 0,0"
     id="path410" />
</svg>
